<?xml version="1.0" encoding="utf-8"?>
<!-- Generator: Adobe Illustrator 22.1.0, SVG Export Plug-In . SVG Version: 6.00 Build 0)  -->
<svg version="1.1" id="Capa_1" xmlns="http://www.w3.org/2000/svg" xmlns:xlink="http://www.w3.org/1999/xlink" x="0px" y="0px"
	 viewBox="0 0 417.5 527.3" style="enable-background:new 0 0 417.5 527.3;" xml:space="preserve">
<style type="text/css">
	.st0{fill:#2BBC0D;}
	.st1{fill:#BAE8E8;}
</style>
<g>
	<path class="st0" d="M241.4,221.3c-5.4,0.7-9.3,2.2-13.8,3.5c-3.8,1.5-7.6,2.8-11.5,4.3c-3.8,1.5-6.9,2.8-10.7,5
		c-3.8,1.5-7.6,2.8-11.5,4.3c-3.8,1.5-8.4,2.8-13.8,3.5c-7.6,1.5-16.2,2.2-26.9,2.2c-21.4,0-35.3-3.5-46.9-7.8
		c-3.8-1.5-7.6-2.8-10.7-5c-3.8-1.5-6.9-2.8-10.7-5c-7.6-2.8-16.2-5.7-27.6-7.2c-3.1,0-6.2-0.7-9.3-0.7c-3.1,0-6.9,0-10,0l0,0h-0.7
		L78.7,502c1.5,10.7,11.5,18.5,23.1,18.5h216.4c11.5,0,21.4-7.8,23.1-18.5l37.5-257.1c-52.2-1.5-54.5-25.7-109.7-25.7
		C257.4,219.2,249,219.9,241.4,221.3z"/>
	<g>
		<g>
			<path d="M325.4,387.3c-5.3-2.9-15.3-2.8-23.5-2l-19.8-17c2-1.4,3.6-3.4,4.2-6c0,0,4.3-8.4-6.4-19.1c0,0-2.8-10.4,0.6-21.4
				c3.1-9.8,4-25-1.6-39.2l22.9-19.6c8.2,0.7,18.2,0.9,23.6-2c1.4-0.6,2.6-1.4,3.8-2.4c4-3.4,5.3-8.3,3.8-12.7
				c-0.7-2-1.9-3.9-3.8-5.5c-3.3-2.8-7.7-4-12-3.7c0.4-3.7-1.1-7.5-4.3-10.3c-1.9-1.6-4.1-2.7-6.4-3.3c-5.1-1.3-10.8-0.2-14.8,3.3
				c-1.2,1-2,2.1-2.8,3.3c-3.4,4.5-3.2,13.1-2.4,20.1L268,265.7c-3.5-3.6-7.6-6.8-12.6-9.6c-9.6-5.3-20.5-9.8-44-10.1
				c-15-0.2-36.6,2.2-52.7,16.7l-15-12.9c0.9-7.1,1-15.6-2.4-20.2c-0.7-1.2-1.6-2.3-2.8-3.2c-4-3.4-9.7-4.5-14.8-3.3
				c-2.4,0.6-4.6,1.7-6.4,3.3c-3.3,2.8-4.7,6.6-4.3,10.3c-4.3-0.3-8.7,0.9-12,3.7c-1.8,1.6-3.1,3.5-3.8,5.5
				c-1.5,4.3-0.2,9.2,3.8,12.7c1.2,1,2.4,1.8,3.8,2.3c5.3,2.9,15.3,2.8,23.5,2l18.1,15.5c-1.6,2.9-3.1,6-4.3,9.5
				c0,0-6.5,19,3.5,45.4c0,0,1,7.7-5.1,13.2c-4.9,4.4-9.6,18.4,5.5,23.8l-17.6,15.1c-8.2-0.7-18.2-0.9-23.5,2
				c-1.4,0.6-2.7,1.4-3.8,2.3c-4,3.4-5.3,8.3-3.8,12.7c0.7,2,1.9,3.9,3.8,5.5c3.3,2.8,7.7,4,12,3.7c-0.4,3.7,1.1,7.5,4.3,10.3
				c1.9,1.6,4.1,2.7,6.5,3.2c5.1,1.3,10.8,0.2,14.8-3.2c1.1-1,2-2.1,2.7-3.3c3.4-4.5,3.2-13.1,2.4-20.1l27.3-23.4
				c1.9,2.9,4,8.7,5.2,20.4c0,0,0.7,8.4,9.2,7c0,0,4.4-0.2,5.1-16c0,0,4.9-4,4.6,5.5c0,0-1.3,11,6.9,10.3c0,0,4.6,2.4,6.4-9.7
				c0,0,0-10.5,4.4-6.6c0,0,1.3,15.4,6.4,16.9c0,0,7.4,2,8.7-6.4c0,0,0-13.4,4.1-11c0,0,1.5,0.9,1.8,9c0,0-0.2,8.6,6.2,8.1
				c0,0,6.7,0,8.5-13.2c0,0-1.1-14.8,7.5-17.2l30.5,26.1c-0.9,7-1,15.6,2.4,20.1c0.7,1.2,1.6,2.3,2.7,3.3c4,3.4,9.7,4.5,14.8,3.3
				c2.3-0.6,4.6-1.7,6.4-3.3c3.3-2.8,4.7-6.6,4.3-10.3c4.3,0.3,8.7-0.9,12-3.7c1.9-1.6,3.1-3.5,3.8-5.5c1.5-4.4,0.2-9.2-3.8-12.7
				C328.1,388.7,326.8,387.9,325.4,387.3z M174.7,355c-2.9-0.5-5.6-1.4-8-2.6c-7.7-3.9-12.1-10.8-10.5-17.7
				c2.2-9.1,13.9-14.7,26.3-12.6c5.2,0.9,9.5,3.1,12.8,5.9c4.6,3.9,6.9,9.2,5.7,14.5C198.8,351.5,187.1,357.2,174.7,355z M219,367.1
				c-0.9,0.5-1.9,0.9-3,0.9c-1.9,0-3.6-1-4.7-2.6c-1.1,1.6-2.8,2.6-4.7,2.6c-1.1,0-2.1-0.3-3-0.9c-1.9-1.2-3.2-3.5-3.2-6.2
				c0-0.8,0.1-1.5,0.3-2.2c1.1-5.4,10.6-12.3,10.6-12.3s9.5,6.8,10.5,12.3c0.2,0.7,0.3,1.4,0.3,2.2
				C222.2,363.6,220.9,365.9,219,367.1z M259.9,349.4c-3.2,2.7-7.5,4.8-12.6,5.6c-4.1,0.7-8.2,0.5-11.9-0.4
				c-7.3-1.7-13-6.2-14.4-12.2l0-0.1c-1.6-6.8,2.7-13.6,10.2-17.5c2.4-1.3,5.2-2.2,8.3-2.8c12.3-2.2,24.1,3.5,26.2,12.6
				C267,340,264.6,345.4,259.9,349.4z"/>
		</g>
	</g>
	<path class="st1" d="M27.2,9.6C17.9,9.6,11,18,11.9,27.2l25.3,189.2h0.7l0,0c3.8,0,6.9,0,10,0s6.2,0.7,9.3,0.7
		c11.5,1.5,20,4.5,27.6,7.6c3.8,1.5,7.6,3.1,10.7,5.4c3.8,1.5,6.9,3.1,10.7,5.4c11.5,4.5,25.3,8.4,46.9,8.4
		c10.7,0,19.2-0.7,26.9-2.3c5.4-0.7,9.3-2.3,13.8-3.8c3.8-1.5,7.6-3.1,11.5-4.5c3.8-1.5,6.9-3.1,10.7-5.4c3.8-1.5,7.6-3.1,11.5-4.5
		c3.8-1.5,8.4-3.1,13.8-3.8c7.6-1.5,16.2-2.3,26.9-2.3c56,0,57.6,26.1,109.7,27.6l29.2-216.9c1.5-9.2-6.2-17.6-15.3-17.6H27.2V9.6z"
		/>
</g>
</svg>
