<?xml version="1.0" encoding="utf-8"?>
<!-- Generator: Adobe Illustrator 22.1.0, SVG Export Plug-In . SVG Version: 6.00 Build 0)  -->
<svg version="1.1" id="Capa_1" xmlns="http://www.w3.org/2000/svg" xmlns:xlink="http://www.w3.org/1999/xlink" x="0px" y="0px"
	 viewBox="0 0 417.5 527.3" style="enable-background:new 0 0 417.5 527.3;" xml:space="preserve">
<style type="text/css">
	.st0{fill:#BAE8E8;}
	.st1{fill:#32D61A;}
</style>
<g>
	<path class="st0" d="M27.5,8.2c-9.1,0-15.9,8.8-15.2,18.5l25,198.6h0.8l0,0c3.8,0,6.8,0,9.8,0s6.1,0.8,9.1,0.8
		c11.4,1.6,19.7,4.8,27.3,8c3.8,1.6,7.6,3.2,10.6,5.6c3.8,1.6,6.8,3.2,10.6,5.6c11.4,4.8,25,8.8,46.2,8.8c10.6,0,18.9-0.8,26.5-2.4
		c5.3-0.8,9.1-2.4,13.6-4c3.8-1.6,7.6-3.2,11.4-4.8s6.8-3.2,10.6-5.6c3.8-1.6,7.6-3.2,11.4-4.8c3.8-1.6,8.3-3.2,13.6-4
		c7.6-1.6,15.9-2.4,26.5-2.4c55.3,0,56.8,27.3,108.3,28.9l28.8-227.6C404,17.9,396.5,9,387.4,9H27.5V8.2z"/>
	<path class="st1" d="M239.1,106.6c-5.7,1-9.7,2.9-14.6,4.9c-4.1,2-8.1,3.9-12.2,5.9c-4.1,2-7.3,3.9-11.4,6.9
		c-4.1,2-8.1,3.9-12.2,5.9c-4.1,2-8.9,3.9-14.6,4.9c-8.1,2-17,2.9-28.4,2.9c-22.7,0-37.3-4.9-49.5-10.8c-4.1-2-8.1-3.9-11.4-6.9
		c-4.1-2-7.3-3.9-11.4-6.9c-8.1-3.9-17-7.9-29.2-9.8c-3.2,0-6.5-1-9.7-1c-3.2,0-7.3,0-10.6,0l0,0h-0.8l43.8,390.8
		c1.6,14.7,12.2,25.5,24.3,25.5h228.9c12.2,0,22.7-10.8,24.3-25.5L384.4,139c-55.2-2-57.6-35.4-116.1-35.4
		C256.2,103.7,247.2,104.6,239.1,106.6z"/>
	<g>
		<g>
			<path d="M328,374c-5.2-2.9-15-2.8-23-2l-19.4-17c2-1.4,3.5-3.4,4.1-6c0,0,4.2-8.4-6.2-19.1c0,0-2.8-10.4,0.6-21.4
				c3-9.8,3.9-25-1.6-39.2l22.5-19.6c8.1,0.7,17.9,0.9,23.1-2c1.3-0.6,2.6-1.4,3.7-2.4c3.9-3.4,5.2-8.3,3.7-12.7
				c-0.7-2-1.9-3.9-3.7-5.5c-3.2-2.8-7.5-4-11.8-3.7c0.4-3.7-1-7.5-4.2-10.3c-1.8-1.6-4-2.7-6.3-3.3c-5-1.3-10.6-0.2-14.5,3.3
				c-1.1,1-2,2.1-2.7,3.3c-3.3,4.5-3.2,13.1-2.3,20.1l-18.2,15.8c-3.4-3.6-7.4-6.8-12.4-9.6c-9.4-5.3-20.1-9.8-43.1-10.1
				c-14.6-0.2-35.8,2.2-51.7,16.7L150,236.6c0.8-7.1,1-15.6-2.3-20.2c-0.7-1.2-1.6-2.3-2.7-3.2c-3.9-3.4-9.5-4.5-14.5-3.3
				c-2.3,0.6-4.5,1.7-6.3,3.3c-3.2,2.8-4.6,6.6-4.2,10.3c-4.2-0.3-8.5,0.9-11.8,3.7c-1.8,1.6-3.1,3.5-3.7,5.5
				c-1.4,4.3-0.2,9.2,3.7,12.7c1.1,1,2.4,1.8,3.7,2.3c5.2,2.9,15,2.8,23,2l17.7,15.5c-1.6,2.9-3,6-4.2,9.5c0,0-6.4,19,3.4,45.4
				c0,0,0.9,7.7-5,13.2c-4.8,4.4-9.4,18.4,5.4,23.8L135,372c-8.1-0.7-17.9-0.9-23,2c-1.3,0.6-2.6,1.4-3.7,2.3
				c-3.9,3.4-5.2,8.3-3.7,12.7c0.7,2,1.9,3.9,3.7,5.5c3.2,2.8,7.5,4,11.8,3.7c-0.4,3.7,1,7.5,4.2,10.3c1.8,1.6,4,2.7,6.3,3.2
				c5,1.3,10.5,0.2,14.5-3.2c1.1-1,2-2.1,2.7-3.3c3.3-4.5,3.2-13.1,2.3-20.1l26.8-23.4c1.8,2.9,3.9,8.7,5.1,20.4c0,0,0.7,8.4,9,7
				c0,0,4.3-0.2,5-16c0,0,4.8-4,4.5,5.5c0,0-1.3,11,6.8,10.3c0,0,4.5,2.4,6.3-9.7c0,0,0-10.5,4.3-6.6c0,0,1.3,15.4,6.3,16.9
				c0,0,7.3,2,8.6-6.4c0,0,0-13.4,4-11c0,0,1.5,0.9,1.7,9c0,0-0.2,8.6,6,8.1c0,0,6.5,0,8.3-13.2c0,0-1.1-14.8,7.4-17.2l29.9,26.1
				c-0.9,7-1,15.6,2.3,20.1c0.7,1.2,1.6,2.3,2.7,3.3c3.9,3.4,9.5,4.5,14.5,3.3c2.3-0.6,4.5-1.7,6.3-3.3c3.2-2.8,4.6-6.6,4.2-10.3
				c4.2,0.3,8.5-0.9,11.8-3.7c1.8-1.6,3-3.5,3.7-5.5c1.4-4.4,0.2-9.2-3.7-12.7C330.6,375.4,329.4,374.6,328,374z M180.4,341.7
				c-2.9-0.5-5.5-1.4-7.8-2.6c-7.5-3.9-11.9-10.8-10.3-17.7c2.1-9.1,13.6-14.7,25.7-12.6c5,0.9,9.3,3.1,12.5,5.9
				c4.5,3.9,6.8,9.2,5.5,14.5C204,338.3,192.5,343.9,180.4,341.7z M223.8,353.8c-0.9,0.5-1.9,0.9-2.9,0.9c-1.9,0-3.5-1-4.6-2.6
				c-1.1,1.6-2.8,2.6-4.6,2.6c-1,0-2-0.3-2.9-0.9c-1.9-1.2-3.1-3.5-3.1-6.2c0-0.8,0.1-1.5,0.3-2.2c1-5.4,10.3-12.3,10.3-12.3
				s9.3,6.8,10.3,12.3c0.2,0.7,0.3,1.4,0.3,2.2C226.9,350.3,225.6,352.6,223.8,353.8z M263.8,336.1c-3.2,2.7-7.4,4.8-12.3,5.6
				c-4.1,0.7-8,0.5-11.6-0.4c-7.1-1.7-12.7-6.2-14.1-12.2l0-0.1c-1.5-6.8,2.7-13.6,10-17.5c2.4-1.3,5.1-2.2,8.1-2.8
				c12.1-2.2,23.6,3.5,25.7,12.6C270.8,326.8,268.5,332.1,263.8,336.1z"/>
		</g>
	</g>
</g>
</svg>
