<?xml version="1.0" encoding="utf-8"?>
<!-- Generator: Adobe Illustrator 22.1.0, SVG Export Plug-In . SVG Version: 6.00 Build 0)  -->
<svg version="1.1" id="Capa_1" xmlns="http://www.w3.org/2000/svg" xmlns:xlink="http://www.w3.org/1999/xlink" x="0px" y="0px"
	 viewBox="0 0 417.5 527.3" style="enable-background:new 0 0 417.5 527.3;" xml:space="preserve">
<style type="text/css">
	.st0{fill:#32D61A;}
	.st1{fill:#BAE8E8;}
</style>
<g>
	<path class="st0" d="M375.8,248.3L375.8,248.3c-0.5-1-1.3-1.7-2.4-2.3c-4.4-2.4-5.2-7.3-2.2-10.6c0.7-0.8,1.1-1.7,1.2-2.6
		c0-0.7,0.2-1.5,0.4-2.4c0.1-0.4,0.2-0.9,0.4-1.3c0,0,0-0.1,0-0.1c0.1-0.7,0.3-1.3,0.6-1.9c-0.4-0.3-0.7-0.7-1-1.1
		c-1.1-1.4-3-2.4-5.2-2.7c-39.2-5.5-46.9-25.8-98.1-25.8c-12.1,0.3-21,1.1-29,2.5c-5.4,0.8-9.5,2.2-14.1,3.6
		c-0.2,0.1-0.4,0.1-0.6,0.2c-3.8,1.4-7.8,3-11.7,4.4c-3.7,1.3-6.8,2.9-10.5,5c-0.4,0.2-0.8,0.4-1.3,0.6c-3.7,1.4-7.6,2.9-11.2,4.3
		c-3.9,1.4-8.8,3.1-14.4,3.7c-8,1.4-16.9,2.3-28,2.3c-22.4,0-36.8-3.7-48.7-8.2c-3.6-1.3-7.4-2.8-10.3-4.8c-0.5-0.3-1.1-0.6-1.7-0.9
		c-3.3-1.3-6.2-2.8-9.6-4.7c-0.4-0.2-0.8-0.4-1.2-0.6c-7.7-3-16.2-5.6-27.5-7.3c-0.4-0.1-0.9-0.1-1.3-0.1c-3-0.1-5.9-0.8-9-0.8h-1.4
		c0.7,36.2,7,72.3,9.3,108.4c0.7,10.4,1.3,21.2,1.1,32c0,0.2,0,0.4,0,0.6l22.8,158.5c1.6,11.3,11.9,19.5,24.1,19.5h225.3
		c11.9,0,22.4-8.2,24.1-19.5l33-229.1c0.2-1.6-0.5-3.1-1.9-4.3c-2.9-2.5-3.1-6.5-0.7-9.3C376.5,251.9,376.6,250,375.8,248.3z"/>
	<g>
		<g>
			<path d="M320.9,391c-5.2-2.8-15.1-2.7-23.3-2l-19.6-16.7c2-1.4,3.5-3.3,4.2-5.9c0,0,4.2-8.3-6.3-18.9c0,0-2.8-10.3,0.6-21.1
				c3.1-9.6,4-24.7-1.6-38.7l22.7-19.4c8.1,0.7,18,0.9,23.3-2c1.3-0.6,2.6-1.3,3.8-2.3c4-3.4,5.2-8.2,3.8-12.5
				c-0.7-2-1.9-3.9-3.8-5.4c-3.3-2.8-7.6-4-11.9-3.6c0.4-3.6-1-7.4-4.3-10.1c-1.8-1.6-4-2.6-6.4-3.2c-5-1.2-10.7-0.2-14.6,3.2
				c-1.1,1-2,2-2.7,3.2c-3.3,4.5-3.2,12.9-2.3,19.9L264.2,271c-3.4-3.5-7.5-6.7-12.5-9.5c-9.5-5.2-20.3-9.6-43.5-10
				c-14.8-0.2-36.2,2.2-52.2,16.5l-14.8-12.7c0.9-7,1-15.4-2.4-19.9c-0.7-1.2-1.6-2.2-2.7-3.2c-3.9-3.4-9.6-4.4-14.6-3.2
				c-2.3,0.6-4.5,1.6-6.4,3.2c-3.2,2.8-4.7,6.5-4.3,10.1c-4.2-0.3-8.6,0.9-11.9,3.7c-1.8,1.6-3.1,3.5-3.8,5.4
				c-1.4,4.3-0.2,9.1,3.8,12.5c1.1,1,2.4,1.7,3.8,2.3c5.2,2.9,15.1,2.7,23.3,2l17.9,15.3c-1.6,2.9-3,5.9-4.3,9.3
				c0,0-6.5,18.8,3.4,44.8c0,0,0.9,7.6-5.1,13c-4.8,4.3-9.5,18.2,5.5,23.5L126,389c-8.1-0.7-18-0.9-23.3,2c-1.3,0.6-2.6,1.3-3.8,2.3
				c-3.9,3.4-5.2,8.2-3.8,12.5c0.7,2,1.9,3.9,3.8,5.4c3.2,2.8,7.6,4,11.9,3.6c-0.4,3.6,1,7.4,4.3,10.1c1.8,1.6,4,2.6,6.4,3.2
				c5,1.2,10.6,0.2,14.6-3.2c1.1-1,2-2.1,2.7-3.2c3.4-4.5,3.2-12.9,2.3-19.9l27-23.1c1.8,2.9,4,8.6,5.1,20.1c0,0,0.7,8.2,9.1,6.9
				c0,0,4.3-0.2,5.1-15.8c0,0,4.8-3.9,4.6,5.4c0,0-1.3,10.8,6.8,10.2c0,0,4.6,2.4,6.3-9.5c0,0,0-10.4,4.3-6.5c0,0,1.3,15.2,6.3,16.7
				c0,0,7.4,2,8.6-6.3c0,0,0-13.2,4.1-10.8c0,0,1.5,0.9,1.8,8.9c0,0-0.2,8.5,6.1,8c0,0,6.6,0,8.4-13c0,0-1.1-14.6,7.5-17l30.2,25.8
				c-0.9,6.9-1,15.4,2.4,19.9c0.7,1.2,1.6,2.3,2.7,3.2c4,3.4,9.6,4.4,14.6,3.2c2.3-0.6,4.5-1.6,6.4-3.2c3.3-2.8,4.7-6.5,4.3-10.1
				c4.2,0.3,8.6-0.9,11.9-3.7c1.8-1.6,3.1-3.5,3.8-5.4c1.4-4.3,0.2-9.1-3.8-12.5C323.6,392.3,322.3,391.6,320.9,391z M171.9,359.1
				c-2.9-0.5-5.5-1.4-7.9-2.6c-7.6-3.8-12-10.6-10.4-17.5c2.1-9,13.8-14.5,26-12.4c5.1,0.9,9.4,3,12.6,5.8c4.5,3.9,6.8,9.1,5.6,14.3
				C195.8,355.7,184.1,361.2,171.9,359.1z M215.7,371c-0.9,0.5-1.9,0.9-2.9,0.9c-1.9,0-3.6-1-4.7-2.5c-1.1,1.5-2.8,2.5-4.7,2.5
				c-1.1,0-2.1-0.3-2.9-0.9c-1.9-1.2-3.1-3.5-3.1-6.1c0-0.7,0.1-1.5,0.3-2.1c1-5.4,10.4-12.1,10.4-12.1s9.4,6.8,10.4,12.1
				c0.2,0.7,0.3,1.4,0.3,2.1C218.8,367.6,217.6,369.9,215.7,371z M256.1,353.5c-3.2,2.7-7.4,4.7-12.4,5.6c-4.1,0.7-8.1,0.5-11.7-0.4
				c-7.2-1.7-12.8-6.1-14.2-12l0-0.1c-1.5-6.7,2.7-13.4,10-17.3c2.4-1.3,5.2-2.2,8.2-2.7c12.2-2.1,23.8,3.4,26,12.4
				C263.2,344.3,260.8,349.6,256.1,353.5z"/>
		</g>
	</g>
	<path class="st1" d="M35.6,11.6c-8.6,0-15.2,13.2-14.5,27.7l23.9,298h0.8l0,0c3.6,0,6.6,0,9.4,0c2.8,0,5.8,1.2,8.6,1.2
		c10.9,2.4,18.8,7.3,26.1,12.1c3.6,2.4,7.3,4.8,10.2,8.5c3.6,2.4,6.6,4.8,10.2,8.5c10.9,7.3,23.9,13.2,44.4,13.2
		c10.2,0,18.2-1.2,25.4-3.6c5.1-1.2,8.6-3.6,13-6.1c3.6-2.4,7.3-4.8,10.9-7.3c3.6-2.4,6.6-4.8,10.2-8.5c3.6-2.4,7.3-4.8,10.9-7.3
		c3.6-2.4,7.9-4.8,13-6.1c7.3-2.4,15.2-3.6,25.4-3.6c53,0,54.5,41.1,103.8,43.5l27.6-341.4c1.5-14.4-5.8-27.7-14.5-27.7H35.6V11.6z"
		/>
</g>
</svg>
