<?xml version="1.0" encoding="utf-8"?>
<!-- Generator: Adobe Illustrator 22.1.0, SVG Export Plug-In . SVG Version: 6.00 Build 0)  -->
<svg version="1.1" id="Capa_1" xmlns="http://www.w3.org/2000/svg" xmlns:xlink="http://www.w3.org/1999/xlink" x="0px" y="0px"
	 viewBox="0 0 512 512" style="enable-background:new 0 0 512 512;" xml:space="preserve">
<style type="text/css">
	.st0{fill:#D11313;}
	.st1{fill:#E8CDA0;}
	.st2{fill:#D1B080;}
	.st3{fill:#F7EAB7;}
</style>
<path class="st0" d="M383.9,28.1c-47.8,0-89.4,26.3-111.3,65.1l0,0c0,0-7.1,8.8-16.6,8.8c-9.5,0-16.6-8.8-16.6-8.8l0,0
	c-22-38.8-63.7-64.9-111.4-64.8C57.2,28.4-0.1,85.8,0,156.5c0.2,207.3,256.3,317.5,256.3,317.5s255.9-110.7,255.7-318
	C511.9,85.2,454.6,28,383.9,28.1z"/>
<g>
	<g>
		<path class="st1" d="M448.6,103.2l-22.4-21.9c-3.3-3.2-8.7-3.2-12,0l-11,10.7l0,0c-3,3,0.5-0.5-13.7,13.3l0,0L355.1,139l0,0
			L330.5,163c-3.3,3.2-3.3,8.4,0,11.7l22.4,21.9c3.3,3.2,8.7,3.2,12,0l9.8-9.5l0,0c4.4-4.3,4.3-4.2,14.9-14.5l0,0l34.4-33.6l0,0
			l24.7-24.1C451.9,111.7,451.9,106.4,448.6,103.2z"/>
	</g>
	<path class="st2" d="M366.3,151.6L366.3,151.6c29.4-28.6,31.9-31.1,61.4-60c1.8-1.7,4.1-2.6,6.4-2.5l-8-7.8c-3.3-3.2-8.7-3.2-12,0
		l-11,10.7c-9.4,9.2,7.1-6.9-48,46.9l0,0L330.5,163c-3.3,3.2-3.3,8.4,0,11.7l7.6,7.4C338.4,177.9,338.6,178.7,366.3,151.6z"/>
	<g>
		<path class="st3" d="M448.6,163c3.3,3.2,3.3,8.4,0,11.7l-22.4,21.9c-3.3,3.2-8.7,3.2-12,0l-83.7-81.7c-3.3-3.2-3.3-8.4,0-11.7
			l22.4-21.9c3.3-3.2,8.7-3.2,12,0L448.6,163z"/>
	</g>
	<path class="st1" d="M425.5,188.1c-94-91.7-89.2-86-89.8-90l-5.2,5.1c-3.3,3.2-3.3,8.4,0,11.7l83.7,81.7c3.3,3.2,8.7,3.2,12,0
		l6.1-6C429.8,190.8,427.4,189.9,425.5,188.1z"/>
</g>
</svg>
