<?xml version="1.0" encoding="utf-8"?>
<!-- Generator: Adobe Illustrator 22.1.0, SVG Export Plug-In . SVG Version: 6.00 Build 0)  -->
<svg version="1.1" id="Capa_1" xmlns="http://www.w3.org/2000/svg" xmlns:xlink="http://www.w3.org/1999/xlink" x="0px" y="0px"
	 viewBox="0 0 512 512" style="enable-background:new 0 0 512 512;" xml:space="preserve">
<style type="text/css">
	.st0{fill:#9E1616;}
	.st1{fill:#E8CDA0;}
	.st2{fill:#D1B080;}
	.st3{fill:#F7EAB7;}
</style>
<path class="st0" d="M383.9,28.1c-47.8,0-89.4,26.3-111.3,65.1l0,0c0,0-7.1,8.8-16.6,8.8c-9.5,0-16.6-8.8-16.6-8.8l0,0
	c-22-38.8-63.7-64.9-111.4-64.8C57.2,28.4-0.1,85.8,0,156.5c0.2,207.3,256.3,317.5,256.3,317.5s255.9-110.7,255.7-318
	C511.9,85.2,454.6,28,383.9,28.1z"/>
<g>
	<g>
		<path class="st1" d="M448.9,100.2L429.6,81c-2.8-2.8-7.5-2.8-10.3,0l-9.5,9.4l0,0c-2.6,2.6,0.4-0.4-11.8,11.7l0,0l-29.6,29.4l0,0
			l-21.3,21.1c-2.8,2.8-2.8,7.4,0,10.2l19.3,19.2c2.8,2.8,7.5,2.8,10.3,0l8.4-8.4l0,0c3.8-3.8,3.7-3.7,12.8-12.7l0,0l29.6-29.4l0,0
			l21.3-21.1C451.8,107.6,451.8,103.1,448.9,100.2z"/>
	</g>
	<path class="st2" d="M378,142.7L378,142.7c25.3-25.1,27.5-27.3,53-52.6c1.5-1.5,3.5-2.2,5.5-2.2l-6.9-6.9c-2.8-2.8-7.5-2.8-10.3,0
		l-9.5,9.4c-8.1,8.1,6.1-6.1-41.4,41.1l0,0l-21.3,21.1c-2.8,2.8-2.8,7.4,0,10.2l6.5,6.5C354,165.6,354.1,166.3,378,142.7z"/>
	<g>
		<path class="st3" d="M448.9,152.7c2.8,2.8,2.8,7.4,0,10.2l-19.3,19.2c-2.8,2.8-7.5,2.8-10.3,0l-72.2-71.6c-2.8-2.8-2.8-7.4,0-10.2
			L366.5,81c2.8-2.8,7.5-2.8,10.3,0L448.9,152.7z"/>
	</g>
	<path class="st1" d="M429,174.7c-81-80.4-76.9-75.4-77.4-78.9l-4.5,4.4c-2.8,2.8-2.8,7.4,0,10.2l72.2,71.6c2.8,2.8,7.5,2.8,10.3,0
		l5.3-5.2C432.8,177,430.6,176.2,429,174.7z"/>
</g>
<g>
	<g>
		<path class="st1" d="M140,92.8l-19.3-19.2c-2.8-2.8-7.5-2.8-10.3,0l-9.5,9.4l0,0c-2.6,2.6,0.4-0.4-11.8,11.7l0,0l-29.6,29.4l0,0
			l-21.3,21.1c-2.8,2.8-2.8,7.4,0,10.2l19.3,19.2c2.8,2.8,7.5,2.8,10.3,0l8.4-8.4l0,0c3.8-3.8,3.7-3.7,12.8-12.7l0,0l29.6-29.4l0,0
			l21.3-21.1C142.9,100.2,142.9,95.6,140,92.8z"/>
	</g>
	<path class="st2" d="M69.1,135.2L69.1,135.2c25.3-25.1,27.5-27.3,53-52.6c1.5-1.5,3.5-2.2,5.5-2.2l-6.9-6.9
		c-2.8-2.8-7.5-2.8-10.3,0l-9.5,9.4c-8.1,8.1,6.1-6.1-41.4,41.1l0,0l-21.3,21.1c-2.8,2.8-2.8,7.4,0,10.2l6.5,6.5
		C45,158.2,45.2,158.9,69.1,135.2z"/>
	<g>
		<path class="st3" d="M140,145.3c2.8,2.8,2.8,7.4,0,10.2l-19.3,19.2c-2.8,2.8-7.5,2.8-10.3,0l-72.2-71.6c-2.8-2.8-2.8-7.4,0-10.2
			l19.3-19.2c2.8-2.8,7.5-2.8,10.3,0L140,145.3z"/>
	</g>
	<path class="st1" d="M120.1,167.3c-81-80.4-76.9-75.4-77.4-78.9l-4.5,4.4c-2.8,2.8-2.8,7.4,0,10.2l72.2,71.6
		c2.8,2.8,7.5,2.8,10.3,0l5.3-5.2C123.8,169.6,121.7,168.8,120.1,167.3z"/>
</g>
<g>
	<g>
		<path class="st1" d="M236.9,294.7l-19.3-19.2c-2.8-2.8-7.5-2.8-10.3,0l-9.5,9.4l0,0c-2.6,2.6,0.4-0.4-11.8,11.7l0,0l-29.6,29.4
			l0,0l-21.3,21.1c-2.8,2.8-2.8,7.4,0,10.2l19.3,19.2c2.8,2.8,7.5,2.8,10.3,0l8.4-8.4l0,0c3.8-3.8,3.7-3.7,12.8-12.7l0,0l29.6-29.4
			l0,0l21.3-21.1C239.7,302.1,239.7,297.5,236.9,294.7z"/>
	</g>
	<path class="st2" d="M165.9,337.1L165.9,337.1c25.3-25.1,27.5-27.3,53-52.6c1.5-1.5,3.5-2.2,5.5-2.2l-6.9-6.9
		c-2.8-2.8-7.5-2.8-10.3,0l-9.5,9.4c-8.1,8.1,6.1-6.1-41.4,41.1l0,0l-21.3,21.1c-2.8,2.8-2.8,7.4,0,10.2l6.5,6.5
		C141.9,360.1,142.1,360.8,165.9,337.1z"/>
	<g>
		<path class="st3" d="M236.9,347.2c2.8,2.8,2.8,7.4,0,10.2l-19.3,19.2c-2.8,2.8-7.5,2.8-10.3,0L135.1,305c-2.8-2.8-2.8-7.4,0-10.2
			l19.3-19.2c2.8-2.8,7.5-2.8,10.3,0L236.9,347.2z"/>
	</g>
	<path class="st1" d="M217,369.2c-81-80.4-76.9-75.4-77.4-78.9l-4.5,4.4c-2.8,2.8-2.8,7.4,0,10.2l72.2,71.6c2.8,2.8,7.5,2.8,10.3,0
		l5.3-5.2C220.7,371.5,218.6,370.7,217,369.2z"/>
</g>
</svg>
