<?xml version="1.0" encoding="utf-8"?>
<!-- Generator: Adobe Illustrator 22.1.0, SVG Export Plug-In . SVG Version: 6.00 Build 0)  -->
<svg version="1.1" id="Capa_1" xmlns="http://www.w3.org/2000/svg" xmlns:xlink="http://www.w3.org/1999/xlink" x="0px" y="0px"
	 viewBox="0 0 992.1 560" style="enable-background:new 0 0 992.1 560;" xml:space="preserve">
<g>
	<path d="M583.4,82.1V72c0-5.5-4.7-10-10.5-10H362.1c-5.8,0-10.5,4.5-10.5,10v10c0,4.9,3.7,8.8,8.6,9.7c0,1.6,0,3.2,0,4.8
		c-0.2,24.5,6.7,38.9,72.7,95.5c0.5,0.4,3.2,2.3,6.2,6c2.9,3.7,5.6,8.6,5.6,14.1c0,5.4-2.6,10.4-5.6,14.1c-2.9,3.7-5.7,5.5-5.6,5.6
		c-66.4,56.9-73.4,71.3-73.2,95.9c0,1.5,0,3,0,4.6c-4.8,0.9-8.6,4.8-8.6,9.7v10c0,5.6,4.7,10.1,10.5,10.1h210.7
		c5.8,0,10.5-4.5,10.5-10v-10c0-4.9-3.8-8.8-8.6-9.7c0-1.5,0-3.1,0-4.5c0.2-24.6-6.8-38.9-72.7-95.5c-0.5-0.4-3.2-2.3-6.1-6
		c-3-3.7-5.6-8.6-5.6-14.1c0-5.5,2.6-10.4,5.6-14.1c2.9-3.7,5.7-5.5,5.6-5.6c66.4-57,73.4-71.3,73.2-95.9c0-1.5,0-3.2,0-4.7
		C579.6,90.9,583.4,87,583.4,82.1z M560.4,96.5c-0.2,19.8-1.4,27.3-67.9,85.4c0.1,0.1-16,10.8-16.4,30.2c0.4,19.3,16.5,30,16.9,30.6
		c66.1,57.7,67.2,65.1,67.4,85c0,1,0,2.1,0,3.3c-25.5,0-92.9,0-93,0c0,0-67.5,0-93,0c0-1.2,0-2.3,0-3.3c0.2-19.8,1.4-27.2,68-85.4
		c-0.1-0.1,16-10.8,16.4-30.2c-0.4-19.4-16.5-30.1-16.9-30.6c-66.1-57.7-67.2-65.1-67.5-85c0-1,0-2.1,0-3.3c25.5,0,93,0,93,0
		c0,0,67.4,0,93,0C560.4,94.4,560.4,95.4,560.4,96.5z"/>
	<path d="M542.2,293.3c-43.2,3.2-40.1-15.9-58.9-23.2c-3.1-1.2-8.7-5.7-8.7-11.5c0-5.8,0-51.5,0-51.5c0-4.8,0.1-8.8,0.3-12.4
		c3.1-6.3,7.7-12.1,13.8-16.8c15-13.1,26.6-23.5,35.5-32.1c-22,0-38.6-7.8-55.1-15.7c-18.4-8.8-48.6-0.6-67.8,6.3
		c9.7,9.9,23.9,22.9,44.8,41.2c8.5,6.7,14.4,14.7,17,23.9c0.1,1.8,0.2,3.6,0.2,5.5c0,0,0,47.7,0,51.8c0,4.1-1.4,6.4-8.9,11.9
		c-7.5,5.5-15.1,1.2-25.7,6.3c-12.8,6.1-11.9,16.1-37.8,18.4c-11.6,13.8-13,21.5-13,32.1h89.6h89.6
		C557.1,316.5,555.6,308.5,542.2,293.3z"/>
</g>
</svg>
