<?xml version="1.0" encoding="utf-8"?>
<!-- Generator: Adobe Illustrator 22.1.0, SVG Export Plug-In . SVG Version: 6.00 Build 0)  -->
<svg version="1.1" id="Capa_1" xmlns="http://www.w3.org/2000/svg" xmlns:xlink="http://www.w3.org/1999/xlink" x="0px" y="0px"
	 viewBox="0 0 992.1 560" style="enable-background:new 0 0 992.1 560;" xml:space="preserve">
<style type="text/css">
	.st0{fill:#2BBC0D;}
	.st1{fill:#BAE8E8;}
</style>
<g>
	<path class="st0" d="M512.3,268.6c-3.1,0.5-5.3,1.4-7.9,2.2c-2.2,0.9-4.4,1.7-6.6,2.6c-2.2,0.9-4,1.7-6.1,3.1
		c-2.2,0.9-4.4,1.7-6.6,2.6c-2.2,0.9-4.8,1.7-7.9,2.2c-4.4,0.9-9.3,1.4-15.4,1.4c-12.3,0-20.2-2.2-26.8-4.8
		c-2.2-0.9-4.4-1.7-6.1-3.1c-2.2-0.9-4-1.7-6.1-3.1c-4.4-1.7-9.3-3.5-15.8-4.4c-1.8,0-3.5-0.5-5.3-0.5c-1.8,0-4,0-5.7,0l0,0h-0.4
		l23.7,174.9c0.8,6.6,6.6,11.4,13.2,11.4h123.9c6.6,0,12.3-4.8,13.2-11.4l21.4-158.5c-29.9-0.9-31.2-15.8-62.8-15.8
		C521.4,267.3,516.6,267.8,512.3,268.6z"/>
	<g>
		<g>
			<path d="M560.4,370.9c-3-1.8-8.8-1.7-13.5-1.2l-11.4-10.5c1.2-0.9,2-2.1,2.4-3.7c0,0,2.4-5.2-3.6-11.8c0,0-1.6-6.4,0.4-13.2
				c1.8-6,2.3-15.4-0.9-24.2l13.1-12.1c4.7,0.5,10.4,0.5,13.5-1.2c0.8-0.4,1.5-0.8,2.2-1.5c2.3-2.1,3-5.1,2.2-7.8
				c-0.4-1.2-1.1-2.4-2.2-3.4c-1.9-1.7-4.4-2.5-6.9-2.3c0.2-2.3-0.6-4.6-2.5-6.3c-1.1-1-2.3-1.6-3.7-2c-2.9-0.8-6.2-0.1-8.5,2
				c-0.7,0.6-1.2,1.3-1.6,2c-1.9,2.8-1.8,8.1-1.3,12.4l-10.6,9.8c-2-2.2-4.3-4.2-7.2-5.9c-5.5-3.2-11.8-6-25.2-6.2
				c-8.6-0.1-20.9,1.4-30.2,10.3l-8.6-7.9c0.5-4.4,0.6-9.6-1.4-12.4c-0.4-0.7-0.9-1.4-1.6-2c-2.3-2.1-5.6-2.8-8.5-2
				c-1.3,0.4-2.6,1-3.7,2c-1.9,1.7-2.7,4.1-2.5,6.3c-2.5-0.2-5,0.6-6.9,2.3c-1.1,1-1.8,2.2-2.2,3.4c-0.8,2.7-0.1,5.7,2.2,7.8
				c0.7,0.6,1.4,1.1,2.2,1.4c3,1.8,8.8,1.7,13.5,1.2l10.3,9.5c-0.9,1.8-1.8,3.7-2.5,5.8c0,0-3.7,11.7,2,28c0,0,0.5,4.7-2.9,8.1
				c-2.8,2.7-5.5,11.4,3.2,14.7l-10.1,9.3c-4.7-0.5-10.4-0.5-13.5,1.3c-0.8,0.4-1.5,0.8-2.2,1.4c-2.3,2.1-3,5.1-2.2,7.8
				c0.4,1.2,1.1,2.4,2.2,3.4c1.9,1.7,4.4,2.5,6.9,2.3c-0.2,2.3,0.6,4.6,2.5,6.3c1.1,1,2.3,1.6,3.7,2c2.9,0.8,6.2,0.1,8.5-2
				c0.7-0.6,1.2-1.3,1.6-2c1.9-2.8,1.8-8.1,1.4-12.4l15.6-14.4c1.1,1.8,2.3,5.4,3,12.6c0,0,0.4,5.2,5.3,4.3c0,0,2.5-0.1,2.9-9.9
				c0,0,2.8-2.4,2.6,3.4c0,0-0.7,6.8,4,6.4c0,0,2.6,1.5,3.7-6c0,0,0-6.5,2.5-4.1c0,0,0.7,9.5,3.7,10.4c0,0,4.3,1.2,5-3.9
				c0,0,0-8.3,2.3-6.8c0,0,0.9,0.5,1,5.5c0,0-0.1,5.3,3.5,5c0,0,3.8,0,4.9-8.1c0,0-0.6-9.1,4.3-10.6l17.5,16.1
				c-0.5,4.3-0.6,9.6,1.4,12.4c0.4,0.7,0.9,1.4,1.6,2c2.3,2.1,5.6,2.8,8.5,2c1.3-0.4,2.6-1,3.7-2c1.9-1.7,2.7-4.1,2.5-6.3
				c2.5,0.2,5-0.6,6.9-2.3c1.1-1,1.8-2.2,2.2-3.4c0.8-2.7,0.1-5.7-2.2-7.8C561.9,371.8,561.2,371.3,560.4,370.9z M474.1,351
				c-1.7-0.3-3.2-0.9-4.6-1.6c-4.4-2.4-6.9-6.6-6-10.9c1.2-5.6,8-9.1,15-7.7c3,0.6,5.4,1.9,7.3,3.6c2.6,2.4,4,5.7,3.2,8.9
				C487.9,348.9,481.2,352.4,474.1,351z M499.4,358.5c-0.5,0.3-1.1,0.5-1.7,0.5c-1.1,0-2.1-0.6-2.7-1.6c-0.6,1-1.6,1.6-2.7,1.6
				c-0.6,0-1.2-0.2-1.7-0.5c-1.1-0.7-1.8-2.2-1.8-3.8c0-0.5,0.1-0.9,0.2-1.3c0.6-3.4,6-7.6,6-7.6s5.4,4.2,6,7.6
				c0.1,0.4,0.2,0.9,0.2,1.3C501.3,356.3,500.5,357.7,499.4,358.5z M522.9,347.5c-1.9,1.7-4.3,2.9-7.2,3.5c-2.4,0.5-4.7,0.3-6.8-0.2
				c-4.2-1.1-7.4-3.8-8.2-7.5l0-0.1c-0.9-4.2,1.6-8.4,5.8-10.8c1.4-0.8,3-1.4,4.7-1.7c7.1-1.3,13.8,2.1,15,7.7
				C526.9,341.8,525.6,345.1,522.9,347.5z"/>
		</g>
	</g>
	<path class="st1" d="M389.6,138.1c-5.3,0-9.3,5.2-8.7,10.9l14.5,116.6h0.4l0,0c2.2,0,4,0,5.7,0s3.5,0.5,5.3,0.5
		c6.6,0.9,11.4,2.8,15.8,4.7c2.2,0.9,4.4,1.9,6.1,3.3c2.2,0.9,4,1.9,6.1,3.3c6.6,2.8,14.5,5.2,26.8,5.2c6.1,0,11-0.5,15.4-1.4
		c3.1-0.5,5.3-1.4,7.9-2.4c2.2-0.9,4.4-1.9,6.6-2.8c2.2-0.9,4-1.9,6.1-3.3c2.2-0.9,4.4-1.9,6.6-2.8c2.2-0.9,4.8-1.9,7.9-2.4
		c4.4-0.9,9.3-1.4,15.4-1.4c32,0,33,16.1,62.8,17l16.7-133.7c0.8-5.7-3.5-10.9-8.7-10.9H389.6V138.1z"/>
</g>
</svg>
