<svg id="Capa_1" data-name="Capa 1" xmlns="http://www.w3.org/2000/svg" viewBox="0 0 397.18 513.11"><defs><style>.cls-1{fill:#b5bd86;}.cls-2{fill:#406325;}.cls-3{fill:#7dab4e;}.cls-4{fill:#a7bd56;}.cls-5{fill:#dac89d;}.cls-6{fill:#877c61;}.cls-7{fill:#598d2e;}.cls-8{fill:#baa97e;}.cls-9{isolation:isolate;}.cls-10{fill:#ffd025;}.cls-11{fill:#fcca0d;}.cls-12{fill:#d99a32;}.cls-13{fill:#def2ec;}.cls-14{fill:#b3b3b3;}.cls-15{fill:#b7b689;}.cls-16{fill:#d69f76;}.cls-17{fill:#967257;}</style></defs><title>mucha plata4</title><g id="OBJECTS"><polygon class="cls-1" points="204.62 277.01 139.86 322.19 59.1 362.61 186.84 437.36 207.29 439.59 256.41 466.49 277.46 467.08 397.12 397.83 204.62 277.01"/><path class="cls-2" d="M215.88,269.2l-59.5,34.71-.07,16.94L275.9,390.1l59.5-34.7.08-16.94"/><ellipse class="cls-3" cx="245.96" cy="321.21" rx="14.64" ry="25.19" transform="translate(-75.94 566.25) rotate(-89.84)"/><path class="cls-4" d="M309.32,330.58c-7.48,4.39-7.48,11.44.07,15.83L289.54,358c-7.56-4.38-19.71-4.38-27.27,0l-79.66-46.14c7.49-4.39,7.49-11.45-.07-15.83l19.86-11.59c7.56,4.38,19.71,4.38,27.27,0Zm-81.14,1c9.86,5.72,25.86,5.72,35.64,0s9.78-15-.14-20.73-25.86-5.73-35.64,0-9.71,15,.14,20.73"/><path class="cls-3" d="M215.88,269.2l119.6,69.26L276,373.16l-119.6-69.25ZM289.54,358l19.85-11.59c-7.55-4.39-7.55-11.44-.07-15.83l-79.65-46.14c-7.49,4.38-19.71,4.38-27.27,0L182.54,296c7.56,4.38,7.56,11.44.07,15.83L262.27,358c7.56-4.38,19.71-4.38,27.27,0"/><polygon class="cls-5" points="283.9 308.59 224.41 343.29 206.18 332.74 265.68 298.04 283.9 308.59"/><polygon class="cls-6" points="224.33 343.29 224.26 360.23 206.03 349.68 206.1 332.74 224.33 343.29"/><polygon class="cls-7" points="275.98 373.16 275.98 390.1 335.48 355.4 335.48 338.53 275.98 373.16"/><path class="cls-2" d="M217.37,249.88l-59.5,34.71-.08,16.94,119.59,69.25,59.5-34.7.08-16.94"/><ellipse class="cls-3" cx="247.45" cy="301.89" rx="14.64" ry="25.19" transform="translate(-55.15 548.47) rotate(-89.84)"/><path class="cls-4" d="M310.8,311.26c-7.48,4.39-7.48,11.44.08,15.83L291,338.68c-7.56-4.38-19.71-4.38-27.27,0L184.1,292.54c7.48-4.39,7.48-11.45-.08-15.83l19.86-11.59c7.56,4.38,19.71,4.38,27.27,0Zm-81.13,1c9.85,5.72,25.86,5.72,35.64,0s9.78-15-.15-20.73-25.86-5.73-35.64,0-9.71,15,.15,20.73"/><path class="cls-3" d="M217.37,249.88,337,319.14l-59.5,34.7L157.87,284.59ZM291,338.68l19.86-11.59c-7.56-4.39-7.56-11.44-.08-15.83l-79.65-46.14c-7.49,4.38-19.71,4.38-27.27,0L184,276.71c7.56,4.38,7.56,11.44.08,15.83l79.65,46.14c7.56-4.38,19.71-4.38,27.27,0"/><polygon class="cls-5" points="285.39 289.27 225.89 323.97 207.66 313.42 267.16 278.72 285.39 289.27"/><polygon class="cls-6" points="225.81 323.97 225.74 340.91 207.51 330.36 207.59 313.42 225.81 323.97"/><polygon class="cls-7" points="277.46 353.84 277.46 370.78 336.96 336.08 336.96 319.21 277.46 353.84"/><path class="cls-2" d="M214.4,231.31,154.9,266,154.83,283,274.42,352.2l59.5-34.7.07-16.94"/><ellipse class="cls-3" cx="244.48" cy="283.31" rx="14.64" ry="25.19" transform="translate(-39.52 526.98) rotate(-89.84)"/><path class="cls-4" d="M307.84,292.69c-7.49,4.38-7.49,11.44.07,15.82L288.05,320.1c-7.55-4.38-19.71-4.38-27.26,0L181.13,274c7.49-4.38,7.49-11.44-.07-15.83l19.86-11.59c7.55,4.39,19.71,4.39,27.26,0Zm-81.14,1c9.86,5.72,25.86,5.72,35.64,0s9.78-15-.15-20.73-25.86-5.72-35.64,0-9.7,15,.15,20.73"/><path class="cls-3" d="M214.4,231.31,334,300.56l-59.5,34.7L154.9,266Zm73.65,88.79,19.86-11.59c-7.56-4.38-7.56-11.44-.07-15.82l-79.66-46.15c-7.48,4.39-19.71,4.39-27.26,0l-19.86,11.59c7.56,4.39,7.56,11.45.07,15.83l79.66,46.14c7.55-4.38,19.71-4.38,27.26,0"/><polygon class="cls-5" points="282.42 270.69 222.92 305.39 204.69 294.84 264.19 260.14 282.42 270.69"/><polygon class="cls-6" points="222.85 305.39 222.78 322.33 204.55 311.78 204.62 294.84 222.85 305.39"/><polygon class="cls-7" points="274.49 335.26 274.49 352.2 333.99 317.5 333.99 300.64 274.49 335.26"/><path class="cls-2" d="M214.4,213.47l-59.5,34.71-.07,16.94,119.59,69.25,59.5-34.7.07-16.94"/><ellipse class="cls-3" cx="244.48" cy="265.48" rx="14.64" ry="25.19" transform="translate(-21.69 509.2) rotate(-89.84)"/><path class="cls-4" d="M307.84,274.85c-7.49,4.39-7.49,11.44.07,15.83l-19.86,11.59c-7.55-4.38-19.71-4.38-27.26,0l-79.66-46.14c7.49-4.39,7.49-11.45-.07-15.83l19.86-11.59c7.55,4.38,19.71,4.38,27.26,0Zm-81.14,1c9.86,5.72,25.86,5.72,35.64,0s9.78-15-.15-20.73-25.86-5.73-35.64,0-9.7,15,.15,20.73"/><path class="cls-3" d="M214.4,213.47,334,282.73l-59.5,34.7L154.9,248.18Zm73.65,88.8,19.86-11.59c-7.56-4.39-7.56-11.44-.07-15.83l-79.66-46.14c-7.48,4.38-19.71,4.38-27.26,0L181.06,240.3c7.56,4.38,7.56,11.44.07,15.83l79.66,46.14c7.55-4.38,19.71-4.38,27.26,0"/><polygon class="cls-5" points="282.42 252.86 222.92 287.56 204.69 277.01 264.19 242.31 282.42 252.86"/><polygon class="cls-6" points="222.85 287.56 222.78 304.5 204.55 293.95 204.62 277.01 222.85 287.56"/><polygon class="cls-7" points="274.49 317.43 274.49 334.37 333.99 299.67 333.99 282.8 274.49 317.43"/><path class="cls-2" d="M217.37,192.67l-59.5,34.7-.08,16.94,119.59,69.26,59.5-34.71.08-16.94"/><ellipse class="cls-3" cx="247.45" cy="244.67" rx="14.64" ry="25.19" transform="translate(2.07 491.42) rotate(-89.84)"/><path class="cls-4" d="M310.8,254.05c-7.48,4.38-7.48,11.44.08,15.82L291,281.46c-7.56-4.38-19.71-4.38-27.27,0L184.1,235.32c7.48-4.38,7.48-11.44-.08-15.83l19.86-11.59c7.56,4.39,19.71,4.39,27.27,0Zm-81.13,1c9.85,5.72,25.86,5.72,35.64,0s9.78-15-.15-20.73-25.86-5.72-35.64,0-9.71,15,.15,20.73"/><path class="cls-3" d="M217.37,192.67,337,261.92l-59.5,34.7L157.87,227.37ZM291,281.46l19.86-11.59c-7.56-4.38-7.56-11.44-.08-15.82L231.15,207.9c-7.49,4.39-19.71,4.39-27.27,0L184,219.49c7.56,4.39,7.56,11.45.08,15.83l79.65,46.14c7.56-4.38,19.71-4.38,27.27,0"/><polygon class="cls-5" points="285.39 232.05 225.89 266.75 207.66 256.2 267.16 221.5 285.39 232.05"/><polygon class="cls-6" points="225.81 266.75 225.74 283.69 207.51 273.14 207.59 256.2 225.81 266.75"/><polygon class="cls-7" points="277.46 296.62 277.46 313.56 336.96 278.86 336.96 262 277.46 296.62"/><path class="cls-2" d="M220.33,173.87l-59.5,34.7-.07,16.94,119.59,69.26,59.5-34.71.07-16.94"/><ellipse class="cls-3" cx="250.43" cy="225.85" rx="14.64" ry="25.19" transform="translate(23.87 475.64) rotate(-89.84)"/><path class="cls-4" d="M313.76,235.25c-7.48,4.38-7.48,11.44.08,15.82L294,262.67c-7.56-4.39-19.71-4.39-27.27,0l-79.65-46.15c7.48-4.38,7.48-11.44-.07-15.83l19.85-11.59c7.56,4.39,19.71,4.39,27.27,0Zm-81.13,1c9.85,5.72,25.86,5.72,35.64,0s9.78-15-.15-20.73-25.86-5.72-35.64,0-9.71,15,.15,20.73"/><path class="cls-3" d="M220.33,173.87l119.59,69.25-59.5,34.7L160.83,208.57ZM294,262.59,313.84,251c-7.56-4.38-7.56-11.44-.08-15.83L234.11,189c-7.48,4.38-19.71,4.38-27.27,0L187,200.62c7.55,4.38,7.55,11.44.07,15.83l79.65,46.14c7.56-4.31,19.71-4.31,27.27,0"/><polygon class="cls-5" points="288.35 213.25 228.85 247.95 210.62 237.4 270.12 202.7 288.35 213.25"/><polygon class="cls-6" points="228.78 247.95 228.7 264.82 210.47 254.27 210.55 237.4 228.78 247.95"/><polygon class="cls-7" points="280.42 277.82 280.42 294.77 339.92 260.06 339.92 243.12 280.42 277.82"/><path class="cls-2" d="M214.4,155.07l-59.5,34.7-.07,16.94L274.42,276l59.5-34.7.07-17"/><ellipse class="cls-3" cx="244.45" cy="207.03" rx="14.64" ry="25.19" transform="translate(36.72 450.89) rotate(-89.84)"/><path class="cls-4" d="M307.84,216.45c-7.49,4.38-7.49,11.44.07,15.82l-19.86,11.6c-7.55-4.39-19.71-4.39-27.26,0l-79.66-46.22c7.49-4.39,7.49-11.45-.07-15.83l19.86-11.59c7.55,4.38,19.71,4.38,27.26,0Zm-81.14,1c9.86,5.72,25.86,5.72,35.64,0s9.78-15-.15-20.73-25.86-5.72-35.64,0-9.7,15,.15,20.73"/><path class="cls-3" d="M214.4,155.07,334,224.32,274.49,259,154.9,189.77Zm73.65,88.72,19.86-11.59c-7.56-4.38-7.56-11.44-.07-15.83l-79.66-46.14c-7.48,4.38-19.71,4.38-27.26,0l-19.86,11.59c7.56,4.38,7.56,11.44.07,15.83l79.66,46.14c7.55-4.38,19.71-4.38,27.26,0"/><polygon class="cls-5" points="282.42 194.38 222.92 229.08 204.69 218.53 264.19 183.83 282.42 194.38"/><polygon class="cls-6" points="222.85 229.15 222.78 246.02 204.55 235.47 204.62 218.6 222.85 229.15"/><polygon class="cls-7" points="274.49 259.02 274.49 275.89 333.99 241.26 333.99 224.32 274.49 259.02"/><path class="cls-2" d="M147.27,307.47l-59.5,34.7-.07,16.94,119.59,69.26,59.5-34.7.07-16.94"/><ellipse class="cls-3" cx="177.35" cy="359.47" rx="14.64" ry="25.19" transform="translate(-182.63 535.8) rotate(-89.84)"/><path class="cls-4" d="M240.71,368.85c-7.49,4.38-7.49,11.44.07,15.83l-19.86,11.59c-7.56-4.39-19.71-4.39-27.26,0L114,350.12c7.49-4.38,7.49-11.44-.07-15.82l19.86-11.6c7.55,4.39,19.71,4.39,27.26,0Zm-81.14,1c9.86,5.73,25.86,5.73,35.64,0s9.78-15-.15-20.73-25.86-5.72-35.64,0-9.7,15,.15,20.73"/><path class="cls-3" d="M147.27,307.47l119.59,69.26-59.5,34.7L87.77,342.17Zm73.65,88.8,19.86-11.59c-7.56-4.39-7.56-11.45-.07-15.83L161.05,322.7c-7.48,4.39-19.71,4.39-27.26,0l-19.86,11.6c7.56,4.38,7.56,11.44.07,15.82l79.66,46.15c7.55-4.39,19.7-4.39,27.26,0"/><polygon class="cls-5" points="215.29 346.85 155.79 381.56 137.56 371 197.06 336.3 215.29 346.85"/><polygon class="cls-6" points="155.72 381.56 155.64 398.5 137.42 387.94 137.49 371 155.72 381.56"/><polygon class="cls-7" points="207.36 411.43 207.36 428.37 266.86 393.67 266.86 376.8 207.36 411.43"/><path class="cls-2" d="M145.79,288.9l-59.5,34.7-.07,16.94,119.59,69.25,59.5-34.7.07-16.94"/><ellipse class="cls-3" cx="175.87" cy="340.9" rx="14.64" ry="25.19" transform="translate(-165.53 515.79) rotate(-89.84)"/><path class="cls-4" d="M239.22,350.27c-7.48,4.39-7.48,11.45.08,15.83l-19.86,11.59c-7.56-4.38-19.71-4.38-27.27,0l-79.65-46.14c7.48-4.39,7.48-11.45-.07-15.83l19.85-11.59c7.56,4.38,19.71,4.38,27.27,0Zm-81.13,1c9.85,5.72,25.86,5.72,35.64,0s9.78-15-.15-20.73-25.86-5.72-35.64,0-9.71,15,.15,20.73"/><path class="cls-3" d="M145.79,288.9l119.59,69.25-59.5,34.7L86.29,323.6Zm73.65,88.79L239.3,366.1c-7.56-4.38-7.56-11.44-.08-15.83l-79.65-46.14c-7.48,4.38-19.71,4.38-27.27,0l-19.85,11.59c7.55,4.38,7.55,11.44.07,15.83l79.65,46.14c7.56-4.38,19.71-4.38,27.27,0"/><polygon class="cls-5" points="213.81 328.28 154.31 362.98 136.08 352.43 195.58 317.73 213.81 328.28"/><polygon class="cls-6" points="154.24 362.98 154.16 379.92 135.93 369.37 136.01 352.43 154.24 362.98"/><polygon class="cls-7" points="205.88 392.85 205.88 409.79 265.38 375.09 265.38 358.22 205.88 392.85"/><path class="cls-2" d="M145.79,269.58l-59.5,34.7-.07,16.94,119.59,69.25,59.5-34.7.07-16.94"/><ellipse class="cls-3" cx="175.87" cy="321.58" rx="14.64" ry="25.19" transform="matrix(0, -1, 1, 0, -146.21, 496.53)"/><path class="cls-4" d="M239.22,331c-7.48,4.39-7.48,11.45.08,15.83l-19.86,11.59c-7.56-4.38-19.71-4.38-27.27,0l-79.65-46.14c7.48-4.39,7.48-11.45-.07-15.83l19.85-11.59c7.56,4.38,19.71,4.38,27.27,0Zm-81.13,1c9.85,5.72,25.86,5.72,35.64,0s9.78-15-.15-20.73-25.86-5.72-35.64,0-9.71,15,.15,20.73"/><path class="cls-3" d="M145.79,269.58l119.59,69.25-59.5,34.7L86.29,304.28Zm73.65,88.79,19.86-11.59c-7.56-4.38-7.56-11.44-.08-15.83l-79.65-46.14c-7.48,4.38-19.71,4.38-27.27,0L112.45,296.4c7.55,4.38,7.55,11.44.07,15.83l79.65,46.14c7.56-4.38,19.71-4.38,27.27,0"/><polygon class="cls-5" points="213.81 308.96 154.31 343.66 136.08 333.11 195.58 298.41 213.81 308.96"/><polygon class="cls-6" points="154.24 343.66 154.16 360.6 135.93 350.05 136.01 333.11 154.24 343.66"/><polygon class="cls-7" points="205.88 373.53 205.88 390.47 265.38 355.77 265.38 338.9 205.88 373.53"/><path class="cls-2" d="M151,249.51l-59.5,34.7-.08,17L211,370.41l59.5-34.7.08-16.94"/><ellipse class="cls-3" cx="181.06" cy="301.52" rx="14.64" ry="25.19" transform="translate(-120.98 481.71) rotate(-89.84)"/><path class="cls-4" d="M244.41,310.89c-7.48,4.38-7.48,11.44.08,15.83l-19.86,11.59c-7.56-4.39-19.71-4.39-27.27,0l-79.65-46.15c7.48-4.38,7.48-11.44-.08-15.82l19.86-11.59c7.56,4.38,19.71,4.38,27.27,0Zm-81.13,1c9.85,5.72,25.86,5.72,35.64,0s9.78-15-.15-20.74-25.86-5.72-35.64,0-9.71,15,.15,20.74"/><path class="cls-3" d="M151,249.51l119.59,69.26-59.5,34.7L91.48,284.21Zm73.65,88.8,19.85-11.59c-7.55-4.39-7.55-11.45-.07-15.83l-79.65-46.14c-7.49,4.38-19.71,4.38-27.27,0l-19.86,11.59c7.56,4.38,7.56,11.44.08,15.82l79.65,46.15c7.56-4.39,19.71-4.39,27.27,0"/><polygon class="cls-5" points="219 288.9 159.5 323.6 141.27 313.05 200.77 278.34 219 288.9"/><polygon class="cls-6" points="159.42 323.6 159.35 340.54 141.12 329.99 141.19 313.05 159.42 323.6"/><polygon class="cls-7" points="211.07 353.47 211.07 370.41 270.57 335.71 270.57 318.84 211.07 353.47"/><path class="cls-2" d="M148.75,230.94l-59.5,34.7-.07,16.94,119.59,69.25,59.5-34.7.07-16.94"/><ellipse class="cls-3" cx="178.83" cy="282.94" rx="14.64" ry="25.19" transform="matrix(0, -1, 1, 0, -104.62, 460.96)"/><path class="cls-4" d="M242.19,292.31c-7.49,4.39-7.49,11.45.07,15.83L222.4,319.73c-7.55-4.38-19.71-4.38-27.26,0l-79.66-46.14c7.49-4.39,7.49-11.44-.07-15.83l19.86-11.59c7.56,4.38,19.71,4.38,27.26,0Zm-81.14,1c9.86,5.72,25.86,5.72,35.64,0s9.78-15-.15-20.73-25.85-5.72-35.64,0-9.7,15,.15,20.73"/><path class="cls-3" d="M148.75,230.94l119.59,69.25-59.5,34.7L89.25,265.64Zm73.65,88.79,19.86-11.59c-7.56-4.38-7.56-11.44-.07-15.83l-79.66-46.14c-7.48,4.38-19.7,4.38-27.26,0l-19.86,11.59c7.56,4.39,7.56,11.44.07,15.83l79.66,46.14c7.55-4.38,19.71-4.38,27.26,0"/><polygon class="cls-5" points="216.77 270.32 157.27 305.02 139.05 294.47 198.54 259.77 216.77 270.32"/><polygon class="cls-6" points="157.2 305.02 157.13 321.96 138.9 311.41 138.97 294.47 157.2 305.02"/><polygon class="cls-7" points="208.84 334.89 208.84 351.83 268.34 317.13 268.34 300.26 208.84 334.89"/><path class="cls-7" d="M214.77,415.29l.08,16.94,59.5,34.7,119.59-69.25-.08-16.94L334.36,346"/><ellipse class="cls-3" cx="304.36" cy="397.98" rx="25.19" ry="14.64" transform="matrix(1, 0, 0, 1, -1.13, 0.87)"/><path class="cls-4" d="M320.73,361.27c7.48,4.38,19.71,4.38,27.27,0l19.86,11.59c-7.56,4.39-7.56,11.44-.08,15.83l-79.65,46.14c-7.49-4.38-19.71-4.38-27.27,0L241,423.24c7.56-4.38,7.56-11.44.08-15.83Zm1.41,47.11c9.85-5.72,9.93-15,.15-20.73s-25.79-5.72-35.64,0-9.93,15-.15,20.73,25.78,5.72,35.64,0"/><path class="cls-3" d="M393.94,380.74,274.35,450l-59.5-34.7L334.44,346Zm-133.15,54c7.55-4.39,19.71-4.39,27.26,0l79.66-46.15c-7.49-4.38-7.49-11.44.07-15.82L347.92,361.2c-7.55,4.38-19.71,4.38-27.26,0L241,407.34c7.49,4.38,7.49,11.44-.07,15.83l19.86,11.59"/><polygon class="cls-5" points="266.42 385.42 325.92 420.05 344.14 409.49 284.64 374.87 266.42 385.42"/><polygon class="cls-8" points="325.99 420.12 326.06 436.99 344.29 426.44 344.22 409.57 325.99 420.12"/><polygon class="cls-2" points="274.35 449.99 274.35 466.93 214.92 432.23 214.92 415.29 274.35 449.99"/><path class="cls-7" d="M217.44,395.45l.07,16.94,59.5,34.7L396.6,377.84l-.07-16.94L337,326.2"/><ellipse class="cls-3" cx="307.02" cy="378.14" rx="25.19" ry="14.64" transform="translate(-1.08 0.88) rotate(-0.16)"/><path class="cls-4" d="M323.32,341.43c7.49,4.38,19.71,4.38,27.27,0L370.45,353c-7.56,4.39-7.56,11.44-.08,15.83L290.72,415c-7.48-4.38-19.71-4.38-27.27,0L243.6,403.4c7.55-4.38,7.55-11.44.07-15.83Zm1.41,47.11c9.86-5.72,9.93-15,.15-20.73s-25.79-5.72-35.64,0-9.93,15-.15,20.73,25.79,5.72,35.64,0"/><path class="cls-3" d="M396.6,360.9,277,430.15l-59.5-34.7L337,326.2Zm-133.22,54c7.56-4.39,19.71-4.39,27.27,0l79.65-46.15c-7.48-4.38-7.48-11.44.07-15.82l-19.85-11.59c-7.56,4.38-19.71,4.38-27.27,0L243.6,387.5c7.48,4.38,7.48,11.44-.08,15.83l19.86,11.59"/><polygon class="cls-5" points="269.01 365.5 328.58 400.21 346.81 389.65 287.24 354.95 269.01 365.5"/><polygon class="cls-8" points="328.58 400.28 328.66 417.15 346.89 406.6 346.81 389.73 328.58 400.28"/><polygon class="cls-2" points="276.94 430.15 276.94 447.02 217.51 412.39 217.51 395.45 276.94 430.15"/><path class="cls-7" d="M214.77,375.91l.08,16.94,59.5,34.7L393.94,358.3l-.08-16.94-59.5-34.71"/><ellipse class="cls-3" cx="304.36" cy="358.6" rx="25.19" ry="14.64" transform="translate(-1.02 0.87) rotate(-0.16)"/><path class="cls-4" d="M320.73,321.89c7.48,4.38,19.71,4.38,27.27,0l19.86,11.59c-7.56,4.38-7.56,11.44-.08,15.83l-79.65,46.14c-7.49-4.38-19.71-4.38-27.27,0L241,383.86c7.56-4.39,7.56-11.44.08-15.83ZM322.14,369c9.85-5.72,9.93-15,.15-20.73s-25.79-5.73-35.64,0-9.93,15-.15,20.73,25.78,5.72,35.64,0"/><path class="cls-3" d="M393.94,341.36,274.35,410.61l-59.5-34.7,119.59-69.26Zm-133.15,54c7.55-4.39,19.71-4.39,27.26,0l79.66-46.15c-7.49-4.38-7.49-11.44.07-15.83l-19.86-11.59c-7.55,4.39-19.71,4.39-27.26,0L241,368c7.49,4.38,7.49,11.44-.07,15.82l19.86,11.6"/><polygon class="cls-5" points="266.42 346.04 325.92 380.66 344.14 370.11 284.64 335.49 266.42 346.04"/><polygon class="cls-8" points="325.99 380.74 326.06 397.61 344.29 387.05 344.22 370.19 325.99 380.74"/><polygon class="cls-2" points="274.35 410.61 274.35 427.55 214.92 392.85 214.92 375.91 274.35 410.61"/><path class="cls-1" d="M106.3,406.67c-15-7.5-39.28-7.5-54.17,0s-14.82,19.62.15,27.12,39.2,7.51,54.16,0S121.34,414.1,106.3,406.67Z"/><path class="cls-1" d="M63.25,385.34c-14.38-7.5-37.5-7.5-51.72,0s-14.16,19.62.15,27.13,37.49,7.5,51.71,0S77.62,392.85,63.25,385.34ZM9.08,396.56h0a2.79,2.79,0,0,0,.15-.52C9.16,396.19,9.16,396.42,9.08,396.56Z"/><g class="cls-9"><path class="cls-10" d="M22.64,387.05c-3.78,2.23-6.15,4.91-7.11,7.81v-6.69c1-2.83,3.26-5.57,7.11-7.8,10.08-5.87,26.53-5.87,36.68,0,5.11,3,7.63,6.76,7.63,10.62v6.69c0-3.86-2.59-7.73-7.63-10.63C49.17,381.11,32.72,381.11,22.64,387.05Z"/><path class="cls-10" d="M15.6,394.78a9.2,9.2,0,0,0-.44,2.83v-6.69a9.59,9.59,0,0,1,.44-2.83v6.69Z"/><path class="cls-11" d="M67,391.07v6.68c0,3.87-2.51,7.66-7.55,10.56-10.08,5.87-26.53,5.87-36.68,0-5.11-3-7.63-6.84-7.63-10.7v-6.69c0,3.86,2.52,7.8,7.63,10.7,10.15,5.87,26.6,5.87,36.68,0C64.51,398.72,67,394.93,67,391.07Z"/><path class="cls-10" d="M67,397.75h0v-6.68C67,393.07,67,395.75,67,397.75Z"/><path class="cls-11" d="M59.32,380.37c10.15,5.87,10.22,15.38.15,21.32s-26.53,5.87-36.68,0-10.23-15.45-.15-21.32S49.17,374.5,59.32,380.37Z"/><path class="cls-12" d="M22.64,384.08c10.08-5.87,26.53-5.87,36.68,0,4.3,2.45,6.74,5.57,7.48,8.84,1-4.45-1.55-9.14-7.48-12.55-10.15-5.87-26.6-5.87-36.68,0-5.85,3.41-8.3,8-7.33,12.48C16.05,389.65,18.49,386.53,22.64,384.08Z"/><path class="cls-12" d="M74.06,391.07v6.68c0,4.91-3.18,9.74-9.55,13.45-12.82,7.51-33.72,7.51-46.68,0C11.3,407.41,8,402.51,8,397.53v-6.69c0,4.91,3.26,9.89,9.79,13.68,12.89,7.5,33.86,7.5,46.68,0C70.88,400.87,74.06,396,74.06,391.07Z"/><path class="cls-10" d="M64.36,377.47c12.89,7.5,13,19.62.15,27.12s-33.72,7.5-46.69,0-13-19.62-.14-27.12S51.39,370,64.36,377.47ZM22.79,401.69c10.15,5.87,26.6,5.87,36.68,0s10.07-15.45-.15-21.32-26.6-5.87-36.68,0-10,15.38.15,21.32"/></g><g class="cls-9"><path class="cls-10" d="M22.64,379.47c-3.78,2.23-6.15,4.91-7.11,7.81v-6.69c1-2.82,3.26-5.57,7.11-7.8,10.08-5.87,26.53-5.87,36.68,0,5.11,3,7.63,6.76,7.63,10.62v6.69c0-3.86-2.59-7.73-7.63-10.63C49.17,373.6,32.72,373.6,22.64,379.47Z"/><path class="cls-10" d="M15.6,387.28a9.14,9.14,0,0,0-.44,2.82v-6.69a9.58,9.58,0,0,1,.44-2.82v6.69Z"/><path class="cls-11" d="M67,383.56v6.69c0,3.86-2.51,7.65-7.55,10.55-10.08,5.87-26.53,5.87-36.68,0-5.11-3-7.63-6.84-7.63-10.7v-6.69c0,3.87,2.52,7.8,7.63,10.7,10.15,5.87,26.6,5.87,36.68,0C64.51,391.21,67,387.35,67,383.56Z"/><path class="cls-10" d="M67,390.25h0v-6.69C67,385.57,67,388.24,67,390.25Z"/><path class="cls-11" d="M59.32,372.86c10.15,5.87,10.22,15.38.15,21.33s-26.53,5.87-36.68,0-10.23-15.46-.15-21.33S49.17,366.92,59.32,372.86Z"/><path class="cls-12" d="M22.64,376.58c10.08-5.87,26.53-5.87,36.68,0,4.3,2.45,6.74,5.57,7.48,8.84,1-4.46-1.55-9.14-7.48-12.56-10.15-5.87-26.6-5.87-36.68,0-5.85,3.42-8.3,8-7.33,12.48C16.05,382.08,18.49,379,22.64,376.58Z"/><path class="cls-12" d="M74.06,383.56v6.69c0,4.9-3.18,9.73-9.55,13.45-12.82,7.5-33.72,7.5-46.68,0C11.3,399.91,8,395,8,390v-6.69c0,4.9,3.26,9.88,9.79,13.67,12.89,7.51,33.86,7.51,46.68,0C70.88,393.3,74.06,388.47,74.06,383.56Z"/><path class="cls-10" d="M64.36,369.89c12.89,7.5,13,19.62.15,27.12s-33.72,7.51-46.69,0-13-19.62-.14-27.12S51.39,362.46,64.36,369.89ZM22.79,394.11c10.15,5.87,26.6,5.87,36.68,0s10.07-15.45-.15-21.32-26.6-5.87-36.68,0-10,15.45.15,21.32"/></g><g class="cls-9"><path class="cls-10" d="M21.16,372c-3.78,2.23-6.15,4.9-7.11,7.8v-6.69c1-2.82,3.26-5.57,7.11-7.8,10.08-5.87,26.53-5.87,36.68,0,5.11,3,7.63,6.76,7.63,10.63v6.69c0-3.87-2.59-7.73-7.63-10.63C47.69,366.1,31.24,366.1,21.16,372Z"/><path class="cls-10" d="M14.12,379.77a8.91,8.91,0,0,0-.44,2.83v-6.69a9.28,9.28,0,0,1,.44-2.83v6.69Z"/><path class="cls-11" d="M65.54,376.06v6.68c0,3.87-2.52,7.66-7.55,10.56-10.08,5.87-26.53,5.87-36.68,0-5.12-3-7.63-6.84-7.63-10.7v-6.69c0,3.86,2.51,7.8,7.63,10.7,10.15,5.87,26.6,5.87,36.68,0C63,383.71,65.54,379.85,65.54,376.06Z"/><path class="cls-10" d="M65.47,382.67h0V376C65.54,378,65.47,380.66,65.47,382.67Z"/><path class="cls-11" d="M57.84,365.28c10.15,5.87,10.22,15.38.15,21.33s-26.53,5.87-36.68,0-10.23-15.46-.15-21.33S47.69,359.41,57.84,365.28Z"/><path class="cls-12" d="M21.16,369c10.08-5.87,26.53-5.87,36.68,0,4.29,2.45,6.74,5.57,7.48,8.84,1-4.46-1.56-9.14-7.48-12.56-10.15-5.87-26.6-5.87-36.68,0-5.85,3.42-8.3,8-7.34,12.49C14.56,374.57,17,371.45,21.16,369Z"/><path class="cls-12" d="M72.58,376.06v6.68c0,4.91-3.18,9.74-9.56,13.45-12.81,7.51-33.71,7.51-46.68,0-6.52-3.79-9.78-8.69-9.78-13.67v-6.69c0,4.91,3.26,9.89,9.78,13.68,12.9,7.5,33.87,7.5,46.68,0C69.4,385.79,72.58,380.89,72.58,376.06Z"/><path class="cls-10" d="M62.88,362.38c12.89,7.51,13,19.62.14,27.13s-33.71,7.5-46.68,0-13-19.62-.15-27.13S49.91,354.88,62.88,362.38ZM21.31,386.61c10.15,5.87,26.6,5.87,36.68,0s10.07-15.46-.15-21.33-26.6-5.87-36.68,0-10,15.46.15,21.33"/></g><g class="cls-9"><path class="cls-10" d="M69,408.83c-3.78,2.22-6.15,4.9-7.11,7.8v-6.69c1-2.82,3.26-5.57,7.11-7.8,10.08-5.87,26.53-5.87,36.68,0,5.11,3,7.63,6.76,7.63,10.62v6.69c0-3.86-2.59-7.73-7.63-10.62C95.48,403,79,403,69,408.83Z"/><path class="cls-10" d="M61.91,416.63a9.19,9.19,0,0,0-.44,2.82v-6.69a9.58,9.58,0,0,1,.44-2.82v6.69Z"/><path class="cls-11" d="M113.33,412.91v6.69c0,3.86-2.51,7.65-7.55,10.55C95.7,436,79.25,436,69.1,430.15c-5.11-3-7.63-6.83-7.63-10.7v-6.69c0,3.87,2.52,7.81,7.63,10.7,10.15,5.87,26.6,5.87,36.68,0C110.82,420.57,113.26,416.7,113.33,412.91Z"/><path class="cls-11" d="M105.63,402.14c10.15,5.87,10.22,15.38.15,21.32s-26.53,5.87-36.68,0S58.87,408,69,402.14,95.48,396.27,105.63,402.14Z"/><path class="cls-12" d="M69,405.85c10.08-5.87,26.53-5.87,36.68,0,4.3,2.46,6.74,5.58,7.48,8.85,1-4.46-1.55-9.14-7.48-12.56-10.15-5.87-26.6-5.87-36.68,0-5.85,3.42-8.3,8-7.33,12.48C62.36,411.43,64.73,408.38,69,405.85Z"/><path class="cls-12" d="M120.37,412.91v6.69c0,4.9-3.18,9.73-9.55,13.45-12.82,7.5-33.72,7.5-46.68,0-6.53-3.79-9.79-8.69-9.79-13.67v-6.69c0,4.9,3.26,9.88,9.79,13.67,12.89,7.51,33.86,7.51,46.68,0C117.19,422.65,120.37,417.82,120.37,412.91Z"/><path class="cls-10" d="M110.67,399.24c12.89,7.5,13,19.62.15,27.12s-33.72,7.51-46.68,0-13-19.62-.15-27.12S97.7,391.81,110.67,399.24ZM69.1,423.46c10.15,5.87,26.6,5.87,36.68,0s10.07-15.45-.15-21.32-26.6-5.87-36.68,0-10,15.45.15,21.32"/></g><g class="cls-9"><path class="cls-10" d="M69,401.32c-3.78,2.23-6.15,4.9-7.11,7.8v-6.68c1-2.83,3.26-5.58,7.11-7.81,10.08-5.87,26.53-5.87,36.68,0,5.11,3,7.63,6.76,7.63,10.63V412c0-3.87-2.59-7.73-7.63-10.63C95.48,395.45,79,395.45,69,401.32Z"/><path class="cls-10" d="M61.91,409.05a9.19,9.19,0,0,0-.44,2.82v-6.69a9.58,9.58,0,0,1,.44-2.82v6.69Z"/><path class="cls-11" d="M113.33,405.33V412c0,3.86-2.51,7.65-7.55,10.55-10.08,5.87-26.53,5.87-36.68,0-5.11-3-7.63-6.83-7.63-10.7v-6.69c0,3.87,2.52,7.81,7.63,10.7,10.15,5.87,26.6,5.87,36.68,0C110.82,413,113.26,409.2,113.33,405.33Z"/><path class="cls-11" d="M105.63,394.63c10.15,5.87,10.22,15.38.15,21.33s-26.53,5.87-36.68,0S58.87,400.5,69,394.63,95.48,388.76,105.63,394.63Z"/><path class="cls-12" d="M69,398.35c10.08-5.87,26.53-5.87,36.68,0,4.3,2.45,6.74,5.57,7.48,8.84,1-4.46-1.55-9.14-7.48-12.56-10.15-5.87-26.6-5.87-36.68,0-5.85,3.42-8.3,8-7.33,12.49C62.36,403.92,64.73,400.8,69,398.35Z"/><path class="cls-12" d="M120.37,405.41v6.68c0,4.91-3.18,9.74-9.55,13.45-12.82,7.51-33.72,7.51-46.68,0-6.53-3.79-9.79-8.69-9.79-13.67v-6.69c0,4.91,3.26,9.89,9.79,13.68,12.89,7.5,33.86,7.5,46.68,0C117.19,415.14,120.37,410.24,120.37,405.41Z"/><path class="cls-10" d="M110.67,391.74c12.89,7.5,13,19.61.15,27.12s-33.72,7.5-46.68,0-13-19.62-.15-27.12S97.7,384.23,110.67,391.74ZM69.1,416c10.15,5.87,26.6,5.87,36.68,0s10.07-15.46-.15-21.33-26.6-5.87-36.68,0S59,410.09,69.1,416"/></g><g class="cls-9"><path class="cls-10" d="M67.47,393.74c-3.78,2.23-6.15,4.91-7.11,7.8v-6.68c1-2.83,3.26-5.58,7.11-7.81,10.08-5.87,26.53-5.87,36.68,0,5.11,3,7.63,6.77,7.63,10.63v6.69c0-3.87-2.59-7.73-7.63-10.63C94,387.87,77.55,387.87,67.47,393.74Z"/><path class="cls-10" d="M60.43,401.54a9,9,0,0,0-.44,2.83v-6.69a9.17,9.17,0,0,1,.44-2.82v6.68Z"/><path class="cls-11" d="M111.85,397.83v6.69c0,3.86-2.52,7.65-7.55,10.55-10.08,5.87-26.53,5.87-36.68,0-5.12-3-7.63-6.84-7.63-10.7v-6.69c0,3.86,2.51,7.8,7.63,10.7,10.15,5.87,26.6,5.87,36.68,0C109.33,405.48,111.78,401.69,111.85,397.83Z"/><path class="cls-11" d="M104.15,387.13c10.15,5.87,10.22,15.38.15,21.32s-26.53,5.87-36.68,0S57.39,393,67.47,387.13,94,381.26,104.15,387.13Z"/><path class="cls-12" d="M67.47,390.84c10.08-5.87,26.53-5.87,36.68,0,4.29,2.46,6.74,5.58,7.48,8.85,1-4.46-1.56-9.14-7.48-12.56-10.15-5.87-26.6-5.87-36.68,0-5.85,3.42-8.3,8-7.34,12.48C60.87,396.34,63.25,393.3,67.47,390.84Z"/><path class="cls-12" d="M118.89,397.83v6.69c0,4.9-3.18,9.73-9.56,13.45-12.81,7.5-33.71,7.5-46.68,0-6.52-3.79-9.78-8.7-9.78-13.68v-6.68c0,4.9,3.26,9.88,9.78,13.67,12.9,7.5,33.87,7.5,46.68,0C115.71,407.64,118.89,402.73,118.89,397.83Z"/><path class="cls-10" d="M109.19,384.23c12.89,7.51,13,19.62.14,27.12s-33.71,7.51-46.68,0-13-19.61-.15-27.12S96.22,376.73,109.19,384.23ZM67.62,408.45c10.15,5.87,26.6,5.87,36.68,0s10.07-15.45-.15-21.32-26.6-5.87-36.68,0-10,15.38.15,21.32"/></g><g class="cls-9"><path class="cls-10" d="M70.43,386.24c-3.78,2.23-6.15,4.9-7.11,7.8v-6.69c1-2.82,3.26-5.57,7.11-7.8,10.08-5.87,26.53-5.87,36.68,0,5.11,3,7.63,6.76,7.63,10.62v6.69c0-3.86-2.59-7.73-7.63-10.62C97,380.37,80.51,380.37,70.43,386.24Z"/><path class="cls-10" d="M63.39,394a9.19,9.19,0,0,0-.44,2.82v-6.69a9.58,9.58,0,0,1,.44-2.82V394Z"/><path class="cls-11" d="M114.82,390.32V397c0,3.86-2.52,7.65-7.56,10.55-10.08,5.87-26.53,5.87-36.68,0-5.11-3-7.63-6.83-7.63-10.7v-6.69c0,3.87,2.52,7.81,7.63,10.7,10.15,5.87,26.6,5.87,36.68,0C112.3,398,114.74,394.11,114.82,390.32Z"/><path class="cls-11" d="M107.11,379.55c10.15,5.87,10.23,15.38.15,21.32s-26.53,5.87-36.68,0-10.22-15.45-.15-21.32S97,373.68,107.11,379.55Z"/><path class="cls-12" d="M70.43,383.26c10.08-5.87,26.53-5.87,36.68,0,4.3,2.46,6.74,5.58,7.48,8.85,1-4.46-1.55-9.14-7.48-12.56-10.15-5.87-26.6-5.87-36.68,0-5.85,3.42-8.3,8-7.33,12.48C63.84,388.84,66.21,385.72,70.43,383.26Z"/><path class="cls-12" d="M121.86,390.32V397c0,4.9-3.19,9.73-9.56,13.45-12.82,7.51-33.72,7.51-46.68,0-6.52-3.79-9.78-8.69-9.78-13.67V390.1c0,4.9,3.26,9.88,9.78,13.67,12.89,7.51,33.86,7.51,46.68,0C118.67,400.06,121.86,395.23,121.86,390.32Z"/><path class="cls-10" d="M112.15,376.65c12.89,7.51,13,19.62.15,27.12s-33.72,7.51-46.68,0-13-19.61-.15-27.12S99.18,369.22,112.15,376.65ZM70.58,400.87c10.15,5.87,26.6,5.87,36.68,0s10.08-15.45-.15-21.32-26.6-5.87-36.68,0-10,15.45.15,21.32"/></g><g class="cls-9"><path class="cls-10" d="M67.47,378.73c-3.78,2.23-6.15,4.91-7.11,7.8v-6.68c1-2.83,3.26-5.58,7.11-7.81,10.08-5.87,26.53-5.87,36.68,0,5.11,3,7.63,6.77,7.63,10.63v6.69c0-3.87-2.59-7.73-7.63-10.63C94,372.86,77.55,372.86,67.47,378.73Z"/><path class="cls-10" d="M60.43,386.46a8.9,8.9,0,0,0-.44,2.82V382.6a9.28,9.28,0,0,1,.44-2.83v6.69Z"/><path class="cls-11" d="M111.85,382.74v6.69c0,3.87-2.52,7.66-7.55,10.55-10.08,5.87-26.53,5.87-36.68,0-5.12-3-7.63-6.83-7.63-10.7V382.6c0,3.86,2.51,7.8,7.63,10.7,10.15,5.87,26.6,5.87,36.68,0C109.33,390.4,111.78,386.61,111.85,382.74Z"/><path class="cls-11" d="M104.15,372c10.15,5.87,10.22,15.39.15,21.33s-26.53,5.87-36.68,0S57.39,377.91,67.47,372,94,366.17,104.15,372Z"/><path class="cls-12" d="M67.47,375.76c10.08-5.87,26.53-5.87,36.68,0,4.29,2.45,6.74,5.57,7.48,8.84,1-4.46-1.56-9.14-7.48-12.56-10.15-5.87-26.6-5.87-36.68,0-5.85,3.42-8.3,8-7.34,12.49C60.87,381.33,63.25,378.21,67.47,375.76Z"/><path class="cls-12" d="M118.89,382.82v6.69c0,4.9-3.18,9.73-9.56,13.45-12.81,7.5-33.71,7.5-46.68,0-6.52-3.79-9.78-8.7-9.78-13.68V382.6c0,4.9,3.26,9.88,9.78,13.67,12.9,7.5,33.87,7.5,46.68,0C115.71,392.55,118.89,387.65,118.89,382.82Z"/><path class="cls-10" d="M109.19,369.15c12.89,7.5,13,19.61.14,27.12s-33.71,7.5-46.68,0-13-19.62-.15-27.12S96.22,361.64,109.19,369.15ZM67.62,393.37c10.15,5.87,26.6,5.87,36.68,0s10.07-15.46-.15-21.33-26.6-5.87-36.68,0-10,15.46.15,21.33"/></g><g class="cls-9"><path class="cls-10" d="M69,371.15c-3.78,2.23-6.15,4.91-7.11,7.8v-6.68c1-2.83,3.26-5.58,7.11-7.81,10.08-5.87,26.53-5.87,36.68,0,5.11,3,7.63,6.77,7.63,10.63v6.69c0-3.87-2.59-7.73-7.63-10.63C95.48,365.28,79,365.28,69,371.15Z"/><path class="cls-10" d="M61.91,379a9.25,9.25,0,0,0-.44,2.83v-6.69a9.48,9.48,0,0,1,.44-2.82V379Z"/><path class="cls-11" d="M113.33,375.24v6.69c0,3.86-2.51,7.65-7.55,10.55-10.08,5.87-26.53,5.87-36.68,0-5.11-3-7.63-6.84-7.63-10.7v-6.69c0,3.86,2.52,7.8,7.63,10.7,10.15,5.87,26.6,5.87,36.68,0C110.82,382.89,113.26,379.1,113.33,375.24Z"/><path class="cls-11" d="M105.63,364.54c10.15,5.87,10.22,15.38.15,21.32s-26.53,5.88-36.68,0S58.87,370.41,69,364.54,95.48,358.67,105.63,364.54Z"/><path class="cls-12" d="M69,368.25c10.08-5.87,26.53-5.87,36.68,0,4.3,2.46,6.74,5.58,7.48,8.85,1-4.46-1.55-9.14-7.48-12.56-10.15-5.87-26.6-5.87-36.68,0-5.85,3.42-8.3,8-7.33,12.48C62.36,373.75,64.73,370.71,69,368.25Z"/><path class="cls-12" d="M120.37,375.24v6.69c0,4.9-3.18,9.73-9.55,13.45-12.82,7.5-33.72,7.5-46.68,0-6.53-3.79-9.79-8.7-9.79-13.68V375c0,4.9,3.26,9.88,9.79,13.67,12.89,7.5,33.86,7.5,46.68,0C117.19,385,120.37,380.14,120.37,375.24Z"/><path class="cls-10" d="M110.67,361.64c12.89,7.51,13,19.62.15,27.12s-33.72,7.51-46.68,0-13-19.61-.15-27.12S97.7,354.14,110.67,361.64ZM69.1,385.79c10.15,5.87,26.6,5.87,36.68,0s10.07-15.46-.15-21.33-26.6-5.87-36.68,0-10,15.46.15,21.33"/></g><g class="cls-9"><path class="cls-10" d="M70.43,364.39c-3.78,2.23-6.15,4.9-7.11,7.8v-6.68c1-2.83,3.26-5.58,7.11-7.81,10.08-5.87,26.53-5.87,36.68,0,5.11,3,7.63,6.76,7.63,10.63V375c0-3.87-2.59-7.73-7.63-10.63C97,358.52,80.51,358.52,70.43,364.39Z"/><path class="cls-10" d="M63.39,372.19A9.2,9.2,0,0,0,63,375v-6.69a9.48,9.48,0,0,1,.44-2.82v6.68Z"/><path class="cls-11" d="M114.82,368.48v6.68c0,3.87-2.52,7.66-7.56,10.56-10.08,5.87-26.53,5.87-36.68,0-5.11-3-7.63-6.84-7.63-10.7v-6.69c0,3.86,2.52,7.8,7.63,10.7,10.15,5.87,26.6,5.87,36.68,0C112.3,376.13,114.74,372.27,114.82,368.48Z"/><path class="cls-11" d="M107.11,357.7c10.15,5.87,10.23,15.38.15,21.33s-26.53,5.87-36.68,0-10.22-15.46-.15-21.33S97,351.83,107.11,357.7Z"/><path class="cls-12" d="M70.43,361.42c10.08-5.87,26.53-5.87,36.68,0,4.3,2.45,6.74,5.57,7.48,8.84,1-4.46-1.55-9.14-7.48-12.56-10.15-5.87-26.6-5.87-36.68,0-5.85,3.42-8.3,8-7.33,12.49C63.84,367,66.21,363.87,70.43,361.42Z"/><path class="cls-12" d="M121.86,368.48v6.68c0,4.91-3.19,9.74-9.56,13.45-12.82,7.51-33.72,7.51-46.68,0-6.52-3.79-9.78-8.69-9.78-13.67v-6.69c0,4.91,3.26,9.89,9.78,13.68,12.89,7.5,33.86,7.5,46.68,0C118.67,378.21,121.86,373.38,121.86,368.48Z"/><path class="cls-10" d="M112.15,354.8c12.89,7.51,13,19.62.15,27.13s-33.72,7.5-46.68,0-13-19.62-.15-27.13S99.18,347.3,112.15,354.8ZM70.58,379c10.15,5.87,26.6,5.87,36.68,0s10.08-15.46-.15-21.33-26.6-5.87-36.68,0-10,15.46.15,21.33"/></g><g class="cls-9"><path class="cls-10" d="M67.47,356.14c-3.78,2.23-6.15,4.91-7.11,7.8v-6.68c1-2.83,3.26-5.58,7.11-7.81,10.08-5.87,26.53-5.87,36.68,0,5.11,3,7.63,6.77,7.63,10.63v6.69c0-3.87-2.59-7.73-7.63-10.63C94,350.27,77.55,350.27,67.47,356.14Z"/><path class="cls-10" d="M60.43,363.87a8.9,8.9,0,0,0-.44,2.82V360a9.28,9.28,0,0,1,.44-2.83v6.69Z"/><path class="cls-11" d="M111.85,360.16v6.68c0,3.87-2.52,7.66-7.55,10.55-10.08,5.87-26.53,5.87-36.68,0-5.12-3-7.63-6.83-7.63-10.7V360c0,3.86,2.51,7.8,7.63,10.7,10.15,5.87,26.6,5.87,36.68,0C109.33,367.81,111.78,364,111.85,360.16Z"/><path class="cls-11" d="M104.15,349.45c10.15,5.88,10.22,15.39.15,21.33s-26.53,5.87-36.68,0-10.23-15.45-.15-21.33S94,343.58,104.15,349.45Z"/><path class="cls-12" d="M67.47,353.17c10.08-5.87,26.53-5.87,36.68,0,4.29,2.45,6.74,5.57,7.48,8.84,1-4.46-1.56-9.14-7.48-12.56-10.15-5.87-26.6-5.87-36.68,0-5.85,3.42-8.3,8-7.34,12.49C60.87,358.74,63.25,355.62,67.47,353.17Z"/><path class="cls-12" d="M118.89,360.23v6.69c0,4.9-3.18,9.73-9.56,13.45-12.81,7.5-33.71,7.5-46.68,0-6.52-3.79-9.78-8.7-9.78-13.68V360c0,4.9,3.26,9.88,9.78,13.67,12.9,7.5,33.87,7.5,46.68,0C115.71,370,118.89,365.06,118.89,360.23Z"/><path class="cls-10" d="M109.19,346.56c12.89,7.5,13,19.61.14,27.12s-33.71,7.5-46.68,0-13-19.62-.15-27.12S96.22,339.05,109.19,346.56ZM67.62,370.78c10.15,5.87,26.6,5.87,36.68,0s10.07-15.45-.15-21.33-26.6-5.87-36.68,0-10,15.46.15,21.33"/></g><g class="cls-9"><path class="cls-10" d="M70.43,348.56c-3.78,2.23-6.15,4.91-7.11,7.81v-6.69c1-2.83,3.26-5.58,7.11-7.8,10.08-5.87,26.53-5.87,36.68,0,5.11,3,7.63,6.76,7.63,10.62v6.69c0-3.86-2.59-7.73-7.63-10.63C97,342.69,80.51,342.69,70.43,348.56Z"/><path class="cls-10" d="M63.39,356.37a9.14,9.14,0,0,0-.44,2.82V352.5a9.53,9.53,0,0,1,.44-2.82v6.69Z"/><path class="cls-11" d="M114.82,352.65v6.69c0,3.86-2.52,7.65-7.56,10.55-10.08,5.87-26.53,5.87-36.68,0-5.11-3-7.63-6.84-7.63-10.7V352.5c0,3.87,2.52,7.8,7.63,10.7,10.15,5.87,26.6,5.87,36.68,0C112.3,360.3,114.74,356.51,114.82,352.65Z"/><path class="cls-11" d="M107.11,342c10.15,5.87,10.23,15.38.15,21.33s-26.53,5.87-36.68,0S60.36,347.82,70.43,342,97,336,107.11,342Z"/><path class="cls-12" d="M70.43,345.67c10.08-5.87,26.53-5.87,36.68,0,4.3,2.45,6.74,5.57,7.48,8.84,1-4.46-1.55-9.14-7.48-12.56-10.15-5.87-26.6-5.87-36.68,0-5.85,3.42-8.3,8-7.33,12.48C63.84,351.16,66.21,348.12,70.43,345.67Z"/><path class="cls-12" d="M121.86,352.65v6.69c0,4.9-3.19,9.73-9.56,13.45-12.82,7.5-33.72,7.5-46.68,0-6.52-3.79-9.78-8.7-9.78-13.68v-6.68c0,4.9,3.26,9.88,9.78,13.67,12.89,7.5,33.86,7.5,46.68,0C118.67,362.38,121.86,357.55,121.86,352.65Z"/><path class="cls-10" d="M112.15,339.05c12.89,7.51,13,19.62.15,27.12s-33.72,7.51-46.68,0-13-19.61-.15-27.12S99.18,331.55,112.15,339.05ZM70.58,363.2c10.15,5.87,26.6,5.87,36.68,0s10.08-15.45-.15-21.32-26.6-5.87-36.68,0-10,15.45.15,21.32"/></g><g class="cls-9"><path class="cls-10" d="M68.21,341.06c-3.78,2.23-6.15,4.9-7.11,7.8v-6.69c1-2.82,3.26-5.57,7.11-7.8,10.08-5.87,26.53-5.87,36.68,0,5.11,3,7.63,6.76,7.63,10.63v6.68c0-3.86-2.59-7.72-7.63-10.62C94.74,335.19,78.29,335.19,68.21,341.06Z"/><path class="cls-10" d="M61.17,348.86a8.9,8.9,0,0,0-.44,2.82V345a9.28,9.28,0,0,1,.44-2.83v6.69Z"/><path class="cls-11" d="M112.59,345.15v6.68c0,3.87-2.52,7.66-7.55,10.55-10.08,5.87-26.53,5.87-36.68,0-5.11-3-7.63-6.83-7.63-10.7V345c0,3.86,2.52,7.8,7.63,10.7,10.15,5.87,26.6,5.87,36.68,0C110.07,352.8,112.52,348.93,112.59,345.15Z"/><path class="cls-11" d="M104.89,334.37c10.15,5.87,10.22,15.38.15,21.33s-26.53,5.87-36.68,0-10.23-15.46-.15-21.33S94.74,328.5,104.89,334.37Z"/><path class="cls-12" d="M68.21,338.09c10.08-5.87,26.53-5.87,36.68,0,4.3,2.45,6.74,5.57,7.48,8.84,1-4.46-1.55-9.14-7.48-12.56-10.15-5.87-26.6-5.87-36.68,0-5.85,3.42-8.3,8-7.34,12.48C61.62,343.66,64,340.54,68.21,338.09Z"/><path class="cls-12" d="M119.63,345.15v6.68c0,4.91-3.18,9.74-9.56,13.45-12.81,7.51-33.71,7.51-46.68,0-6.52-3.79-9.78-8.69-9.78-13.67v-6.69c0,4.91,3.26,9.88,9.78,13.67,12.9,7.51,33.87,7.51,46.68,0C116.45,354.88,119.63,350.05,119.63,345.15Z"/><path class="cls-10" d="M109.93,331.47c12.89,7.51,13,19.62.14,27.12s-33.71,7.51-46.68,0-13-19.61-.14-27.12S97,324,109.93,331.47ZM68.36,355.7c10.15,5.87,26.6,5.87,36.68,0s10.07-15.46-.15-21.33-26.6-5.87-36.68,0-10,15.46.15,21.33"/></g><g class="cls-9"><path class="cls-10" d="M69,333.55c-3.78,2.23-6.15,4.91-7.11,7.81v-6.69c1-2.83,3.26-5.57,7.11-7.8,10.08-5.87,26.53-5.87,36.68,0,5.11,3,7.63,6.76,7.63,10.62v6.69c0-3.86-2.59-7.73-7.63-10.63C95.48,327.61,79,327.61,69,333.55Z"/><path class="cls-10" d="M61.91,341.28a9.19,9.19,0,0,0-.44,2.82v-6.68a9.59,9.59,0,0,1,.44-2.83v6.69Z"/><path class="cls-11" d="M113.33,337.57v6.68c0,3.87-2.51,7.66-7.55,10.55-10.08,5.88-26.53,5.88-36.68,0-5.11-3-7.63-6.83-7.63-10.7v-6.68c0,3.86,2.52,7.8,7.63,10.7,10.15,5.87,26.6,5.87,36.68,0C110.82,345.22,113.26,341.43,113.33,337.57Z"/><path class="cls-11" d="M105.63,326.87c10.15,5.87,10.22,15.38.15,21.32s-26.53,5.87-36.68,0S58.87,332.74,69,326.87,95.48,321,105.63,326.87Z"/><path class="cls-12" d="M69,330.58c10.08-5.87,26.53-5.87,36.68,0,4.3,2.45,6.74,5.57,7.48,8.84,1-4.45-1.55-9.14-7.48-12.55C95.48,321,79,321,69,326.87c-5.85,3.41-8.3,8-7.33,12.48C62.36,336.15,64.73,333,69,330.58Z"/><path class="cls-12" d="M120.37,337.64v6.69c0,4.9-3.18,9.73-9.55,13.45-12.82,7.5-33.72,7.5-46.68,0-6.53-3.79-9.79-8.7-9.79-13.68v-6.68c0,4.9,3.26,9.88,9.79,13.67,12.89,7.5,33.86,7.5,46.68,0C117.19,347.37,120.37,342.47,120.37,337.64Z"/><path class="cls-10" d="M110.67,324c12.89,7.5,13,19.61.15,27.12s-33.72,7.5-46.68,0S51.17,331.47,64,324,97.7,316.46,110.67,324ZM69.1,348.19c10.15,5.87,26.6,5.87,36.68,0s10.07-15.45-.15-21.32S79,321,69,326.87s-10,15.45.15,21.32"/></g><path class="cls-1" d="M155.05,437.73c-14.37-7.5-37.49-7.5-51.72,0s-14.15,19.62.15,27.12,37.49,7.51,51.72,0S169.43,445.16,155.05,437.73Zm-54.16,11.15h0a5.27,5.27,0,0,0,.14-.52A5.27,5.27,0,0,1,100.89,448.88Z"/><path class="cls-1" d="M136.68,490.49c-9.93-5.2-25.94-5.2-35.79,0s-9.78,13.6.14,18.72,25.94,5.2,35.79,0S146.6,495.69,136.68,490.49Zm-37.42,7.73h0c0-.15.07-.23.07-.38A.88.88,0,0,0,99.26,498.22Z"/><g class="cls-9"><path class="cls-10" d="M114.37,439.74c-3.78,2.23-6.15,4.9-7.11,7.8v-6.69c1-2.82,3.26-5.57,7.11-7.8,10.08-5.87,26.53-5.87,36.68,0,5.11,3,7.63,6.76,7.63,10.62v6.69c0-3.86-2.59-7.73-7.63-10.62C140.9,433.87,124.45,433.87,114.37,439.74Z"/><path class="cls-10" d="M107.26,447.54a8.9,8.9,0,0,0-.45,2.82v-6.69a9.28,9.28,0,0,1,.45-2.82v6.32A.65.65,0,0,1,107.26,447.54Z"/><path class="cls-11" d="M158.68,443.82v6.69c0,3.87-2.52,7.65-7.56,10.55-10.07,5.87-26.52,5.87-36.67,0-5.12-3-7.64-6.83-7.64-10.7v-6.69c0,3.87,2.52,7.81,7.64,10.71,10.15,5.87,26.6,5.87,36.67,0C156.16,451.48,158.68,447.61,158.68,443.82Z"/><path class="cls-11" d="M151.05,433.05c10.15,5.87,10.23,15.38.15,21.33s-26.53,5.87-36.68,0-10.22-15.46-.15-21.33S140.9,427.18,151.05,433.05Z"/><path class="cls-12" d="M114.37,436.76c10.08-5.87,26.53-5.87,36.68,0,4.3,2.46,6.74,5.58,7.48,8.85,1-4.46-1.55-9.14-7.48-12.56-10.15-5.87-26.6-5.87-36.68,0-5.85,3.42-8.3,8-7.33,12.48C107.7,442.34,110.15,439.22,114.37,436.76Z"/><path class="cls-12" d="M165.79,443.82v6.69c0,4.91-3.18,9.74-9.55,13.45-12.82,7.51-33.72,7.51-46.68,0-6.52-3.79-9.78-8.69-9.78-13.67V443.6c0,4.9,3.26,9.88,9.78,13.67,12.89,7.51,33.86,7.51,46.68,0C162.61,453.56,165.79,448.73,165.79,443.82Z"/><path class="cls-10" d="M156.09,430.15c12.89,7.51,13,19.62.15,27.12s-33.72,7.51-46.68,0-13-19.61-.15-27.12S143.12,422.65,156.09,430.15Zm-41.57,24.23c10.15,5.87,26.6,5.87,36.68,0s10.08-15.46-.15-21.33-26.6-5.87-36.68,0-10,15.45.15,21.33"/></g><g class="cls-9"><path class="cls-10" d="M114.37,432.23c-3.78,2.23-6.15,4.91-7.11,7.8v-6.68c1-2.83,3.26-5.58,7.11-7.81,10.08-5.87,26.53-5.87,36.68,0,5.11,3,7.63,6.77,7.63,10.63v6.69c0-3.87-2.59-7.73-7.63-10.63C140.9,426.36,124.45,426.36,114.37,432.23Z"/><path class="cls-10" d="M107.26,440a8.9,8.9,0,0,0-.45,2.82V436.1a9.29,9.29,0,0,1,.45-2.83v6.32C107.26,439.74,107.33,439.89,107.26,440Z"/><path class="cls-11" d="M158.68,436.24v6.69c0,3.87-2.52,7.66-7.56,10.55-10.07,5.87-26.52,5.87-36.67,0-5.12-3-7.64-6.83-7.64-10.7V436.1c0,3.86,2.52,7.8,7.64,10.7,10.15,5.87,26.6,5.87,36.67,0C156.16,443.9,158.68,440.11,158.68,436.24Z"/><path class="cls-11" d="M151.05,425.54c10.15,5.87,10.23,15.39.15,21.33s-26.53,5.87-36.68,0-10.22-15.46-.15-21.33S140.9,419.67,151.05,425.54Z"/><path class="cls-12" d="M114.37,429.26c10.08-5.87,26.53-5.87,36.68,0,4.3,2.45,6.74,5.57,7.48,8.84,1-4.46-1.55-9.14-7.48-12.56-10.15-5.87-26.6-5.87-36.68,0-5.85,3.42-8.3,8-7.33,12.49C107.7,434.83,110.15,431.71,114.37,429.26Z"/><path class="cls-12" d="M165.79,436.32V443c0,4.9-3.18,9.73-9.55,13.45-12.82,7.5-33.72,7.5-46.68,0-6.52-3.79-9.78-8.7-9.78-13.68V436.1c0,4.9,3.26,9.88,9.78,13.67,12.89,7.5,33.86,7.5,46.68,0C162.61,446.05,165.79,441.15,165.79,436.32Z"/><path class="cls-10" d="M156.09,422.65c12.89,7.5,13,19.61.15,27.12s-33.72,7.5-46.68,0-13-19.62-.15-27.12S143.12,415.14,156.09,422.65Zm-41.57,24.22c10.15,5.87,26.6,5.87,36.68,0s10.08-15.46-.15-21.33-26.6-5.87-36.68,0-10,15.46.15,21.33"/></g><g class="cls-9"><path class="cls-10" d="M112.89,424.65c-3.78,2.23-6.15,4.91-7.11,7.8v-6.68c1-2.83,3.26-5.58,7.11-7.8,10.08-5.88,26.53-5.88,36.68,0,5.11,3,7.63,6.76,7.63,10.62v6.69c0-3.87-2.59-7.73-7.63-10.63C139.42,418.78,123,418.78,112.89,424.65Z"/><path class="cls-10" d="M105.78,432.45a9,9,0,0,0-.45,2.83v-6.69a9.18,9.18,0,0,1,.45-2.82v6.31C105.78,432.16,105.85,432.31,105.78,432.45Z"/><path class="cls-11" d="M157.2,428.74v6.69c0,3.86-2.52,7.65-7.56,10.55-10.08,5.87-26.52,5.87-36.68,0-5.11-3-7.63-6.84-7.63-10.7v-6.69c0,3.86,2.52,7.8,7.63,10.7,10.16,5.87,26.6,5.87,36.68,0C154.68,436.39,157.2,432.6,157.2,428.74Z"/><path class="cls-11" d="M149.57,418c10.15,5.87,10.22,15.38.15,21.33s-26.53,5.87-36.68,0-10.23-15.46-.15-21.33S139.42,412.17,149.57,418Z"/><path class="cls-12" d="M112.89,421.75c10.08-5.87,26.53-5.87,36.68,0,4.3,2.46,6.74,5.58,7.48,8.85,1-4.46-1.55-9.14-7.48-12.56-10.15-5.87-26.6-5.87-36.68,0-5.85,3.42-8.3,8-7.34,12.48C106.22,427.25,108.67,424.21,112.89,421.75Z"/><path class="cls-12" d="M164.31,428.74v6.69c0,4.9-3.18,9.73-9.56,13.45-12.81,7.5-33.71,7.5-46.68,0-6.52-3.79-9.78-8.7-9.78-13.68v-6.68c0,4.9,3.26,9.88,9.78,13.67,12.9,7.5,33.87,7.5,46.68,0C161.13,438.47,164.31,433.64,164.31,428.74Z"/><path class="cls-10" d="M154.61,415.14c12.89,7.51,13,19.62.14,27.12s-33.71,7.51-46.68,0-13-19.61-.14-27.12S141.64,407.64,154.61,415.14ZM113,439.29c10.15,5.87,26.6,5.87,36.68,0s10.07-15.45-.15-21.32-26.6-5.88-36.68,0-10,15.45.15,21.32"/></g><g class="cls-9"><path class="cls-10" d="M115.85,417.15c-3.77,2.23-6.15,4.9-7.11,7.8v-6.69c1-2.82,3.26-5.57,7.11-7.8,10.08-5.87,26.53-5.87,36.68,0,5.11,3,7.63,6.76,7.63,10.63v6.68c0-3.86-2.59-7.72-7.63-10.62C142.38,411.28,125.93,411.28,115.85,417.15Z"/><path class="cls-10" d="M108.74,425a8.9,8.9,0,0,0-.44,2.82v-6.68a9.28,9.28,0,0,1,.44-2.83v6.32C108.74,424.65,108.82,424.8,108.74,425Z"/><path class="cls-11" d="M160.16,421.23v6.69c0,3.87-2.52,7.66-7.55,10.55-10.08,5.87-26.53,5.87-36.68,0-5.11-3-7.63-6.83-7.63-10.7v-6.68c0,3.86,2.52,7.8,7.63,10.7,10.15,5.87,26.6,5.87,36.68,0C157.64,428.89,160.16,425,160.16,421.23Z"/><path class="cls-11" d="M152.53,410.46c10.15,5.87,10.23,15.38.15,21.33s-26.53,5.87-36.68,0-10.22-15.46-.15-21.33S142.38,404.59,152.53,410.46Z"/><path class="cls-12" d="M115.85,414.18c10.08-5.87,26.53-5.87,36.68,0,4.3,2.45,6.74,5.57,7.49,8.84,1-4.46-1.56-9.14-7.49-12.56-10.15-5.87-26.6-5.87-36.68,0-5.85,3.42-8.29,8-7.33,12.48C109.19,419.75,111.63,416.63,115.85,414.18Z"/><path class="cls-12" d="M167.28,421.23v6.69c0,4.91-3.19,9.74-9.56,13.45-12.82,7.51-33.72,7.51-46.68,0-6.52-3.79-9.78-8.69-9.78-13.67V421c0,4.91,3.26,9.88,9.78,13.67,12.89,7.51,33.86,7.51,46.68,0C164.09,431,167.28,426.14,167.28,421.23Z"/><path class="cls-10" d="M157.57,407.56c12.89,7.51,13,19.62.15,27.12s-33.72,7.51-46.68,0-13-19.61-.15-27.12S144.6,400.06,157.57,407.56ZM116,431.79c10.15,5.87,26.6,5.87,36.68,0s10.08-15.46-.15-21.33-26.6-5.87-36.68,0-10,15.46.15,21.33"/></g><g class="cls-9"><path class="cls-10" d="M112.89,409.64c-3.78,2.23-6.15,4.91-7.11,7.8v-6.68c1-2.83,3.26-5.58,7.11-7.8,10.08-5.87,26.53-5.87,36.68,0,5.11,3,7.63,6.76,7.63,10.62v6.69c0-3.87-2.59-7.73-7.63-10.63C139.42,403.7,123,403.7,112.89,409.64Z"/><path class="cls-10" d="M105.78,417.37a8.9,8.9,0,0,0-.45,2.82v-6.68a9.29,9.29,0,0,1,.45-2.83V417C105.78,417.15,105.85,417.3,105.78,417.37Z"/><path class="cls-11" d="M157.2,413.66v6.68c0,3.87-2.52,7.66-7.56,10.55-10.08,5.87-26.52,5.87-36.68,0-5.11-3-7.63-6.83-7.63-10.7v-6.68c0,3.86,2.52,7.8,7.63,10.7,10.16,5.87,26.6,5.87,36.68,0C154.68,421.31,157.2,417.52,157.2,413.66Z"/><path class="cls-11" d="M149.57,403c10.15,5.87,10.22,15.38.15,21.32s-26.53,5.87-36.68,0-10.23-15.45-.15-21.32S139.42,397.09,149.57,403Z"/><path class="cls-12" d="M112.89,406.67c10.08-5.87,26.53-5.87,36.68,0,4.3,2.45,6.74,5.57,7.48,8.84,1-4.46-1.55-9.14-7.48-12.55-10.15-5.87-26.6-5.87-36.68,0-5.85,3.41-8.3,8-7.34,12.48C106.22,412.24,108.67,409.12,112.89,406.67Z"/><path class="cls-12" d="M164.31,413.73v6.69c0,4.9-3.18,9.73-9.56,13.45-12.81,7.5-33.71,7.5-46.68,0-6.52-3.79-9.78-8.7-9.78-13.68v-6.68c0,4.9,3.26,9.88,9.78,13.67,12.9,7.5,33.87,7.5,46.68,0C161.13,423.46,164.31,418.56,164.31,413.73Z"/><path class="cls-10" d="M154.61,400.06c12.89,7.5,13,19.61.14,27.12s-33.71,7.5-46.68,0-13-19.62-.14-27.12S141.64,392.55,154.61,400.06ZM113,424.28c10.15,5.87,26.6,5.87,36.68,0s10.07-15.45-.15-21.32-26.6-5.87-36.68,0-10,15.45.15,21.32"/></g><path class="cls-1" d="M89,455.34c-14.3-7.5-37.49-7.5-51.72,0s-14.15,19.62.15,27.12,37.49,7.51,51.72,0S103.41,462.77,89,455.34Z"/><g class="cls-9"><path class="cls-10" d="M48.35,458.16c-3.78,2.23-6.15,4.91-7.11,7.81v-6.69c1-2.82,3.26-5.57,7.11-7.8,10.08-5.87,26.53-5.87,36.68,0,5.11,3,7.63,6.76,7.63,10.62v6.69c0-3.86-2.59-7.73-7.63-10.63C74.88,452.22,58.43,452.22,48.35,458.16Z"/><path class="cls-10" d="M41.31,465.89a9.2,9.2,0,0,0-.44,2.83V462a9.59,9.59,0,0,1,.44-2.83v6.69Z"/><path class="cls-11" d="M92.74,462.18v6.68c0,3.87-2.52,7.66-7.56,10.56-10.08,5.87-26.53,5.87-36.68,0-5.11-3-7.63-6.84-7.63-10.7V462c0,3.86,2.52,7.8,7.63,10.7,10.15,5.87,26.6,5.87,36.68,0C90.22,469.83,92.66,466,92.74,462.18Z"/><path class="cls-11" d="M85,451.48c10.15,5.87,10.23,15.38.15,21.32s-26.53,5.87-36.68,0-10.22-15.45-.15-21.32S74.88,445.61,85,451.48Z"/><path class="cls-12" d="M48.35,455.19c10.08-5.87,26.53-5.87,36.68,0,4.3,2.45,6.74,5.58,7.48,8.84,1-4.45-1.55-9.13-7.48-12.55-10.15-5.87-26.6-5.87-36.68,0-5.85,3.42-8.3,8-7.33,12.48C41.76,460.77,44.13,457.64,48.35,455.19Z"/><path class="cls-12" d="M99.78,462.25v6.69c0,4.9-3.19,9.73-9.56,13.45-12.82,7.5-33.72,7.5-46.68,0-6.52-3.79-9.78-8.7-9.78-13.67V462c0,4.9,3.26,9.88,9.78,13.67,12.89,7.51,33.86,7.51,46.68,0C96.59,472,99.78,467.08,99.78,462.25Z"/><path class="cls-10" d="M90.07,448.58c12.89,7.5,13,19.62.15,27.12s-33.72,7.51-46.68,0-13-19.62-.15-27.12S77.1,441.07,90.07,448.58ZM48.5,472.8c10.15,5.87,26.6,5.87,36.68,0s10.08-15.45-.15-21.32-26.6-5.87-36.68,0-10,15.38.15,21.32"/></g><g class="cls-9"><path class="cls-10" d="M46.13,449c-3.78,2.23-6.15,4.9-7.11,7.8v-6.68c1-2.83,3.26-5.58,7.11-7.81,10.08-5.87,26.53-5.87,36.68,0,5.11,3,7.63,6.76,7.63,10.63v6.69c0-3.87-2.59-7.73-7.63-10.63C72.66,443.08,56.21,443.08,46.13,449Z"/><path class="cls-10" d="M39.09,456.75a8.91,8.91,0,0,0-.44,2.83v-6.69a9.17,9.17,0,0,1,.44-2.82v6.68Z"/><path class="cls-11" d="M90.51,453v6.69c0,3.86-2.52,7.65-7.55,10.55-10.08,5.87-26.53,5.87-36.68,0-5.11-3-7.63-6.84-7.63-10.7v-6.69c0,3.86,2.52,7.8,7.63,10.7,10.15,5.87,26.6,5.87,36.68,0C88,460.69,90.44,456.83,90.51,453Z"/><path class="cls-11" d="M82.81,442.34C93,448.21,93,457.72,83,463.66s-26.53,5.87-36.68,0-10.23-15.45-.15-21.32S72.66,436.39,82.81,442.34Z"/><path class="cls-12" d="M46.13,446.05c10.08-5.87,26.53-5.87,36.68,0,4.29,2.45,6.74,5.58,7.48,8.85,1-4.46-1.56-9.14-7.48-12.56-10.15-5.87-26.6-5.87-36.68,0-5.85,3.42-8.3,8-7.34,12.48C39.54,451.55,41.91,448.5,46.13,446.05Z"/><path class="cls-12" d="M97.55,453v6.69c0,4.9-3.18,9.73-9.56,13.44-12.81,7.51-33.71,7.51-46.68,0-6.52-3.79-9.78-8.69-9.78-13.67v-6.69c0,4.91,3.26,9.89,9.78,13.68,12.9,7.5,33.87,7.5,46.68,0C94.37,462.77,97.55,457.94,97.55,453Z"/><path class="cls-10" d="M87.85,439.37c12.89,7.5,13,19.61.14,27.12s-33.71,7.5-46.68,0-13-19.62-.14-27.12S74.88,431.93,87.85,439.37ZM46.28,463.59c10.15,5.87,26.6,5.87,36.68,0s10.07-15.46-.15-21.33-26.6-5.87-36.68,0-10,15.46.15,21.33"/></g><g class="cls-9"><path class="cls-13" d="M109.63,493a10.08,10.08,0,0,0-4.74,5.21v-4.46c.59-1.93,2.22-3.72,4.74-5.2,6.74-3.94,17.63-3.94,24.45,0,3.41,1.93,5.11,4.53,5.11,7.05v4.46c0-2.6-1.7-5.12-5.11-7.06C127.26,489.08,116.3,489.08,109.63,493Z"/><path class="cls-13" d="M104.89,498.14a5.49,5.49,0,0,0-.3,1.86v-4.46a5.53,5.53,0,0,1,.3-1.86v4.46Z"/><path class="cls-13" d="M139.12,495.69v4.46c0,2.52-1.7,5.12-5,7.06-6.74,3.93-17.63,3.93-24.38,0-3.4-2-5.11-4.54-5.11-7.14v-4.46c0,2.61,1.71,5.21,5.11,7.14,6.75,3.94,17.71,3.94,24.38,0C137.42,500.82,139.12,498.22,139.12,495.69Z"/><path class="cls-13" d="M134,488.56c6.74,3.93,6.81,10.25.07,14.19s-17.63,3.94-24.38,0-6.81-10.26-.07-14.19S127.26,484.62,134,488.56Z"/><path class="cls-14" d="M109.63,491c6.74-3.94,17.63-3.94,24.45,0,2.82,1.63,4.52,3.71,5,5.87.66-3-1-6.1-5-8.32-6.74-3.94-17.71-3.94-24.45,0-3.85,2.22-5.48,5.35-4.89,8.32C105.18,494.72,106.81,492.64,109.63,491Z"/><path class="cls-14" d="M143.86,495.69v4.46c0,3.27-2.15,6.46-6.37,9-8.52,5-22.45,5-31.05,0-4.29-2.53-6.52-5.8-6.52-9.07v-4.46c0,3.27,2.15,6.62,6.52,9.07,8.6,5,22.53,5,31.05,0C141.71,502.15,143.86,499,143.86,495.69Z"/><path class="cls-13" d="M137.34,486.62c8.6,5,8.67,13.08.08,18.06s-22.45,5-31,0-8.67-13.08-.07-18.06S128.75,481.65,137.34,486.62ZM109.7,502.75c6.75,3.94,17.71,3.94,24.38,0s6.67-10.26-.07-14.19-17.71-3.94-24.45,0-6.6,10.25.14,14.19"/></g><g class="cls-9"><path class="cls-13" d="M109.63,488a10.1,10.1,0,0,0-4.74,5.2V488.7c.59-1.93,2.22-3.71,4.74-5.2,6.74-3.94,17.63-3.94,24.45,0,3.41,1.93,5.11,4.54,5.11,7.06V495c0-2.6-1.7-5.13-5.11-7.06C127.26,484,116.3,484,109.63,488Z"/><path class="cls-13" d="M104.89,493.16a5.53,5.53,0,0,0-.3,1.86v-4.46a5.53,5.53,0,0,1,.3-1.86v4.46Z"/><path class="cls-13" d="M139.12,490.71v4.46c0,2.53-1.7,5.13-5,7.06-6.74,3.94-17.63,3.94-24.38,0-3.4-2-5.11-4.53-5.11-7.14v-4.45c0,2.6,1.71,5.2,5.11,7.13,6.75,3.94,17.71,3.94,24.38,0C137.42,495.76,139.12,493.24,139.12,490.71Z"/><path class="cls-13" d="M134,483.5c6.74,3.94,6.81,10.26.07,14.2s-17.63,3.93-24.38,0-6.81-10.26-.07-14.2S127.26,479.64,134,483.5Z"/><path class="cls-14" d="M109.63,486c6.74-3.94,17.63-3.94,24.45,0,2.82,1.63,4.52,3.71,5,5.87.66-3-1-6.09-5-8.32-6.74-3.94-17.71-3.94-24.45,0-3.85,2.23-5.48,5.35-4.89,8.32C105.18,489.67,106.81,487.66,109.63,486Z"/><path class="cls-14" d="M143.86,490.71v4.46c0,3.27-2.15,6.46-6.37,9-8.52,5-22.45,5-31.05,0-4.29-2.53-6.52-5.8-6.52-9.07v-4.45c0,3.27,2.15,6.61,6.52,9.06,8.6,5,22.53,5,31.05,0C141.71,497.18,143.86,493.91,143.86,490.71Z"/><path class="cls-13" d="M137.34,481.57c8.6,5,8.67,13.08.08,18.06s-22.45,5-31,0-8.67-13.08-.07-18.06S128.75,476.59,137.34,481.57ZM109.7,497.7c6.75,3.93,17.71,3.93,24.38,0s6.67-10.26-.07-14.2-17.71-3.94-24.45,0-6.6,10.33.14,14.2"/></g><g class="cls-9"><path class="cls-13" d="M108.59,483a10.14,10.14,0,0,0-4.74,5.2v-4.45c.59-1.94,2.22-3.72,4.74-5.21,6.75-3.93,17.64-3.93,24.45,0,3.41,1.94,5.12,4.54,5.12,7.06V490c0-2.6-1.71-5.13-5.12-7.06C126.3,479,115.34,479,108.59,483Z"/><path class="cls-13" d="M103.92,488.11a5.44,5.44,0,0,0-.29,1.86v-4.46a5.47,5.47,0,0,1,.29-1.86v4.46Z"/><path class="cls-13" d="M138.16,485.66v4.46c0,2.52-1.71,5.12-5,7.06-6.74,3.93-17.64,3.93-24.38,0-3.41-2-5.11-4.54-5.11-7.14v-4.46c0,2.6,1.7,5.2,5.11,7.14,6.74,3.94,17.71,3.94,24.38,0C136.45,490.78,138.16,488.18,138.16,485.66Z"/><path class="cls-13" d="M133,478.52c6.75,3.94,6.82,10.26.08,14.2s-17.64,3.94-24.38,0-6.82-10.26-.07-14.2S126.3,474.59,133,478.52Z"/><path class="cls-14" d="M108.67,481c6.74-3.94,17.63-3.94,24.45,0,2.81,1.63,4.52,3.71,5,5.87.67-3-1-6.1-5-8.33-6.74-3.93-17.71-3.93-24.45,0-3.86,2.23-5.49,5.35-4.89,8.33C104.22,484.69,105.85,482.61,108.67,481Z"/><path class="cls-14" d="M142.83,485.66v4.46c0,3.27-2.15,6.46-6.38,9-8.52,5-22.45,5-31,0-4.3-2.53-6.52-5.8-6.52-9.07v-4.46c0,3.27,2.14,6.62,6.52,9.07,8.59,5,22.52,5,31,0C140.75,492.2,142.83,488.93,142.83,485.66Z"/><path class="cls-13" d="M136.38,476.59c8.59,5,8.67,13.08.07,18.06s-22.45,5-31,0-8.67-13.08-.08-18.06S127.78,471.61,136.38,476.59Zm-27.64,16.13c6.74,3.94,17.71,3.94,24.38,0s6.67-10.26-.08-14.2-17.7-3.93-24.45,0-6.67,10.26.15,14.2"/></g><g class="cls-9"><path class="cls-13" d="M110.59,477.93a10.14,10.14,0,0,0-4.74,5.2v-4.46c.59-1.93,2.22-3.71,4.74-5.2,6.75-3.94,17.64-3.94,24.46,0,3.4,1.93,5.11,4.53,5.11,7.06V485c0-2.6-1.71-5.13-5.11-7.06C128.23,474.07,117.34,474.07,110.59,477.93Z"/><path class="cls-13" d="M105.85,483.13a5.49,5.49,0,0,0-.3,1.86v-4.46a5.53,5.53,0,0,1,.3-1.86v4.16C105.85,482.91,105.93,483.06,105.85,483.13Z"/><path class="cls-13" d="M140.08,480.68v4.46c0,2.52-1.7,5.12-5,7.06-6.75,3.94-17.64,3.94-24.38,0-3.41-2-5.12-4.54-5.12-7.14v-4.45c0,2.6,1.71,5.2,5.12,7.13,6.74,3.94,17.71,3.94,24.38,0C138.45,485.73,140.08,483.21,140.08,480.68Z"/><path class="cls-13" d="M135.05,473.55c6.74,3.93,6.81,10.25.07,14.19s-17.64,3.94-24.38,0-6.82-10.26-.07-14.19S128.23,469.61,135.05,473.55Z"/><path class="cls-14" d="M110.59,476c6.75-3.94,17.64-3.94,24.46,0,2.81,1.63,4.51,3.71,5,5.87.67-3-1-6.09-5-8.32-6.75-3.94-17.71-3.94-24.46,0-3.85,2.23-5.48,5.35-4.89,8.32C106.15,479.71,107.78,477.63,110.59,476Z"/><path class="cls-14" d="M144.83,480.68v4.46c0,3.27-2.15,6.46-6.38,9-8.52,5-22.45,5-31,0-4.3-2.53-6.52-5.8-6.52-9.07v-4.45c0,3.26,2.15,6.61,6.52,9.06,8.59,5,22.52,5,31,0C142.68,487.14,144.83,483.87,144.83,480.68Z"/><path class="cls-13" d="M138.31,471.61c8.59,5,8.66,13.08.07,18.06s-22.45,5-31,0-8.67-13.08-.07-18.06S129.71,466.56,138.31,471.61Zm-27.64,16.05c6.74,3.94,17.71,3.94,24.38,0s6.66-10.25-.08-14.19-17.71-3.94-24.45,0-6.6,10.33.15,14.19"/></g><g class="cls-9"><path class="cls-13" d="M108.59,473a10.14,10.14,0,0,0-4.74,5.2v-4.46c.59-1.93,2.22-3.71,4.74-5.2,6.75-3.94,17.64-3.94,24.45,0,3.41,1.94,5.12,4.54,5.12,7.06V480c0-2.6-1.71-5.13-5.12-7.06C126.3,469,115.34,469,108.59,473Z"/><path class="cls-13" d="M103.92,478.08a5.44,5.44,0,0,0-.29,1.86v-4.46a5.44,5.44,0,0,1,.29-1.86v4.46Z"/><path class="cls-13" d="M138.16,475.63v4.45c0,2.53-1.71,5.13-5,7.06-6.74,3.94-17.64,3.94-24.38,0-3.41-2-5.11-4.53-5.11-7.13v-4.46c0,2.6,1.7,5.2,5.11,7.14,6.74,3.93,17.71,3.93,24.38,0C136.45,480.75,138.16,478.15,138.16,475.63Z"/><path class="cls-13" d="M133,468.49c6.75,3.94,6.82,10.26.08,14.2s-17.64,3.93-24.38,0-6.82-10.26-.07-14.2S126.3,464.55,133,468.49Z"/><path class="cls-14" d="M108.67,471c6.74-3.94,17.63-3.94,24.45,0,2.81,1.63,4.52,3.71,5,5.87.67-3-1-6.1-5-8.33-6.74-3.94-17.71-3.94-24.45,0-3.86,2.23-5.49,5.35-4.89,8.33C104.22,474.66,105.85,472.58,108.67,471Z"/><path class="cls-14" d="M142.83,475.63v4.45c0,3.27-2.15,6.47-6.38,9-8.52,5-22.45,5-31,0-4.3-2.53-6.52-5.8-6.52-9.07v-4.46c0,3.27,2.14,6.62,6.52,9.07,8.59,5,22.52,5,31,0C140.75,482.17,142.83,478.9,142.83,475.63Z"/><path class="cls-13" d="M136.38,466.56c8.59,5,8.67,13.08.07,18.06s-22.45,5-31,0-8.67-13.08-.08-18.06S127.78,461.58,136.38,466.56Zm-27.64,16.13c6.74,3.93,17.71,3.93,24.38,0s6.67-10.26-.08-14.2-17.7-3.94-24.45,0-6.67,10.26.15,14.2"/></g><g class="cls-9"><path class="cls-13" d="M109.78,467.23a10.1,10.1,0,0,0-4.74,5.2V468c.59-1.93,2.22-3.71,4.74-5.2,6.74-3.94,17.63-3.94,24.45,0,3.41,1.93,5.11,4.53,5.11,7.06v4.46c0-2.6-1.7-5.13-5.11-7.06C127.41,463.37,116.45,463.37,109.78,467.23Z"/><path class="cls-13" d="M105,472.43a5.25,5.25,0,0,0-.3,1.86v-4.46A5.29,5.29,0,0,1,105,468v4.46Z"/><path class="cls-13" d="M139.27,470v4.46c0,2.52-1.71,5.12-5,7.06-6.74,3.93-17.63,3.93-24.38,0-3.41-2-5.11-4.54-5.11-7.14v-4.45c0,2.6,1.7,5.2,5.11,7.13,6.75,3.94,17.71,3.94,24.38,0C137.56,475,139.27,472.51,139.27,470Z"/><path class="cls-13" d="M134.16,462.85c6.74,3.93,6.81,10.25.07,14.19s-17.63,3.94-24.38,0-6.81-10.26-.07-14.19S127.41,458.91,134.16,462.85Z"/><path class="cls-14" d="M109.78,465.3c6.74-3.94,17.63-3.94,24.45,0,2.82,1.63,4.52,3.71,5,5.87.67-3-1-6.09-5-8.32-6.74-3.94-17.71-3.94-24.45,0-3.85,2.23-5.48,5.35-4.89,8.32C105.33,469,107,466.93,109.78,465.3Z"/><path class="cls-14" d="M144,470v4.46c0,3.27-2.15,6.46-6.37,9-8.52,5-22.45,5-31,0-4.3-2.53-6.52-5.8-6.52-9.07V469.9c0,3.27,2.15,6.62,6.52,9.07,8.6,5,22.53,5,31,0C141.86,476.44,144,473.25,144,470Z"/><path class="cls-13" d="M137.49,460.91c8.6,5,8.67,13.08.07,18.06s-22.45,5-31,0-8.67-13.08-.08-18.06S128.9,455.94,137.49,460.91ZM109.85,477c6.75,3.94,17.71,3.94,24.38,0s6.67-10.26-.07-14.19-17.71-3.94-24.46,0-6.59,10.25.15,14.19"/></g><g class="cls-9"><path class="cls-13" d="M107.56,461.73a10.17,10.17,0,0,0-4.75,5.2v-4.46c.6-1.93,2.23-3.71,4.75-5.2,6.74-3.94,17.63-3.94,24.45,0,3.41,1.93,5.11,4.54,5.11,7.06v4.46c0-2.6-1.7-5.13-5.11-7.06C125.19,457.79,114.22,457.79,107.56,461.73Z"/><path class="cls-13" d="M102.81,466.86a5.44,5.44,0,0,0-.29,1.86v-4.46a5.44,5.44,0,0,1,.29-1.86v4.46Z"/><path class="cls-13" d="M137.05,464.41v4.45c0,2.53-1.71,5.13-5,7.06-6.75,3.94-17.64,3.94-24.38,0-3.41-2-5.11-4.53-5.11-7.13v-4.46c0,2.6,1.7,5.2,5.11,7.14,6.74,3.93,17.71,3.93,24.38,0C135.34,469.53,137.05,466.93,137.05,464.41Z"/><path class="cls-13" d="M131.93,457.27c6.75,3.94,6.82,10.26.08,14.2s-17.64,3.93-24.38,0-6.82-10.26-.07-14.2S125.19,453.33,131.93,457.27Z"/><path class="cls-14" d="M107.56,459.73c6.74-3.94,17.63-3.94,24.45,0,2.81,1.63,4.52,3.71,5,5.87.67-3-1-6.1-5-8.33-6.75-3.94-17.71-3.94-24.45,0-3.86,2.23-5.49,5.35-4.89,8.33C103.11,463.44,104.74,461.36,107.56,459.73Z"/><path class="cls-14" d="M141.79,464.41v4.45c0,3.27-2.15,6.47-6.37,9-8.53,5-22.46,5-31,0-4.3-2.53-6.52-5.8-6.52-9.07v-4.46c0,3.27,2.15,6.62,6.52,9.07,8.59,5,22.52,5,31,0C139.64,470.87,141.79,467.68,141.79,464.41Z"/><path class="cls-13" d="M135.27,455.34c8.59,5,8.67,13.08.07,18.06s-22.45,5-31,0-8.67-13.08-.08-18.06S126.67,450.36,135.27,455.34Zm-27.64,16.13c6.74,3.93,17.71,3.93,24.38,0s6.67-10.26-.08-14.2-17.71-3.94-24.45,0-6.59,10.26.15,14.2"/></g><path class="cls-15" d="M203.66,448.5c-7.63-3.93-19.86-3.93-27.42,0s-7.48,10.41.08,14.35,19.85,3.93,27.41,0S211.29,452.44,203.66,448.5ZM175,454.38h0c0-.08.08-.15.08-.3A.53.53,0,0,0,175,454.38Z"/><path class="cls-15" d="M235.07,464.41c-7.63-3.94-19.85-3.94-27.41,0s-7.48,10.4.07,14.34,19.86,3.94,27.42,0S242.63,468.34,235.07,464.41Zm-28.74,5.87h0c0-.08.07-.15.07-.3C206.4,470.13,206.33,470.2,206.33,470.28Z"/><g class="cls-9"><path class="cls-16" d="M182.91,450.36a7.91,7.91,0,0,0-3.63,3.94v-3.42a7.36,7.36,0,0,1,3.63-3.94c5.19-3,13.56-3,18.75,0,2.59,1.49,3.92,3.5,3.92,5.43v3.42c0-1.94-1.33-3.94-3.92-5.43C196.47,447.39,188.1,447.39,182.91,450.36Z"/><path class="cls-16" d="M179.28,454.38a4.56,4.56,0,0,0-.22,1.41v-3.42a4.56,4.56,0,0,1,.22-1.41v3.27A.11.11,0,0,1,179.28,454.38Z"/><path class="cls-16" d="M205.58,452.44v3.42c0,1.93-1.26,3.94-3.85,5.43-5.19,3-13.56,3-18.74,0-2.6-1.49-3.93-3.5-3.93-5.5v-3.42c0,2,1.33,3.94,3.93,5.5,5.18,3,13.55,3,18.74,0C204.25,456.38,205.58,454.38,205.58,452.44Z"/><path class="cls-16" d="M205.51,455.86h0v-3.34A26.58,26.58,0,0,1,205.51,455.86Z"/><path class="cls-16" d="M201.66,446.94c5.18,3,5.18,7.88.07,10.85s-13.56,3-18.74,0-5.19-7.87-.08-10.85S196.47,444,201.66,446.94Z"/><path class="cls-17" d="M182.91,448.88c5.19-3,13.56-3,18.75,0,2.15,1.26,3.48,2.89,3.78,4.53.52-2.3-.82-4.68-3.78-6.39-5.19-3-13.56-3-18.75,0-3,1.71-4.22,4.09-3.78,6.39A7.26,7.26,0,0,1,182.91,448.88Z"/><path class="cls-17" d="M209.14,452.44v3.42c0,2.45-1.63,5-4.89,6.84-6.52,3.79-17.19,3.79-23.78,0-3.34-1.93-5-4.46-5-7v-3.42c0,2.53,1.63,5.06,5,7,6.59,3.79,17.26,3.79,23.78,0C207.51,457.42,209.14,455,209.14,452.44Z"/><path class="cls-16" d="M204.18,445.46c6.59,3.79,6.67,10,.07,13.82s-17.19,3.79-23.78,0-6.67-10-.08-13.82S197.58,441.67,204.18,445.46ZM183,457.87c5.18,3,13.55,3,18.74,0s5.11-7.88-.07-10.85-13.56-3-18.75,0-5.11,7.8.08,10.85"/></g><g class="cls-9"><path class="cls-16" d="M184.32,446.87a7.87,7.87,0,0,0-3.63,3.94v-3.42a7.29,7.29,0,0,1,3.63-3.94c5.19-3,13.56-3,18.75,0,2.59,1.49,3.92,3.49,3.92,5.43v3.41c0-1.93-1.33-3.93-3.92-5.42C197.88,443.82,189.51,443.82,184.32,446.87Z"/><path class="cls-16" d="M180.76,450.81a4.56,4.56,0,0,0-.22,1.41V448.8a4.65,4.65,0,0,1,.22-1.41v3.42Z"/><path class="cls-16" d="M207,448.88v3.41c0,1.94-1.26,3.94-3.85,5.43-5.19,3-13.56,3-18.75,0-2.59-1.49-3.92-3.49-3.92-5.5V448.8c0,2,1.33,3.94,3.92,5.5,5.19,3,13.56,3,18.75,0C205.73,452.81,207,450.88,207,448.88Z"/><path class="cls-16" d="M203.07,443.45c5.18,3,5.18,7.88.07,10.85s-13.56,3-18.75,0-5.18-7.88-.07-10.85S197.88,440.41,203.07,443.45Z"/><path class="cls-17" d="M184.39,445.31c5.19-3,13.56-3,18.75,0,2.15,1.26,3.48,2.9,3.78,4.53.52-2.3-.82-4.68-3.78-6.39-5.19-3-13.56-3-18.75,0-3,1.71-4.22,4.09-3.78,6.39A7.26,7.26,0,0,1,184.39,445.31Z"/><path class="cls-17" d="M210.62,449v3.42c0,2.45-1.63,5-4.89,6.83-6.52,3.79-17.19,3.79-23.78,0-3.34-1.93-5-4.45-5-7V448.8c0,2.53,1.63,5.05,5,7,6.59,3.79,17.26,3.79,23.78,0C209,453.93,210.62,451.4,210.62,449Z"/><path class="cls-16" d="M205.66,442c6.59,3.79,6.67,10,.07,13.82s-17.19,3.79-23.78,0-6.67-10-.08-13.82S199,438.1,205.66,442ZM184.39,454.3c5.19,3,13.56,3,18.75,0s5.11-7.88-.07-10.85-13.56-3-18.75,0-5.11,7.88.07,10.85"/></g><g class="cls-9"><path class="cls-16" d="M182.17,442.71a7.87,7.87,0,0,0-3.63,3.94v-3.42a7.29,7.29,0,0,1,3.63-3.94c5.19-3,13.56-3,18.75,0,2.59,1.49,3.92,3.49,3.92,5.43v3.41c0-1.93-1.33-3.93-3.92-5.42C195.73,439.66,187.28,439.66,182.17,442.71Z"/><path class="cls-16" d="M178.54,446.65a4.56,4.56,0,0,0-.22,1.41v-3.42a4.61,4.61,0,0,1,.22-1.41v3.42Z"/><path class="cls-16" d="M204.77,444.79v3.42c0,1.93-1.26,3.94-3.85,5.42-5.19,3-13.56,3-18.75,0-2.59-1.48-3.93-3.49-3.93-5.5v-3.41c0,2,1.34,3.93,3.93,5.49,5.19,3,13.56,3,18.75,0C203.51,448.65,204.77,446.72,204.77,444.79Z"/><path class="cls-16" d="M200.92,439.29c5.18,3,5.18,7.88.07,10.85s-13.56,3-18.75,0-5.18-7.88-.07-10.85S195.73,436.32,200.92,439.29Z"/><path class="cls-17" d="M182.17,441.22c5.19-3,13.56-3,18.75,0,2.15,1.27,3.48,2.9,3.78,4.54.51-2.31-.82-4.69-3.78-6.39-5.19-3-13.56-3-18.75,0-3,1.7-4.22,4.08-3.78,6.39A7.1,7.1,0,0,1,182.17,441.22Z"/><path class="cls-17" d="M208.4,444.79v3.42c0,2.45-1.63,5-4.89,6.83-6.52,3.79-17.19,3.79-23.79,0-3.33-1.93-5-4.45-5-7v-3.42c0,2.53,1.63,5.05,5,7,6.6,3.79,17.27,3.79,23.79,0C206.77,449.77,208.4,447.24,208.4,444.79Z"/><path class="cls-16" d="M203.44,437.8c6.59,3.79,6.66,10,.07,13.83s-17.19,3.79-23.79,0-6.66-10-.07-13.83S196.84,434,203.44,437.8Zm-21.2,12.34c5.19,3,13.56,3,18.75,0s5.11-7.88-.07-10.85-13.56-3-18.75,0-5.11,7.88.07,10.85"/></g><g class="cls-9"><path class="cls-16" d="M182.32,438.85a7.85,7.85,0,0,0-3.63,3.93v-3.41a7.25,7.25,0,0,1,3.63-3.94c5.19-3,13.56-3,18.74,0,2.6,1.48,3.93,3.49,3.93,5.42v3.42c0-1.93-1.33-3.94-3.93-5.42C195.8,435.87,187.43,435.87,182.32,438.85Z"/><path class="cls-16" d="M178.69,442.78a4.67,4.67,0,0,0-.22,1.42v-3.42a4.56,4.56,0,0,1,.22-1.41v3.41Z"/><path class="cls-16" d="M204.92,440.93v3.41c0,1.94-1.26,3.94-3.86,5.43-5.18,3-13.55,3-18.74,0-2.6-1.49-3.93-3.49-3.93-5.5v-3.42c0,2,1.33,3.94,3.93,5.5,5.19,3,13.56,3,18.74,0C203.66,444.79,204.92,442.86,204.92,440.93Z"/><path class="cls-16" d="M201,435.43c5.19,3,5.19,7.87.07,10.85s-13.55,3-18.74,0-5.19-7.88-.08-10.85S195.8,432.45,201,435.43Z"/><path class="cls-17" d="M182.32,437.36c5.19-3,13.56-3,18.74,0,2.15,1.26,3.49,2.9,3.78,4.53.52-2.3-.81-4.68-3.78-6.39-5.18-3-13.55-3-18.74,0-3,1.71-4.23,4.09-3.78,6.39A7.26,7.26,0,0,1,182.32,437.36Z"/><path class="cls-17" d="M208.55,440.93v3.41c0,2.46-1.63,5-4.89,6.84-6.52,3.79-17.19,3.79-23.79,0-3.33-1.93-5-4.46-5-7v-3.42c0,2.52,1.63,5.05,5,7,6.6,3.79,17.27,3.79,23.79,0C206.92,445.9,208.55,443.45,208.55,440.93Z"/><path class="cls-16" d="M203.58,433.94c6.6,3.79,6.67,10,.08,13.82s-17.19,3.79-23.79,0-6.67-10-.07-13.82S197,430.15,203.58,433.94Zm-21.26,12.41c5.19,3,13.56,3,18.74,0s5.12-7.88-.07-10.85-13.56-3-18.75,0-5.11,7.8.08,10.85"/></g><g class="cls-9"><path class="cls-16" d="M182.17,435a7.91,7.91,0,0,0-3.63,3.94V435.5a7.32,7.32,0,0,1,3.63-3.94c5.19-3,13.56-3,18.75,0,2.59,1.49,3.92,3.5,3.92,5.43v3.42c0-1.94-1.33-3.94-3.92-5.43C195.73,432,187.28,432,182.17,435Z"/><path class="cls-16" d="M178.54,439a4.67,4.67,0,0,0-.22,1.42V437a4.56,4.56,0,0,1,.22-1.41V439Z"/><path class="cls-16" d="M204.77,437.06v3.42c0,1.93-1.26,3.94-3.85,5.42-5.19,3-13.56,3-18.75,0-2.59-1.48-3.93-3.49-3.93-5.49V437c0,2,1.34,3.94,3.93,5.5,5.19,3,13.56,3,18.75,0C203.51,441,204.77,439,204.77,437.06Z"/><path class="cls-16" d="M200.92,431.64c5.18,3,5.18,7.87.07,10.85s-13.56,3-18.75,0-5.18-7.88-.07-10.85S195.73,428.59,200.92,431.64Z"/><path class="cls-17" d="M182.17,433.5c5.19-3,13.56-3,18.75,0,2.15,1.26,3.48,2.89,3.78,4.53.51-2.31-.82-4.68-3.78-6.39-5.19-3-13.56-3-18.75,0-3,1.71-4.22,4.08-3.78,6.39A7.26,7.26,0,0,1,182.17,433.5Z"/><path class="cls-17" d="M208.4,437.06v3.42c0,2.45-1.63,5-4.89,6.84-6.52,3.79-17.19,3.79-23.79,0-3.33-1.94-5-4.46-5-7v-3.42c0,2.53,1.63,5.06,5,7,6.6,3.79,17.27,3.79,23.79,0C206.77,442,208.4,439.59,208.4,437.06Z"/><path class="cls-16" d="M203.44,430.15c6.59,3.79,6.66,10,.07,13.82s-17.19,3.79-23.79,0-6.66-10-.07-13.82S196.84,426.29,203.44,430.15Zm-21.2,12.34c5.19,3,13.56,3,18.75,0s5.11-7.88-.07-10.85-13.56-3-18.75,0-5.11,7.8.07,10.85"/></g><g class="cls-9"><path class="cls-16" d="M183.06,430.67a7.91,7.91,0,0,0-3.63,3.94v-3.42a7.32,7.32,0,0,1,3.63-3.94c5.19-3,13.56-3,18.75,0,2.59,1.49,3.92,3.5,3.92,5.43v3.42c0-1.94-1.33-3.94-3.92-5.43C196.54,427.62,188.17,427.62,183.06,430.67Z"/><path class="cls-16" d="M179.43,434.61a4.65,4.65,0,0,0-.22,1.41V432.6a4.65,4.65,0,0,1,.22-1.41v3.42Z"/><path class="cls-16" d="M205.66,432.75v3.42c0,1.93-1.26,3.94-3.85,5.42-5.19,3-13.56,3-18.75,0-2.59-1.48-3.93-3.49-3.93-5.49v-3.42c0,2,1.34,3.94,3.93,5.5,5.19,3,13.56,3,18.75,0C204.4,436.62,205.66,434.68,205.66,432.75Z"/><path class="cls-16" d="M201.73,427.25c5.19,3,5.19,7.88.08,10.85s-13.56,3-18.75,0-5.19-7.87-.07-10.85S196.54,424.28,201.73,427.25Z"/><path class="cls-17" d="M183.06,429.19c5.19-3,13.56-3,18.75,0,2.14,1.26,3.48,2.89,3.77,4.53.52-2.31-.81-4.68-3.77-6.39-5.19-3-13.56-3-18.75,0-3,1.71-4.22,4.08-3.78,6.39A7.07,7.07,0,0,1,183.06,429.19Z"/><path class="cls-17" d="M209.29,432.75v3.42c0,2.45-1.63,5-4.89,6.84-6.52,3.79-17.19,3.79-23.79,0-3.33-1.94-5-4.46-5-7V432.6c0,2.53,1.63,5.06,5,7,6.6,3.79,17.27,3.79,23.79,0C207.66,437.73,209.29,435.2,209.29,432.75Z"/><path class="cls-16" d="M204.32,425.77c6.6,3.79,6.67,10,.08,13.82s-17.19,3.79-23.79,0-6.66-10-.07-13.82S197.73,422,204.32,425.77ZM183.13,438.1c5.19,3,13.56,3,18.75,0s5.11-7.87-.07-10.85-13.56-3-18.75,0-5.11,7.88.07,10.85"/></g><g class="cls-9"><path class="cls-16" d="M184.62,425.92a7.88,7.88,0,0,0-3.64,3.93v-3.41a7.32,7.32,0,0,1,3.64-3.94c5.18-3,13.55-3,18.74,0,2.6,1.48,3.93,3.49,3.93,5.42v3.42c0-1.93-1.33-3.94-3.93-5.42C198.1,422.87,189.73,422.87,184.62,425.92Z"/><path class="cls-16" d="M181,429.85a5,5,0,0,0-.22,1.42v-3.42a4.88,4.88,0,0,1,.22-1.41v3.41Z"/><path class="cls-16" d="M207.21,427.92v3.42c0,1.93-1.25,3.94-3.85,5.42-5.19,3-13.56,3-18.74,0-2.6-1.48-3.93-3.49-3.93-5.49v-3.42c0,2,1.33,3.94,3.93,5.5,5.18,3,13.55,3,18.74,0C206,431.86,207.21,429.93,207.21,427.92Z"/><path class="cls-16" d="M203.29,422.5c5.18,3,5.18,7.87.07,10.85s-13.56,3-18.74,0-5.19-7.88-.08-10.85S198.1,419.45,203.29,422.5Z"/><path class="cls-17" d="M184.62,424.36c5.18-3,13.55-3,18.74,0,2.15,1.26,3.48,2.89,3.78,4.53.52-2.31-.81-4.68-3.78-6.39-5.19-3-13.56-3-18.74,0-3,1.71-4.23,4.08-3.78,6.39A7.26,7.26,0,0,1,184.62,424.36Z"/><path class="cls-17" d="M210.85,428v3.41c0,2.46-1.63,5-4.89,6.84-6.53,3.79-17.2,3.79-23.79,0-3.33-1.93-5-4.46-5-7v-3.42c0,2.52,1.63,5,5,7,6.59,3.79,17.26,3.79,23.79,0C209.22,433,210.85,430.45,210.85,428Z"/><path class="cls-16" d="M205.88,421c6.6,3.79,6.67,10,.08,13.82s-17.2,3.79-23.79,0-6.67-10-.07-13.82S199.29,417.15,205.88,421Zm-21.19,12.34c5.19,3,13.56,3,18.75,0s5.11-7.88-.08-10.85-13.56-3-18.74,0-5.12,7.87.07,10.85"/></g><g class="cls-9"><path class="cls-16" d="M182.17,422.05a7.91,7.91,0,0,0-3.63,3.94v-3.42a7.32,7.32,0,0,1,3.63-3.94c5.19-3,13.56-3,18.75,0,2.59,1.49,3.92,3.5,3.92,5.43v3.42c0-1.94-1.33-3.94-3.92-5.43C195.73,419.08,187.28,419.08,182.17,422.05Z"/><path class="cls-16" d="M178.54,426a4.65,4.65,0,0,0-.22,1.41V424a4.65,4.65,0,0,1,.22-1.41V426Z"/><path class="cls-16" d="M204.77,424.13v3.42c0,1.93-1.26,3.94-3.85,5.42-5.19,3-13.56,3-18.75,0-2.59-1.48-3.93-3.49-3.93-5.49v-3.42c0,2,1.34,3.94,3.93,5.5,5.19,3,13.56,3,18.75,0C203.51,428.07,204.77,426.06,204.77,424.13Z"/><path class="cls-16" d="M200.92,418.63c5.18,3,5.18,7.88.07,10.85s-13.56,3-18.75,0-5.18-7.87-.07-10.85S195.73,415.66,200.92,418.63Z"/><path class="cls-17" d="M182.17,420.57c5.19-3,13.56-3,18.75,0,2.15,1.26,3.48,2.89,3.78,4.53.51-2.31-.82-4.68-3.78-6.39-5.19-3-13.56-3-18.75,0-3,1.71-4.22,4.08-3.78,6.39A7.26,7.26,0,0,1,182.17,420.57Z"/><path class="cls-17" d="M208.4,424.13v3.42c0,2.45-1.63,5-4.89,6.84-6.52,3.79-17.19,3.79-23.79,0-3.33-1.94-5-4.46-5-7V424c0,2.53,1.63,5.06,5,7,6.6,3.79,17.27,3.79,23.79,0C206.77,429.11,208.4,426.66,208.4,424.13Z"/><path class="cls-16" d="M203.44,417.15c6.59,3.79,6.66,10,.07,13.82s-17.19,3.79-23.79,0-6.66-10-.07-13.82S196.84,413.36,203.44,417.15Zm-21.2,12.41c5.19,3,13.56,3,18.75,0s5.11-7.88-.07-10.85-13.56-3-18.75,0-5.11,7.8.07,10.85"/></g><g class="cls-9"><path class="cls-16" d="M183.13,418.19a7.88,7.88,0,0,0-3.63,3.94v-3.42a7.33,7.33,0,0,1,3.63-3.94c5.19-3,13.56-3,18.75,0,2.59,1.49,3.93,3.49,3.93,5.42v3.42c0-1.93-1.34-3.94-3.93-5.42C196.69,415.22,188.32,415.22,183.13,418.19Z"/><path class="cls-16" d="M179.58,422.2a4.67,4.67,0,0,0-.23,1.41v-3.42a4.67,4.67,0,0,1,.23-1.41v3.42Z"/><path class="cls-16" d="M205.81,420.27v3.42c0,1.93-1.26,3.93-3.86,5.42-5.18,3-13.56,3-18.74,0-2.6-1.49-3.93-3.49-3.93-5.5v-3.42c0,2,1.33,3.94,3.93,5.5,5.18,3,13.56,3,18.74,0C204.47,424.21,205.81,422.27,205.81,420.27Z"/><path class="cls-16" d="M201.88,414.84c5.19,3,5.19,7.88.07,10.85s-13.56,3-18.74,0-5.19-7.87-.08-10.85S196.69,411.8,201.88,414.84Z"/><path class="cls-17" d="M183.13,416.7c5.19-3,13.56-3,18.75,0,2.15,1.27,3.48,2.9,3.78,4.53.52-2.3-.82-4.68-3.78-6.39-5.19-3-13.56-3-18.75,0-3,1.71-4.22,4.09-3.78,6.39A7.57,7.57,0,0,1,183.13,416.7Z"/><path class="cls-17" d="M209.36,420.27v3.42c0,2.45-1.63,5-4.89,6.83-6.52,3.79-17.19,3.79-23.78,0-3.34-1.93-5-4.46-5-7v-3.42c0,2.53,1.63,5.05,5,7,6.59,3.79,17.26,3.79,23.78,0C207.73,425.25,209.36,422.79,209.36,420.27Z"/><path class="cls-16" d="M204.4,413.36c6.59,3.79,6.67,10,.07,13.82s-17.19,3.79-23.78,0-6.67-10-.08-13.82S197.8,409.49,204.4,413.36Zm-21.19,12.33c5.18,3,13.56,3,18.74,0s5.12-7.87-.07-10.85-13.56-3-18.75,0-5.11,7.81.08,10.85"/></g><path class="cls-1" d="M190.77,479.12c-9.93-5.2-25.94-5.2-35.79,0s-9.78,13.6.15,18.72,25.93,5.21,35.78,0S200.69,484.32,190.77,479.12Zm-37.42,7.73h0c0-.15.07-.23.07-.37A.81.81,0,0,0,153.35,486.85Z"/><g class="cls-9"><path class="cls-13" d="M164.46,481.35a10.1,10.1,0,0,0-4.74,5.2v-4.46c.59-1.93,2.22-3.71,4.74-5.2,6.74-3.94,17.64-3.94,24.45,0,3.41,1.93,5.12,4.53,5.12,7.06v4.46c0-2.6-1.71-5.13-5.12-7.06C182.1,477.48,171.2,477.48,164.46,481.35Z"/><path class="cls-13" d="M159.79,486.55a5.44,5.44,0,0,0-.29,1.86V484a5.47,5.47,0,0,1,.29-1.86v4.46Z"/><path class="cls-13" d="M194,484.1v4.46c0,2.52-1.71,5.12-5,7.05-6.75,3.94-17.64,3.94-24.38,0-3.41-2-5.11-4.53-5.11-7.13V484c0,2.6,1.7,5.2,5.11,7.14,6.74,3.93,17.71,3.93,24.38,0C192.32,489.15,194,486.62,194,484.1Z"/><path class="cls-13" d="M188.91,477c6.75,3.94,6.82,10.26.08,14.2s-17.64,3.93-24.38,0-6.82-10.26-.07-14.2S182.1,473,188.91,477Z"/><path class="cls-14" d="M164.46,479.42c6.74-3.94,17.64-3.94,24.45,0,2.82,1.63,4.52,3.71,5,5.87.66-3-1-6.1-5-8.33-6.74-3.93-17.71-3.93-24.45,0-3.85,2.23-5.48,5.35-4.89,8.33C160.09,483.13,161.65,481.05,164.46,479.42Z"/><path class="cls-14" d="M198.69,484.1v4.46c0,3.27-2.15,6.46-6.37,9-8.52,5-22.45,5-31,0-4.3-2.53-6.53-5.8-6.53-9.07V484c0,3.27,2.15,6.62,6.53,9.07,8.59,5,22.52,5,31,0C196.54,490.56,198.69,487.37,198.69,484.1Z"/><path class="cls-13" d="M192.25,475c8.59,5,8.67,13.08.07,18.06s-22.45,5-31,0S152.61,480,161.2,475,183.58,470.05,192.25,475Zm-27.71,16.13c6.74,3.93,17.7,3.93,24.37,0s6.67-10.26-.07-14.2-17.71-3.93-24.45,0-6.6,10.26.15,14.2"/></g><g class="cls-9"><path class="cls-13" d="M166.17,475.7a10.17,10.17,0,0,0-4.75,5.2v-4.46c.6-1.93,2.23-3.71,4.75-5.2,6.74-3.94,17.63-3.94,24.45,0,3.41,1.93,5.11,4.54,5.11,7.06v4.46c0-2.6-1.7-5.13-5.11-7.06C183.8,471.84,172.83,471.84,166.17,475.7Z"/><path class="cls-13" d="M161.42,480.9a5.51,5.51,0,0,0-.29,1.86V478.3a5.51,5.51,0,0,1,.29-1.86v4.46Z"/><path class="cls-13" d="M195.66,478.45v4.46c0,2.52-1.71,5.13-5,7.06-6.75,3.94-17.64,3.94-24.38,0-3.41-2-5.11-4.54-5.11-7.14v-4.45c0,2.6,1.7,5.2,5.11,7.13,6.74,3.94,17.71,3.94,24.38,0C194,483.5,195.66,481,195.66,478.45Z"/><path class="cls-13" d="M190.54,471.32c6.75,3.94,6.82,10.25.08,14.19s-17.64,3.94-24.38,0-6.82-10.25-.07-14.19S183.8,467.38,190.54,471.32Z"/><path class="cls-14" d="M166.17,473.77c6.74-3.94,17.63-3.94,24.45,0,2.81,1.63,4.52,3.71,5,5.87.67-3-1-6.09-5-8.32-6.75-3.94-17.71-3.94-24.45,0-3.86,2.23-5.49,5.35-4.89,8.32C161.72,477.48,163.35,475.4,166.17,473.77Z"/><path class="cls-14" d="M200.4,478.45v4.46c0,3.27-2.15,6.46-6.37,9-8.53,5-22.46,5-31.05,0-4.3-2.53-6.52-5.8-6.52-9.07v-4.45c0,3.27,2.15,6.61,6.52,9.06,8.59,5,22.52,5,31.05,0C198.25,484.91,200.32,481.72,200.4,478.45Z"/><path class="cls-13" d="M193.88,469.38c8.59,5,8.67,13.08.07,18.06s-22.45,5-31,0-8.67-13.08-.08-18.06S185.28,464.41,193.88,469.38Zm-27.64,16.13c6.74,3.94,17.71,3.94,24.38,0s6.67-10.25-.08-14.19-17.71-3.94-24.45,0-6.59,10.25.15,14.19"/></g><g class="cls-9"><path class="cls-16" d="M214.85,465.15a7.82,7.82,0,0,0-3.63,3.94v-3.42a7.29,7.29,0,0,1,3.63-3.94c5.18-3,13.56-3,18.74,0,2.6,1.49,3.93,3.49,3.93,5.43v3.41c0-1.93-1.33-3.93-3.93-5.42C228.41,462.18,220,462.18,214.85,465.15Z"/><path class="cls-16" d="M211.22,469.09a4.57,4.57,0,0,0-.23,1.41v-3.42a4.67,4.67,0,0,1,.23-1.41v3.42Z"/><path class="cls-16" d="M237.45,467.23v3.42c0,1.93-1.26,3.94-3.86,5.42-5.18,3-13.56,3-18.74,0-2.6-1.48-3.93-3.49-3.93-5.5v-3.41c0,2,1.33,3.93,3.93,5.49,5.18,3,13.56,3,18.74,0C236.19,471.09,237.45,469.16,237.45,467.23Z"/><path class="cls-16" d="M233.59,461.73c5.19,3,5.19,7.88.08,10.85s-13.56,3-18.75,0-5.19-7.88-.07-10.85S228.41,458.76,233.59,461.73Z"/><path class="cls-17" d="M214.85,463.66c5.18-3,13.56-3,18.74,0,2.15,1.27,3.49,2.9,3.78,4.54.52-2.31-.81-4.69-3.78-6.39-5.18-3-13.56-3-18.74,0-3,1.7-4.23,4.08-3.78,6.39A7.3,7.3,0,0,1,214.85,463.66Z"/><path class="cls-17" d="M241.08,467.23v3.42c0,2.45-1.63,5-4.89,6.83-6.52,3.79-17.19,3.79-23.79,0-3.33-1.93-5-4.45-5-7v-3.42c0,2.53,1.63,5.05,5,7,6.6,3.79,17.27,3.79,23.79,0C239.45,472.21,241.08,469.68,241.08,467.23Z"/><path class="cls-16" d="M236.11,460.25c6.6,3.78,6.67,10,.08,13.82s-17.19,3.79-23.79,0-6.67-10-.07-13.82S229.52,456.46,236.11,460.25Zm-21.19,12.33c5.19,3,13.56,3,18.75,0s5.11-7.88-.08-10.85-13.56-3-18.74,0-5.12,7.88.07,10.85"/></g><g class="cls-9"><path class="cls-16" d="M214.85,461.21a7.86,7.86,0,0,0-3.63,3.94v-3.42a7.32,7.32,0,0,1,3.63-3.94c5.18-3,13.56-3,18.74,0,2.6,1.49,3.93,3.5,3.93,5.43v3.42c0-1.94-1.33-3.94-3.93-5.43C228.41,458.24,220,458.24,214.85,461.21Z"/><path class="cls-16" d="M211.22,465.22a4.69,4.69,0,0,0-.23,1.42v-3.42a4.57,4.57,0,0,1,.23-1.41v3.41Z"/><path class="cls-16" d="M237.45,463.29v3.42c0,1.93-1.26,3.94-3.86,5.42-5.18,3-13.56,3-18.74,0-2.6-1.48-3.93-3.49-3.93-5.49v-3.42c0,2,1.33,3.94,3.93,5.5,5.18,3,13.56,3,18.74,0C236.19,467.23,237.45,465.22,237.45,463.29Z"/><path class="cls-16" d="M233.59,457.87c5.19,3,5.19,7.87.08,10.85s-13.56,3-18.75,0-5.19-7.88-.07-10.85S228.41,454.82,233.59,457.87Z"/><path class="cls-17" d="M214.85,459.73c5.18-3,13.56-3,18.74,0,2.15,1.26,3.49,2.89,3.78,4.53.52-2.31-.81-4.68-3.78-6.39-5.18-3-13.56-3-18.74,0-3,1.71-4.23,4.08-3.78,6.39A7.26,7.26,0,0,1,214.85,459.73Z"/><path class="cls-17" d="M241.08,463.29v3.42c0,2.45-1.63,5-4.89,6.84-6.52,3.79-17.19,3.79-23.79,0-3.33-1.94-5-4.46-5-7v-3.42c0,2.53,1.63,5.06,5,7,6.6,3.79,17.27,3.79,23.79,0C239.45,468.27,241.08,465.82,241.08,463.29Z"/><path class="cls-16" d="M236.11,456.38c6.6,3.79,6.67,10,.08,13.82S219,474,212.4,470.2s-6.67-10-.07-13.82S229.52,452.52,236.11,456.38Zm-21.19,12.34c5.19,3,13.56,3,18.75,0s5.11-7.88-.08-10.85-13.56-3-18.74,0-5.12,7.8.07,10.85"/></g><g class="cls-9"><path class="cls-16" d="M215,455.79a7.88,7.88,0,0,0-3.63,3.94v-3.42a7.33,7.33,0,0,1,3.63-3.94c5.19-3,13.56-3,18.75,0,2.59,1.48,3.93,3.49,3.93,5.42v3.42c0-1.93-1.34-3.94-3.93-5.42C228.48,452.74,220.11,452.74,215,455.79Z"/><path class="cls-16" d="M211.36,459.73a4.88,4.88,0,0,0-.22,1.41v-3.42a4.88,4.88,0,0,1,.22-1.41v3.42Z"/><path class="cls-16" d="M237.59,457.79v3.42c0,1.93-1.26,3.94-3.85,5.43-5.19,3-13.56,3-18.75,0-2.59-1.49-3.92-3.5-3.92-5.5v-3.42c0,2,1.33,3.94,3.92,5.5,5.19,3,13.56,3,18.75,0C236.33,461.73,237.59,459.8,237.59,457.79Z"/><path class="cls-16" d="M233.67,452.37c5.18,3,5.18,7.88.07,10.85s-13.56,3-18.75,0-5.18-7.88-.07-10.85S228.48,449.32,233.67,452.37Z"/><path class="cls-17" d="M215,454.23c5.19-3,13.56-3,18.75,0,2.15,1.26,3.48,2.89,3.78,4.53.52-2.3-.82-4.68-3.78-6.39-5.19-3-13.56-3-18.75,0-3,1.71-4.22,4.09-3.77,6.39A7.27,7.27,0,0,1,215,454.23Z"/><path class="cls-17" d="M241.22,457.87v3.42c0,2.45-1.63,5-4.89,6.83-6.52,3.79-17.19,3.79-23.78,0-3.33-1.93-5-4.46-5-7v-3.42c0,2.53,1.63,5,5,7,6.59,3.79,17.26,3.79,23.78,0C239.59,462.85,241.22,460.32,241.22,457.87Z"/><path class="cls-16" d="M236.26,450.88c6.59,3.79,6.67,10,.07,13.82s-17.19,3.79-23.78,0-6.67-10-.07-13.82S229.67,447,236.26,450.88Zm-21.19,12.34c5.19,3,13.56,3,18.75,0s5.11-7.88-.08-10.85-13.56-3-18.75,0-5.11,7.88.08,10.85"/></g><g class="cls-9"><path class="cls-16" d="M216.62,452.15a7.9,7.9,0,0,0-3.63,3.93v-3.41a7.33,7.33,0,0,1,3.63-3.94c5.19-3,13.56-3,18.75,0,2.59,1.48,3.93,3.49,3.93,5.42v3.42c0-1.93-1.34-3.94-3.93-5.42C230.18,449.1,221.74,449.1,216.62,452.15Z"/><path class="cls-16" d="M213,456.08a5,5,0,0,0-.22,1.42v-3.42a4.88,4.88,0,0,1,.22-1.41v3.41Z"/><path class="cls-16" d="M239.22,454.15v3.42c0,1.93-1.26,3.94-3.85,5.42-5.19,3-13.56,3-18.75,0-2.59-1.48-3.92-3.49-3.92-5.49v-3.42c0,2,1.33,3.94,3.92,5.5,5.19,3,13.56,3,18.75,0C238,458.09,239.22,456.16,239.22,454.15Z"/><path class="cls-16" d="M235.37,448.73c5.19,3,5.19,7.87.08,10.85s-13.56,3-18.75,0-5.19-7.88-.08-10.85S230.18,445.68,235.37,448.73Z"/><path class="cls-17" d="M216.62,450.59c5.19-3,13.56-3,18.75,0,2.15,1.26,3.48,2.89,3.78,4.53.52-2.31-.81-4.68-3.78-6.39-5.19-3-13.56-3-18.75,0-3,1.71-4.22,4.08-3.77,6.39A7.27,7.27,0,0,1,216.62,450.59Z"/><path class="cls-17" d="M242.85,454.23v3.41c0,2.46-1.63,5-4.89,6.84-6.52,3.79-17.19,3.79-23.78,0-3.33-1.93-5-4.46-5-7v-3.42c0,2.52,1.63,5.05,5,7,6.59,3.79,17.26,3.79,23.78,0C241.22,459.2,242.85,456.68,242.85,454.23Z"/><path class="cls-16" d="M237.89,447.24c6.59,3.79,6.67,10,.07,13.82s-17.19,3.79-23.78,0-6.67-10-.07-13.82S231.3,443.38,237.89,447.24ZM216.7,459.58c5.19,3,13.56,3,18.75,0s5.11-7.88-.08-10.85-13.56-3-18.75,0-5.11,7.87.08,10.85"/></g><path class="cls-7" d="M216.25,357.33l.08,16.94,59.5,34.7,119.59-69.25-.08-16.94-59.49-34.7"/><ellipse class="cls-3" cx="305.84" cy="340.02" rx="25.19" ry="14.64" transform="translate(-0.97 0.87) rotate(-0.16)"/><path class="cls-4" d="M322.21,303.24c7.49,4.38,19.71,4.38,27.27,0l19.86,11.59c-7.56,4.38-7.56,11.44-.08,15.83L289.61,376.8c-7.48-4.38-19.71-4.38-27.27,0l-19.86-11.59c7.56-4.39,7.56-11.45.08-15.83Zm1.41,47.11c9.85-5.72,9.93-15,.15-20.73s-25.79-5.73-35.64,0-9.93,15-.15,20.73,25.78,5.72,35.64,0"/><path class="cls-3" d="M395.42,322.7,275.83,392l-59.5-34.7L335.92,288ZM262.27,376.8c7.56-4.38,19.71-4.38,27.27,0l79.65-46.14c-7.48-4.39-7.48-11.45.07-15.83l-19.85-11.59c-7.56,4.38-19.71,4.38-27.27,0l-79.66,46.14c7.49,4.38,7.49,11.44-.07,15.83l19.86,11.59"/><polygon class="cls-5" points="267.9 327.39 327.4 362.09 345.63 351.54 286.13 316.83 267.9 327.39"/><polygon class="cls-8" points="327.47 362.09 327.55 379.03 345.77 368.48 345.7 351.54 327.47 362.09"/><polygon class="cls-2" points="275.83 392.03 275.83 408.9 216.4 374.2 216.4 357.33 275.83 392.03"/><path class="cls-7" d="M218.92,337.49l.08,16.94,59.5,34.7,119.59-69.25L398,302.94l-59.5-34.7"/><ellipse class="cls-3" cx="308.51" cy="320.18" rx="25.19" ry="14.64" transform="translate(-0.91 0.88) rotate(-0.16)"/><path class="cls-4" d="M324.81,283.4c7.48,4.38,19.7,4.38,27.26,0L371.93,295c-7.56,4.38-7.56,11.44-.07,15.83L292.2,357c-7.48-4.38-19.71-4.38-27.26,0l-19.86-11.59c7.56-4.39,7.56-11.45.07-15.83Zm1.4,47.11c9.86-5.72,9.93-15,.15-20.73s-25.78-5.73-35.64,0-9.93,15-.15,20.73,25.79,5.72,35.64,0"/><path class="cls-3" d="M398.09,302.87,278.5,372.12,219,337.42l119.59-69.26ZM264.86,357c7.56-4.38,19.71-4.38,27.27,0l79.65-46.14c-7.48-4.39-7.48-11.45.08-15.83L352,283.4c-7.56,4.38-19.71,4.38-27.27,0l-79.65,46.14c7.48,4.38,7.48,11.44-.08,15.83L264.86,357"/><polygon class="cls-5" points="270.49 307.55 330.07 342.25 348.29 331.7 288.72 297 270.49 307.55"/><polygon class="cls-8" points="330.07 342.25 330.14 359.19 348.37 348.64 348.29 331.7 330.07 342.25"/><polygon class="cls-2" points="278.42 372.12 278.42 389.06 219 354.36 219 337.49 278.42 372.12"/><path class="cls-7" d="M216.25,318l.08,16.94,59.5,34.7,119.59-69.25-.08-16.94-59.49-34.7"/><ellipse class="cls-3" cx="305.84" cy="300.64" rx="25.19" ry="14.64" transform="matrix(1, 0, 0, 1, -0.86, 0.87)"/><path class="cls-4" d="M322.21,263.85c7.49,4.39,19.71,4.39,27.27,0l19.86,11.6c-7.56,4.38-7.56,11.44-.08,15.82l-79.65,46.15c-7.48-4.39-19.71-4.39-27.27,0l-19.86-11.59c7.56-4.39,7.56-11.45.08-15.83ZM323.62,311c9.85-5.72,9.93-15,.15-20.73s-25.79-5.72-35.64,0-9.93,15-.15,20.73,25.78,5.73,35.64,0"/><path class="cls-3" d="M395.42,283.32,275.83,352.58l-59.5-34.71,119.59-69.25Zm-133.15,54.1c7.56-4.39,19.71-4.39,27.27,0l79.65-46.15c-7.48-4.38-7.48-11.44.07-15.82l-19.85-11.6c-7.56,4.39-19.71,4.39-27.27,0L242.48,310c7.49,4.38,7.49,11.44-.07,15.83l19.86,11.59"/><polygon class="cls-5" points="267.9 288 327.4 322.7 345.63 312.15 286.13 277.45 267.9 288"/><polygon class="cls-8" points="327.47 322.7 327.55 339.65 345.77 329.1 345.7 312.15 327.47 322.7"/><polygon class="cls-2" points="275.83 352.65 275.83 369.52 216.4 334.82 216.4 317.95 275.83 352.65"/></g></svg>