<svg id="Capa_1" data-name="Capa 1" xmlns="http://www.w3.org/2000/svg" viewBox="0 0 397.18 513.11"><defs><style>.cls-1{fill:#b5bd86;}.cls-2{fill:#406325;}.cls-3{fill:#7dab4e;}.cls-4{fill:#a7bd56;}.cls-5{fill:#dac89d;}.cls-6{fill:#877c61;}.cls-7{fill:#598d2e;}.cls-8{fill:#baa97e;}.cls-9{isolation:isolate;}.cls-10{fill:#ffd025;}.cls-11{fill:#fcca0d;}.cls-12{fill:#d99a32;}.cls-13{fill:#def2ec;}.cls-14{fill:#b3b3b3;}.cls-15{fill:#b7b689;}.cls-16{fill:#d69f76;}.cls-17{fill:#967257;}</style></defs><title>media plata4</title><g id="OBJECTS"><polygon class="cls-1" points="204.81 292.13 140.58 334.41 60.48 372.25 187.17 442.21 207.46 444.3 256.18 469.47 277.05 470.03 395.74 405.21 204.81 292.13"/><path class="cls-2" d="M216,284.82,157,317.3l-.08,15.86L275.51,398l59-32.48.07-15.86"/><ellipse class="cls-3" cx="245.81" cy="333.49" rx="13.7" ry="24.99" transform="translate(-88.31 578.46) rotate(-89.85)"/><path class="cls-4" d="M308.65,342.27c-7.42,4.1-7.42,10.71.07,14.81L289,367.93c-7.5-4.1-19.55-4.1-27,0l-79-43.19c7.43-4.1,7.43-10.71-.07-14.81l19.69-10.85c7.5,4.1,19.55,4.1,27.05,0Zm-80.47.9c9.77,5.36,25.65,5.36,35.35,0s9.7-14-.15-19.4-25.65-5.36-35.35,0-9.63,14.05.15,19.4"/><path class="cls-3" d="M216,284.82l118.61,64.82-59,32.48L157,317.3Zm73,83.11,19.69-10.85c-7.49-4.1-7.49-10.71-.07-14.81l-79-43.19c-7.42,4.1-19.55,4.1-27.05,0l-19.69,10.85c7.5,4.1,7.5,10.71.07,14.81l79,43.19c7.5-4.1,19.55-4.1,27,0"/><polygon class="cls-5" points="283.44 321.68 224.43 354.16 206.35 344.29 265.37 311.81 283.44 321.68"/><polygon class="cls-6" points="224.36 354.16 224.28 370.02 206.21 360.14 206.28 344.29 224.36 354.16"/><polygon class="cls-7" points="275.58 382.12 275.58 397.98 334.59 365.5 334.59 349.71 275.58 382.12"/><path class="cls-2" d="M217.45,266.74l-59,32.48-.08,15.86L277,379.9l59-32.48.07-15.86"/><ellipse class="cls-3" cx="247.28" cy="315.41" rx="13.7" ry="24.99" transform="translate(-68.76 561.89) rotate(-89.85)"/><path class="cls-4" d="M310.12,324.19c-7.42,4.1-7.42,10.71.07,14.81L290.5,349.85c-7.5-4.1-19.55-4.1-27.05,0l-79-43.19c7.42-4.1,7.42-10.71-.07-14.81L204.07,281c7.5,4.1,19.55,4.1,27.05,0Zm-80.47.9c9.77,5.36,25.65,5.36,35.35,0s9.7-14-.15-19.4-25.65-5.36-35.35,0-9.63,14.05.15,19.4"/><path class="cls-3" d="M217.45,266.74l118.61,64.82-59,32.48L158.44,299.22Zm73.05,83.11L310.19,339c-7.49-4.1-7.49-10.71-.07-14.81l-79-43.19c-7.42,4.1-19.55,4.1-27.05,0l-19.69,10.85c7.49,4.1,7.49,10.71.07,14.81l79,43.19c7.5-4.1,19.55-4.1,27.05,0"/><polygon class="cls-5" points="284.91 303.6 225.9 336.08 207.82 326.2 266.83 293.73 284.91 303.6"/><polygon class="cls-6" points="225.83 336.08 225.75 351.94 207.68 342.06 207.75 326.2 225.83 336.08"/><polygon class="cls-7" points="277.05 364.04 277.05 379.89 336.06 347.42 336.06 331.63 277.05 364.04"/><path class="cls-2" d="M214.51,249.35l-59,32.48-.08,15.86L274,362.51l59-32.48.07-15.86"/><ellipse class="cls-3" cx="244.34" cy="298.03" rx="13.7" ry="24.99" transform="translate(-54.3 541.61) rotate(-89.85)"/><path class="cls-4" d="M307.18,306.8c-7.42,4.1-7.42,10.71.07,14.81l-19.69,10.85c-7.5-4.1-19.55-4.1-27.05,0l-79-43.19c7.43-4.1,7.43-10.71-.07-14.81l19.69-10.85c7.5,4.1,19.55,4.1,27.05,0Zm-80.47.9c9.77,5.36,25.65,5.36,35.35,0s9.7-14-.15-19.4-25.65-5.35-35.35,0-9.63,14.05.15,19.4"/><path class="cls-3" d="M214.51,249.35l118.61,64.82-59,32.48L155.5,281.83Zm73.05,83.11,19.69-10.85c-7.49-4.1-7.49-10.71-.07-14.81l-79-43.19c-7.42,4.1-19.55,4.1-27.05,0l-19.69,10.85c7.5,4.1,7.5,10.71.07,14.81l79,43.19c7.5-4.1,19.55-4.1,27.05,0"/><polygon class="cls-5" points="281.97 286.21 222.96 318.69 204.88 308.82 263.89 276.34 281.97 286.21"/><polygon class="cls-6" points="222.89 318.69 222.81 334.55 204.74 324.67 204.81 308.82 222.89 318.69"/><polygon class="cls-7" points="274.11 346.65 274.11 362.51 333.12 330.03 333.12 314.24 274.11 346.65"/><path class="cls-2" d="M214.51,232.66l-59,32.48L155.42,281,274,345.82l59-32.48.07-15.86"/><ellipse class="cls-3" cx="244.34" cy="281.33" rx="13.7" ry="24.99" transform="translate(-37.61 524.96) rotate(-89.85)"/><path class="cls-4" d="M307.18,290.11c-7.42,4.1-7.42,10.71.07,14.81l-19.69,10.85c-7.5-4.1-19.55-4.1-27.05,0l-79-43.19c7.43-4.1,7.43-10.71-.07-14.81l19.69-10.85c7.5,4.1,19.55,4.1,27.05,0Zm-80.47.9c9.77,5.36,25.65,5.36,35.35,0s9.7-14.05-.15-19.4-25.65-5.36-35.35,0-9.63,14.05.15,19.4"/><path class="cls-3" d="M214.51,232.66l118.61,64.82-59,32.48L155.5,265.14Zm73.05,83.11,19.69-10.85c-7.49-4.1-7.49-10.71-.07-14.81l-79-43.19c-7.42,4.1-19.55,4.1-27.05,0l-19.69,10.85c7.5,4.1,7.5,10.71.07,14.81l79,43.19c7.5-4.1,19.55-4.1,27.05,0"/><polygon class="cls-5" points="281.97 269.52 222.96 302 204.88 292.13 263.89 259.65 281.97 269.52"/><polygon class="cls-6" points="222.89 302 222.81 317.86 204.74 307.98 204.81 292.13 222.89 302"/><polygon class="cls-7" points="274.11 329.96 274.11 345.82 333.12 313.34 333.12 297.55 274.11 329.96"/><path class="cls-2" d="M217.45,213.19l-59,32.48-.08,15.85L277,326.34l59-32.48.07-15.85"/><ellipse class="cls-3" cx="247.28" cy="261.86" rx="13.7" ry="24.99" transform="translate(-15.21 508.48) rotate(-89.85)"/><path class="cls-4" d="M310.12,270.64c-7.42,4.1-7.42,10.71.07,14.81L290.5,296.3c-7.5-4.1-19.55-4.1-27.05,0l-79-43.19c7.42-4.1,7.42-10.71-.07-14.81l19.69-10.85c7.5,4.1,19.55,4.1,27.05,0Zm-80.47.9c9.77,5.35,25.65,5.35,35.35,0s9.7-14.05-.15-19.4-25.65-5.36-35.35,0-9.63,14,.15,19.4"/><path class="cls-3" d="M217.45,213.19,336.06,278l-59,32.48L158.44,245.67ZM290.5,296.3l19.69-10.85c-7.49-4.1-7.49-10.71-.07-14.81l-79-43.19c-7.42,4.1-19.55,4.1-27.05,0L184.38,238.3c7.49,4.1,7.49,10.71.07,14.81l79,43.19c7.5-4.1,19.55-4.1,27.05,0"/><polygon class="cls-5" points="284.91 250.05 225.9 282.53 207.82 272.65 266.83 240.17 284.91 250.05"/><polygon class="cls-6" points="225.83 282.53 225.75 298.38 207.68 288.51 207.75 272.65 225.83 282.53"/><polygon class="cls-7" points="277.05 310.49 277.05 326.34 336.06 293.86 336.06 278.08 277.05 310.49"/><path class="cls-2" d="M220.39,195.59l-59,32.48-.08,15.86,118.62,64.82,59-32.48.07-15.86"/><ellipse class="cls-3" cx="250.24" cy="244.25" rx="13.7" ry="24.99" transform="translate(5.36 493.87) rotate(-89.85)"/><path class="cls-4" d="M313.06,253c-7.42,4.1-7.42,10.71.07,14.81L293.44,278.7c-7.5-4.1-19.55-4.1-27.05,0l-79-43.19c7.42-4.1,7.42-10.71-.07-14.81L207,209.85c7.5,4.1,19.55,4.1,27.05,0Zm-80.47.9c9.77,5.36,25.65,5.36,35.35,0s9.7-14-.15-19.4-25.65-5.36-35.35,0-9.63,14.05.15,19.4"/><path class="cls-3" d="M220.39,195.59,339,260.41l-59,32.48L161.38,228.07Zm73.05,83,19.69-10.85c-7.49-4.1-7.49-10.71-.07-14.81l-79-43.19c-7.42,4.1-19.55,4.1-27.05,0l-19.69,10.85c7.49,4.1,7.49,10.71.07,14.81l79,43.19c7.5-4,19.55-4,27.05,0"/><polygon class="cls-5" points="287.85 232.45 228.84 264.93 210.76 255.06 269.77 222.58 287.85 232.45"/><polygon class="cls-6" points="228.77 264.93 228.69 280.72 210.62 270.84 210.69 255.06 228.77 264.93"/><polygon class="cls-7" points="279.99 292.89 279.99 308.75 339 276.27 339 260.41 279.99 292.89"/><path class="cls-2" d="M214.51,178l-59,32.48-.08,15.85L274,291.15l59-32.48.07-15.85"/><ellipse class="cls-3" cx="244.31" cy="226.63" rx="13.7" ry="24.99" transform="translate(17.06 470.36) rotate(-89.85)"/><path class="cls-4" d="M307.18,235.44c-7.42,4.11-7.42,10.71.07,14.82l-19.69,10.85c-7.5-4.11-19.55-4.11-27.05,0l-79-43.26c7.43-4.1,7.43-10.71-.07-14.82l19.69-10.84c7.5,4.1,19.55,4.1,27.05,0Zm-80.47.91c9.77,5.35,25.65,5.35,35.35,0s9.7-14-.15-19.41-25.65-5.35-35.35,0-9.63,14.05.15,19.41"/><path class="cls-3" d="M214.51,178l118.61,64.82-59,32.48L155.5,210.48Zm73.05,83,19.69-10.85c-7.49-4.1-7.49-10.71-.07-14.82l-79-43.18c-7.42,4.1-19.55,4.1-27.05,0L181.44,203c7.5,4.11,7.5,10.72.07,14.82l79,43.19c7.5-4.11,19.55-4.11,27.05,0"/><polygon class="cls-5" points="281.97 214.79 222.96 247.27 204.88 237.39 263.89 204.91 281.97 214.79"/><polygon class="cls-6" points="222.89 247.34 222.81 263.12 204.74 253.25 204.81 237.46 222.89 247.34"/><polygon class="cls-7" points="274.11 275.3 274.11 291.08 333.12 258.67 333.12 242.82 274.11 275.3"/><path class="cls-2" d="M147.93,320.64l-59,32.48L88.84,369l118.61,64.81,59-32.47.07-15.86"/><ellipse class="cls-3" cx="177.76" cy="369.31" rx="13.7" ry="24.99" transform="translate(-192 546.13) rotate(-89.85)"/><path class="cls-4" d="M240.6,378.09c-7.42,4.1-7.42,10.71.07,14.81L221,403.75c-7.5-4.1-19.55-4.1-27,0l-79-43.19c7.42-4.1,7.42-10.71-.07-14.81l19.69-10.85c7.5,4.1,19.55,4.1,27,0Zm-80.47.9c9.77,5.36,25.65,5.36,35.35,0s9.7-14.05-.15-19.4-25.65-5.36-35.35,0-9.63,14.05.15,19.4"/><path class="cls-3" d="M147.93,320.64l118.61,64.82-59,32.48L88.92,353.12Zm73,83.11,19.69-10.85c-7.49-4.1-7.49-10.71-.07-14.81l-79-43.19c-7.43,4.1-19.55,4.1-27,0l-19.69,10.85c7.49,4.1,7.49,10.71.07,14.81l79,43.19c7.5-4.1,19.55-4.1,27,0"/><polygon class="cls-5" points="215.39 357.5 156.38 389.98 138.3 380.1 197.31 347.63 215.39 357.5"/><polygon class="cls-6" points="156.31 389.98 156.23 405.84 138.15 395.96 138.23 380.1 156.31 389.98"/><polygon class="cls-7" points="207.53 417.94 207.53 433.8 266.54 401.32 266.54 385.53 207.53 417.94"/><path class="cls-2" d="M146.46,303.25l-59,32.48-.08,15.86L206,416.41l59-32.48.07-15.86"/><ellipse class="cls-3" cx="176.29" cy="351.93" rx="13.7" ry="24.99" transform="translate(-176.08 527.32) rotate(-89.85)"/><path class="cls-4" d="M239.13,360.7c-7.42,4.1-7.42,10.71.07,14.81l-19.69,10.85c-7.5-4.1-19.55-4.1-27,0l-79-43.19c7.42-4.1,7.42-10.71-.07-14.81l19.69-10.85c7.5,4.1,19.55,4.1,27,0Zm-80.47.9c9.77,5.36,25.65,5.36,35.35,0s9.7-14-.15-19.4-25.65-5.36-35.35,0-9.63,14.05.15,19.4"/><path class="cls-3" d="M146.46,303.25l118.61,64.82-59,32.48L87.45,335.73Zm73,83.11,19.69-10.85c-7.49-4.1-7.49-10.71-.07-14.81l-79-43.19c-7.43,4.1-19.55,4.1-27,0l-19.69,10.85c7.49,4.1,7.49,10.71.07,14.81l79,43.19c7.5-4.1,19.55-4.1,27,0"/><polygon class="cls-5" points="213.92 340.11 154.91 372.59 136.83 362.72 195.84 330.24 213.92 340.11"/><polygon class="cls-6" points="154.84 372.59 154.76 388.45 136.68 378.57 136.76 362.72 154.84 372.59"/><polygon class="cls-7" points="206.06 400.55 206.06 416.41 265.07 383.93 265.07 368.14 206.06 400.55"/><path class="cls-2" d="M146.46,285.17l-59,32.48-.08,15.86L206,398.33l59-32.48.07-15.86"/><ellipse class="cls-3" cx="176.29" cy="333.84" rx="13.7" ry="24.99" transform="translate(-158 509.28) rotate(-89.85)"/><path class="cls-4" d="M239.13,342.62c-7.42,4.1-7.42,10.71.07,14.81l-19.69,10.85c-7.5-4.1-19.55-4.1-27,0l-79-43.19c7.42-4.1,7.42-10.71-.07-14.81l19.69-10.85c7.5,4.1,19.55,4.1,27,0Zm-80.47.9c9.77,5.36,25.65,5.36,35.35,0s9.7-14-.15-19.4-25.65-5.36-35.35,0-9.63,14.05.15,19.4"/><path class="cls-3" d="M146.46,285.17,265.07,350l-59,32.48L87.45,317.65Zm73,83.11,19.69-10.85c-7.49-4.1-7.49-10.71-.07-14.81l-79-43.19c-7.43,4.1-19.55,4.1-27,0l-19.69,10.85c7.49,4.1,7.49,10.71.07,14.81l79,43.19c7.5-4.1,19.55-4.1,27,0"/><polygon class="cls-5" points="213.92 322.03 154.91 354.51 136.83 344.63 195.84 312.15 213.92 322.03"/><polygon class="cls-6" points="154.84 354.51 154.76 370.37 136.68 360.49 136.76 344.63 154.84 354.51"/><polygon class="cls-7" points="206.06 382.47 206.06 398.32 265.07 365.85 265.07 350.06 206.06 382.47"/><path class="cls-2" d="M151.6,266.39l-59,32.48-.07,15.86,118.61,64.82,59-32.48.07-15.86"/><ellipse class="cls-3" cx="181.44" cy="315.07" rx="13.7" ry="24.99" transform="translate(-134.09 495.7) rotate(-89.85)"/><path class="cls-4" d="M244.27,323.84c-7.42,4.1-7.42,10.71.08,14.81l-19.7,10.85c-7.49-4.1-19.55-4.1-27,0l-79-43.19c7.42-4.1,7.42-10.71-.08-14.81l19.7-10.85c7.49,4.1,19.55,4.1,27,0Zm-80.47.9c9.78,5.36,25.65,5.36,35.35,0s9.7-14.05-.15-19.4-25.64-5.36-35.35,0-9.62,14.05.15,19.4"/><path class="cls-3" d="M151.6,266.39l118.61,64.82-59,32.48L92.59,298.87Zm73.05,83.11,19.7-10.85c-7.5-4.1-7.5-10.71-.08-14.81l-79-43.19c-7.42,4.1-19.55,4.1-27,0l-19.7,10.85c7.5,4.1,7.5,10.71.08,14.81l79,43.19c7.49-4.1,19.55-4.1,27,0"/><polygon class="cls-5" points="219.07 303.25 160.05 335.73 141.97 325.86 200.99 293.38 219.07 303.25"/><polygon class="cls-6" points="159.98 335.73 159.91 351.59 141.83 341.71 141.9 325.86 159.98 335.73"/><polygon class="cls-7" points="211.2 363.69 211.2 379.55 270.21 347.07 270.21 331.28 211.2 363.69"/><path class="cls-2" d="M149.4,249l-59,32.47-.08,15.86,118.61,64.82,59-32.48.07-15.86"/><ellipse class="cls-3" cx="179.23" cy="297.68" rx="13.7" ry="24.99" transform="translate(-118.9 476.15) rotate(-89.85)"/><path class="cls-4" d="M242.07,306.45c-7.42,4.11-7.42,10.71.07,14.82l-19.69,10.85c-7.5-4.11-19.55-4.11-27,0l-79-43.19c7.42-4.11,7.42-10.71-.07-14.82L136,263.26c7.5,4.11,19.55,4.11,27,0Zm-80.47.91c9.77,5.35,25.65,5.35,35.35,0s9.7-14.05-.15-19.41-25.65-5.35-35.35,0-9.63,14.05.15,19.41"/><path class="cls-3" d="M149.4,249,268,313.82,209,346.3,90.39,281.48Zm73,83.11,19.69-10.85c-7.49-4.11-7.49-10.71-.07-14.82l-79-43.19c-7.43,4.11-19.55,4.11-27,0l-19.69,10.85c7.49,4.11,7.49,10.71.07,14.82l79,43.19c7.5-4.11,19.55-4.11,27,0"/><polygon class="cls-5" points="216.86 285.87 157.85 318.35 139.77 308.47 198.78 275.99 216.86 285.87"/><polygon class="cls-6" points="157.78 318.35 157.7 334.2 139.62 324.33 139.7 308.47 157.78 318.35"/><polygon class="cls-7" points="209 346.3 209 362.16 268.01 329.68 268.01 313.89 209 346.3"/><path class="cls-7" d="M214.88,421.55l.07,15.86,59,32.48,118.62-64.82-.08-15.86-59-32.47"/><ellipse class="cls-3" cx="303.73" cy="405.35" rx="24.99" ry="13.7" transform="translate(-1.03 0.78) rotate(-0.15)"/><path class="cls-4" d="M320,371c7.42,4.11,19.55,4.11,27,0l19.7,10.85c-7.5,4.11-7.5,10.71-.08,14.82l-79,43.19c-7.42-4.11-19.55-4.11-27,0L240.89,429c7.5-4.11,7.5-10.71.08-14.82Zm1.39,44.1c9.78-5.36,9.85-14,.15-19.41s-25.57-5.35-35.35,0-9.85,14.05-.14,19.41,25.57,5.35,35.34,0"/><path class="cls-3" d="M392.58,389.21,274,454l-59-32.48,118.61-64.81ZM260.51,439.78c7.5-4.11,19.55-4.11,27.05,0l79-43.19c-7.42-4.11-7.42-10.71.07-14.82l-19.69-10.85c-7.5,4.11-19.55,4.11-27.05,0l-79,43.19c7.42,4.11,7.42,10.71-.07,14.82l19.69,10.85"/><polygon class="cls-5" points="266.1 393.6 325.11 426 343.19 416.13 284.18 383.72 266.1 393.6"/><polygon class="cls-8" points="325.19 426.07 325.26 441.86 343.34 431.99 343.26 416.2 325.19 426.07"/><polygon class="cls-2" points="273.96 454.03 273.96 469.89 215.02 437.41 215.02 421.55 273.96 454.03"/><path class="cls-7" d="M217.52,403l.08,15.86,59,32.48L395.22,386.5l-.07-15.85-59-32.48"/><ellipse class="cls-3" cx="306.37" cy="386.78" rx="24.99" ry="13.7" transform="translate(-0.98 0.78) rotate(-0.15)"/><path class="cls-4" d="M322.54,352.42c7.42,4.11,19.55,4.11,27,0l19.7,10.85c-7.5,4.11-7.5,10.71-.07,14.82l-79,43.19c-7.42-4.11-19.54-4.11-27,0l-19.7-10.85c7.5-4.11,7.5-10.71.08-14.82Zm1.4,44.1c9.77-5.36,9.84-14,.14-19.41s-25.57-5.35-35.35,0-9.84,14.05-.14,19.41,25.57,5.35,35.35,0"/><path class="cls-3" d="M395.22,370.65,276.61,435.46,217.6,403l118.54-64.81ZM263.09,421.21c7.49-4.11,19.54-4.11,27,0l79-43.19c-7.42-4.11-7.42-10.71.08-14.82l-19.7-10.85c-7.5,4.11-19.55,4.11-27,0l-79,43.19c7.43,4.11,7.43,10.71-.07,14.82l19.7,10.85"/><polygon class="cls-5" points="268.67 374.96 327.76 407.44 345.84 397.56 286.75 365.08 268.67 374.96"/><polygon class="cls-8" points="327.76 407.51 327.83 423.29 345.91 413.42 345.84 397.63 327.76 407.51"/><polygon class="cls-2" points="276.54 435.46 276.54 451.25 217.6 418.84 217.6 402.99 276.54 435.46"/><path class="cls-7" d="M214.88,384.69l.07,15.86L274,433l118.62-64.82-.08-15.86-59-32.47"/><ellipse class="cls-3" cx="303.73" cy="368.49" rx="24.99" ry="13.7" transform="translate(-0.94 0.78) rotate(-0.15)"/><path class="cls-4" d="M320,334.13c7.42,4.11,19.55,4.11,27,0L366.71,345c-7.5,4.11-7.5,10.71-.08,14.82l-79,43.18c-7.42-4.1-19.55-4.1-27,0l-19.7-10.84c7.5-4.11,7.5-10.71.08-14.82Zm1.39,44.1c9.78-5.36,9.85-14.05.15-19.41s-25.57-5.35-35.35,0-9.85,14.05-.14,19.41,25.57,5.35,35.34,0"/><path class="cls-3" d="M392.58,352.35,274,417.17l-59-32.48,118.61-64.81ZM260.51,402.92c7.5-4.11,19.55-4.11,27.05,0l79-43.19c-7.42-4.11-7.42-10.71.07-14.82l-19.69-10.85c-7.5,4.11-19.55,4.11-27.05,0l-79,43.19c7.42,4.11,7.42,10.71-.07,14.82l19.69,10.85"/><polygon class="cls-5" points="266.1 356.74 325.11 389.14 343.19 379.27 284.18 346.86 266.1 356.74"/><polygon class="cls-8" points="325.19 389.21 325.26 405 343.34 395.13 343.26 379.34 325.19 389.21"/><polygon class="cls-2" points="273.96 417.17 273.96 433.03 215.02 400.55 215.02 384.69 273.96 417.17"/><path class="cls-1" d="M107.29,413.49c-14.85-7-38.95-7-53.72,0s-14.7,18.36.14,25.38,38.88,7,53.73,0S122.21,420.44,107.29,413.49Z"/><path class="cls-1" d="M64.59,393.53c-14.26-7-37.19-7-51.3,0s-14,18.36.15,25.38,37.19,7,51.3,0S78.85,400.55,64.59,393.53ZM10.87,404h0c.07-.14.07-.28.15-.49C10.94,403.68,10.94,403.89,10.87,404Z"/><g class="cls-9"><path class="cls-10" d="M24.32,395.13c-3.75,2.08-6.1,4.59-7.06,7.3v-6.26c1-2.64,3.24-5.22,7.06-7.3,10-5.5,26.31-5.5,36.38,0,5.07,2.78,7.57,6.33,7.57,9.94v6.26c0-3.62-2.58-7.23-7.57-9.94C50.63,389.56,34.31,389.56,24.32,395.13Z"/><path class="cls-10" d="M17.34,402.36A7.82,7.82,0,0,0,16.9,405v-6.26a8.12,8.12,0,0,1,.44-2.64v6.26Z"/><path class="cls-11" d="M68.34,398.88v6.26c0,3.62-2.5,7.16-7.5,9.88-10,5.49-26.31,5.49-36.37,0-5.08-2.79-7.57-6.4-7.57-10v-6.26c0,3.62,2.49,7.31,7.57,10,10.06,5.49,26.38,5.49,36.37,0C65.84,406.05,68.34,402.5,68.34,398.88Z"/><path class="cls-10" d="M68.27,405.14h0v-6.26C68.34,400.76,68.27,403.26,68.27,405.14Z"/><path class="cls-11" d="M60.7,388.87c10.06,5.49,10.14,14.39.14,20s-26.31,5.49-36.37,0-10.15-14.47-.15-20S50.63,383.37,60.7,388.87Z"/><path class="cls-12" d="M24.32,392.34c10-5.49,26.31-5.49,36.38,0,4.26,2.3,6.68,5.22,7.42,8.28.95-4.17-1.55-8.55-7.42-11.75-10.07-5.5-26.39-5.5-36.38,0-5.81,3.2-8.23,7.51-7.28,11.68C17.78,397.56,20.2,394.64,24.32,392.34Z"/><path class="cls-12" d="M75.32,398.88v6.26c0,4.59-3.16,9.11-9.48,12.59-12.71,7-33.44,7-46.3,0-6.47-3.55-9.7-8.14-9.7-12.8v-6.26c0,4.59,3.23,9.25,9.7,12.8,12.79,7,33.59,7,46.3,0C72.16,408.06,75.32,403.47,75.32,398.88Z"/><path class="cls-10" d="M65.69,386.15c12.79,7,12.86,18.37.15,25.39s-33.44,7-46.3,0-12.86-18.36-.15-25.39S52.83,379.13,65.69,386.15ZM24.47,408.83c10.06,5.49,26.38,5.49,36.37,0s10-14.47-.14-20-26.39-5.5-36.38,0-9.92,14.39.15,20"/></g><g class="cls-9"><path class="cls-10" d="M24.32,388c-3.75,2.09-6.1,4.59-7.06,7.3v-6.25c1-2.65,3.24-5.22,7.06-7.31,10-5.49,26.31-5.49,36.38,0,5.07,2.78,7.57,6.33,7.57,10V398c0-3.62-2.58-7.24-7.57-10C50.63,382.54,34.31,382.54,24.32,388Z"/><path class="cls-10" d="M17.34,395.33A7.88,7.88,0,0,0,16.9,398v-6.26a8.08,8.08,0,0,1,.44-2.64v6.25Z"/><path class="cls-11" d="M68.34,391.86v6.26c0,3.61-2.5,7.16-7.5,9.87-10,5.5-26.31,5.5-36.37,0-5.08-2.78-7.57-6.4-7.57-10v-6.26c0,3.61,2.49,7.3,7.57,10,10.06,5.5,26.38,5.5,36.37,0C65.84,399,68.34,395.4,68.34,391.86Z"/><path class="cls-10" d="M68.27,398.12h0v-6.26C68.34,393.74,68.27,396.24,68.27,398.12Z"/><path class="cls-11" d="M60.7,381.84c10.06,5.5,10.14,14.4.14,20s-26.31,5.5-36.37,0-10.15-14.46-.15-20S50.63,376.28,60.7,381.84Z"/><path class="cls-12" d="M24.32,385.32c10-5.49,26.31-5.49,36.38,0,4.26,2.29,6.68,5.22,7.42,8.28.95-4.18-1.55-8.56-7.42-11.76-10.07-5.49-26.39-5.49-36.38,0-5.81,3.2-8.23,7.51-7.28,11.69C17.78,390.47,20.2,387.61,24.32,385.32Z"/><path class="cls-12" d="M75.32,391.86v6.26c0,4.59-3.16,9.11-9.48,12.58-12.71,7-33.44,7-46.3,0-6.47-3.54-9.7-8.13-9.7-12.79v-6.26c0,4.59,3.23,9.25,9.7,12.8,12.79,7,33.59,7,46.3,0C72.16,401,75.32,396.45,75.32,391.86Z"/><path class="cls-10" d="M65.69,379.06c12.79,7,12.86,18.36.15,25.39s-33.44,7-46.3,0-12.86-18.37-.15-25.39S52.83,372.11,65.69,379.06ZM24.47,401.73c10.06,5.5,26.38,5.5,36.37,0s10-14.46-.14-20-26.39-5.49-36.38,0-9.92,14.47.15,20"/></g><g class="cls-9"><path class="cls-10" d="M22.85,381c-3.75,2.08-6.1,4.59-7.06,7.3v-6.26c1-2.64,3.24-5.22,7.06-7.3,10-5.5,26.31-5.5,36.38,0,5.07,2.78,7.57,6.33,7.57,9.94V391c0-3.61-2.58-7.23-7.57-9.94C49.16,375.51,32.84,375.51,22.85,381Z"/><path class="cls-10" d="M15.87,388.31a7.82,7.82,0,0,0-.44,2.64v-6.26a8.17,8.17,0,0,1,.44-2.64v6.26Z"/><path class="cls-11" d="M66.87,384.83v6.26c0,3.62-2.5,7.17-7.5,9.88-10,5.49-26.31,5.49-36.37,0-5.08-2.78-7.57-6.4-7.57-10v-6.26c0,3.62,2.49,7.31,7.57,10,10.06,5.49,26.38,5.49,36.37,0C64.37,392,66.87,388.38,66.87,384.83Z"/><path class="cls-10" d="M66.8,391h0v-6.26C66.87,386.64,66.8,389.14,66.8,391Z"/><path class="cls-11" d="M59.23,374.75c10.06,5.49,10.14,14.39.14,20s-26.31,5.49-36.37,0-10.15-14.47-.15-20S49.16,369.25,59.23,374.75Z"/><path class="cls-12" d="M22.85,378.23c10-5.5,26.31-5.5,36.38,0,4.26,2.29,6.68,5.21,7.42,8.27.95-4.17-1.54-8.55-7.42-11.75-10.07-5.5-26.39-5.5-36.38,0-5.81,3.2-8.23,7.51-7.28,11.68C16.31,383.44,18.73,380.52,22.85,378.23Z"/><path class="cls-12" d="M73.85,384.83v6.26c0,4.59-3.16,9.11-9.48,12.59-12.71,7-33.44,7-46.3,0-6.47-3.55-9.7-8.14-9.7-12.8v-6.26c0,4.59,3.23,9.25,9.7,12.8,12.79,7,33.59,7,46.3,0C70.69,393.94,73.85,389.35,73.85,384.83Z"/><path class="cls-10" d="M64.22,372c12.79,7,12.86,18.36.15,25.38s-33.44,7-46.3,0S5.21,379.06,17.92,372,51.36,365,64.22,372ZM23,394.71c10.06,5.49,26.38,5.49,36.37,0s10-14.47-.14-20-26.39-5.5-36.38,0-9.92,14.46.15,20"/></g><g class="cls-9"><path class="cls-10" d="M70.25,415.5c-3.75,2.09-6.1,4.59-7.06,7.31v-6.26c1-2.65,3.24-5.22,7.06-7.31,10-5.49,26.31-5.49,36.38,0,5.07,2.79,7.57,6.33,7.57,9.95v6.26c0-3.62-2.58-7.23-7.57-9.95C96.56,410,80.24,410,70.25,415.5Z"/><path class="cls-10" d="M63.27,422.81a7.78,7.78,0,0,0-.44,2.64v-6.26a8.12,8.12,0,0,1,.44-2.64v6.26Z"/><path class="cls-11" d="M114.27,419.33v6.26c0,3.61-2.5,7.16-7.5,9.87-10,5.5-26.31,5.5-36.37,0-5.07-2.78-7.57-6.39-7.57-10v-6.26c0,3.62,2.5,7.3,7.57,10,10.06,5.5,26.38,5.5,36.37,0C111.77,426.49,114.2,422.88,114.27,419.33Z"/><path class="cls-11" d="M106.63,409.24c10.06,5.5,10.14,14.4.14,20s-26.31,5.5-36.37,0-10.15-14.46-.15-20S96.56,403.75,106.63,409.24Z"/><path class="cls-12" d="M70.25,412.72c10-5.49,26.31-5.49,36.38,0,4.26,2.3,6.68,5.22,7.42,8.28,1-4.18-1.54-8.56-7.42-11.76-10.07-5.49-26.39-5.49-36.38,0-5.81,3.2-8.23,7.52-7.28,11.69C63.71,417.94,66.06,415.09,70.25,412.72Z"/><path class="cls-12" d="M121.25,419.33v6.26c0,4.59-3.16,9.11-9.48,12.59-12.71,7-33.44,7-46.3,0-6.46-3.55-9.7-8.14-9.7-12.8v-6.26c0,4.59,3.24,9.25,9.7,12.8,12.79,7,33.59,7,46.3,0C118.09,428.44,121.25,423.92,121.25,419.33Z"/><path class="cls-10" d="M111.62,406.53c12.79,7,12.86,18.36.15,25.39s-33.44,7-46.3,0-12.86-18.36-.14-25.39S98.76,399.58,111.62,406.53ZM70.4,429.2c10.06,5.5,26.38,5.5,36.37,0s10-14.46-.14-20-26.39-5.49-36.38,0-9.92,14.47.15,20"/></g><g class="cls-9"><path class="cls-10" d="M70.25,408.48c-3.75,2.09-6.1,4.59-7.06,7.3v-6.26c1-2.64,3.24-5.21,7.06-7.3,10-5.49,26.31-5.49,36.38,0,5.07,2.78,7.57,6.33,7.57,9.95v6.25c0-3.61-2.58-7.23-7.57-9.94C96.56,403,80.24,403,70.25,408.48Z"/><path class="cls-10" d="M63.27,415.71a7.88,7.88,0,0,0-.44,2.65V412.1a8.18,8.18,0,0,1,.44-2.65v6.26Z"/><path class="cls-11" d="M114.27,412.23v6.26c0,3.62-2.5,7.17-7.5,9.88-10,5.49-26.31,5.49-36.37,0-5.07-2.78-7.57-6.4-7.57-10V412.1c0,3.61,2.5,7.3,7.57,10,10.06,5.49,26.38,5.49,36.37,0C111.77,419.4,114.2,415.85,114.27,412.23Z"/><path class="cls-11" d="M106.63,402.22c10.06,5.49,10.14,14.4.14,20s-26.31,5.49-36.37,0-10.15-14.47-.15-20S96.56,396.73,106.63,402.22Z"/><path class="cls-12" d="M70.25,405.7c10-5.5,26.31-5.5,36.38,0,4.26,2.29,6.68,5.21,7.42,8.27,1-4.17-1.54-8.55-7.42-11.75-10.07-5.49-26.39-5.49-36.38,0-5.81,3.2-8.23,7.51-7.28,11.68C63.71,410.91,66.06,408,70.25,405.7Z"/><path class="cls-12" d="M121.25,412.3v6.26c0,4.59-3.16,9.11-9.48,12.59-12.71,7-33.44,7-46.3,0-6.46-3.55-9.7-8.14-9.7-12.8V412.1c0,4.59,3.24,9.25,9.7,12.79,12.79,7,33.59,7,46.3,0C118.09,421.42,121.25,416.82,121.25,412.3Z"/><path class="cls-10" d="M111.62,399.51c12.79,7,12.86,18.36.15,25.38s-33.44,7-46.3,0-12.86-18.36-.14-25.38S98.76,392.48,111.62,399.51ZM70.4,422.18c10.06,5.49,26.38,5.49,36.37,0s10-14.47-.14-20-26.39-5.49-36.38,0-9.92,14.47.15,20"/></g><g class="cls-9"><path class="cls-10" d="M68.78,401.39c-3.75,2.08-6.1,4.59-7.06,7.3v-6.26c1-2.64,3.24-5.22,7.06-7.3,10-5.5,26.31-5.5,36.38,0,5.07,2.78,7.57,6.32,7.57,9.94v6.26c0-3.62-2.58-7.23-7.57-9.94C95.09,395.89,78.77,395.89,68.78,401.39Z"/><path class="cls-10" d="M61.8,408.69a7.82,7.82,0,0,0-.44,2.64v-6.26a8.12,8.12,0,0,1,.44-2.64v6.26Z"/><path class="cls-11" d="M112.8,405.21v6.26c0,3.62-2.5,7.16-7.5,9.88-10,5.49-26.31,5.49-36.37,0-5.07-2.79-7.57-6.4-7.57-10v-6.26c0,3.62,2.5,7.3,7.57,10,10.06,5.49,26.38,5.49,36.37,0C110.3,412.37,112.73,408.83,112.8,405.21Z"/><path class="cls-11" d="M105.16,395.2c10.07,5.49,10.14,14.39.14,20s-26.31,5.49-36.37,0-10.15-14.47-.15-20S95.09,389.7,105.16,395.2Z"/><path class="cls-12" d="M68.78,398.67c10-5.49,26.31-5.49,36.38,0,4.26,2.3,6.68,5.22,7.42,8.28,1-4.17-1.54-8.56-7.42-11.75-10.07-5.5-26.39-5.5-36.38,0-5.81,3.19-8.23,7.51-7.28,11.68C62.24,403.82,64.59,401,68.78,398.67Z"/><path class="cls-12" d="M119.78,405.21v6.26c0,4.59-3.16,9.11-9.48,12.59-12.71,7-33.44,7-46.3,0-6.46-3.55-9.7-8.14-9.7-12.8V405c0,4.59,3.24,9.25,9.7,12.8,12.79,7,33.59,7,46.3,0C116.62,414.39,119.78,409.8,119.78,405.21Z"/><path class="cls-10" d="M110.15,392.48c12.79,7,12.86,18.36.15,25.39s-33.44,7-46.3,0-12.86-18.36-.14-25.39S97.29,385.46,110.15,392.48ZM68.93,415.16c10.06,5.49,26.38,5.49,36.37,0s10-14.47-.14-20-26.39-5.5-36.38,0-9.92,14.39.15,20"/></g><g class="cls-9"><path class="cls-10" d="M71.72,394.36c-3.75,2.09-6.1,4.59-7.06,7.3V395.4c1-2.64,3.24-5.21,7.06-7.3,10-5.49,26.31-5.49,36.38,0,5.07,2.78,7.57,6.33,7.57,9.95v6.26c0-3.62-2.58-7.24-7.57-9.95C98,388.87,81.71,388.87,71.72,394.36Z"/><path class="cls-10" d="M64.74,401.66a7.88,7.88,0,0,0-.44,2.65v-6.26a8.18,8.18,0,0,1,.44-2.65v6.26Z"/><path class="cls-11" d="M115.74,398.19v6.26c0,3.61-2.5,7.16-7.5,9.87-10,5.5-26.31,5.5-36.37,0-5.07-2.78-7.57-6.4-7.57-10v-6.26c0,3.61,2.5,7.3,7.57,10,10.06,5.5,26.38,5.5,36.37,0C113.24,405.35,115.67,401.73,115.74,398.19Z"/><path class="cls-11" d="M108.1,388.1c10.06,5.5,10.14,14.4.14,20s-26.31,5.5-36.37,0-10.15-14.46-.15-20S98,382.61,108.1,388.1Z"/><path class="cls-12" d="M71.72,391.58c10-5.5,26.31-5.5,36.38,0,4.26,2.29,6.68,5.22,7.42,8.28,1-4.18-1.54-8.56-7.42-11.76-10.07-5.49-26.39-5.49-36.38,0-5.81,3.2-8.23,7.51-7.28,11.69C65.18,396.8,67.53,393.87,71.72,391.58Z"/><path class="cls-12" d="M122.72,398.19v6.26c0,4.59-3.16,9.11-9.48,12.58-12.71,7-33.44,7-46.3,0-6.46-3.54-9.7-8.13-9.7-12.79V398c0,4.59,3.24,9.25,9.7,12.79,12.79,7,33.59,7,46.3,0C119.56,407.3,122.72,402.78,122.72,398.19Z"/><path class="cls-10" d="M113.09,385.39c12.79,7,12.86,18.36.15,25.38s-33.44,7-46.3,0-12.86-18.36-.14-25.38S100.23,378.43,113.09,385.39ZM71.87,408.06c10.06,5.5,26.38,5.5,36.37,0s10-14.46-.14-20-26.39-5.49-36.38,0-9.92,14.47.15,20"/></g><g class="cls-9"><path class="cls-10" d="M68.78,387.34c-3.75,2.08-6.1,4.59-7.06,7.3v-6.26c1-2.64,3.24-5.22,7.06-7.3,10-5.5,26.31-5.5,36.38,0,5.07,2.78,7.57,6.33,7.57,9.94v6.26c0-3.61-2.58-7.23-7.57-9.94C95.09,381.84,78.77,381.84,68.78,387.34Z"/><path class="cls-10" d="M61.8,394.57a7.82,7.82,0,0,0-.44,2.64V391a8.12,8.12,0,0,1,.44-2.64v6.26Z"/><path class="cls-11" d="M112.8,391.09v6.26c0,3.62-2.5,7.16-7.5,9.88-10,5.49-26.31,5.49-36.37,0-5.07-2.78-7.57-6.4-7.57-10V391c0,3.62,2.5,7.31,7.57,10,10.06,5.49,26.38,5.49,36.37,0C110.3,398.26,112.73,394.71,112.8,391.09Z"/><path class="cls-11" d="M105.16,381.08c10.07,5.49,10.14,14.39.14,20S79,406.53,68.93,401s-10.15-14.47-.15-20S95.09,375.58,105.16,381.08Z"/><path class="cls-12" d="M68.78,384.55c10-5.49,26.31-5.49,36.38,0,4.26,2.3,6.68,5.22,7.42,8.28,1-4.17-1.54-8.55-7.42-11.75-10.07-5.5-26.39-5.5-36.38,0-5.81,3.2-8.23,7.51-7.28,11.68C62.24,389.77,64.59,386.85,68.78,384.55Z"/><path class="cls-12" d="M119.78,391.16v6.26c0,4.59-3.16,9.11-9.48,12.59-12.71,7-33.44,7-46.3,0-6.46-3.55-9.7-8.14-9.7-12.8V391c0,4.59,3.24,9.25,9.7,12.8,12.79,7,33.59,7,46.3,0C116.62,400.27,119.78,395.68,119.78,391.16Z"/><path class="cls-10" d="M110.15,378.36c12.79,7,12.86,18.37.15,25.39s-33.44,7-46.3,0-12.86-18.36-.14-25.39S97.29,371.34,110.15,378.36ZM68.93,401c10.06,5.49,26.38,5.49,36.37,0s10-14.47-.14-20-26.39-5.5-36.38,0-9.92,14.46.15,20"/></g><g class="cls-9"><path class="cls-10" d="M70.25,380.24c-3.75,2.09-6.1,4.59-7.06,7.31v-6.26c1-2.65,3.24-5.22,7.06-7.31,10-5.49,26.31-5.49,36.38,0,5.07,2.79,7.57,6.33,7.57,9.95v6.26c0-3.62-2.58-7.23-7.57-9.95C96.56,374.75,80.24,374.75,70.25,380.24Z"/><path class="cls-10" d="M63.27,387.55a7.78,7.78,0,0,0-.44,2.64v-6.26a8.08,8.08,0,0,1,.44-2.64v6.26Z"/><path class="cls-11" d="M114.27,384.07v6.26c0,3.61-2.5,7.16-7.5,9.87-10,5.5-26.31,5.5-36.37,0-5.07-2.78-7.57-6.4-7.57-10v-6.26c0,3.62,2.5,7.3,7.57,10,10.06,5.5,26.38,5.5,36.37,0C111.77,391.23,114.2,387.68,114.27,384.07Z"/><path class="cls-11" d="M106.63,374.05c10.06,5.5,10.14,14.4.14,20s-26.31,5.5-36.37,0-10.15-14.46-.15-20S96.56,368.56,106.63,374.05Z"/><path class="cls-12" d="M70.25,377.53c10-5.49,26.31-5.49,36.38,0,4.26,2.3,6.68,5.22,7.42,8.28,1-4.18-1.54-8.56-7.42-11.76-10.07-5.49-26.39-5.49-36.38,0-5.81,3.2-8.23,7.51-7.28,11.69C63.71,382.68,66.06,379.83,70.25,377.53Z"/><path class="cls-12" d="M121.25,384.07v6.26c0,4.59-3.16,9.11-9.48,12.59-12.71,7-33.44,7-46.3,0-6.46-3.55-9.7-8.14-9.7-12.8v-6.26c0,4.59,3.24,9.25,9.7,12.8,12.79,7,33.59,7,46.3,0C118.09,393.18,121.25,388.66,121.25,384.07Z"/><path class="cls-10" d="M111.62,371.34c12.79,7,12.86,18.36.15,25.39s-33.44,7-46.3,0-12.86-18.37-.14-25.39S98.76,364.32,111.62,371.34ZM70.4,393.94c10.06,5.5,26.38,5.5,36.37,0s10-14.46-.14-20-26.39-5.49-36.38,0-9.92,14.47.15,20"/></g><g class="cls-9"><path class="cls-10" d="M71.72,373.91c-3.75,2.09-6.1,4.59-7.06,7.31V375c1-2.65,3.24-5.22,7.06-7.31,10-5.49,26.31-5.49,36.38,0,5.07,2.79,7.57,6.33,7.57,10v6.26c0-3.62-2.58-7.23-7.57-9.95C98,368.42,81.71,368.42,71.72,373.91Z"/><path class="cls-10" d="M64.74,381.22a7.82,7.82,0,0,0-.44,2.64V377.6a8.12,8.12,0,0,1,.44-2.64v6.26Z"/><path class="cls-11" d="M115.74,377.74V384c0,3.61-2.5,7.16-7.5,9.87-10,5.5-26.31,5.5-36.37,0-5.07-2.78-7.57-6.39-7.57-10V377.6c0,3.62,2.5,7.3,7.57,10,10.06,5.5,26.38,5.5,36.37,0C113.24,384.9,115.67,381.29,115.74,377.74Z"/><path class="cls-11" d="M108.1,367.65c10.06,5.5,10.14,14.4.14,20s-26.31,5.5-36.37,0-10.15-14.46-.15-20S98,362.16,108.1,367.65Z"/><path class="cls-12" d="M71.72,371.13c10-5.49,26.31-5.49,36.38,0,4.26,2.3,6.68,5.22,7.42,8.28,1-4.17-1.54-8.56-7.42-11.76-10.07-5.49-26.39-5.49-36.38,0-5.81,3.2-8.23,7.52-7.28,11.69C65.18,376.35,67.53,373.43,71.72,371.13Z"/><path class="cls-12" d="M122.72,377.74V384c0,4.59-3.16,9.11-9.48,12.59-12.71,7-33.44,7-46.3,0-6.46-3.55-9.7-8.14-9.7-12.8v-6.26c0,4.59,3.24,9.25,9.7,12.8,12.79,7,33.59,7,46.3,0C119.56,386.85,122.72,382.33,122.72,377.74Z"/><path class="cls-10" d="M113.09,364.94c12.79,7,12.86,18.36.15,25.39s-33.44,7-46.3,0S54.08,372,66.8,364.94,100.23,357.92,113.09,364.94ZM71.87,387.61c10.06,5.5,26.38,5.5,36.37,0s10-14.46-.14-20-26.39-5.49-36.38,0-9.92,14.47.15,20"/></g><g class="cls-9"><path class="cls-10" d="M68.78,366.19c-3.75,2.09-6.1,4.59-7.06,7.31v-6.26c1-2.65,3.24-5.22,7.06-7.31,10-5.49,26.31-5.49,36.38,0,5.07,2.79,7.57,6.33,7.57,9.95v6.26c0-3.62-2.58-7.23-7.57-9.95C95.09,360.7,78.77,360.7,68.78,366.19Z"/><path class="cls-10" d="M61.8,373.43a7.82,7.82,0,0,0-.44,2.64v-6.26a8.12,8.12,0,0,1,.44-2.64v6.26Z"/><path class="cls-11" d="M112.8,370v6.26c0,3.62-2.5,7.16-7.5,9.87-10,5.5-26.31,5.5-36.37,0-5.07-2.78-7.57-6.39-7.57-10v-6.26c0,3.62,2.5,7.3,7.57,10,10.06,5.49,26.38,5.49,36.37,0C110.3,377.11,112.73,373.57,112.8,370Z"/><path class="cls-11" d="M105.16,359.93c10.07,5.5,10.14,14.4.14,20s-26.31,5.49-36.37,0-10.15-14.47-.15-20S95.09,354.44,105.16,359.93Z"/><path class="cls-12" d="M68.78,363.41c10-5.49,26.31-5.49,36.38,0,4.26,2.3,6.68,5.22,7.42,8.28,1-4.17-1.54-8.56-7.42-11.76-10.07-5.49-26.39-5.49-36.38,0-5.81,3.2-8.23,7.52-7.28,11.69C62.24,368.63,64.59,365.71,68.78,363.41Z"/><path class="cls-12" d="M119.78,370v6.26c0,4.59-3.16,9.11-9.48,12.59-12.71,7-33.44,7-46.3,0-6.46-3.55-9.7-8.14-9.7-12.8v-6.26c0,4.59,3.24,9.25,9.7,12.8,12.79,7,33.59,7,46.3,0C116.62,379.13,119.78,374.54,119.78,370Z"/><path class="cls-10" d="M110.15,357.22c12.79,7,12.86,18.36.15,25.39s-33.44,7-46.3,0-12.86-18.36-.14-25.39S97.29,350.2,110.15,357.22ZM68.93,379.9c10.06,5.49,26.38,5.49,36.37,0s10-14.47-.14-20-26.39-5.49-36.38,0-9.92,14.47.15,20"/></g><g class="cls-9"><path class="cls-10" d="M71.72,359.1c-3.75,2.09-6.1,4.59-7.06,7.3v-6.26c1-2.64,3.24-5.21,7.06-7.3,10-5.49,26.31-5.49,36.38,0,5.07,2.78,7.57,6.33,7.57,10v6.26c0-3.62-2.58-7.24-7.57-9.95C98,353.61,81.71,353.61,71.72,359.1Z"/><path class="cls-10" d="M64.74,366.4a7.88,7.88,0,0,0-.44,2.65v-6.26a8.18,8.18,0,0,1,.44-2.65v6.26Z"/><path class="cls-11" d="M115.74,362.93v6.25c0,3.62-2.5,7.17-7.5,9.88-10,5.49-26.31,5.49-36.37,0-5.07-2.78-7.57-6.4-7.57-10v-6.26c0,3.61,2.5,7.3,7.57,10,10.06,5.5,26.38,5.5,36.37,0C113.24,370.09,115.67,366.54,115.74,362.93Z"/><path class="cls-11" d="M108.1,352.91c10.06,5.49,10.14,14.4.14,20s-26.31,5.5-36.37,0-10.15-14.47-.15-20S98,347.35,108.1,352.91Z"/><path class="cls-12" d="M71.72,356.39c10-5.5,26.31-5.5,36.38,0,4.26,2.29,6.68,5.21,7.42,8.27,1-4.17-1.54-8.55-7.42-11.75-10.07-5.49-26.39-5.49-36.38,0-5.81,3.2-8.23,7.51-7.28,11.68C65.18,361.53,67.53,358.68,71.72,356.39Z"/><path class="cls-12" d="M122.72,362.93v6.25c0,4.59-3.16,9.12-9.48,12.59-12.71,7-33.44,7-46.3,0-6.46-3.54-9.7-8.13-9.7-12.79v-6.26c0,4.59,3.24,9.25,9.7,12.79,12.79,7,33.59,7,46.3,0C119.56,372,122.72,367.52,122.72,362.93Z"/><path class="cls-10" d="M113.09,350.2c12.79,7,12.86,18.36.15,25.38s-33.44,7-46.3,0-12.86-18.36-.14-25.38S100.23,343.17,113.09,350.2ZM71.87,372.8c10.06,5.5,26.38,5.5,36.37,0s10-14.46-.14-20-26.39-5.49-36.38,0-9.92,14.47.15,20"/></g><g class="cls-9"><path class="cls-10" d="M69.51,352.08c-3.74,2.08-6.1,4.59-7.05,7.3v-6.26c.95-2.64,3.23-5.22,7.05-7.3,10-5.5,26.31-5.5,36.38,0,5.07,2.78,7.57,6.33,7.57,9.94V362c0-3.62-2.57-7.23-7.57-9.94C95.82,346.58,79.51,346.58,69.51,352.08Z"/><path class="cls-10" d="M62.53,359.38a8.08,8.08,0,0,0-.44,2.64v-6.26a8.4,8.4,0,0,1,.44-2.64v6.26Z"/><path class="cls-11" d="M113.53,355.9v6.26c0,3.62-2.49,7.16-7.49,9.88-10,5.49-26.31,5.49-36.38,0-5.07-2.79-7.57-6.4-7.57-10v-6.26c0,3.62,2.5,7.3,7.57,10,10.07,5.49,26.38,5.49,36.38,0C111,363.06,113.46,359.45,113.53,355.9Z"/><path class="cls-11" d="M105.89,345.82c10.07,5.49,10.14,14.39.15,20s-26.31,5.49-36.38,0-10.14-14.47-.15-20S95.82,340.32,105.89,345.82Z"/><path class="cls-12" d="M69.51,349.29c10-5.49,26.31-5.49,36.38,0,4.26,2.3,6.69,5.22,7.42,8.28,1-4.17-1.54-8.55-7.42-11.75-10.07-5.5-26.38-5.5-36.38,0-5.8,3.2-8.23,7.51-7.27,11.68C63,354.51,65.33,351.59,69.51,349.29Z"/><path class="cls-12" d="M120.52,355.9v6.26c0,4.59-3.16,9.11-9.48,12.59-12.72,7-33.44,7-46.3,0C58.27,371.2,55,366.61,55,362v-6.26c0,4.59,3.23,9.25,9.7,12.8,12.78,7,33.58,7,46.3,0C117.36,365,120.52,360.49,120.52,355.9Z"/><path class="cls-10" d="M110.89,343.1c12.79,7,12.86,18.36.15,25.39s-33.44,7-46.3,0-12.86-18.36-.15-25.39S98,336.08,110.89,343.1ZM69.66,365.78c10.07,5.49,26.38,5.49,36.38,0s10-14.47-.15-20-26.38-5.5-36.38,0-9.92,14.46.15,20"/></g><g class="cls-9"><path class="cls-10" d="M70.25,345.05c-3.75,2.09-6.1,4.59-7.06,7.3v-6.26c1-2.64,3.24-5.21,7.06-7.3,10-5.49,26.31-5.49,36.38,0,5.07,2.78,7.57,6.33,7.57,9.95V355c0-3.62-2.58-7.24-7.57-9.95C96.56,339.49,80.24,339.49,70.25,345.05Z"/><path class="cls-10" d="M63.27,352.28a7.88,7.88,0,0,0-.44,2.65v-6.26a8.08,8.08,0,0,1,.44-2.64v6.25Z"/><path class="cls-11" d="M114.27,348.81v6.26c0,3.61-2.5,7.16-7.5,9.87-10,5.5-26.31,5.5-36.37,0-5.07-2.78-7.57-6.4-7.57-10v-6.26c0,3.61,2.5,7.3,7.57,10,10.06,5.5,26.38,5.5,36.37,0C111.77,356,114.2,352.42,114.27,348.81Z"/><path class="cls-11" d="M106.63,338.79c10.06,5.5,10.14,14.4.14,20s-26.31,5.5-36.37,0-10.15-14.46-.15-20S96.56,333.3,106.63,338.79Z"/><path class="cls-12" d="M70.25,342.27c10-5.49,26.31-5.49,36.38,0,4.26,2.29,6.68,5.22,7.42,8.28,1-4.18-1.54-8.56-7.42-11.76-10.07-5.49-26.39-5.49-36.38,0C64.44,342,62,346.3,63,350.48,63.71,347.49,66.06,344.56,70.25,342.27Z"/><path class="cls-12" d="M121.25,348.88v6.26c0,4.59-3.16,9.11-9.48,12.58-12.71,7-33.44,7-46.3,0-6.46-3.54-9.7-8.13-9.7-12.79v-6.26c0,4.59,3.24,9.25,9.7,12.79,12.79,7,33.59,7,46.3,0C118.09,358,121.25,353.4,121.25,348.88Z"/><path class="cls-10" d="M111.62,336.08c12.79,7,12.86,18.36.15,25.38s-33.44,7-46.3,0-12.86-18.36-.14-25.38S98.76,329.06,111.62,336.08ZM70.4,358.75c10.06,5.5,26.38,5.5,36.37,0s10-14.46-.14-20-26.39-5.49-36.38,0-9.92,14.47.15,20"/></g><path class="cls-1" d="M155.64,442.56c-14.25-7-37.18-7-51.29,0s-14,18.36.15,25.38,37.18,7,51.29,0S169.9,449.51,155.64,442.56ZM101.92,453h0a2.89,2.89,0,0,0,.15-.49A2.89,2.89,0,0,1,101.92,453Z"/><path class="cls-1" d="M137.42,491.94c-9.85-4.87-25.72-4.87-35.5,0s-9.7,12.72.15,17.52,25.72,4.87,35.5,0S147.27,496.8,137.42,491.94Zm-37.11,7.23h0c0-.14.07-.21.07-.35A.76.76,0,0,0,100.31,499.17Z"/><g class="cls-9"><path class="cls-10" d="M115.3,444.44c-3.75,2.08-6.1,4.59-7.06,7.3v-6.26c1-2.64,3.24-5.22,7.06-7.3,10-5.5,26.31-5.5,36.38,0,5.07,2.78,7.57,6.32,7.57,9.94v6.26c0-3.62-2.58-7.23-7.57-9.94C141.61,438.94,125.29,438.94,115.3,444.44Z"/><path class="cls-10" d="M108.24,451.74a8.08,8.08,0,0,0-.44,2.64v-6.26a8.4,8.4,0,0,1,.44-2.64v5.91C108.24,451.46,108.32,451.6,108.24,451.74Z"/><path class="cls-11" d="M159.25,448.26v6.26c0,3.62-2.5,7.16-7.5,9.88-10,5.49-26.31,5.49-36.38,0-5.07-2.79-7.57-6.4-7.57-10v-6.26c0,3.62,2.5,7.3,7.57,10,10.07,5.49,26.38,5.49,36.38,0C156.75,455.42,159.25,451.81,159.25,448.26Z"/><path class="cls-11" d="M151.68,438.18c10.06,5.49,10.14,14.39.14,20s-26.31,5.49-36.37,0-10.15-14.47-.15-20S141.61,432.68,151.68,438.18Z"/><path class="cls-12" d="M115.3,441.65c10-5.49,26.31-5.49,36.38,0,4.26,2.3,6.68,5.22,7.42,8.28,1-4.17-1.54-8.55-7.42-11.75-10.07-5.5-26.39-5.5-36.38,0-5.81,3.2-8.23,7.51-7.28,11.68C108.68,446.87,111.11,444,115.3,441.65Z"/><path class="cls-12" d="M166.3,448.26v6.26c0,4.59-3.16,9.11-9.48,12.59-12.71,7-33.44,7-46.3,0-6.47-3.55-9.7-8.14-9.7-12.8v-6.26c0,4.59,3.23,9.25,9.7,12.8,12.79,7,33.59,7,46.3,0C163.14,457.37,166.3,452.85,166.3,448.26Z"/><path class="cls-10" d="M156.67,435.46c12.79,7,12.86,18.36.15,25.39s-33.44,7-46.3,0-12.86-18.36-.15-25.39S143.81,428.44,156.67,435.46Zm-41.22,22.68c10.06,5.49,26.38,5.49,36.37,0s10-14.47-.14-20-26.39-5.5-36.38,0-9.92,14.46.15,20"/></g><g class="cls-9"><path class="cls-10" d="M115.3,437.41c-3.75,2.09-6.1,4.59-7.06,7.3v-6.26c1-2.64,3.24-5.21,7.06-7.3,10-5.49,26.31-5.49,36.38,0,5.07,2.78,7.57,6.33,7.57,10v6.26c0-3.62-2.58-7.24-7.57-9.95C141.61,431.92,125.29,431.92,115.3,437.41Z"/><path class="cls-10" d="M108.24,444.64a8.14,8.14,0,0,0-.44,2.65V441a8.46,8.46,0,0,1,.44-2.65v5.92C108.24,444.44,108.32,444.57,108.24,444.64Z"/><path class="cls-11" d="M159.25,441.17v6.26c0,3.61-2.5,7.16-7.5,9.87-10,5.5-26.31,5.5-36.38,0-5.07-2.78-7.57-6.4-7.57-10V441c0,3.61,2.5,7.3,7.57,10,10.07,5.5,26.38,5.5,36.38,0C156.75,448.33,159.25,444.78,159.25,441.17Z"/><path class="cls-11" d="M151.68,431.15c10.06,5.5,10.14,14.4.14,20s-26.31,5.5-36.37,0-10.15-14.46-.15-20S141.61,425.66,151.68,431.15Z"/><path class="cls-12" d="M115.3,434.63c10-5.5,26.31-5.5,36.38,0,4.26,2.29,6.68,5.22,7.42,8.28,1-4.18-1.54-8.56-7.42-11.76-10.07-5.49-26.39-5.49-36.38,0-5.81,3.2-8.23,7.51-7.28,11.69C108.68,439.85,111.11,436.92,115.3,434.63Z"/><path class="cls-12" d="M166.3,441.24v6.26c0,4.59-3.16,9.11-9.48,12.58-12.71,7-33.44,7-46.3,0-6.47-3.54-9.7-8.13-9.7-12.79V441c0,4.59,3.23,9.25,9.7,12.79,12.79,7,33.59,7,46.3,0C163.14,450.35,166.3,445.76,166.3,441.24Z"/><path class="cls-10" d="M156.67,428.44c12.79,7,12.86,18.36.15,25.38s-33.44,7-46.3,0-12.86-18.36-.15-25.38S143.81,421.42,156.67,428.44Zm-41.22,22.67c10.06,5.5,26.38,5.5,36.37,0s10-14.46-.14-20-26.39-5.49-36.38,0-9.92,14.47.15,20"/></g><g class="cls-9"><path class="cls-10" d="M113.83,430.32c-3.75,2.08-6.1,4.59-7.06,7.3v-6.26c1-2.64,3.24-5.22,7.06-7.3,10-5.5,26.31-5.5,36.38,0,5.07,2.78,7.57,6.33,7.57,9.94v6.26c0-3.61-2.58-7.23-7.57-9.94C140.14,424.82,123.82,424.82,113.83,430.32Z"/><path class="cls-10" d="M106.77,437.62a8.08,8.08,0,0,0-.44,2.64V434a8.4,8.4,0,0,1,.44-2.64v5.91C106.77,437.34,106.85,437.48,106.77,437.62Z"/><path class="cls-11" d="M157.78,434.14v6.26c0,3.62-2.5,7.17-7.5,9.88-10,5.49-26.31,5.49-36.38,0-5.07-2.78-7.57-6.4-7.57-10V434c0,3.62,2.5,7.31,7.57,10,10.07,5.49,26.39,5.49,36.38,0C155.28,441.31,157.78,437.76,157.78,434.14Z"/><path class="cls-11" d="M150.21,424.13c10.06,5.49,10.14,14.39.14,20s-26.31,5.49-36.37,0-10.15-14.47-.15-20S140.14,418.63,150.21,424.13Z"/><path class="cls-12" d="M113.83,427.6c10-5.49,26.31-5.49,36.38,0,4.26,2.3,6.68,5.22,7.42,8.28,1-4.17-1.54-8.55-7.42-11.75-10.07-5.5-26.39-5.5-36.38,0-5.81,3.2-8.23,7.51-7.28,11.68C107.21,432.75,109.64,429.9,113.83,427.6Z"/><path class="cls-12" d="M164.83,434.14v6.26c0,4.59-3.16,9.11-9.48,12.59-12.71,7-33.44,7-46.3,0-6.47-3.55-9.7-8.14-9.7-12.8v-6.26c0,4.59,3.23,9.25,9.7,12.8,12.79,7,33.59,7,46.3,0C161.67,443.25,164.83,438.73,164.83,434.14Z"/><path class="cls-10" d="M155.2,421.42c12.79,7,12.86,18.36.15,25.38s-33.44,7-46.3,0-12.86-18.36-.15-25.38S142.34,414.39,155.2,421.42ZM114,444c10.06,5.49,26.38,5.49,36.37,0s10-14.47-.14-20-26.39-5.5-36.38,0-9.92,14.46.15,20"/></g><g class="cls-9"><path class="cls-10" d="M116.77,423.29c-3.75,2.09-6.1,4.59-7.06,7.31v-6.26c1-2.65,3.24-5.22,7.06-7.31,10-5.49,26.31-5.49,36.38,0,5.07,2.79,7.57,6.33,7.57,10v6.26c0-3.62-2.58-7.23-7.57-9.95C143.08,417.8,126.76,417.8,116.77,423.29Z"/><path class="cls-10" d="M109.71,430.6a8,8,0,0,0-.44,2.64V427a8.35,8.35,0,0,1,.44-2.64v5.91C109.71,430.32,109.79,430.46,109.71,430.6Z"/><path class="cls-11" d="M160.72,427.12v6.26c0,3.61-2.5,7.16-7.5,9.87-10,5.5-26.31,5.5-36.38,0-5.07-2.78-7.57-6.4-7.57-10V427c0,3.62,2.5,7.3,7.57,10,10.07,5.5,26.38,5.5,36.38,0C158.22,434.28,160.72,430.66,160.72,427.12Z"/><path class="cls-11" d="M153.15,417c10.06,5.5,10.14,14.4.14,20s-26.31,5.5-36.37,0-10.15-14.46-.15-20S143.08,411.54,153.15,417Z"/><path class="cls-12" d="M116.77,420.51c10-5.49,26.31-5.49,36.38,0,4.26,2.3,6.68,5.22,7.42,8.28,1-4.18-1.55-8.56-7.42-11.76-10.07-5.49-26.39-5.49-36.38,0-5.81,3.2-8.23,7.51-7.28,11.69C110.15,425.73,112.58,422.81,116.77,420.51Z"/><path class="cls-12" d="M167.77,427.12v6.26c0,4.59-3.16,9.11-9.48,12.59-12.71,7-33.44,7-46.3,0-6.47-3.55-9.7-8.14-9.7-12.8v-6.26c0,4.59,3.23,9.25,9.7,12.8,12.79,7,33.59,7,46.3,0C164.61,436.23,167.77,431.71,167.77,427.12Z"/><path class="cls-10" d="M158.14,414.32c12.79,7,12.86,18.36.15,25.39s-33.44,7-46.3,0-12.86-18.36-.15-25.39S145.28,407.3,158.14,414.32ZM116.92,437c10.06,5.5,26.38,5.5,36.37,0s10-14.46-.14-20-26.39-5.49-36.38,0-9.92,14.47.15,20"/></g><g class="cls-9"><path class="cls-10" d="M113.83,416.27c-3.75,2.09-6.1,4.59-7.06,7.3v-6.26c1-2.64,3.24-5.21,7.06-7.3,10-5.5,26.31-5.5,36.38,0,5.07,2.78,7.57,6.33,7.57,9.94v6.26c0-3.61-2.58-7.23-7.57-9.94C140.14,410.7,123.82,410.7,113.83,416.27Z"/><path class="cls-10" d="M106.77,423.5a8.12,8.12,0,0,0-.44,2.64v-6.25a8.46,8.46,0,0,1,.44-2.65v5.91C106.77,423.29,106.85,423.43,106.77,423.5Z"/><path class="cls-11" d="M157.78,420v6.26c0,3.62-2.5,7.17-7.5,9.88-10,5.49-26.31,5.49-36.38,0-5.07-2.78-7.57-6.4-7.57-10v-6.25c0,3.61,2.5,7.3,7.57,10,10.07,5.49,26.39,5.49,36.38,0C155.28,427.19,157.78,423.64,157.78,420Z"/><path class="cls-11" d="M150.21,410c10.06,5.49,10.14,14.4.14,20S124,435.46,114,430s-10.15-14.47-.15-20S140.14,404.52,150.21,410Z"/><path class="cls-12" d="M113.83,413.49c10-5.5,26.31-5.5,36.38,0,4.26,2.29,6.68,5.21,7.42,8.27,1-4.17-1.54-8.55-7.42-11.75-10.07-5.5-26.39-5.5-36.38,0-5.81,3.2-8.23,7.51-7.28,11.68C107.21,418.7,109.64,415.78,113.83,413.49Z"/><path class="cls-12" d="M164.83,420.09v6.26c0,4.59-3.16,9.11-9.48,12.59-12.71,7-33.44,7-46.3,0-6.47-3.55-9.7-8.14-9.7-12.8v-6.25c0,4.59,3.23,9.24,9.7,12.79,12.79,7,33.59,7,46.3,0C161.67,429.2,164.83,424.61,164.83,420.09Z"/><path class="cls-10" d="M155.2,407.3c12.79,7,12.86,18.36.15,25.38s-33.44,7-46.3,0-12.86-18.36-.15-25.38S142.34,400.27,155.2,407.3ZM114,430c10.06,5.49,26.38,5.49,36.37,0s10-14.47-.14-20-26.39-5.5-36.38,0-9.92,14.47.15,20"/></g><path class="cls-1" d="M90.17,459C76,452,53,452,38.87,459s-14,18.36.15,25.39,37.18,7,51.29,0S104.42,466,90.17,459Z"/><g class="cls-9"><path class="cls-10" d="M49.82,461.68c-3.75,2.09-6.1,4.59-7.06,7.31v-6.26c1-2.65,3.24-5.22,7.06-7.31,10-5.49,26.31-5.49,36.38,0,5.07,2.79,7.57,6.33,7.57,9.95v6.26c0-3.62-2.58-7.23-7.57-9.95C76.13,456.12,59.81,456.12,49.82,461.68Z"/><path class="cls-10" d="M42.84,468.92a7.78,7.78,0,0,0-.44,2.64V465.3a8.12,8.12,0,0,1,.44-2.64v6.26Z"/><path class="cls-11" d="M93.84,465.44v6.26c0,3.61-2.5,7.16-7.5,9.87-10,5.5-26.31,5.5-36.37,0-5.07-2.78-7.57-6.39-7.57-10V465.3c0,3.62,2.5,7.3,7.57,10,10.06,5.5,26.38,5.5,36.37,0C91.34,472.6,93.77,469.06,93.84,465.44Z"/><path class="cls-11" d="M86.2,455.42c10.06,5.5,10.14,14.4.14,20s-26.31,5.5-36.37,0-10.15-14.46-.15-20S76.13,449.93,86.2,455.42Z"/><path class="cls-12" d="M49.82,458.9c10-5.49,26.31-5.49,36.38,0,4.26,2.3,6.68,5.22,7.42,8.28.95-4.18-1.54-8.56-7.42-11.76-10.07-5.49-26.39-5.49-36.38,0-5.81,3.2-8.23,7.52-7.28,11.69C43.28,464.12,45.63,461.2,49.82,458.9Z"/><path class="cls-12" d="M100.82,465.51v6.26c0,4.59-3.16,9.11-9.48,12.59-12.71,7-33.44,7-46.3,0-6.46-3.55-9.7-8.14-9.7-12.8V465.3c0,4.59,3.24,9.25,9.7,12.8,12.79,7,33.59,7,46.3,0C97.66,474.62,100.82,470,100.82,465.51Z"/><path class="cls-10" d="M91.19,452.71c12.79,7,12.86,18.36.15,25.39s-33.44,7-46.3,0-12.86-18.36-.14-25.39S78.33,445.69,91.19,452.71ZM50,475.38c10.06,5.5,26.38,5.5,36.37,0s10-14.46-.14-20-26.39-5.49-36.38,0-9.92,14.4.15,20"/></g><g class="cls-9"><path class="cls-10" d="M47.61,453.06c-3.74,2.09-6.1,4.59-7,7.3V454.1c.95-2.64,3.23-5.21,7-7.3,10-5.49,26.31-5.49,36.38,0,5.07,2.78,7.57,6.33,7.57,9.95V463c0-3.61-2.57-7.23-7.57-9.94C73.92,447.57,57.61,447.57,47.61,453.06Z"/><path class="cls-10" d="M40.63,460.36a8.12,8.12,0,0,0-.44,2.64v-6.25a8.46,8.46,0,0,1,.44-2.65v6.26Z"/><path class="cls-11" d="M91.63,456.88v6.26c0,3.62-2.49,7.17-7.49,9.88-10,5.49-26.31,5.49-36.38,0-5.07-2.78-7.57-6.4-7.57-10v-6.25c0,3.61,2.5,7.3,7.57,10,10.07,5.49,26.38,5.49,36.38,0C89.14,464.05,91.56,460.43,91.63,456.88Z"/><path class="cls-11" d="M84,446.87c10.07,5.49,10.14,14.4.15,20s-26.31,5.49-36.38,0-10.14-14.47-.15-20S73.92,441.31,84,446.87Z"/><path class="cls-12" d="M47.61,450.35c10-5.5,26.31-5.5,36.38,0,4.26,2.29,6.69,5.21,7.42,8.27,1-4.17-1.54-8.55-7.42-11.75-10.07-5.49-26.38-5.49-36.38,0-5.8,3.2-8.23,7.51-7.27,11.68C41.07,455.49,43.43,452.64,47.61,450.35Z"/><path class="cls-12" d="M98.62,456.88v6.26c0,4.59-3.16,9.11-9.48,12.59-12.72,7-33.44,7-46.3,0-6.47-3.54-9.7-8.14-9.7-12.79v-6.26c0,4.59,3.23,9.25,9.7,12.79,12.78,7,33.58,7,46.3,0C95.46,466,98.62,461.47,98.62,456.88Z"/><path class="cls-10" d="M89,444.09c12.79,7,12.86,18.36.15,25.38s-33.44,7-46.3,0S30,451.11,42.69,444.09,76.13,437.13,89,444.09ZM47.76,466.76c10.07,5.49,26.38,5.49,36.38,0s10-14.47-.15-20-26.38-5.49-36.38,0-9.92,14.47.15,20"/></g><g class="cls-9"><path class="cls-13" d="M110.6,494.3a9.67,9.67,0,0,0-4.71,4.87V495c.59-1.81,2.21-3.48,4.71-4.87,6.68-3.69,17.49-3.69,24.25,0,3.38,1.81,5.07,4.24,5.07,6.61v4.17c0-2.44-1.69-4.8-5.07-6.61C128.09,490.62,117.21,490.62,110.6,494.3Z"/><path class="cls-13" d="M105.89,499.1a4.82,4.82,0,0,0-.29,1.74v-4.17a4.78,4.78,0,0,1,.29-1.74v4.17Z"/><path class="cls-13" d="M139.84,496.8V501c0,2.36-1.69,4.8-5,6.6-6.69,3.69-17.49,3.69-24.18,0-3.38-1.87-5.07-4.24-5.07-6.67v-4.17c0,2.43,1.69,4.86,5.07,6.67,6.69,3.69,17.56,3.69,24.18,0C138.15,501.6,139.84,499.17,139.84,496.8Z"/><path class="cls-13" d="M134.77,490.13c6.69,3.68,6.76,9.6.08,13.28s-17.49,3.69-24.18,0-6.76-9.6-.07-13.28S128.09,486.44,134.77,490.13Z"/><path class="cls-14" d="M110.6,492.42c6.68-3.68,17.49-3.68,24.25,0,2.79,1.53,4.48,3.48,4.92,5.5.66-2.78-1-5.71-4.92-7.79-6.69-3.69-17.57-3.69-24.25,0-3.83,2.08-5.44,5-4.86,7.79C106.19,495.9,107.8,494,110.6,492.42Z"/><path class="cls-14" d="M144.55,496.8V501c0,3.06-2.13,6-6.32,8.41-8.45,4.66-22.27,4.66-30.79,0C103.17,507,101,504,101,500.91v-4.17c0,3.06,2.13,6.19,6.47,8.48,8.52,4.66,22.34,4.66,30.79,0C142.42,502.86,144.55,499.87,144.55,496.8Z"/><path class="cls-13" d="M138.08,488.32c8.53,4.66,8.6,12.24.07,16.9s-22.26,4.66-30.79,0-8.6-12.24-.07-16.9S129.56,483.66,138.08,488.32Zm-27.41,15.09c6.69,3.69,17.56,3.69,24.18,0s6.61-9.6-.08-13.28-17.56-3.69-24.25,0-6.54,9.6.15,13.28"/></g><g class="cls-9"><path class="cls-13" d="M110.6,489.57a9.67,9.67,0,0,0-4.71,4.87v-4.17c.59-1.81,2.21-3.48,4.71-4.87,6.68-3.69,17.49-3.69,24.25,0,3.38,1.81,5.07,4.24,5.07,6.61v4.17c0-2.44-1.69-4.8-5.07-6.61C128.09,485.89,117.21,485.89,110.6,489.57Z"/><path class="cls-13" d="M105.89,494.44a4.82,4.82,0,0,0-.29,1.74V492a4.78,4.78,0,0,1,.29-1.74v4.17Z"/><path class="cls-13" d="M139.84,492.15v4.17c0,2.36-1.69,4.8-5,6.61-6.69,3.68-17.49,3.68-24.18,0-3.38-1.88-5.07-4.25-5.07-6.68v-4.17c0,2.43,1.69,4.86,5.07,6.67,6.69,3.69,17.56,3.69,24.18,0C138.15,496.87,139.84,494.51,139.84,492.15Z"/><path class="cls-13" d="M134.77,485.4c6.69,3.69,6.76,9.6.08,13.28s-17.49,3.69-24.18,0-6.76-9.59-.07-13.28S128.09,481.78,134.77,485.4Z"/><path class="cls-14" d="M110.6,487.76c6.68-3.68,17.49-3.68,24.25,0,2.79,1.53,4.48,3.48,4.92,5.5.66-2.78-1-5.7-4.92-7.79-6.69-3.69-17.57-3.69-24.25,0-3.83,2.09-5.44,5-4.86,7.79C106.19,491.17,107.8,489.29,110.6,487.76Z"/><path class="cls-14" d="M144.55,492.15v4.17c0,3.06-2.13,6.05-6.32,8.41-8.45,4.66-22.27,4.66-30.79,0-4.27-2.36-6.47-5.42-6.47-8.48v-4.17c0,3.06,2.13,6.19,6.47,8.48,8.52,4.66,22.34,4.66,30.79,0C142.42,498.2,144.55,495.14,144.55,492.15Z"/><path class="cls-13" d="M138.08,483.59c8.53,4.66,8.6,12.24.07,16.9s-22.26,4.66-30.79,0-8.6-12.24-.07-16.9S129.56,478.93,138.08,483.59Zm-27.41,15.09c6.69,3.69,17.56,3.69,24.18,0s6.61-9.59-.08-13.28-17.56-3.69-24.25,0-6.54,9.67.15,13.28"/></g><g class="cls-9"><path class="cls-13" d="M109.57,484.91a9.67,9.67,0,0,0-4.71,4.87v-4.17c.59-1.81,2.21-3.48,4.71-4.87,6.68-3.69,17.49-3.69,24.25,0,3.38,1.81,5.07,4.24,5.07,6.61v4.17c0-2.43-1.69-4.8-5.07-6.61C127.13,481.23,116.25,481.23,109.57,484.91Z"/><path class="cls-13" d="M104.94,489.71a4.83,4.83,0,0,0-.3,1.74v-4.17a4.8,4.8,0,0,1,.3-1.74v4.17Z"/><path class="cls-13" d="M138.89,487.42v4.17c0,2.36-1.69,4.8-5,6.61-6.69,3.68-17.49,3.68-24.18,0-3.38-1.88-5.07-4.25-5.07-6.68v-4.17c0,2.43,1.69,4.86,5.07,6.67,6.69,3.69,17.57,3.69,24.18,0C137.2,492.21,138.89,489.78,138.89,487.42Z"/><path class="cls-13" d="M133.82,480.74c6.69,3.69,6.76,9.6.07,13.28s-17.49,3.69-24.18,0-6.76-9.59-.07-13.28S127.13,477.05,133.82,480.74Z"/><path class="cls-14" d="M109.64,483c6.69-3.68,17.49-3.68,24.25,0,2.79,1.53,4.48,3.48,4.93,5.5.66-2.78-1-5.7-4.93-7.79-6.69-3.69-17.56-3.69-24.25,0-3.82,2.09-5.44,5-4.85,7.79C105.23,486.51,106.85,484.56,109.64,483Z"/><path class="cls-14" d="M143.52,487.42v4.17c0,3.06-2.13,6.05-6.32,8.41-8.45,4.66-22.27,4.66-30.79,0-4.27-2.36-6.47-5.42-6.47-8.48v-4.17c0,3.06,2.13,6.19,6.47,8.48,8.52,4.66,22.34,4.66,30.79,0C141.46,493.54,143.52,490.48,143.52,487.42Z"/><path class="cls-13" d="M137.13,478.93c8.52,4.66,8.59,12.24.07,16.9s-22.27,4.66-30.79,0-8.6-12.24-.08-16.9S128.6,474.27,137.13,478.93ZM109.71,494c6.69,3.69,17.57,3.69,24.18,0s6.62-9.59-.07-13.28-17.57-3.69-24.25,0-6.62,9.6.14,13.28"/></g><g class="cls-9"><path class="cls-13" d="M111.55,480.18a9.65,9.65,0,0,0-4.7,4.87v-4.17c.59-1.81,2.2-3.48,4.7-4.87,6.69-3.69,17.49-3.69,24.25,0,3.38,1.81,5.07,4.24,5.07,6.61v4.17c0-2.43-1.69-4.8-5.07-6.61C129,476.57,118.24,476.57,111.55,480.18Z"/><path class="cls-13" d="M106.85,485.05a4.83,4.83,0,0,0-.3,1.74v-4.17a4.8,4.8,0,0,1,.3-1.74v3.89C106.85,484.84,106.92,485,106.85,485.05Z"/><path class="cls-13" d="M140.8,482.76v4.17c0,2.36-1.69,4.8-5,6.61-6.69,3.68-17.49,3.68-24.18,0-3.38-1.88-5.07-4.25-5.07-6.68v-4.17c0,2.43,1.69,4.87,5.07,6.67,6.69,3.69,17.57,3.69,24.18,0C139.18,487.49,140.8,485.12,140.8,482.76Z"/><path class="cls-13" d="M135.8,476.08c6.69,3.69,6.76,9.6.08,13.28s-17.49,3.69-24.18,0-6.76-9.59-.08-13.28S129,472.39,135.8,476.08Z"/><path class="cls-14" d="M111.55,478.37c6.69-3.68,17.49-3.68,24.25,0,2.79,1.53,4.49,3.48,4.93,5.5.66-2.78-1-5.7-4.93-7.79-6.69-3.69-17.56-3.69-24.25,0-3.82,2.09-5.44,5-4.85,7.79C107.14,481.85,108.76,479.9,111.55,478.37Z"/><path class="cls-14" d="M145.5,482.76v4.17c0,3.06-2.13,6.05-6.32,8.41-8.45,4.66-22.26,4.66-30.79,0-4.26-2.36-6.47-5.42-6.47-8.48v-4.17c0,3.06,2.13,6.19,6.47,8.48,8.53,4.66,22.34,4.66,30.79,0C143.37,488.81,145.5,485.75,145.5,482.76Z"/><path class="cls-13" d="M139,474.27c8.52,4.66,8.59,12.24.07,16.9s-22.27,4.66-30.79,0-8.6-12.24-.08-16.9S130.51,469.54,139,474.27Zm-27.42,15c6.69,3.69,17.57,3.69,24.18,0s6.62-9.59-.07-13.28-17.57-3.69-24.25,0-6.54,9.67.14,13.28"/></g><g class="cls-9"><path class="cls-13" d="M109.57,475.52a9.67,9.67,0,0,0-4.71,4.87v-4.17c.59-1.81,2.21-3.48,4.71-4.87,6.68-3.69,17.49-3.69,24.25,0,3.38,1.81,5.07,4.24,5.07,6.61v4.17c0-2.43-1.69-4.8-5.07-6.61C127.13,471.84,116.25,471.84,109.57,475.52Z"/><path class="cls-13" d="M104.94,480.32a4.83,4.83,0,0,0-.3,1.74v-4.17a4.83,4.83,0,0,1,.3-1.74v4.17Z"/><path class="cls-13" d="M138.89,478v4.17c0,2.36-1.69,4.8-5,6.61-6.69,3.68-17.49,3.68-24.18,0-3.38-1.88-5.07-4.25-5.07-6.68V478c0,2.43,1.69,4.87,5.07,6.67,6.69,3.69,17.57,3.69,24.18,0C137.2,482.83,138.89,480.39,138.89,478Z"/><path class="cls-13" d="M133.82,471.35c6.69,3.69,6.76,9.6.07,13.28s-17.49,3.69-24.18,0-6.76-9.59-.07-13.28S127.13,467.66,133.82,471.35Z"/><path class="cls-14" d="M109.64,473.65c6.69-3.69,17.49-3.69,24.25,0,2.79,1.53,4.48,3.47,4.93,5.49.66-2.78-1-5.7-4.93-7.79-6.69-3.69-17.56-3.69-24.25,0-3.82,2.09-5.44,5-4.85,7.79C105.23,477.12,106.85,475.18,109.64,473.65Z"/><path class="cls-14" d="M143.52,478v4.17c0,3.06-2.13,6.05-6.32,8.42-8.45,4.65-22.27,4.65-30.79,0-4.27-2.37-6.47-5.43-6.47-8.49V478c0,3.06,2.13,6.19,6.47,8.48,8.52,4.66,22.34,4.66,30.79,0C141.46,484.15,143.52,481.09,143.52,478Z"/><path class="cls-13" d="M137.13,469.54c8.52,4.66,8.59,12.24.07,16.9s-22.27,4.66-30.79,0-8.6-12.24-.08-16.9S128.6,464.88,137.13,469.54Zm-27.42,15.09c6.69,3.69,17.57,3.69,24.18,0s6.62-9.59-.07-13.28-17.57-3.69-24.25,0-6.62,9.6.14,13.28"/></g><g class="cls-9"><path class="cls-13" d="M110.74,470.17A9.65,9.65,0,0,0,106,475v-4.18c.59-1.8,2.2-3.47,4.7-4.86,6.69-3.69,17.49-3.69,24.25,0,3.38,1.8,5.07,4.24,5.07,6.6v4.18c0-2.44-1.69-4.8-5.07-6.61C128.23,466.55,117.36,466.55,110.74,470.17Z"/><path class="cls-13" d="M106,475a4.8,4.8,0,0,0-.3,1.74V472.6a4.87,4.87,0,0,1,.3-1.74V475Z"/><path class="cls-13" d="M140,472.74v4.17c0,2.37-1.69,4.8-5,6.61-6.68,3.69-17.49,3.69-24.17,0-3.38-1.88-5.08-4.24-5.08-6.68v-4.17c0,2.44,1.7,4.87,5.08,6.68,6.68,3.68,17.56,3.68,24.17,0C138.3,477.47,140,475.11,140,472.74Z"/><path class="cls-13" d="M134.92,466.06c6.69,3.69,6.76,9.6.07,13.29s-17.49,3.68-24.17,0-6.77-9.6-.08-13.29S128.23,462.38,134.92,466.06Z"/><path class="cls-14" d="M110.74,468.36c6.69-3.69,17.49-3.69,24.25,0,2.8,1.53,4.49,3.48,4.93,5.49.66-2.78-1-5.7-4.93-7.79-6.68-3.68-17.56-3.68-24.25,0-3.82,2.09-5.44,5-4.85,7.79C106.33,471.84,108,469.89,110.74,468.36Z"/><path class="cls-14" d="M144.69,472.74v4.17c0,3.06-2.13,6-6.32,8.42-8.45,4.66-22.26,4.66-30.79,0-4.26-2.37-6.46-5.43-6.46-8.49v-4.17c0,3.06,2.13,6.19,6.46,8.49,8.53,4.66,22.34,4.66,30.79,0C142.56,478.79,144.69,475.8,144.69,472.74Z"/><path class="cls-13" d="M138.23,464.26c8.52,4.66,8.6,12.24.07,16.9s-22.27,4.66-30.79,0-8.6-12.24-.07-16.9S129.7,459.6,138.23,464.26Zm-27.41,15.09c6.68,3.68,17.56,3.68,24.17,0s6.62-9.6-.07-13.29-17.56-3.68-24.25,0-6.54,9.6.15,13.29"/></g><g class="cls-9"><path class="cls-13" d="M108.54,465a9.72,9.72,0,0,0-4.71,4.87v-4.17c.59-1.81,2.21-3.48,4.71-4.87,6.69-3.69,17.49-3.69,24.25,0,3.38,1.81,5.07,4.24,5.07,6.61v4.17c0-2.44-1.69-4.8-5.07-6.61C126,461.34,115.15,461.34,108.54,465Z"/><path class="cls-13" d="M103.83,469.82a4.82,4.82,0,0,0-.29,1.74v-4.17a4.78,4.78,0,0,1,.29-1.74v4.17Z"/><path class="cls-13" d="M137.79,467.53v4.17c0,2.36-1.69,4.8-5,6.61-6.69,3.68-17.49,3.68-24.18,0-3.38-1.88-5.07-4.25-5.07-6.68v-4.17c0,2.43,1.69,4.86,5.07,6.67,6.69,3.69,17.57,3.69,24.18,0C136.1,472.32,137.79,469.89,137.79,467.53Z"/><path class="cls-13" d="M132.72,460.85c6.68,3.68,6.76,9.6.07,13.28s-17.49,3.69-24.18,0-6.76-9.6-.07-13.28S126,457.16,132.72,460.85Z"/><path class="cls-14" d="M108.54,463.14c6.69-3.68,17.49-3.68,24.25,0,2.79,1.53,4.48,3.48,4.92,5.5.66-2.78-1-5.7-4.92-7.79-6.69-3.69-17.56-3.69-24.25,0-3.82,2.09-5.44,5-4.85,7.79C104.13,466.62,105.74,464.67,108.54,463.14Z"/><path class="cls-14" d="M142.49,467.53v4.17c0,3.06-2.13,6.05-6.32,8.41-8.45,4.66-22.27,4.66-30.79,0-4.26-2.36-6.47-5.42-6.47-8.48v-4.17c0,3.06,2.13,6.19,6.47,8.48,8.52,4.66,22.34,4.66,30.79,0C140.36,473.58,142.49,470.59,142.49,467.53Z"/><path class="cls-13" d="M136,459c8.53,4.66,8.6,12.24.08,16.9s-22.27,4.66-30.8,0-8.59-12.24-.07-16.9S127.5,454.38,136,459Zm-27.41,15.09c6.69,3.69,17.57,3.69,24.18,0s6.61-9.6-.07-13.28-17.57-3.69-24.26,0-6.54,9.6.15,13.28"/></g><path class="cls-15" d="M203.85,452.64c-7.57-3.68-19.69-3.68-27.19,0s-7.42,9.74.08,13.42,19.69,3.69,27.19,0S211.42,456.33,203.85,452.64Zm-28.44,5.5h0c0-.07.08-.14.08-.28A.48.48,0,0,0,175.41,458.14Z"/><path class="cls-15" d="M235,467.53c-7.57-3.69-19.69-3.69-27.19,0s-7.42,9.73.08,13.42,19.69,3.68,27.19,0S242.51,471.21,235,467.53ZM206.5,473h0c0-.07.07-.14.07-.28C206.57,472.88,206.5,473,206.5,473Z"/><g class="cls-9"><path class="cls-16" d="M183.28,454.38a7.53,7.53,0,0,0-3.6,3.69v-3.2a7,7,0,0,1,3.6-3.69c5.14-2.78,13.45-2.78,18.59,0,2.57,1.39,3.89,3.27,3.89,5.08v3.2c0-1.81-1.32-3.69-3.89-5.08C196.73,451.6,188.42,451.6,183.28,454.38Z"/><path class="cls-16" d="M179.68,458.14a4,4,0,0,0-.22,1.32v-3.2a4,4,0,0,1,.22-1.32V458A.1.1,0,0,1,179.68,458.14Z"/><path class="cls-16" d="M205.76,456.33v3.2c0,1.81-1.24,3.68-3.82,5.07-5.14,2.79-13.45,2.79-18.59,0-2.57-1.39-3.89-3.26-3.89-5.14v-3.2c0,1.88,1.32,3.68,3.89,5.15,5.14,2.78,13.45,2.78,18.59,0C204.44,460,205.76,458.14,205.76,456.33Z"/><path class="cls-16" d="M205.69,459.53h0V456.4A23.34,23.34,0,0,1,205.69,459.53Z"/><path class="cls-16" d="M201.87,451.18c5.14,2.78,5.14,7.37.07,10.16s-13.45,2.78-18.59,0-5.14-7.38-.07-10.16S196.73,448.4,201.87,451.18Z"/><path class="cls-17" d="M183.28,453c5.14-2.78,13.45-2.78,18.59,0,2.13,1.18,3.45,2.71,3.75,4.24.51-2.15-.81-4.38-3.75-6-5.14-2.78-13.45-2.78-18.59,0-2.94,1.6-4.19,3.83-3.75,6C179.9,455.63,181.15,454.17,183.28,453Z"/><path class="cls-17" d="M209.29,456.33v3.2c0,2.29-1.61,4.66-4.85,6.4-6.47,3.54-17.05,3.54-23.59,0-3.31-1.81-4.92-4.18-4.92-6.54v-3.2c0,2.36,1.61,4.73,4.92,6.54,6.54,3.54,17.12,3.54,23.59,0C207.68,461,209.29,458.69,209.29,456.33Z"/><path class="cls-16" d="M204.37,449.79c6.54,3.55,6.61,9.39.07,12.94s-17.05,3.54-23.59,0-6.61-9.39-.07-12.94S197.83,446.24,204.37,449.79Zm-21,11.62c5.14,2.78,13.45,2.78,18.59,0s5.07-7.38-.07-10.16-13.45-2.78-18.59,0-5.07,7.3.07,10.16"/></g><g class="cls-9"><path class="cls-16" d="M184.67,451.11a7.62,7.62,0,0,0-3.6,3.69v-3.2a7,7,0,0,1,3.6-3.69c5.15-2.78,13.45-2.78,18.6,0,2.57,1.39,3.89,3.27,3.89,5.08v3.2c0-1.81-1.32-3.69-3.89-5.08C198.12,448.26,189.82,448.26,184.67,451.11Z"/><path class="cls-16" d="M181.15,454.8a4.08,4.08,0,0,0-.23,1.32v-3.2a4.08,4.08,0,0,1,.23-1.32v3.2Z"/><path class="cls-16" d="M207.16,453v3.2c0,1.81-1.25,3.69-3.82,5.08-5.15,2.78-13.45,2.78-18.59,0-2.58-1.39-3.9-3.27-3.9-5.15v-3.2c0,1.88,1.32,3.69,3.9,5.15,5.14,2.78,13.44,2.78,18.59,0C205.91,456.68,207.16,454.87,207.16,453Z"/><path class="cls-16" d="M203.27,447.91c5.14,2.78,5.14,7.37.07,10.16s-13.45,2.78-18.59,0-5.15-7.38-.08-10.16S198.12,445.06,203.27,447.91Z"/><path class="cls-17" d="M184.75,449.65c5.14-2.78,13.44-2.78,18.59,0,2.13,1.18,3.45,2.71,3.75,4.24.51-2.15-.81-4.38-3.75-6-5.15-2.78-13.45-2.78-18.59,0-2.94,1.6-4.19,3.83-3.75,6C181.37,452.29,182.62,450.83,184.75,449.65Z"/><path class="cls-17" d="M210.76,453.06v3.2c0,2.29-1.62,4.66-4.85,6.4-6.47,3.54-17,3.54-23.59,0-3.31-1.81-4.92-4.18-4.92-6.54v-3.2c0,2.36,1.61,4.73,4.92,6.54,6.54,3.54,17.12,3.54,23.59,0C209.14,457.72,210.76,455.35,210.76,453.06Z"/><path class="cls-16" d="M205.84,446.52c6.54,3.55,6.61,9.39.07,12.94s-17,3.54-23.59,0-6.61-9.39-.07-12.94C188.64,442.91,199.22,442.91,205.84,446.52Zm-21.09,11.55c5.14,2.78,13.44,2.78,18.59,0s5.07-7.38-.07-10.16-13.45-2.78-18.6,0-5.07,7.37.08,10.16"/></g><g class="cls-9"><path class="cls-16" d="M182.54,447.22a7.56,7.56,0,0,0-3.6,3.68v-3.2a7,7,0,0,1,3.6-3.68c5.15-2.78,13.45-2.78,18.59,0,2.58,1.39,3.9,3.27,3.9,5.08v3.19c0-1.8-1.32-3.68-3.9-5.07C196,444.37,187.61,444.37,182.54,447.22Z"/><path class="cls-16" d="M178.94,450.9a4.11,4.11,0,0,0-.22,1.32V449a4.12,4.12,0,0,1,.22-1.33v3.2Z"/><path class="cls-16" d="M205,449.16v3.2c0,1.81-1.25,3.69-3.83,5.08-5.14,2.78-13.44,2.78-18.59,0-2.57-1.39-3.89-3.27-3.89-5.15V449.1c0,1.87,1.32,3.68,3.89,5.14,5.15,2.78,13.45,2.78,18.59,0C203.71,452.78,205,451,205,449.16Z"/><path class="cls-16" d="M201.13,444c5.15,2.78,5.15,7.37.08,10.15s-13.45,2.78-18.59,0-5.15-7.37-.08-10.15S196,441.24,201.13,444Z"/><path class="cls-17" d="M182.54,445.83c5.15-2.79,13.45-2.79,18.59,0,2.14,1.18,3.46,2.71,3.75,4.24.52-2.16-.81-4.38-3.75-6-5.14-2.78-13.44-2.78-18.59,0-2.94,1.6-4.19,3.82-3.75,6A6.74,6.74,0,0,1,182.54,445.83Z"/><path class="cls-17" d="M208.56,449.16v3.2c0,2.3-1.62,4.66-4.85,6.4-6.47,3.55-17.05,3.55-23.59,0-3.31-1.81-4.93-4.17-4.93-6.54V449c0,2.36,1.62,4.72,4.93,6.53,6.54,3.55,17.12,3.55,23.59,0C206.94,453.82,208.56,451.46,208.56,449.16Z"/><path class="cls-16" d="M203.63,442.63c6.54,3.54,6.62,9.39.08,12.93s-17.05,3.55-23.59,0-6.62-9.39-.08-12.93S197.09,439.08,203.63,442.63Zm-21,11.54c5.14,2.78,13.44,2.78,18.59,0s5.07-7.37-.08-10.15-13.44-2.78-18.59,0-5.07,7.37.08,10.15"/></g><g class="cls-9"><path class="cls-16" d="M182.69,443.6a7.53,7.53,0,0,0-3.6,3.69v-3.2a7,7,0,0,1,3.6-3.69c5.14-2.78,13.45-2.78,18.59,0,2.57,1.39,3.9,3.27,3.9,5.08v3.2c0-1.81-1.33-3.69-3.9-5.08C196.06,440.82,187.76,440.82,182.69,443.6Z"/><path class="cls-16" d="M179.09,447.29a4,4,0,0,0-.22,1.32v-3.2a4.06,4.06,0,0,1,.22-1.32v3.2Z"/><path class="cls-16" d="M205.1,445.55v3.2c0,1.81-1.25,3.68-3.82,5.07-5.14,2.79-13.45,2.79-18.59,0-2.57-1.39-3.9-3.26-3.9-5.14v-3.2c0,1.88,1.33,3.68,3.9,5.15,5.14,2.78,13.45,2.78,18.59,0C203.85,449.16,205.1,447.36,205.1,445.55Z"/><path class="cls-16" d="M201.21,440.4c5.14,2.78,5.14,7.37.07,10.16s-13.45,2.78-18.59,0-5.15-7.38-.07-10.16S196.06,437.62,201.21,440.4Z"/><path class="cls-17" d="M182.69,442.21c5.14-2.78,13.45-2.78,18.59,0,2.13,1.18,3.46,2.71,3.75,4.24.51-2.15-.81-4.38-3.75-6-5.14-2.78-13.45-2.78-18.59,0-2.94,1.6-4.19,3.83-3.75,6C179.31,444.85,180.56,443.39,182.69,442.21Z"/><path class="cls-17" d="M208.7,445.55v3.2c0,2.29-1.61,4.66-4.85,6.4-6.46,3.54-17,3.54-23.59,0-3.3-1.81-4.92-4.18-4.92-6.54v-3.2c0,2.36,1.62,4.73,4.92,6.54,6.54,3.54,17.13,3.54,23.59,0C207.09,450.21,208.7,447.91,208.7,445.55Z"/><path class="cls-16" d="M203.78,439c6.54,3.55,6.61,9.39.07,12.94s-17,3.54-23.59,0-6.61-9.39-.07-12.94S197.24,435.46,203.78,439Zm-21.09,11.62c5.14,2.78,13.45,2.78,18.59,0s5.07-7.38-.07-10.16-13.45-2.78-18.59,0-5.08,7.3.07,10.16"/></g><g class="cls-9"><path class="cls-16" d="M182.54,440a7.62,7.62,0,0,0-3.6,3.69v-3.2a7,7,0,0,1,3.6-3.68c5.15-2.79,13.45-2.79,18.59,0,2.58,1.39,3.9,3.26,3.9,5.07v3.2c0-1.81-1.32-3.68-3.9-5.08C196,437.2,187.61,437.2,182.54,440Z"/><path class="cls-16" d="M178.94,443.74a4.06,4.06,0,0,0-.22,1.32v-3.2a4.06,4.06,0,0,1,.22-1.32v3.2Z"/><path class="cls-16" d="M205,441.93v3.2c0,1.81-1.25,3.69-3.83,5.08-5.14,2.78-13.44,2.78-18.59,0-2.57-1.39-3.89-3.27-3.89-5.15v-3.2c0,1.88,1.32,3.69,3.89,5.15,5.15,2.78,13.45,2.78,18.59,0C203.71,445.62,205,443.74,205,441.93Z"/><path class="cls-16" d="M201.13,436.85c5.15,2.79,5.15,7.38.08,10.16s-13.45,2.78-18.59,0-5.15-7.37-.08-10.16S196,434,201.13,436.85Z"/><path class="cls-17" d="M182.54,438.59c5.15-2.78,13.45-2.78,18.59,0,2.14,1.19,3.46,2.72,3.75,4.25.52-2.16-.81-4.39-3.75-6-5.14-2.78-13.44-2.78-18.59,0-2.94,1.6-4.19,3.83-3.75,6C179.16,441.24,180.41,439.78,182.54,438.59Z"/><path class="cls-17" d="M208.56,441.93v3.2c0,2.3-1.62,4.66-4.85,6.4-6.47,3.55-17.05,3.55-23.59,0-3.31-1.81-4.93-4.17-4.93-6.54v-3.2c0,2.37,1.62,4.73,4.93,6.54,6.54,3.55,17.12,3.55,23.59,0C206.94,446.59,208.56,444.3,208.56,441.93Z"/><path class="cls-16" d="M203.63,435.46c6.54,3.55,6.62,9.39.08,12.94s-17.05,3.55-23.59,0S173.5,439,180,435.46,197.09,431.85,203.63,435.46Zm-21,11.55c5.14,2.78,13.44,2.78,18.59,0s5.07-7.37-.08-10.16-13.44-2.78-18.59,0-5.07,7.31.08,10.16"/></g><g class="cls-9"><path class="cls-16" d="M183.42,436a7.58,7.58,0,0,0-3.6,3.69v-3.2a7,7,0,0,1,3.6-3.69c5.15-2.78,13.45-2.78,18.6,0,2.57,1.39,3.89,3.27,3.89,5.08V441c0-1.81-1.32-3.69-3.89-5.08C196.8,433.1,188.49,433.1,183.42,436Z"/><path class="cls-16" d="M179.82,439.64a4.3,4.3,0,0,0-.22,1.32v-3.2a4.3,4.3,0,0,1,.22-1.32v3.2Z"/><path class="cls-16" d="M205.84,437.9v3.2c0,1.81-1.25,3.68-3.82,5.07-5.15,2.79-13.45,2.79-18.6,0-2.57-1.39-3.89-3.26-3.89-5.14v-3.2c0,1.88,1.32,3.68,3.89,5.14,5.15,2.79,13.45,2.79,18.6,0C204.59,441.51,205.84,439.71,205.84,437.9Z"/><path class="cls-16" d="M201.94,432.75c5.15,2.78,5.15,7.37.08,10.16s-13.45,2.78-18.6,0-5.14-7.38-.07-10.16S196.8,430,201.94,432.75Z"/><path class="cls-17" d="M183.42,434.56c5.15-2.78,13.45-2.78,18.6,0,2.13,1.18,3.45,2.71,3.74,4.24.52-2.15-.8-4.38-3.74-6-5.15-2.78-13.45-2.78-18.6,0-2.94,1.6-4.19,3.83-3.74,6A6.69,6.69,0,0,1,183.42,434.56Z"/><path class="cls-17" d="M209.44,437.9v3.2c0,2.29-1.62,4.66-4.85,6.4-6.47,3.54-17.05,3.54-23.59,0-3.31-1.81-4.93-4.18-4.93-6.54v-3.2c0,2.36,1.62,4.73,4.93,6.54,6.54,3.54,17.12,3.54,23.59,0C207.82,442.56,209.44,440.19,209.44,437.9Z"/><path class="cls-16" d="M204.52,431.36c6.54,3.55,6.61,9.39.07,12.94s-17.05,3.54-23.59,0-6.62-9.39-.08-12.94S198,427.81,204.52,431.36Zm-21,11.55c5.14,2.78,13.45,2.78,18.59,0s5.07-7.38-.07-10.16-13.45-2.78-18.6,0-5.07,7.37.08,10.16"/></g><g class="cls-9"><path class="cls-16" d="M185,431.5a7.49,7.49,0,0,0-3.6,3.69V432a7,7,0,0,1,3.6-3.69c5.14-2.78,13.45-2.78,18.59,0,2.57,1.39,3.89,3.27,3.89,5.08v3.2c0-1.81-1.32-3.69-3.89-5.08C198.34,428.65,190,428.65,185,431.5Z"/><path class="cls-16" d="M181.37,435.19a4,4,0,0,0-.22,1.32v-3.2a4,4,0,0,1,.22-1.32v3.2Z"/><path class="cls-16" d="M207.38,433.38v3.2c0,1.8-1.25,3.68-3.82,5.07-5.14,2.79-13.45,2.79-18.59,0-2.58-1.39-3.9-3.27-3.9-5.14v-3.2c0,1.88,1.32,3.68,3.9,5.14,5.14,2.79,13.45,2.79,18.59,0C206.13,437.06,207.38,435.26,207.38,433.38Z"/><path class="cls-16" d="M203.49,428.3c5.14,2.78,5.14,7.37.07,10.15s-13.45,2.79-18.59,0-5.15-7.37-.08-10.15S198.34,425.45,203.49,428.3Z"/><path class="cls-17" d="M185,430c5.14-2.78,13.45-2.78,18.59,0,2.13,1.18,3.45,2.71,3.75,4.24.51-2.15-.81-4.38-3.75-6-5.14-2.78-13.45-2.78-18.59,0-2.94,1.6-4.19,3.83-3.75,6C181.59,432.68,182.84,431.22,185,430Z"/><path class="cls-17" d="M211,433.45v3.2c0,2.29-1.61,4.66-4.85,6.39-6.47,3.55-17,3.55-23.59,0-3.31-1.8-4.92-4.17-4.92-6.53v-3.2c0,2.36,1.61,4.73,4.92,6.54,6.54,3.54,17.12,3.54,23.59,0C209.37,438.11,211,435.74,211,433.45Z"/><path class="cls-16" d="M206.06,426.91c6.54,3.55,6.61,9.39.07,12.94s-17,3.54-23.59,0-6.61-9.39-.07-12.94S199.52,423.29,206.06,426.91Zm-21,11.54c5.14,2.79,13.45,2.79,18.59,0s5.07-7.37-.07-10.15-13.45-2.78-18.59,0-5.07,7.37.07,10.15"/></g><g class="cls-9"><path class="cls-16" d="M182.54,427.88a7.62,7.62,0,0,0-3.6,3.69v-3.2a7,7,0,0,1,3.6-3.69c5.15-2.78,13.45-2.78,18.59,0,2.58,1.39,3.9,3.27,3.9,5.08V433c0-1.81-1.32-3.69-3.9-5.08C196,425.1,187.61,425.1,182.54,427.88Z"/><path class="cls-16" d="M178.94,431.57a4.06,4.06,0,0,0-.22,1.32v-3.2a4.06,4.06,0,0,1,.22-1.32v3.2Z"/><path class="cls-16" d="M205,429.83V433c0,1.81-1.25,3.69-3.83,5.08-5.14,2.78-13.44,2.78-18.59,0-2.57-1.39-3.89-3.27-3.89-5.15v-3.2c0,1.88,1.32,3.69,3.89,5.15,5.15,2.78,13.45,2.78,18.59,0C203.71,433.52,205,431.64,205,429.83Z"/><path class="cls-16" d="M201.13,424.68c5.15,2.79,5.15,7.38.08,10.16s-13.45,2.78-18.59,0-5.15-7.37-.08-10.16S196,421.9,201.13,424.68Z"/><path class="cls-17" d="M182.54,426.49c5.15-2.78,13.45-2.78,18.59,0,2.14,1.18,3.46,2.71,3.75,4.24.52-2.15-.81-4.38-3.75-6-5.14-2.78-13.44-2.78-18.59,0-2.94,1.6-4.19,3.83-3.75,6C179.16,429.13,180.41,427.67,182.54,426.49Z"/><path class="cls-17" d="M208.56,429.83V433c0,2.29-1.62,4.66-4.85,6.4-6.47,3.54-17.05,3.54-23.59,0-3.31-1.81-4.93-4.17-4.93-6.54v-3.2c0,2.37,1.62,4.73,4.93,6.54,6.54,3.55,17.12,3.55,23.59,0C206.94,434.49,208.56,432.2,208.56,429.83Z"/><path class="cls-16" d="M203.63,423.29c6.54,3.55,6.62,9.39.08,12.94s-17.05,3.55-23.59,0-6.62-9.39-.08-12.94S197.09,419.75,203.63,423.29Zm-21,11.62c5.14,2.78,13.44,2.78,18.59,0s5.07-7.37-.08-10.16-13.44-2.78-18.59,0-5.07,7.31.08,10.16"/></g><g class="cls-9"><path class="cls-16" d="M183.5,424.27a7.52,7.52,0,0,0-3.6,3.68v-3.2a7,7,0,0,1,3.6-3.68c5.14-2.78,13.45-2.78,18.59,0,2.57,1.39,3.89,3.27,3.89,5.07v3.2c0-1.8-1.32-3.68-3.89-5.07C197,421.48,188.64,421.48,183.5,424.27Z"/><path class="cls-16" d="M180,428a4.11,4.11,0,0,0-.22,1.32v-3.2a4.11,4.11,0,0,1,.22-1.32V428Z"/><path class="cls-16" d="M206,426.21v3.2c0,1.81-1.24,3.69-3.82,5.08-5.14,2.78-13.45,2.78-18.59,0-2.57-1.39-3.89-3.27-3.89-5.15v-3.2c0,1.88,1.32,3.69,3.89,5.15,5.14,2.78,13.45,2.78,18.59,0C204.66,429.9,206,428.09,206,426.21Z"/><path class="cls-16" d="M202.09,421.14c5.14,2.78,5.14,7.37.07,10.15s-13.45,2.78-18.59,0-5.14-7.37-.07-10.15S197,418.29,202.09,421.14Z"/><path class="cls-17" d="M183.5,422.88c5.14-2.79,13.45-2.79,18.59,0,2.13,1.18,3.45,2.71,3.75,4.24.51-2.16-.81-4.38-3.75-6-5.14-2.78-13.45-2.78-18.59,0-2.94,1.6-4.19,3.82-3.75,6A7.13,7.13,0,0,1,183.5,422.88Z"/><path class="cls-17" d="M209.51,426.21v3.2c0,2.3-1.61,4.66-4.85,6.4-6.47,3.55-17,3.55-23.59,0-3.31-1.81-4.92-4.17-4.92-6.54v-3.2c0,2.37,1.61,4.73,4.92,6.54,6.54,3.55,17.12,3.55,23.59,0C207.9,430.87,209.51,428.58,209.51,426.21Z"/><path class="cls-16" d="M204.59,419.75c6.54,3.54,6.61,9.38.07,12.93s-17,3.55-23.59,0-6.61-9.39-.07-12.93S198.05,416.13,204.59,419.75Zm-21,11.54c5.14,2.78,13.45,2.78,18.59,0s5.07-7.37-.07-10.15-13.45-2.78-18.59,0-5.07,7.3.07,10.15"/></g><path class="cls-1" d="M191.07,481.3c-9.85-4.87-25.72-4.87-35.5,0s-9.7,12.72.15,17.52,25.72,4.87,35.49,0S200.91,486.16,191.07,481.3ZM154,488.53h0c0-.14.08-.21.08-.35A.68.68,0,0,0,154,488.53Z"/><g class="cls-9"><path class="cls-13" d="M165,483.38a9.72,9.72,0,0,0-4.71,4.87v-4.17c.59-1.81,2.21-3.48,4.71-4.87,6.69-3.69,17.49-3.69,24.25,0,3.38,1.81,5.07,4.24,5.07,6.61V490c0-2.43-1.69-4.8-5.07-6.61C182.47,479.77,171.67,479.77,165,483.38Z"/><path class="cls-13" d="M160.35,488.25a4.83,4.83,0,0,0-.3,1.74v-4.17a4.8,4.8,0,0,1,.3-1.74v4.17Z"/><path class="cls-13" d="M194.3,486v4.17c0,2.36-1.69,4.8-5,6.61-6.68,3.68-17.49,3.68-24.18,0-3.38-1.88-5.07-4.25-5.07-6.68v-4.17c0,2.43,1.69,4.86,5.07,6.67,6.69,3.69,17.57,3.69,24.18,0C192.61,490.68,194.23,488.32,194.3,486Z"/><path class="cls-13" d="M189.23,479.28c6.69,3.68,6.76,9.6.07,13.28s-17.49,3.69-24.18,0-6.76-9.6-.07-13.28S182.47,475.59,189.23,479.28Z"/><path class="cls-14" d="M165,481.57c6.69-3.68,17.49-3.68,24.25,0,2.79,1.53,4.48,3.48,4.92,5.5.66-2.78-1-5.7-4.92-7.79-6.69-3.69-17.56-3.69-24.25,0-3.82,2.09-5.44,5-4.85,7.79C160.64,485.05,162.19,483.1,165,481.57Z"/><path class="cls-14" d="M198.93,486v4.17c0,3.06-2.13,6.05-6.32,8.41-8.45,4.66-22.27,4.66-30.79,0-4.26-2.36-6.47-5.42-6.47-8.48v-4.17c0,3.06,2.13,6.19,6.47,8.48,8.52,4.66,22.34,4.66,30.79,0C196.8,492,198.93,489,198.93,486Z"/><path class="cls-13" d="M192.54,477.47c8.52,4.66,8.59,12.24.07,16.9s-22.27,4.66-30.79,0-8.6-12.24-.08-16.9S183.94,472.81,192.54,477.47Zm-27.49,15.09c6.69,3.69,17.57,3.69,24.18,0s6.61-9.6-.07-13.28-17.57-3.69-24.26,0c-6.54,3.62-6.54,9.6.15,13.28"/></g><g class="cls-9"><path class="cls-13" d="M166.67,478.1A9.74,9.74,0,0,0,162,483v-4.17c.59-1.81,2.21-3.48,4.71-4.87,6.69-3.68,17.49-3.68,24.25,0,3.38,1.81,5.07,4.25,5.07,6.61v4.17c0-2.43-1.69-4.8-5.07-6.6C184.16,474.48,173.28,474.48,166.67,478.1Z"/><path class="cls-13" d="M162,483a4.85,4.85,0,0,0-.29,1.74v-4.17a4.82,4.82,0,0,1,.29-1.74V483Z"/><path class="cls-13" d="M195.92,480.67v4.17c0,2.37-1.69,4.8-5,6.61-6.69,3.69-17.49,3.69-24.18,0-3.38-1.88-5.07-4.24-5.07-6.68V480.6c0,2.43,1.69,4.87,5.07,6.68,6.69,3.68,17.57,3.68,24.18,0C194.23,485.4,195.92,483,195.92,480.67Z"/><path class="cls-13" d="M190.85,474c6.68,3.69,6.76,9.6.07,13.29s-17.49,3.68-24.18,0-6.76-9.6-.07-13.29S184.16,470.31,190.85,474Z"/><path class="cls-14" d="M166.67,476.29c6.69-3.69,17.49-3.69,24.25,0,2.79,1.53,4.48,3.48,4.92,5.49.66-2.78-1-5.7-4.92-7.79-6.69-3.68-17.56-3.68-24.25,0-3.82,2.09-5.44,5-4.85,7.79C162.26,479.77,163.88,477.82,166.67,476.29Z"/><path class="cls-14" d="M200.62,480.67v4.17c0,3.06-2.13,6.05-6.32,8.42-8.45,4.66-22.27,4.66-30.79,0-4.26-2.37-6.47-5.43-6.47-8.49V480.6c0,3.06,2.13,6.19,6.47,8.49,8.52,4.65,22.34,4.65,30.79,0C198.49,486.72,200.55,483.73,200.62,480.67Z"/><path class="cls-13" d="M194.15,472.19c8.53,4.65,8.6,12.24.08,16.9s-22.27,4.65-30.8,0-8.59-12.25-.07-16.9S185.63,467.53,194.15,472.19Zm-27.41,15.09c6.69,3.68,17.57,3.68,24.18,0s6.61-9.6-.07-13.29-17.57-3.68-24.26,0-6.54,9.6.15,13.29"/></g><g class="cls-9"><path class="cls-16" d="M215,468.22a7.53,7.53,0,0,0-3.6,3.69v-3.2A7,7,0,0,1,215,465c5.14-2.78,13.45-2.78,18.59,0,2.58,1.39,3.9,3.27,3.9,5.08v3.2c0-1.81-1.32-3.69-3.9-5.08C228.4,465.44,220.09,465.44,215,468.22Z"/><path class="cls-16" d="M211.35,471.91a4,4,0,0,0-.22,1.32V470a4,4,0,0,1,.22-1.32v3.2Z"/><path class="cls-16" d="M237.37,470.17v3.2c0,1.81-1.25,3.68-3.83,5.07-5.14,2.79-13.45,2.79-18.59,0-2.57-1.39-3.89-3.26-3.89-5.14v-3.2c0,1.88,1.32,3.68,3.89,5.15,5.14,2.78,13.45,2.78,18.59,0C236.12,473.78,237.37,472,237.37,470.17Z"/><path class="cls-16" d="M233.54,465c5.15,2.78,5.15,7.37.08,10.16s-13.45,2.78-18.6,0S209.88,467.8,215,465,228.4,462.24,233.54,465Z"/><path class="cls-17" d="M215,466.83c5.14-2.78,13.45-2.78,18.59,0,2.13,1.18,3.46,2.71,3.75,4.24.52-2.15-.81-4.38-3.75-6-5.14-2.78-13.45-2.78-18.59,0-2.94,1.6-4.19,3.83-3.75,6C211.57,469.47,212.82,468,215,466.83Z"/><path class="cls-17" d="M241,470.17v3.2c0,2.29-1.62,4.66-4.85,6.4-6.47,3.54-17.05,3.54-23.59,0-3.31-1.81-4.93-4.18-4.93-6.54V470c0,2.36,1.62,4.73,4.93,6.54,6.54,3.54,17.12,3.54,23.59,0C239.35,474.83,241,472.46,241,470.17Z"/><path class="cls-16" d="M236,463.63c6.54,3.55,6.62,9.39.08,12.94s-17.05,3.54-23.59,0-6.62-9.39-.08-12.94S229.5,460.08,236,463.63Zm-21,11.55c5.15,2.78,13.45,2.78,18.6,0s5.07-7.38-.08-10.16-13.45-2.78-18.59,0-5.07,7.37.07,10.16"/></g><g class="cls-9"><path class="cls-16" d="M215,464.53a7.57,7.57,0,0,0-3.6,3.69V465a7,7,0,0,1,3.6-3.68c5.14-2.79,13.45-2.79,18.59,0,2.58,1.39,3.9,3.26,3.9,5.07v3.2c0-1.81-1.32-3.68-3.9-5.08C228.4,461.75,220.09,461.75,215,464.53Z"/><path class="cls-16" d="M211.35,468.29a4.06,4.06,0,0,0-.22,1.32v-3.2a4.11,4.11,0,0,1,.22-1.32v3.2Z"/><path class="cls-16" d="M237.37,466.48v3.2c0,1.81-1.25,3.69-3.83,5.08-5.14,2.78-13.45,2.78-18.59,0-2.57-1.39-3.89-3.27-3.89-5.15v-3.2c0,1.88,1.32,3.69,3.89,5.15,5.14,2.78,13.45,2.78,18.59,0C236.12,470.17,237.37,468.29,237.37,466.48Z"/><path class="cls-16" d="M233.54,461.41c5.15,2.78,5.15,7.37.08,10.15s-13.45,2.78-18.6,0-5.14-7.37-.07-10.15S228.4,458.55,233.54,461.41Z"/><path class="cls-17" d="M215,463.14c5.14-2.78,13.45-2.78,18.59,0,2.13,1.19,3.46,2.72,3.75,4.25.52-2.16-.81-4.39-3.75-6-5.14-2.79-13.45-2.79-18.59,0-2.94,1.59-4.19,3.82-3.75,6C211.57,465.79,212.82,464.33,215,463.14Z"/><path class="cls-17" d="M241,466.48v3.2c0,2.3-1.62,4.66-4.85,6.4-6.47,3.55-17.05,3.55-23.59,0-3.31-1.81-4.93-4.17-4.93-6.54v-3.2c0,2.37,1.62,4.73,4.93,6.54,6.54,3.55,17.12,3.55,23.59,0C239.35,471.14,241,468.85,241,466.48Z"/><path class="cls-16" d="M236,460c6.54,3.55,6.62,9.39.08,12.94s-17.05,3.55-23.59,0-6.62-9.39-.08-12.94S229.5,456.4,236,460Zm-21,11.55c5.15,2.78,13.45,2.78,18.6,0s5.07-7.37-.08-10.15-13.45-2.79-18.59,0-5.07,7.3.07,10.15"/></g><g class="cls-9"><path class="cls-16" d="M215.1,459.46a7.52,7.52,0,0,0-3.6,3.68v-3.2a7,7,0,0,1,3.6-3.68c5.14-2.78,13.45-2.78,18.59,0,2.57,1.39,3.9,3.27,3.9,5.08v3.19c0-1.8-1.33-3.68-3.9-5.07C228.47,456.61,220.17,456.61,215.1,459.46Z"/><path class="cls-16" d="M211.5,463.14a4.12,4.12,0,0,0-.22,1.33v-3.2a4.12,4.12,0,0,1,.22-1.33v3.2Z"/><path class="cls-16" d="M237.51,461.34v3.19c0,1.81-1.25,3.69-3.82,5.08-5.14,2.78-13.45,2.78-18.59,0-2.57-1.39-3.9-3.27-3.9-5.14v-3.2c0,1.87,1.33,3.68,3.9,5.14,5.14,2.78,13.45,2.78,18.59,0C236.26,465,237.51,463.21,237.51,461.34Z"/><path class="cls-16" d="M233.62,456.26c5.14,2.78,5.14,7.37.07,10.15s-13.45,2.78-18.59,0S210,459,215,456.26,228.47,453.41,233.62,456.26Z"/><path class="cls-17" d="M215.1,458c5.14-2.78,13.45-2.78,18.59,0,2.13,1.18,3.45,2.71,3.75,4.24.51-2.16-.81-4.38-3.75-6-5.14-2.78-13.45-2.78-18.59,0-2.94,1.6-4.19,3.82-3.75,6C211.72,460.64,213,459.18,215.1,458Z"/><path class="cls-17" d="M241.11,461.41v3.19c0,2.3-1.61,4.66-4.85,6.4-6.46,3.55-17,3.55-23.59,0-3.3-1.81-4.92-4.17-4.92-6.53v-3.2c0,2.36,1.62,4.73,4.92,6.53,6.54,3.55,17.13,3.55,23.59,0C239.5,466.06,241.11,463.7,241.11,461.41Z"/><path class="cls-16" d="M236.19,454.87c6.54,3.54,6.61,9.39.07,12.93s-17,3.55-23.59,0-6.61-9.39-.07-12.93S229.65,451.25,236.19,454.87Zm-21,11.54c5.15,2.78,13.45,2.78,18.59,0s5.07-7.37-.07-10.15-13.45-2.78-18.59,0-5.07,7.37.07,10.15"/></g><g class="cls-9"><path class="cls-16" d="M216.71,456.05a7.54,7.54,0,0,0-3.6,3.69v-3.2a7,7,0,0,1,3.6-3.69c5.15-2.78,13.45-2.78,18.6,0,2.57,1.39,3.89,3.27,3.89,5.08v3.2c0-1.81-1.32-3.69-3.89-5.08C230.16,453.2,221.79,453.2,216.71,456.05Z"/><path class="cls-16" d="M213.11,459.74a4.3,4.3,0,0,0-.22,1.32v-3.2a4.3,4.3,0,0,1,.22-1.32v3.2Z"/><path class="cls-16" d="M239.13,457.93v3.2c0,1.81-1.25,3.68-3.82,5.07-5.15,2.79-13.45,2.79-18.6,0-2.57-1.39-3.89-3.26-3.89-5.14v-3.2c0,1.88,1.32,3.68,3.89,5.14,5.15,2.79,13.45,2.79,18.6,0C237.88,461.61,239.13,459.81,239.13,457.93Z"/><path class="cls-16" d="M235.31,452.85c5.14,2.78,5.14,7.37.07,10.15s-13.45,2.79-18.59,0-5.15-7.37-.08-10.15S230.16,450,235.31,452.85Z"/><path class="cls-17" d="M216.71,454.59c5.15-2.78,13.45-2.78,18.6,0,2.13,1.18,3.45,2.71,3.75,4.24.51-2.15-.81-4.38-3.75-6-5.15-2.78-13.45-2.78-18.6,0-2.94,1.6-4.18,3.83-3.74,6C213.33,457.23,214.58,455.77,216.71,454.59Z"/><path class="cls-17" d="M242.73,458v3.2c0,2.29-1.62,4.66-4.85,6.39-6.47,3.55-17,3.55-23.59,0-3.31-1.8-4.92-4.17-4.92-6.53v-3.2c0,2.36,1.61,4.73,4.92,6.54,6.54,3.54,17.12,3.54,23.59,0C241.11,462.66,242.73,460.29,242.73,458Z"/><path class="cls-16" d="M237.81,451.46c6.54,3.55,6.61,9.39.07,12.94s-17,3.54-23.59,0-6.61-9.39-.07-12.94S231.27,447.84,237.81,451.46Zm-21,11.54c5.14,2.79,13.45,2.79,18.59,0s5.07-7.37-.07-10.15-13.45-2.78-18.6,0-5.07,7.37.08,10.15"/></g><path class="cls-2" d="M214.51,165.9l-59,32.48-.08,15.85L274,279.05l59-32.48.07-15.86"/><ellipse class="cls-3" cx="244.36" cy="214.55" rx="13.7" ry="24.99" transform="translate(29.18 458.36) rotate(-89.85)"/><path class="cls-4" d="M307.18,223.34c-7.42,4.11-7.42,10.71.07,14.82L287.56,249c-7.5-4.11-19.55-4.11-27.05,0l-79-43.19c7.43-4.11,7.43-10.71-.07-14.82l19.69-10.85c7.5,4.11,19.55,4.11,27.05,0Zm-80.47.91c9.77,5.35,25.65,5.35,35.35,0s9.7-14.05-.15-19.41-25.65-5.35-35.35,0-9.63,14,.15,19.41"/><path class="cls-3" d="M214.51,165.9l118.61,64.81-59,32.48L155.5,198.38Zm73.05,83,19.69-10.85c-7.49-4.11-7.49-10.71-.07-14.82l-79-43.19c-7.42,4.11-19.55,4.11-27.05,0l-19.69,10.85c7.5,4.11,7.5,10.71.07,14.82l79,43.19c7.5-4,19.55-4,27.05,0"/><polygon class="cls-5" points="281.97 202.76 222.96 235.24 204.88 225.36 263.89 192.88 281.97 202.76"/><polygon class="cls-6" points="222.89 235.24 222.81 251.09 204.74 241.22 204.81 225.36 222.89 235.24"/><polygon class="cls-7" points="274.11 263.19 274.11 279.05 333.12 246.57 333.12 230.72 274.11 263.19"/><path class="cls-2" d="M216,147.81l-59,32.48-.08,15.86L275.51,261l59-32.48.07-15.86"/><ellipse class="cls-3" cx="245.83" cy="196.47" rx="13.7" ry="24.99" transform="translate(48.73 441.8) rotate(-89.85)"/><path class="cls-4" d="M308.65,205.26c-7.42,4.1-7.42,10.71.07,14.81L289,230.92c-7.5-4.1-19.55-4.1-27,0l-79-43.19c7.43-4.1,7.43-10.71-.07-14.81l19.69-10.85c7.5,4.1,19.55,4.1,27.05,0Zm-80.47.9c9.77,5.36,25.65,5.36,35.35,0s9.7-14-.15-19.4-25.65-5.35-35.35,0-9.63,14.05.15,19.4"/><path class="cls-3" d="M216,147.81l118.61,64.82-59,32.48L157,180.29Zm73,83L308.72,220c-7.49-4.1-7.49-10.71-.07-14.81l-79-43.19c-7.42,4.1-19.55,4.1-27.05,0l-19.69,10.85c7.5,4.1,7.5,10.71.07,14.81l79,43.19c7.5-4,19.55-4,27,0"/><polygon class="cls-5" points="283.44 184.67 224.43 217.15 206.35 207.28 265.37 174.8 283.44 184.67"/><polygon class="cls-6" points="224.36 217.15 224.28 233.01 206.21 223.13 206.28 207.28 224.36 217.15"/><polygon class="cls-7" points="275.58 245.11 275.58 260.97 334.59 228.49 334.59 212.63 275.58 245.11"/><path class="cls-2" d="M213,130.43l-59,32.48L154,178.76l118.62,64.82,59-32.48.07-15.85"/><ellipse class="cls-3" cx="242.89" cy="179.08" rx="13.7" ry="24.99" transform="translate(63.19 421.52) rotate(-89.85)"/><path class="cls-4" d="M305.71,187.87c-7.42,4.11-7.42,10.71.07,14.82l-19.69,10.85c-7.5-4.11-19.55-4.11-27,0l-79-43.19c7.43-4.11,7.43-10.71-.07-14.82l19.69-10.85c7.5,4.11,19.55,4.11,27.05,0Zm-80.47.91c9.77,5.35,25.65,5.35,35.35,0s9.7-14.05-.15-19.41-25.65-5.35-35.35,0-9.62,14,.15,19.41"/><path class="cls-3" d="M213,130.43l118.61,64.82-59,32.47L154,162.91Zm73,83,19.69-10.85c-7.49-4.11-7.49-10.71-.07-14.82l-79-43.19c-7.42,4.11-19.55,4.11-27.05,0L180,155.46c7.5,4.11,7.5,10.71.07,14.82l79,43.19c7.5-4,19.55-4,27,0"/><polygon class="cls-5" points="280.5 167.29 221.49 199.77 203.41 189.89 262.43 157.41 280.5 167.29"/><polygon class="cls-6" points="221.42 199.77 221.34 215.62 203.27 205.75 203.34 189.89 221.42 199.77"/><polygon class="cls-7" points="272.64 227.72 272.64 243.58 331.65 211.1 331.65 195.25 272.64 227.72"/><path class="cls-2" d="M213,113.74l-59,32.47L154,162.07l118.62,64.82,59-32.48.07-15.86"/><ellipse class="cls-3" cx="242.89" cy="162.39" rx="13.7" ry="24.99" transform="translate(79.88 404.87) rotate(-89.85)"/><path class="cls-4" d="M305.71,171.18c-7.42,4.11-7.42,10.71.07,14.82l-19.69,10.85c-7.5-4.11-19.55-4.11-27,0l-79-43.19c7.43-4.11,7.43-10.71-.07-14.82L199.66,128c7.5,4.11,19.55,4.11,27.05,0Zm-80.47.91c9.77,5.35,25.65,5.35,35.35,0s9.7-14.05-.15-19.41-25.65-5.35-35.35,0-9.62,14,.15,19.41"/><path class="cls-3" d="M213,113.74l118.61,64.81-59,32.48L154,146.21Zm73,83,19.69-10.85c-7.49-4.11-7.49-10.71-.07-14.82l-79-43.19c-7.42,4.11-19.55,4.11-27.05,0L180,138.77c7.5,4.11,7.5,10.71.07,14.82l79,43.19c7.5-4,19.55-4,27,0"/><polygon class="cls-5" points="280.5 150.6 221.49 183.07 203.41 173.2 262.43 140.72 280.5 150.6"/><polygon class="cls-6" points="221.42 183.07 221.34 198.93 203.27 189.06 203.34 173.2 221.42 183.07"/><polygon class="cls-7" points="272.64 211.03 272.64 226.89 331.65 194.41 331.65 178.55 272.64 211.03"/><path class="cls-2" d="M216,94.26l-59,32.48-.08,15.86,118.62,64.82,59-32.48.07-15.86"/><ellipse class="cls-3" cx="245.83" cy="142.92" rx="13.7" ry="24.99" transform="translate(102.28 388.38) rotate(-89.85)"/><path class="cls-4" d="M308.65,151.71c-7.42,4.1-7.42,10.71.07,14.81L289,177.37c-7.5-4.1-19.55-4.1-27,0l-79-43.19c7.43-4.1,7.43-10.71-.07-14.81l19.69-10.85c7.5,4.1,19.55,4.1,27.05,0Zm-80.47.9c9.77,5.36,25.65,5.36,35.35,0s9.7-14.05-.15-19.4-25.65-5.36-35.35,0-9.63,14,.15,19.4"/><path class="cls-3" d="M216,94.26l118.61,64.82-59,32.48L157,126.74Zm73,83,19.69-10.85c-7.49-4.1-7.49-10.71-.07-14.81l-79-43.19c-7.42,4.1-19.55,4.1-27.05,0L182.91,119.3c7.5,4.1,7.5,10.71.07,14.81l79,43.19c7.5-4,19.55-4,27,0"/><polygon class="cls-5" points="283.44 131.12 224.43 163.6 206.35 153.72 265.37 121.25 283.44 131.12"/><polygon class="cls-6" points="224.36 163.6 224.28 179.46 206.21 169.58 206.28 153.72 224.36 163.6"/><polygon class="cls-7" points="275.58 191.56 275.58 207.42 334.59 174.94 334.59 159.08 275.58 191.56"/><path class="cls-2" d="M218.92,76.67l-59,32.48L159.83,125l118.62,64.82,59-32.48.07-15.85"/><ellipse class="cls-3" cx="248.72" cy="125.3" rx="13.7" ry="24.99" transform="translate(122.78 373.7) rotate(-89.85)"/><path class="cls-4" d="M311.59,134.11c-7.42,4.11-7.42,10.71.07,14.82L292,159.78c-7.5-4.11-19.55-4.11-27.05,0l-79-43.19c7.42-4.11,7.42-10.71-.07-14.82l19.69-10.85c7.5,4.11,19.55,4.11,27.05,0Zm-80.47.91c9.77,5.35,25.65,5.35,35.35,0s9.7-14.05-.15-19.41-25.65-5.35-35.35,0-9.63,14,.15,19.41"/><path class="cls-3" d="M218.92,76.67l118.61,64.82-59,32.47L159.91,109.15Zm73.05,83,19.69-10.85c-7.49-4.11-7.49-10.71-.07-14.82l-79-43.19C225.17,95,213,95,205.54,90.85L185.85,101.7c7.49,4.11,7.49,10.71.07,14.82l79,43.19c7.5-4.11,19.55-4.11,27.05,0"/><polygon class="cls-5" points="286.38 113.53 227.37 145.94 209.29 136.06 268.3 103.65 286.38 113.53"/><polygon class="cls-6" points="227.3 146.01 227.22 161.79 209.15 151.92 209.22 136.13 227.3 146.01"/><polygon class="cls-7" points="278.52 173.96 278.52 189.82 337.53 157.34 337.53 141.49 278.52 173.96"/><path class="cls-2" d="M213,59.07,154,91.55,154,107.41l118.62,64.82,59-32.48.07-15.86"/><ellipse class="cls-3" cx="242.86" cy="107.69" rx="13.7" ry="24.99" transform="translate(134.55 350.27) rotate(-89.85)"/><path class="cls-4" d="M305.71,116.45c-7.42,4.1-7.42,10.71.07,14.81l-19.69,10.85c-7.5-4.1-19.55-4.1-27,0L180,98.92c7.43-4.1,7.43-10.71-.07-14.81l19.69-10.85c7.5,4.1,19.55,4.1,27.05,0Zm-80.47.9c9.77,5.36,25.65,5.36,35.35,0s9.7-14-.15-19.4-25.65-5.36-35.35,0-9.62,14.12.15,19.4"/><path class="cls-3" d="M213,59.07l118.61,64.82-59,32.48L154,91.55Zm73,83,19.69-10.85c-7.49-4.1-7.49-10.71-.07-14.81l-79-43.19c-7.42,4.1-19.55,4.1-27.05,0L180,84.11c7.5,4.1,7.5,10.71.07,14.81l79,43.19c7.5-4.1,19.55-4.1,27,0"/><polygon class="cls-5" points="280.5 95.86 221.49 128.34 203.41 118.47 262.43 85.99 280.5 95.86"/><polygon class="cls-6" points="221.42 128.34 221.34 144.2 203.27 134.32 203.34 118.47 221.42 128.34"/><polygon class="cls-7" points="272.64 156.37 272.64 172.16 331.65 139.68 331.65 123.89 272.64 156.37"/><path class="cls-2" d="M148,232.45,89,264.93l-.07,15.86,118.61,64.82,59-32.48.07-15.86"/><ellipse class="cls-3" cx="177.78" cy="281.14" rx="13.7" ry="24.99" transform="translate(-103.81 458.21) rotate(-89.85)"/><path class="cls-4" d="M240.6,289.9c-7.42,4.1-7.42,10.71.07,14.81L221,315.56c-7.5-4.1-19.55-4.1-27,0l-79-43.19c7.42-4.1,7.42-10.71-.07-14.81l19.69-10.85c7.5,4.1,19.55,4.1,27,0Zm-80.4.9c9.77,5.36,25.65,5.36,35.35,0s9.7-14-.15-19.4-25.65-5.35-35.35,0-9.7,14.05.15,19.4"/><path class="cls-3" d="M148,232.45l118.61,64.82-59,32.48L89,264.93Zm73,83.11,19.69-10.85c-7.49-4.1-7.49-10.71-.07-14.81l-79-43.19c-7.43,4.1-19.55,4.1-27,0l-19.69,10.85c7.49,4.1,7.49,10.71.07,14.81l79,43.19c7.5-4.1,19.55-4.1,27,0"/><polygon class="cls-5" points="215.47 269.31 156.38 301.79 138.3 291.92 197.39 259.44 215.47 269.31"/><polygon class="cls-6" points="156.31 301.79 156.23 317.65 138.15 307.77 138.3 291.92 156.31 301.79"/><polygon class="cls-7" points="207.6 329.75 207.6 345.61 266.54 313.13 266.54 297.34 207.6 329.75"/><path class="cls-2" d="M146.53,215.07l-59,32.48-.07,15.85,118.61,64.82,59-32.48.07-15.85"/><ellipse class="cls-3" cx="176.31" cy="263.76" rx="13.7" ry="24.99" transform="translate(-87.89 439.4) rotate(-89.85)"/><path class="cls-4" d="M239.13,272.51c-7.42,4.11-7.42,10.71.07,14.82l-19.69,10.85c-7.5-4.11-19.55-4.11-27,0l-79-43.19c7.42-4.11,7.42-10.71-.07-14.82l19.69-10.85c7.5,4.11,19.55,4.11,27,0Zm-80.4.91c9.78,5.35,25.65,5.35,35.35,0s9.7-14.05-.15-19.41-25.65-5.35-35.35,0-9.7,14.05.15,19.41"/><path class="cls-3" d="M146.53,215.07l118.61,64.82-59,32.47L87.52,247.55Zm73,83.11,19.69-10.85c-7.49-4.11-7.49-10.71-.07-14.82l-79-43.19c-7.43,4.11-19.55,4.11-27,0l-19.69,10.85c7.49,4.11,7.49,10.71.07,14.82l79,43.19c7.5-4.11,19.55-4.11,27,0"/><polygon class="cls-5" points="214 251.93 154.91 284.41 136.83 274.53 195.92 242.05 214 251.93"/><polygon class="cls-6" points="154.84 284.41 154.76 300.26 136.68 290.39 136.83 274.53 154.84 284.41"/><polygon class="cls-7" points="206.13 312.36 206.13 328.22 265.07 295.74 265.07 279.95 206.13 312.36"/><path class="cls-2" d="M146.53,197l-59,32.48-.07,15.86,118.61,64.82,59-32.48.07-15.86"/><ellipse class="cls-3" cx="176.31" cy="245.67" rx="13.7" ry="24.99" transform="matrix(0, -1, 1, 0, -69.81, 421.36)"/><path class="cls-4" d="M239.13,254.43c-7.42,4.1-7.42,10.71.07,14.81l-19.69,10.85c-7.5-4.1-19.55-4.1-27,0l-79-43.19c7.42-4.1,7.42-10.71-.07-14.81l19.69-10.85c7.5,4.1,19.55,4.1,27,0Zm-80.4.9c9.78,5.36,25.65,5.36,35.35,0s9.7-14-.15-19.4-25.65-5.35-35.35,0-9.7,14,.15,19.4"/><path class="cls-3" d="M146.53,197,265.14,261.8l-59,32.48L87.52,229.46Zm73,83.11,19.69-10.85c-7.49-4.1-7.49-10.71-.07-14.81l-79-43.19c-7.43,4.1-19.55,4.1-27,0l-19.69,10.85c7.49,4.1,7.49,10.71.07,14.81l79,43.19c7.5-4.1,19.55-4.1,27,0"/><polygon class="cls-5" points="214 233.84 154.91 266.32 136.83 256.45 195.92 223.97 214 233.84"/><polygon class="cls-6" points="154.84 266.32 154.76 282.18 136.68 272.31 136.83 256.45 154.84 266.32"/><polygon class="cls-7" points="206.13 294.28 206.13 310.14 265.07 277.66 265.07 261.87 206.13 294.28"/><path class="cls-2" d="M151.68,178.21l-59,32.48-.07,15.85L211.2,291.36l59-32.48.08-15.86"/><ellipse class="cls-3" cx="181.46" cy="226.9" rx="13.7" ry="24.99" transform="matrix(0, -1, 1, 0, -45.9, 407.78)"/><path class="cls-4" d="M244.27,235.65c-7.42,4.11-7.42,10.71.08,14.82l-19.7,10.85c-7.49-4.11-19.55-4.11-27,0l-79-43.19c7.42-4.11,7.42-10.71-.08-14.82l19.7-10.85c7.49,4.11,19.55,4.11,27,0Zm-80.39.91c9.77,5.35,25.64,5.35,35.34,0s9.7-14.05-.14-19.41-25.65-5.35-35.35,0-9.7,14,.15,19.41"/><path class="cls-3" d="M151.68,178.21,270.29,243l-59,32.48L92.66,210.69Zm73,83.11,19.7-10.85c-7.5-4.11-7.5-10.71-.08-14.82l-79-43.19c-7.42,4.11-19.55,4.11-27,0l-19.7,10.85c7.5,4.11,7.5,10.71.08,14.82l79,43.19c7.49-4.11,19.55-4.11,27,0"/><polygon class="cls-5" points="219.14 215.07 160.05 247.55 141.97 237.67 201.06 205.19 219.14 215.07"/><polygon class="cls-6" points="159.98 247.55 159.91 263.4 141.83 253.53 141.97 237.67 159.98 247.55"/><polygon class="cls-7" points="211.28 275.5 211.28 291.36 270.21 258.88 270.21 243.09 211.28 275.5"/><path class="cls-2" d="M149.47,160.82l-59,32.48-.07,15.86L209,274l59-32.48.07-15.85"/><ellipse class="cls-3" cx="179.25" cy="209.51" rx="13.7" ry="24.99" transform="translate(-30.71 388.23) rotate(-89.85)"/><path class="cls-4" d="M242.07,218.27c-7.42,4.1-7.42,10.71.07,14.81l-19.69,10.85c-7.5-4.1-19.55-4.1-27,0l-79-43.19c7.42-4.1,7.42-10.71-.07-14.81L136,175.08c7.5,4.1,19.55,4.1,27,0Zm-80.4.9c9.77,5.36,25.65,5.36,35.35,0s9.7-14-.15-19.4-25.65-5.36-35.35,0-9.7,14,.15,19.4"/><path class="cls-3" d="M149.47,160.82l118.61,64.82-59,32.48L90.46,193.3Zm73,83.11,19.69-10.85c-7.49-4.1-7.49-10.71-.07-14.81l-79-43.19c-7.43,4.1-19.55,4.1-27,0l-19.69,10.85c7.49,4.1,7.49,10.71.07,14.81l79,43.19c7.5-4.1,19.55-4.1,27,0"/><polygon class="cls-5" points="216.94 197.68 157.85 230.16 139.77 220.28 198.86 187.8 216.94 197.68"/><polygon class="cls-6" points="157.78 230.16 157.7 246.01 139.62 236.14 139.77 220.28 157.78 230.16"/><polygon class="cls-7" points="209.07 258.12 209.07 273.97 268.01 241.5 268.01 225.71 209.07 258.12"/><path class="cls-7" d="M216.35,367.31l.07,15.85,59,32.48,118.62-64.82L394,335l-59-32.48"/><ellipse class="cls-3" cx="305.2" cy="351.1" rx="24.99" ry="13.7" transform="translate(-0.89 0.78) rotate(-0.15)"/><path class="cls-4" d="M321.44,316.68c7.42,4.1,19.55,4.1,27,0l19.7,10.85c-7.5,4.1-7.5,10.71-.08,14.81l-79,43.19c-7.42-4.1-19.55-4.1-27,0l-19.7-10.85c7.5-4.1,7.5-10.71.08-14.81Zm1.39,44.09c9.78-5.36,9.85-14,.15-19.4s-25.57-5.36-35.35,0-9.85,14-.14,19.4,25.57,5.35,35.34,0"/><path class="cls-3" d="M394.05,334.9,275.43,399.72l-59-32.48L335,302.42ZM262,385.53c7.5-4.1,19.55-4.1,27,0l79-43.19c-7.42-4.1-7.42-10.71.07-14.81l-19.69-10.85c-7.5,4.1-19.55,4.1-27.05,0l-79,43.19c7.42,4.1,7.42,10.71-.07,14.81L262,385.53"/><polygon class="cls-5" points="267.57 339.28 326.58 371.76 344.66 361.88 285.65 329.4 267.57 339.28"/><polygon class="cls-8" points="326.65 371.76 326.73 387.62 344.81 377.74 344.73 361.88 326.65 371.76"/><polygon class="cls-2" points="275.43 399.79 275.43 415.57 216.49 383.09 216.49 367.31 275.43 399.79"/><path class="cls-7" d="M219,348.74l.08,15.85,59,32.48,118.61-64.82-.07-15.85-59-32.48"/><ellipse class="cls-3" cx="307.84" cy="332.53" rx="24.99" ry="13.7" transform="translate(-0.85 0.79) rotate(-0.15)"/><path class="cls-4" d="M324,298.11c7.42,4.1,19.55,4.1,27,0L370.75,309c-7.5,4.1-7.5,10.71-.07,14.81l-79,43.19c-7.42-4.1-19.54-4.1-27,0l-19.7-10.85c7.5-4.1,7.5-10.71.08-14.81Zm1.4,44.09c9.77-5.36,9.84-14.05.14-19.4s-25.57-5.36-35.35,0-9.84,14-.14,19.4,25.57,5.36,35.35,0"/><path class="cls-3" d="M396.69,316.33,278.08,381.15l-59-32.48,118.61-64.82ZM264.56,367c7.49-4.1,19.54-4.1,27,0l79-43.19c-7.42-4.1-7.42-10.71.08-14.81L351,298.11c-7.5,4.1-19.55,4.1-27,0l-79,43.19c7.43,4.1,7.43,10.71-.07,14.81L264.56,367"/><polygon class="cls-5" points="270.14 320.71 329.23 353.19 347.31 343.31 288.22 310.83 270.14 320.71"/><polygon class="cls-8" points="329.23 353.19 329.3 369.05 347.38 359.17 347.31 343.31 329.23 353.19"/><polygon class="cls-2" points="278 381.15 278 397 219.07 364.52 219.07 348.74 278 381.15"/><path class="cls-7" d="M216.35,330.45l.07,15.85,59,32.48L394.05,314,394,298.11l-59-32.48"/><ellipse class="cls-3" cx="305.2" cy="314.24" rx="24.99" ry="13.7" transform="translate(-0.8 0.78) rotate(-0.15)"/><path class="cls-4" d="M321.44,279.82c7.42,4.1,19.55,4.1,27,0l19.7,10.85c-7.5,4.1-7.5,10.71-.08,14.81l-79,43.19c-7.42-4.11-19.55-4.11-27,0l-19.7-10.85c7.5-4.1,7.5-10.71.08-14.82Zm1.39,44.09c9.78-5.36,9.85-14.05.15-19.4s-25.57-5.36-35.35,0-9.85,14-.14,19.4,25.57,5.35,35.34,0"/><path class="cls-3" d="M394.05,298,275.43,362.86l-59-32.48L335,265.56ZM262,348.67c7.5-4.11,19.55-4.11,27,0l79-43.19c-7.42-4.1-7.42-10.71.07-14.81l-19.69-10.85c-7.5,4.1-19.55,4.1-27.05,0l-79,43.18c7.42,4.11,7.42,10.72-.07,14.82L262,348.67"/><polygon class="cls-5" points="267.57 302.42 326.58 334.9 344.66 325.02 285.65 292.54 267.57 302.42"/><polygon class="cls-8" points="326.65 334.9 326.73 350.75 344.81 340.88 344.73 325.02 326.65 334.9"/><polygon class="cls-2" points="275.43 362.93 275.43 378.71 216.49 346.23 216.49 330.45 275.43 362.93"/><path class="cls-7" d="M210.61,319.6l.08,15.85,59,32.48,118.61-64.82-.07-15.85-59-32.48"/><ellipse class="cls-3" cx="299.47" cy="303.39" rx="24.99" ry="13.7" transform="translate(-0.77 0.76) rotate(-0.15)"/><path class="cls-4" d="M315.63,269c7.42,4.1,19.55,4.1,27.05,0l19.69,10.85c-7.49,4.1-7.49,10.71-.07,14.81l-79,43.19c-7.43-4.11-19.55-4.11-27.05,0L236.56,327c7.49-4.1,7.49-10.71.07-14.81Zm1.4,44.09c9.77-5.36,9.85-14.05.14-19.4s-25.57-5.36-35.34,0-9.85,14-.15,19.4,25.57,5.35,35.35,0"/><path class="cls-3" d="M388.31,287.26,269.63,352.08l-59-32.48,118.62-64.82ZM256.18,337.82c7.49-4.1,19.55-4.1,27,0l79-43.19c-7.42-4.1-7.42-10.71.08-14.81L342.6,269c-7.49,4.1-19.55,4.1-27,0l-79,43.19c7.42,4.1,7.42,10.71-.08,14.81l19.7,10.85"/><polygon class="cls-5" points="261.76 291.57 320.85 324.05 338.93 314.17 279.84 281.69 261.76 291.57"/><polygon class="cls-8" points="320.85 324.12 321 339.9 339 330.03 338.93 314.24 320.85 324.12"/><polygon class="cls-2" points="269.63 352.08 269.63 367.86 210.69 335.45 210.69 319.6 269.63 352.08"/><path class="cls-7" d="M213.19,301l.07,15.85,59,32.48,118.62-64.82-.08-15.85-59-32.48"/><ellipse class="cls-3" cx="302.04" cy="284.82" rx="24.99" ry="13.7" transform="translate(-0.72 0.77) rotate(-0.15)"/><path class="cls-4" d="M318.2,250.47c7.43,4.1,19.55,4.1,27.05,0l19.69,10.85c-7.49,4.1-7.49,10.71-.07,14.81l-79,43.19c-7.42-4.1-19.55-4.1-27.05,0l-19.69-10.85c7.49-4.1,7.49-10.71.07-14.81Zm1.47,44.09c9.78-5.36,9.85-14.05.15-19.4s-25.57-5.36-35.35,0-9.85,14-.15,19.4,25.51,5.36,35.35,0"/><path class="cls-3" d="M390.89,268.69,272.27,333.51l-59-32.48,118.61-64.82ZM258.82,319.25c7.5-4.1,19.55-4.1,27.05,0l79-43.19c-7.42-4.1-7.42-10.71.07-14.81L345.25,250.4c-7.5,4.1-19.55,4.1-27.05,0l-79,43.19c7.42,4.1,7.42,10.71-.07,14.81l19.69,10.85"/><polygon class="cls-5" points="264.41 273 323.42 305.48 341.5 295.6 282.41 263.12 264.41 273"/><polygon class="cls-8" points="323.5 305.55 323.57 321.34 341.65 311.46 341.57 295.67 323.5 305.55"/><polygon class="cls-2" points="272.2 333.51 272.2 349.29 213.26 316.81 213.26 301.03 272.2 333.51"/><path class="cls-7" d="M210.61,282.74l.08,15.85,59,32.48,118.61-64.82-.07-15.85-59-32.48"/><ellipse class="cls-3" cx="299.47" cy="266.53" rx="24.99" ry="13.7" transform="translate(-0.68 0.76) rotate(-0.15)"/><path class="cls-4" d="M315.63,232.18c7.42,4.1,19.55,4.1,27.05,0L362.37,243c-7.49,4.11-7.49,10.72-.07,14.82L283.3,301c-7.43-4.11-19.55-4.11-27.05,0l-19.69-10.85c7.49-4.1,7.49-10.71.07-14.82Zm1.4,44.09c9.77-5.36,9.85-14,.14-19.41s-25.57-5.35-35.34,0-9.85,14.05-.15,19.41,25.57,5.35,35.35,0"/><path class="cls-3" d="M388.31,250.4,269.63,315.22l-59-32.48,118.62-64.82ZM256.18,301c7.49-4.11,19.55-4.11,27,0l79-43.19c-7.42-4.1-7.42-10.71.08-14.81l-19.7-10.85c-7.49,4.1-19.55,4.1-27,0l-79,43.19c7.42,4.1,7.42,10.71-.08,14.81L256.18,301"/><polygon class="cls-5" points="261.76 254.71 320.85 287.19 338.93 277.31 279.84 244.83 261.76 254.71"/><polygon class="cls-8" points="320.85 287.26 321 303.05 339 293.17 338.93 277.38 320.85 287.26"/><polygon class="cls-2" points="269.63 315.22 269.63 331 210.69 298.59 210.69 282.74 269.63 315.22"/><path class="cls-7" d="M208.41,264.31l.07,15.85,59,32.48,118.61-64.82L386,232l-59-32.48"/><ellipse class="cls-3" cx="297.26" cy="248.17" rx="24.99" ry="13.7" transform="translate(-0.63 0.76) rotate(-0.15)"/><path class="cls-4" d="M313.5,213.75c7.42,4.1,19.55,4.1,27,0l19.7,10.84c-7.5,4.11-7.5,10.72-.07,14.82l-79,43.19c-7.42-4.11-19.54-4.11-27,0l-19.69-10.85c7.49-4.11,7.49-10.71.07-14.82Zm1.4,44.09c9.77-5.36,9.84-14,.14-19.41s-25.57-5.35-35.34,0-9.85,14-.15,19.41,25.57,5.35,35.35,0"/><path class="cls-3" d="M386.11,232,267.5,296.79l-59-32.48L327.1,199.49ZM254.05,282.6c7.49-4.11,19.55-4.11,27,0l79-43.19c-7.42-4.1-7.42-10.71.08-14.82l-19.7-10.84c-7.49,4.1-19.55,4.1-27,0l-79,43.18c7.42,4.11,7.42,10.71-.08,14.82l19.7,10.85"/><polygon class="cls-5" points="259.63 236.35 318.64 268.83 336.72 258.95 277.71 226.47 259.63 236.35"/><polygon class="cls-8" points="318.72 268.83 318.79 284.68 336.87 274.81 336.8 258.95 318.72 268.83"/><polygon class="cls-2" points="267.5 296.79 267.5 312.64 208.56 280.16 208.56 264.31 267.5 296.79"/><path class="cls-7" d="M211.06,245.74l.07,15.85,59,32.48,118.61-64.82-.07-15.85-59-32.48"/><ellipse class="cls-3" cx="299.91" cy="229.6" rx="24.99" ry="13.7" transform="translate(-0.58 0.76) rotate(-0.15)"/><path class="cls-4" d="M316.07,195.18c7.42,4.1,19.55,4.1,27.05,0L362.81,206c-7.49,4.1-7.49,10.71-.07,14.81l-79,43.19c-7.43-4.1-19.55-4.1-27.05,0L237,253.18c7.49-4.1,7.49-10.71.07-14.81Zm1.4,44.09c9.77-5.36,9.85-14.05.15-19.4s-25.58-5.36-35.35,0-9.85,14-.15,19.4,25.57,5.35,35.35,0"/><path class="cls-3" d="M388.75,213.4,270.14,278.22l-59.08-32.48,118.61-64.82ZM256.62,264c7.5-4.1,19.55-4.1,27,0l79-43.19c-7.43-4.1-7.43-10.71.07-14.81L343,195.11c-7.49,4.1-19.55,4.1-27,0L237,238.3c7.42,4.1,7.42,10.71-.08,14.81L256.62,264"/><polygon class="cls-5" points="262.2 217.78 321.29 250.26 339.37 240.38 280.28 207.9 262.2 217.78"/><polygon class="cls-8" points="321.29 250.26 321.44 266.12 339.44 256.24 339.37 240.38 321.29 250.26"/><polygon class="cls-2" points="270.07 278.22 270.07 294.07 211.13 261.59 211.13 245.74 270.07 278.22"/><path class="cls-7" d="M208.41,227.45l.07,15.85,59,32.48L386.11,211,386,195.11l-59-32.48"/><ellipse class="cls-3" cx="297.26" cy="211.31" rx="24.99" ry="13.7" transform="translate(-0.54 0.76) rotate(-0.15)"/><path class="cls-4" d="M313.5,176.88c7.42,4.11,19.55,4.11,27,0l19.7,10.85c-7.5,4.11-7.5,10.71-.07,14.82l-79,43.19c-7.42-4.11-19.54-4.11-27,0l-19.69-10.85c7.49-4.11,7.49-10.71.07-14.82Zm1.4,44.1c9.77-5.36,9.84-14,.14-19.41s-25.57-5.35-35.34,0-9.85,14.05-.15,19.41,25.57,5.35,35.35,0"/><path class="cls-3" d="M386.11,195.11,267.5,259.93l-59-32.48L327.1,162.63ZM254.05,245.74c7.49-4.11,19.55-4.11,27,0l79-43.19c-7.42-4.11-7.42-10.71.08-14.82l-19.7-10.85c-7.49,4.11-19.55,4.11-27,0l-79,43.19c7.42,4.11,7.42,10.71-.08,14.82l19.7,10.85"/><polygon class="cls-5" points="259.63 199.49 318.64 231.97 336.72 222.09 277.71 189.61 259.63 199.49"/><polygon class="cls-8" points="318.72 231.97 318.79 247.82 336.87 237.95 336.8 222.09 318.72 231.97"/><polygon class="cls-2" points="267.5 259.93 267.5 275.78 208.56 243.3 208.56 227.45 267.5 259.93"/></g></svg>