<svg id="Capa_1" data-name="Capa 1" xmlns="http://www.w3.org/2000/svg" viewBox="0 0 397.18 513.11"><defs><style>.cls-1{fill:#b5bd86;}.cls-2{fill:#406325;}.cls-3{fill:#7dab4e;}.cls-4{fill:#a7bd56;}.cls-5{fill:#dac89d;}.cls-6{fill:#877c61;}.cls-7{fill:#598d2e;}.cls-8{fill:#baa97e;}.cls-9{isolation:isolate;}.cls-10{fill:#ffd025;}.cls-11{fill:#fcca0d;}.cls-12{fill:#d99a32;}.cls-13{fill:#def2ec;}.cls-14{fill:#b3b3b3;}.cls-15{fill:#b7b689;}.cls-16{fill:#d69f76;}.cls-17{fill:#967257;}</style></defs><title>poca plata4</title><g id="OBJECTS"><polygon class="cls-1" points="204.97 259.54 140.31 308.06 59.66 351.47 187.21 431.75 207.63 434.15 256.69 463.04 277.7 463.68 397.18 389.3 204.97 259.54"/><path class="cls-2" d="M147.71,292.26,88.3,329.53l-.08,18.19L207.63,422.1,267,384.83l.08-18.19"/><ellipse class="cls-3" cx="177.74" cy="348.11" rx="15.72" ry="25.15" transform="translate(-170.96 524.69) rotate(-89.81)"/><path class="cls-4" d="M241,358.18c-7.47,4.71-7.47,12.29.08,17l-19.83,12.44c-7.55-4.7-19.68-4.7-27.23,0l-79.53-49.55c7.47-4.71,7.47-12.29-.08-17l19.83-12.45c7.55,4.71,19.68,4.71,27.23,0Zm-81,1c9.84,6.14,25.82,6.14,35.58,0s9.77-16.12-.14-22.27-25.82-6.14-35.59,0-9.69,16.12.15,22.27"/><path class="cls-3" d="M147.71,292.26l119.41,74.38L207.71,403.9,88.3,329.53Zm73.54,95.36,19.83-12.44c-7.55-4.71-7.55-12.29-.08-17l-79.53-49.56c-7.47,4.71-19.68,4.71-27.23,0l-19.83,12.45c7.55,4.71,7.55,12.29.08,17L194,387.62c7.55-4.7,19.68-4.7,27.23,0"/><polygon class="cls-5" points="215.63 334.56 156.22 371.82 138.01 360.49 197.42 323.22 215.63 334.56"/><polygon class="cls-6" points="156.14 371.82 156.07 390.02 137.87 378.69 137.94 360.49 156.14 371.82"/><polygon class="cls-7" points="207.71 403.9 207.71 422.1 267.12 384.83 267.12 366.72 207.71 403.9"/><path class="cls-2" d="M146.23,272.31,86.82,309.58l-.08,18.19,119.41,74.38,59.41-37.27.08-18.19"/><ellipse class="cls-3" cx="176.26" cy="328.16" rx="15.72" ry="25.15" transform="translate(-152.48 503.33) rotate(-89.81)"/><path class="cls-4" d="M239.52,338.23c-7.47,4.71-7.47,12.29.08,17l-19.83,12.45c-7.55-4.7-19.68-4.7-27.23,0L113,318.12c7.47-4.71,7.47-12.29-.08-17l19.83-12.45c7.55,4.71,19.68,4.71,27.23,0Zm-81,1c9.84,6.15,25.82,6.15,35.58,0s9.77-16.12-.14-22.26-25.82-6.15-35.59,0-9.69,16.12.15,22.26"/><path class="cls-3" d="M146.23,272.31l119.41,74.38L206.23,384,86.82,309.58Zm73.54,95.36,19.83-12.45c-7.55-4.7-7.55-12.28-.08-17L160,288.67c-7.47,4.71-19.68,4.71-27.23,0l-19.83,12.45c7.55,4.71,7.55,12.29.08,17l79.53,49.55c7.55-4.7,19.68-4.7,27.23,0"/><polygon class="cls-5" points="214.15 314.61 154.74 351.87 136.53 340.54 195.94 303.27 214.15 314.61"/><polygon class="cls-6" points="154.66 351.87 154.59 370.07 136.39 358.74 136.46 340.54 154.66 351.87"/><polygon class="cls-7" points="206.23 383.95 206.23 402.15 265.64 364.88 265.64 346.77 206.23 383.95"/><path class="cls-2" d="M146.23,251.56,86.82,288.83,86.74,307,206.15,381.4l59.41-37.27.08-18.19"/><ellipse class="cls-3" cx="176.26" cy="307.41" rx="15.72" ry="25.15" transform="translate(-131.73 482.65) rotate(-89.81)"/><path class="cls-4" d="M239.52,317.48c-7.47,4.71-7.47,12.29.08,17l-19.83,12.45c-7.55-4.71-19.68-4.71-27.23,0L113,297.37c7.47-4.71,7.47-12.29-.08-17l19.83-12.45c7.55,4.71,19.68,4.71,27.23,0Zm-81,1c9.84,6.14,25.82,6.14,35.58,0s9.77-16.12-.14-22.27-25.82-6.14-35.59,0-9.69,16.12.15,22.27"/><path class="cls-3" d="M146.23,251.56l119.41,74.38-59.41,37.27L86.82,288.83Zm73.54,95.37,19.83-12.45c-7.55-4.71-7.55-12.29-.08-17L160,267.92c-7.47,4.71-19.68,4.71-27.23,0l-19.83,12.45c7.55,4.71,7.55,12.29.08,17l79.53,49.56c7.55-4.71,19.68-4.71,27.23,0"/><polygon class="cls-5" points="214.15 293.86 154.74 331.13 136.53 319.79 195.94 282.52 214.15 293.86"/><polygon class="cls-6" points="154.66 331.13 154.59 349.32 136.39 337.99 136.46 319.79 154.66 331.13"/><polygon class="cls-7" points="206.23 363.2 206.23 381.4 265.64 344.13 265.64 326.02 206.23 363.2"/><path class="cls-2" d="M151.41,230,92,267.28l-.08,18.2,119.41,74.37,59.41-37.26.08-18.2"/><ellipse class="cls-3" cx="181.44" cy="285.86" rx="15.72" ry="25.15" transform="translate(-105.03 466.35) rotate(-89.81)"/><path class="cls-4" d="M244.7,295.93c-7.47,4.71-7.47,12.29.07,17L225,325.38c-7.55-4.71-19.68-4.71-27.23,0l-79.53-49.56c7.47-4.71,7.47-12.29-.08-17l19.83-12.45c7.55,4.71,19.68,4.71,27.23,0Zm-81,1c9.84,6.14,25.82,6.14,35.58,0s9.77-16.12-.14-22.27-25.82-6.14-35.59,0-9.69,16.12.15,22.27"/><path class="cls-3" d="M151.41,230l119.41,74.37-59.41,37.27L92,267.28ZM225,325.38l19.82-12.45c-7.54-4.71-7.54-12.29-.07-17l-79.53-49.56c-7.48,4.71-19.68,4.71-27.23,0l-19.83,12.45c7.55,4.71,7.55,12.29.08,17l79.53,49.56c7.55-4.71,19.68-4.71,27.23,0"/><polygon class="cls-5" points="219.32 272.31 159.91 309.58 141.71 298.25 201.12 260.98 219.32 272.31"/><polygon class="cls-6" points="159.84 309.58 159.77 327.77 141.57 316.44 141.64 298.25 159.84 309.58"/><polygon class="cls-7" points="211.41 341.66 211.41 359.85 270.82 322.59 270.82 304.47 211.41 341.66"/><path class="cls-2" d="M149.19,210.06,89.78,247.33l-.08,18.2L209.11,339.9l59.41-37.26.08-18.2"/><ellipse class="cls-3" cx="179.22" cy="265.91" rx="15.72" ry="25.15" transform="translate(-87.29 444.25) rotate(-89.81)"/><path class="cls-4" d="M242.48,276c-7.47,4.71-7.47,12.29.07,17l-19.82,12.45c-7.55-4.71-19.68-4.71-27.23,0L116,255.87c7.47-4.71,7.47-12.29-.08-17l19.83-12.45c7.55,4.71,19.68,4.71,27.23,0Zm-81,1c9.84,6.14,25.82,6.14,35.58,0s9.77-16.12-.14-22.27-25.82-6.14-35.59,0-9.69,16.12.15,22.27"/><path class="cls-3" d="M149.19,210.06,268.6,284.44l-59.41,37.27L89.78,247.33Zm73.54,95.37L242.55,293c-7.54-4.71-7.54-12.29-.07-17L163,226.42c-7.48,4.71-19.68,4.71-27.23,0l-19.83,12.45c7.55,4.71,7.55,12.29.08,17l79.53,49.56c7.55-4.71,19.68-4.71,27.23,0"/><polygon class="cls-5" points="217.1 252.36 157.69 289.63 139.49 278.3 198.9 241.03 217.1 252.36"/><polygon class="cls-6" points="157.62 289.63 157.55 307.82 139.35 296.49 139.42 278.3 157.62 289.63"/><polygon class="cls-7" points="209.19 321.71 209.19 339.9 268.6 302.63 268.6 284.52 209.19 321.71"/><path class="cls-7" d="M215.11,408.05l.07,18.2,59.41,37.27L394,389.14,393.93,371l-59.41-37.27"/><ellipse class="cls-3" cx="304.56" cy="389.46" rx="25.15" ry="15.72" transform="translate(-1.3 1.02) rotate(-0.19)"/><path class="cls-4" d="M320.9,350c7.48,4.71,19.68,4.71,27.23,0L368,362.49c-7.55,4.71-7.55,12.29-.07,17L288.35,429c-7.47-4.71-19.68-4.71-27.22,0L241.3,416.59c7.54-4.71,7.54-12.29.07-17Zm1.41,50.59c9.84-6.14,9.91-16.12.15-22.26s-25.75-6.15-35.59,0-9.91,16.12-.15,22.26,25.75,6.15,35.59,0"/><path class="cls-3" d="M394,371,274.59,445.32l-59.41-37.27,119.41-74.37ZM261.05,429c7.55-4.71,19.68-4.71,27.23,0l79.53-49.55c-7.47-4.71-7.47-12.29.08-17L348.06,350c-7.55,4.71-19.68,4.71-27.23,0L241.3,399.52c7.47,4.7,7.47,12.28-.08,17L261.05,429"/><polygon class="cls-5" points="266.67 375.97 326.08 413.16 344.28 401.83 284.87 364.64 266.67 375.97"/><polygon class="cls-8" points="326.16 413.24 326.23 431.36 344.43 420.02 344.36 401.91 326.16 413.24"/><polygon class="cls-2" points="274.59 445.32 274.59 463.52 215.25 426.25 215.25 408.05 274.59 445.32"/><path class="cls-7" d="M217.77,386.75l.07,18.19,59.41,37.27,119.42-74.38-.08-18.19-59.41-37.27"/><ellipse class="cls-3" cx="307.22" cy="368.15" rx="25.15" ry="15.72" transform="translate(-1.23 1.03) rotate(-0.19)"/><path class="cls-4" d="M323.49,328.73c7.48,4.71,19.68,4.71,27.23,0l19.83,12.45c-7.55,4.71-7.55,12.29-.08,17l-79.53,49.55c-7.47-4.7-19.68-4.7-27.23,0l-19.82-12.44c7.54-4.71,7.54-12.29.07-17Zm1.41,50.6c9.84-6.15,9.91-16.12.15-22.27s-25.75-6.14-35.59,0-9.91,16.12-.15,22.27,25.75,6.14,35.59,0"/><path class="cls-3" d="M396.67,349.64,277.25,424l-59.41-37.26,119.34-74.38Zm-133,58c7.55-4.71,19.68-4.71,27.23,0L370.4,358.1c-7.47-4.71-7.47-12.29.07-17l-19.82-12.45c-7.55,4.71-19.68,4.71-27.23,0l-79.53,49.56c7.47,4.71,7.47,12.29-.08,17l19.83,12.45"/><polygon class="cls-5" points="269.26 354.59 328.75 391.85 346.95 380.52 287.46 343.25 269.26 354.59"/><polygon class="cls-8" points="328.75 391.93 328.82 410.05 347.02 398.72 346.95 380.6 328.75 391.93"/><polygon class="cls-2" points="277.18 424.01 277.18 442.13 217.84 404.94 217.84 386.75 277.18 424.01"/><path class="cls-7" d="M215.11,365.76l.07,18.19,59.41,37.27L394,346.85l-.07-18.2-59.41-37.27"/><ellipse class="cls-3" cx="304.56" cy="347.17" rx="25.15" ry="15.72" transform="translate(-1.16 1.02) rotate(-0.19)"/><path class="cls-4" d="M320.9,307.74c7.48,4.71,19.68,4.71,27.23,0L368,320.19c-7.55,4.71-7.55,12.29-.07,17l-79.54,49.56c-7.47-4.71-19.68-4.71-27.22,0L241.3,374.3c7.54-4.71,7.54-12.29.07-17Zm1.41,50.6c9.84-6.15,9.91-16.12.15-22.27s-25.75-6.14-35.59,0-9.91,16.12-.15,22.27,25.75,6.14,35.59,0"/><path class="cls-3" d="M394,328.65,274.59,403l-59.41-37.27,119.41-74.38Zm-132.95,58c7.55-4.71,19.68-4.71,27.23,0l79.53-49.56c-7.47-4.71-7.47-12.29.08-17l-19.83-12.45c-7.55,4.71-19.68,4.71-27.23,0L241.3,357.22c7.47,4.71,7.47,12.29-.08,17l19.83,12.45"/><polygon class="cls-5" points="266.67 333.68 326.08 370.87 344.28 359.53 284.87 322.35 266.67 333.68"/><polygon class="cls-8" points="326.16 370.95 326.23 389.06 344.43 377.73 344.36 359.61 326.16 370.95"/><polygon class="cls-2" points="274.59 403.03 274.59 421.22 215.25 383.95 215.25 365.76 274.59 403.03"/><path class="cls-1" d="M106.79,398.8c-14.94-8.06-39.21-8.06-54.08,0s-14.8,21.06.15,29.12,39.14,8.06,54.08,0S121.81,406.78,106.79,398.8Z"/><path class="cls-1" d="M63.81,375.89c-14.36-8.06-37.44-8.06-51.64,0S-2,397,12.31,405s37.44,8.06,51.65,0S78.16,384,63.81,375.89ZM9.72,387.94h0a3.84,3.84,0,0,0,.15-.55C9.8,387.54,9.8,387.78,9.72,387.94Z"/><g class="cls-9"><path class="cls-10" d="M23.26,377.73c-3.77,2.39-6.14,5.27-7.1,8.38v-7.18c1-3,3.26-6,7.1-8.38,10.07-6.31,26.49-6.31,36.63,0,5.1,3.19,7.62,7.26,7.62,11.41v7.18c0-4.15-2.59-8.3-7.62-11.41C49.75,371.35,33.33,371.35,23.26,377.73Z"/><path class="cls-10" d="M16.24,386a10.2,10.2,0,0,0-.45,3v-7.18a10.54,10.54,0,0,1,.45-3V386Z"/><path class="cls-11" d="M67.58,382v7.18c0,4.15-2.51,8.22-7.55,11.33-10.06,6.31-26.48,6.31-36.62,0-5.1-3.19-7.62-7.34-7.62-11.49v-7.18c0,4.15,2.52,8.38,7.62,11.49,10.14,6.3,26.56,6.3,36.62,0C65.07,390.26,67.58,386.19,67.58,382Z"/><path class="cls-10" d="M67.51,389.22h0V382C67.58,384.19,67.51,387.07,67.51,389.22Z"/><path class="cls-11" d="M59.89,370.55c10.13,6.3,10.21,16.52.14,22.9s-26.48,6.3-36.62,0-10.21-16.6-.15-22.9S49.75,364.24,59.89,370.55Z"/><path class="cls-12" d="M23.26,374.54c10.07-6.31,26.49-6.31,36.63,0,4.29,2.63,6.73,6,7.47,9.49,1-4.78-1.55-9.81-7.47-13.48-10.14-6.31-26.56-6.31-36.63,0-5.84,3.67-8.28,8.62-7.32,13.4C16.68,380.52,19.12,377.17,23.26,374.54Z"/><path class="cls-12" d="M74.61,382v7.18c0,5.27-3.18,10.45-9.54,14.44-12.8,8.07-33.67,8.07-46.61,0-6.52-4.06-9.77-9.33-9.77-14.68V381.8c0,5.27,3.25,10.61,9.77,14.68,12.87,8.06,33.81,8.06,46.61,0C71.43,392.57,74.61,387.31,74.61,382Z"/><path class="cls-10" d="M64.92,367.43c12.87,8.06,12.94,21.07.15,29.13s-33.67,8.06-46.61,0-12.95-21.07-.15-29.13S52,359.37,64.92,367.43Zm-41.51,26c10.14,6.3,26.56,6.3,36.62,0s10.07-16.6-.14-22.9-26.56-6.31-36.63,0-10,16.52.15,22.9"/></g><g class="cls-9"><path class="cls-10" d="M23.26,369.59c-3.77,2.39-6.14,5.27-7.1,8.38v-7.18c1-3,3.26-6,7.1-8.38,10.07-6.31,26.49-6.31,36.63,0,5.1,3.19,7.62,7.26,7.62,11.41V381c0-4.15-2.59-8.3-7.62-11.41C49.75,363.29,33.33,363.29,23.26,369.59Z"/><path class="cls-10" d="M16.24,378a10.2,10.2,0,0,0-.45,3v-7.18a10.54,10.54,0,0,1,.45-3V378Z"/><path class="cls-11" d="M67.58,374v7.18c0,4.15-2.51,8.22-7.55,11.33-10.06,6.31-26.48,6.31-36.62,0-5.1-3.19-7.62-7.34-7.62-11.49v-7.18c0,4.15,2.52,8.38,7.62,11.49,10.14,6.3,26.56,6.3,36.62,0C65.07,382.2,67.58,378.05,67.58,374Z"/><path class="cls-10" d="M67.51,381.16h0V374C67.58,376.13,67.51,379,67.51,381.16Z"/><path class="cls-11" d="M59.89,362.49C70,368.79,70.1,379,60,385.39s-26.48,6.3-36.62,0-10.21-16.6-.15-22.9S49.75,356.1,59.89,362.49Z"/><path class="cls-12" d="M23.26,366.48c10.07-6.31,26.49-6.31,36.63,0,4.29,2.63,6.73,6,7.47,9.49,1-4.78-1.55-9.81-7.47-13.48-10.14-6.31-26.56-6.31-36.63,0-5.84,3.67-8.28,8.62-7.32,13.4C16.68,372.38,19.12,369.11,23.26,366.48Z"/><path class="cls-12" d="M74.61,374v7.18c0,5.27-3.18,10.45-9.54,14.44-12.8,8.06-33.67,8.06-46.61,0-6.52-4.06-9.77-9.33-9.77-14.68v-7.18c0,5.27,3.25,10.61,9.77,14.68,12.87,8.06,33.81,8.06,46.61,0C71.43,384.43,74.61,379.25,74.61,374Z"/><path class="cls-10" d="M64.92,359.29c12.87,8.06,12.94,21.07.15,29.13s-33.67,8.06-46.61,0-12.95-21.07-.15-29.13S52,351.31,64.92,359.29Zm-41.51,26c10.14,6.3,26.56,6.3,36.62,0s10.07-16.6-.14-22.9-26.56-6.31-36.63,0-10,16.6.15,22.9"/></g><g class="cls-9"><path class="cls-10" d="M21.78,361.53c-3.77,2.39-6.14,5.27-7.1,8.38v-7.18c1-3,3.26-6,7.1-8.38,10.07-6.31,26.49-6.31,36.63,0,5.1,3.19,7.62,7.26,7.62,11.41v7.18c0-4.15-2.59-8.3-7.62-11.41C48.27,355.22,31.85,355.22,21.78,361.53Z"/><path class="cls-10" d="M14.76,369.91a10.2,10.2,0,0,0-.45,3v-7.18a10.54,10.54,0,0,1,.45-3v7.18Z"/><path class="cls-11" d="M66.1,365.92v7.18c0,4.15-2.51,8.22-7.55,11.33-10.06,6.31-26.48,6.31-36.62,0-5.1-3.19-7.62-7.34-7.62-11.49v-7.18c0,4.15,2.52,8.38,7.62,11.49,10.14,6.3,26.56,6.3,36.62,0C63.59,374.14,66.1,370,66.1,365.92Z"/><path class="cls-10" d="M66,373h0v-7.18C66.1,368,66,370.87,66,373Z"/><path class="cls-11" d="M58.41,354.35c10.13,6.3,10.21,16.52.14,22.9s-26.48,6.3-36.62,0-10.21-16.6-.15-22.9S48.27,348,58.41,354.35Z"/><path class="cls-12" d="M21.78,358.34c10.07-6.31,26.49-6.31,36.63,0,4.29,2.63,6.73,6,7.47,9.49,1-4.78-1.55-9.81-7.47-13.48-10.14-6.31-26.56-6.31-36.63,0-5.84,3.67-8.28,8.62-7.32,13.4C15.2,364.32,17.64,361,21.78,358.34Z"/><path class="cls-12" d="M73.13,365.92v7.18c0,5.27-3.18,10.45-9.54,14.44-12.8,8.06-33.67,8.06-46.61,0-6.52-4.07-9.77-9.33-9.77-14.68v-7.18c0,5.27,3.25,10.61,9.77,14.68,12.87,8.06,33.81,8.06,46.61,0C70,376.37,73.13,371.11,73.13,365.92Z"/><path class="cls-10" d="M63.44,351.23c12.87,8.06,13,21.07.15,29.13s-33.67,8.06-46.61,0S4,359.29,16.83,351.23,50.49,343.17,63.44,351.23Zm-41.51,26c10.14,6.3,26.56,6.3,36.62,0s10.07-16.6-.14-22.9-26.56-6.31-36.63,0-10,16.6.15,22.9"/></g><g class="cls-9"><path class="cls-10" d="M69.5,401.11c-3.77,2.4-6.14,5.27-7.1,8.38v-7.18c1-3,3.26-6,7.1-8.38,10.07-6.31,26.49-6.31,36.63,0,5.1,3.19,7.62,7.26,7.62,11.41v7.18c0-4.15-2.59-8.3-7.62-11.41C96,394.81,79.57,394.81,69.5,401.11Z"/><path class="cls-10" d="M62.48,409.49a10.24,10.24,0,0,0-.45,3v-7.18a10.59,10.59,0,0,1,.45-3v7.18Z"/><path class="cls-11" d="M113.82,405.5v7.18c0,4.15-2.51,8.22-7.54,11.33-10.07,6.31-26.49,6.31-36.63,0-5.1-3.19-7.62-7.34-7.62-11.49v-7.18c0,4.15,2.52,8.38,7.62,11.49,10.14,6.31,26.56,6.31,36.63,0C111.31,413.72,113.75,409.57,113.82,405.5Z"/><path class="cls-11" d="M106.13,393.93c10.13,6.3,10.21,16.52.15,22.9s-26.49,6.31-36.63,0-10.21-16.6-.15-22.9S96,387.62,106.13,393.93Z"/><path class="cls-12" d="M69.5,397.92c10.07-6.31,26.49-6.31,36.63,0,4.29,2.63,6.73,6,7.47,9.5,1-4.79-1.55-9.82-7.47-13.49-10.14-6.31-26.56-6.31-36.63,0-5.84,3.67-8.28,8.62-7.32,13.41C62.92,403.9,65.29,400.63,69.5,397.92Z"/><path class="cls-12" d="M120.85,405.5v7.18c0,5.27-3.18,10.46-9.54,14.45-12.8,8.06-33.67,8.06-46.61,0-6.52-4.07-9.77-9.34-9.77-14.69v-7.18c0,5.27,3.25,10.61,9.77,14.68,12.87,8.06,33.81,8.06,46.61,0C117.67,416,120.85,410.77,120.85,405.5Z"/><path class="cls-10" d="M111.16,390.82c12.87,8.06,13,21.06.15,29.12s-33.67,8.06-46.61,0-13-21.06-.15-29.12S98.21,382.84,111.16,390.82Zm-41.51,26c10.14,6.31,26.56,6.31,36.63,0s10.06-16.6-.15-22.9-26.56-6.31-36.63,0-10,16.6.15,22.9"/></g><g class="cls-9"><path class="cls-10" d="M69.5,393.05c-3.77,2.4-6.14,5.27-7.1,8.38v-7.18c1-3,3.26-6,7.1-8.38,10.07-6.31,26.49-6.31,36.63,0,5.1,3.19,7.62,7.26,7.62,11.41v7.18c0-4.15-2.59-8.3-7.62-11.41C96,386.75,79.57,386.75,69.5,393.05Z"/><path class="cls-10" d="M62.48,401.35a10.24,10.24,0,0,0-.45,3V397.2a10.59,10.59,0,0,1,.45-3v7.18Z"/><path class="cls-11" d="M113.82,397.36v7.18c0,4.15-2.51,8.22-7.54,11.33-10.07,6.31-26.49,6.31-36.63,0-5.1-3.19-7.62-7.34-7.62-11.49V397.2c0,4.15,2.52,8.38,7.62,11.49,10.14,6.31,26.56,6.31,36.63,0C111.31,405.58,113.75,401.51,113.82,397.36Z"/><path class="cls-11" d="M106.13,385.87c10.13,6.3,10.21,16.52.15,22.9s-26.49,6.31-36.63,0-10.21-16.6-.15-22.9S96,379.56,106.13,385.87Z"/><path class="cls-12" d="M69.5,389.86c10.07-6.31,26.49-6.31,36.63,0,4.29,2.63,6.73,6,7.47,9.5,1-4.79-1.55-9.82-7.47-13.49-10.14-6.31-26.56-6.31-36.63,0-5.84,3.67-8.28,8.62-7.32,13.41C62.92,395.84,65.29,392.49,69.5,389.86Z"/><path class="cls-12" d="M120.85,397.44v7.18c0,5.27-3.18,10.46-9.54,14.45-12.8,8.06-33.67,8.06-46.61,0-6.52-4.07-9.77-9.34-9.77-14.69V397.2c0,5.27,3.25,10.61,9.77,14.68,12.87,8.06,33.81,8.06,46.61,0C117.67,407.89,120.85,402.63,120.85,397.44Z"/><path class="cls-10" d="M111.16,382.76c12.87,8.06,13,21.06.15,29.12s-33.67,8.06-46.61,0-13-21.06-.15-29.12S98.21,374.7,111.16,382.76Zm-41.51,26c10.14,6.31,26.56,6.31,36.63,0s10.06-16.6-.15-22.9-26.56-6.31-36.63,0-10,16.6.15,22.9"/></g><g class="cls-9"><path class="cls-10" d="M68,384.91c-3.77,2.4-6.14,5.27-7.1,8.38v-7.18c1-3,3.26-6,7.1-8.38,10.07-6.31,26.49-6.31,36.63,0,5.1,3.19,7.62,7.26,7.62,11.41v7.18c0-4.15-2.59-8.3-7.62-11.41C94.51,378.61,78.09,378.61,68,384.91Z"/><path class="cls-10" d="M61,393.29a10.24,10.24,0,0,0-.45,3v-7.18a10.59,10.59,0,0,1,.45-3v7.18Z"/><path class="cls-11" d="M112.34,389.3v7.18c0,4.15-2.51,8.22-7.54,11.33-10.07,6.31-26.49,6.31-36.63,0-5.1-3.19-7.62-7.34-7.62-11.49v-7.18c0,4.15,2.52,8.38,7.62,11.49,10.14,6.31,26.56,6.31,36.63,0C109.83,397.52,112.27,393.45,112.34,389.3Z"/><path class="cls-11" d="M104.65,377.81c10.13,6.3,10.21,16.52.15,22.9s-26.49,6.31-36.63,0S58,384.11,68,377.81,94.51,371.5,104.65,377.81Z"/><path class="cls-12" d="M68,381.8c10.07-6.31,26.49-6.31,36.63,0,4.29,2.63,6.73,6,7.47,9.5,1-4.79-1.55-9.82-7.47-13.49-10.14-6.31-26.56-6.31-36.63,0-5.84,3.67-8.28,8.62-7.32,13.41C61.44,387.7,63.81,384.43,68,381.8Z"/><path class="cls-12" d="M119.37,389.3v7.18c0,5.27-3.18,10.46-9.54,14.45C97,419,76.16,419,63.22,410.93c-6.51-4.07-9.77-9.34-9.77-14.69v-7.18c0,5.27,3.26,10.61,9.77,14.68,12.87,8.06,33.81,8.06,46.61,0C116.19,399.83,119.37,394.57,119.37,389.3Z"/><path class="cls-10" d="M109.68,374.7c12.87,8.06,12.95,21.06.15,29.12s-33.67,8.06-46.61,0-12.95-21.06-.15-29.12S96.73,366.64,109.68,374.7Zm-41.51,26c10.14,6.31,26.56,6.31,36.63,0s10.06-16.6-.15-22.9-26.56-6.31-36.63,0-10,16.52.15,22.9"/></g><g class="cls-9"><path class="cls-10" d="M71,376.85c-3.77,2.4-6.14,5.27-7.1,8.38v-7.18c1-3,3.26-6,7.1-8.38,10.07-6.31,26.49-6.31,36.63,0,5.1,3.19,7.62,7.26,7.62,11.41v7.18c0-4.15-2.59-8.3-7.62-11.41C97.47,370.55,81.05,370.55,71,376.85Z"/><path class="cls-10" d="M64,385.23a10.24,10.24,0,0,0-.45,3v-7.18a10.59,10.59,0,0,1,.45-3v7.18Z"/><path class="cls-11" d="M115.3,381.24v7.18c0,4.15-2.51,8.22-7.55,11.33-10.06,6.31-26.48,6.31-36.62,0-5.1-3.19-7.62-7.34-7.62-11.49v-7.18c0,4.15,2.52,8.38,7.62,11.49,10.14,6.31,26.56,6.31,36.62,0C112.79,389.46,115.23,385.31,115.3,381.24Z"/><path class="cls-11" d="M107.61,369.67c10.13,6.3,10.21,16.52.14,22.9s-26.48,6.31-36.62,0S60.92,376,71,369.67,97.47,363.36,107.61,369.67Z"/><path class="cls-12" d="M71,373.66c10.07-6.31,26.49-6.31,36.63,0,4.29,2.63,6.73,6,7.47,9.5,1-4.79-1.55-9.82-7.47-13.49-10.14-6.31-26.56-6.31-36.63,0-5.84,3.67-8.28,8.62-7.32,13.41C64.4,379.64,66.77,376.29,71,373.66Z"/><path class="cls-12" d="M122.33,381.24v7.18c0,5.27-3.18,10.46-9.54,14.45-12.8,8.06-33.67,8.06-46.61,0-6.52-4.07-9.77-9.34-9.77-14.69V381c0,5.27,3.25,10.61,9.77,14.68,12.87,8.06,33.81,8.06,46.61,0C119.15,391.69,122.33,386.51,122.33,381.24Z"/><path class="cls-10" d="M112.64,366.56c12.87,8.06,13,21.06.15,29.12s-33.67,8.06-46.61,0-13-21.06-.15-29.12S99.69,358.58,112.64,366.56Zm-41.51,26c10.14,6.31,26.56,6.31,36.62,0s10.07-16.6-.14-22.9-26.56-6.31-36.63,0-10,16.6.15,22.9"/></g><g class="cls-9"><path class="cls-10" d="M68,368.79c-3.77,2.4-6.14,5.27-7.1,8.38V370c1-3,3.26-6,7.1-8.38,10.07-6.31,26.49-6.31,36.63,0,5.1,3.19,7.62,7.26,7.62,11.41v7.18c0-4.15-2.59-8.3-7.62-11.41C94.51,362.49,78.09,362.49,68,368.79Z"/><path class="cls-10" d="M61,377.09a10.24,10.24,0,0,0-.45,3v-7.18a10.59,10.59,0,0,1,.45-3v7.18Z"/><path class="cls-11" d="M112.34,373.1v7.18c0,4.15-2.51,8.22-7.54,11.33-10.07,6.31-26.49,6.31-36.63,0-5.1-3.19-7.62-7.34-7.62-11.49v-7.18c0,4.15,2.52,8.38,7.62,11.49,10.14,6.31,26.56,6.31,36.63,0C109.83,381.32,112.27,377.25,112.34,373.1Z"/><path class="cls-11" d="M104.65,361.61c10.13,6.3,10.21,16.52.15,22.9s-26.49,6.31-36.63,0S58,367.91,68,361.61,94.51,355.3,104.65,361.61Z"/><path class="cls-12" d="M68,365.6c10.07-6.31,26.49-6.31,36.63,0,4.29,2.63,6.73,6,7.47,9.5,1-4.79-1.55-9.82-7.47-13.49-10.14-6.31-26.56-6.31-36.63,0-5.84,3.67-8.28,8.62-7.32,13.41C61.44,371.58,63.81,368.23,68,365.6Z"/><path class="cls-12" d="M119.37,373.18v7.18c0,5.27-3.18,10.46-9.54,14.45-12.8,8.06-33.67,8.06-46.61,0-6.51-4.07-9.77-9.34-9.77-14.69v-7.18c0,5.27,3.26,10.61,9.77,14.68,12.87,8.06,33.81,8.06,46.61,0C116.19,383.63,119.37,378.37,119.37,373.18Z"/><path class="cls-10" d="M109.68,358.5c12.87,8.06,12.95,21.06.15,29.12s-33.67,8.06-46.61,0-12.95-21.06-.15-29.12S96.73,350.44,109.68,358.5Zm-41.51,26c10.14,6.31,26.56,6.31,36.63,0s10.06-16.6-.15-22.9-26.56-6.31-36.63,0-10,16.6.15,22.9"/></g><g class="cls-9"><path class="cls-10" d="M69.5,360.65c-3.77,2.4-6.14,5.27-7.1,8.38v-7.18c1-3,3.26-6,7.1-8.38,10.07-6.31,26.49-6.31,36.63,0,5.1,3.19,7.62,7.26,7.62,11.41v7.18c0-4.15-2.59-8.3-7.62-11.41C96,354.35,79.57,354.35,69.5,360.65Z"/><path class="cls-10" d="M62.48,369a10.24,10.24,0,0,0-.45,3v-7.18a10.59,10.59,0,0,1,.45-3V369Z"/><path class="cls-11" d="M113.82,365v7.18c0,4.15-2.51,8.22-7.54,11.33-10.07,6.31-26.49,6.31-36.63,0-5.1-3.19-7.62-7.34-7.62-11.49v-7.18c0,4.15,2.52,8.38,7.62,11.49,10.14,6.31,26.56,6.31,36.63,0C111.31,373.26,113.75,369.19,113.82,365Z"/><path class="cls-11" d="M106.13,353.55c10.13,6.3,10.21,16.52.15,22.9s-26.49,6.31-36.63,0-10.21-16.6-.15-22.9S96,347.24,106.13,353.55Z"/><path class="cls-12" d="M69.5,357.54c10.07-6.31,26.49-6.31,36.63,0,4.29,2.63,6.73,6,7.47,9.5,1-4.79-1.55-9.82-7.47-13.49-10.14-6.31-26.56-6.31-36.63,0-5.84,3.67-8.28,8.62-7.32,13.41C62.92,363.44,65.29,360.17,69.5,357.54Z"/><path class="cls-12" d="M120.85,365v7.18c0,5.27-3.18,10.46-9.54,14.45-12.8,8.06-33.67,8.06-46.61,0-6.52-4.07-9.77-9.34-9.77-14.69V364.8c0,5.27,3.25,10.61,9.77,14.68,12.87,8.06,33.81,8.06,46.61,0C117.67,375.49,120.85,370.31,120.85,365Z"/><path class="cls-10" d="M111.16,350.44c12.87,8.06,13,21.06.15,29.12s-33.67,8.06-46.61,0-13-21.06-.15-29.12S98.21,342.38,111.16,350.44ZM69.65,376.37c10.14,6.31,26.56,6.31,36.63,0s10.06-16.6-.15-22.9-26.56-6.31-36.63,0-10,16.6.15,22.9"/></g><g class="cls-9"><path class="cls-10" d="M71,353.39c-3.77,2.39-6.14,5.27-7.1,8.38v-7.18c1-3,3.26-6,7.1-8.38,10.07-6.31,26.49-6.31,36.63,0,5.1,3.19,7.62,7.26,7.62,11.41v7.18c0-4.15-2.59-8.3-7.62-11.41C97.47,347.09,81.05,347.09,71,353.39Z"/><path class="cls-10" d="M64,361.77a10.2,10.2,0,0,0-.45,3v-7.18a10.54,10.54,0,0,1,.45-3v7.18Z"/><path class="cls-11" d="M115.3,357.78V365c0,4.15-2.51,8.22-7.55,11.33-10.06,6.31-26.48,6.31-36.62,0C66,373.1,63.51,369,63.51,364.8v-7.18c0,4.15,2.52,8.38,7.62,11.49,10.14,6.31,26.56,6.31,36.62,0C112.79,366,115.23,361.85,115.3,357.78Z"/><path class="cls-11" d="M107.61,346.21c10.13,6.3,10.21,16.52.14,22.9s-26.48,6.31-36.62,0-10.21-16.6-.15-22.9S97.47,339.9,107.61,346.21Z"/><path class="cls-12" d="M71,350.2c10.07-6.31,26.49-6.31,36.63,0,4.29,2.63,6.73,6,7.47,9.49,1-4.78-1.55-9.81-7.47-13.48-10.14-6.31-26.56-6.31-36.63,0-5.84,3.67-8.28,8.62-7.32,13.4C64.4,356.18,66.77,352.83,71,350.2Z"/><path class="cls-12" d="M122.33,357.78V365c0,5.27-3.18,10.45-9.54,14.45-12.8,8.06-33.67,8.06-46.61,0-6.52-4.07-9.77-9.34-9.77-14.69v-7.18c0,5.27,3.25,10.61,9.77,14.68,12.87,8.06,33.81,8.06,46.61,0C119.15,368.23,122.33,363.05,122.33,357.78Z"/><path class="cls-10" d="M112.64,343.1c12.87,8.06,13,21.06.15,29.12s-33.67,8.06-46.61,0-13-21.06-.15-29.12S99.69,335,112.64,343.1Zm-41.51,26c10.14,6.3,26.56,6.3,36.62,0s10.07-16.6-.14-22.9-26.56-6.31-36.63,0-10,16.6.15,22.9"/></g><path class="cls-1" d="M155.47,432.15c-14.35-8.06-37.43-8.06-51.64,0s-14.13,21.07.15,29.13,37.44,8.06,51.64,0S169.83,440.13,155.47,432.15Zm-54.08,12h0a3.22,3.22,0,0,0,.15-.55A3.22,3.22,0,0,1,101.39,444.12Z"/><path class="cls-1" d="M137.13,488.81c-9.92-5.58-25.9-5.58-35.74,0s-9.76,14.61.15,20.11,25.89,5.59,35.73,0S147,494.4,137.13,488.81Zm-37.37,8.3h0c0-.16.08-.24.08-.4A.87.87,0,0,0,99.76,497.11Z"/><g class="cls-9"><path class="cls-10" d="M114.86,434.31c-3.78,2.39-6.14,5.27-7.11,8.38v-7.18c1-3,3.26-6,7.11-8.38,10.06-6.31,26.48-6.31,36.62,0,5.1,3.19,7.62,7.26,7.62,11.41v7.18c0-4.15-2.59-8.3-7.62-11.41C141.34,428,124.92,428,114.86,434.31Z"/><path class="cls-10" d="M107.75,442.69a10.52,10.52,0,0,0-.44,3v-7.18a10.89,10.89,0,0,1,.44-3v6.78C107.75,442.37,107.83,442.53,107.75,442.69Z"/><path class="cls-11" d="M159.1,438.7v7.18c0,4.15-2.52,8.22-7.55,11.33-10.06,6.31-26.48,6.31-36.62,0-5.1-3.19-7.62-7.34-7.62-11.49v-7.18c0,4.15,2.52,8.38,7.62,11.49,10.14,6.3,26.56,6.3,36.62,0C156.58,446.92,159.1,442.77,159.1,438.7Z"/><path class="cls-11" d="M151.48,427.13c10.14,6.3,10.21,16.52.15,22.9s-26.49,6.3-36.62,0-10.21-16.6-.15-22.9S141.34,420.82,151.48,427.13Z"/><path class="cls-12" d="M114.86,431.12c10.06-6.31,26.48-6.31,36.62,0,4.29,2.63,6.73,6,7.47,9.49,1-4.78-1.55-9.81-7.47-13.48-10.14-6.31-26.56-6.31-36.62,0-5.85,3.67-8.29,8.62-7.33,13.4C108.2,437.1,110.64,433.75,114.86,431.12Z"/><path class="cls-12" d="M166.2,438.7v7.18c0,5.27-3.18,10.45-9.54,14.44-12.8,8.06-33.66,8.06-46.61,0-6.51-4.07-9.77-9.33-9.77-14.68v-7.18c0,5.27,3.26,10.61,9.77,14.68,12.87,8.06,33.81,8.06,46.61,0C163,449.15,166.2,444,166.2,438.7Z"/><path class="cls-10" d="M156.51,424c12.87,8.06,13,21.07.15,29.13s-33.66,8.06-46.61,0-13-21.07-.15-29.13S143.56,416,156.51,424ZM115,450c10.13,6.3,26.56,6.3,36.62,0s10.06-16.6-.15-22.9-26.56-6.31-36.62,0-10,16.6.15,22.9"/></g><g class="cls-9"><path class="cls-10" d="M114.86,426.25c-3.78,2.39-6.14,5.27-7.11,8.38v-7.18c1-3,3.26-6,7.11-8.38,10.06-6.31,26.48-6.31,36.62,0,5.1,3.19,7.62,7.26,7.62,11.41v7.18c0-4.15-2.59-8.3-7.62-11.41C141.34,419.94,124.92,419.94,114.86,426.25Z"/><path class="cls-10" d="M107.75,434.55a10.52,10.52,0,0,0-.44,3V430.4a10.89,10.89,0,0,1,.44-3v6.78C107.75,434.31,107.83,434.47,107.75,434.55Z"/><path class="cls-11" d="M159.1,430.56v7.18c0,4.15-2.52,8.22-7.55,11.33-10.06,6.31-26.48,6.31-36.62,0-5.1-3.19-7.62-7.34-7.62-11.49V430.4c0,4.15,2.52,8.38,7.62,11.49,10.14,6.3,26.56,6.3,36.62,0C156.58,438.78,159.1,434.71,159.1,430.56Z"/><path class="cls-11" d="M151.48,419.07c10.14,6.3,10.21,16.52.15,22.9s-26.49,6.3-36.62,0-10.21-16.6-.15-22.9S141.34,412.76,151.48,419.07Z"/><path class="cls-12" d="M114.86,423.06c10.06-6.31,26.48-6.31,36.62,0,4.29,2.63,6.73,6,7.47,9.49,1-4.78-1.55-9.81-7.47-13.48-10.14-6.31-26.56-6.31-36.62,0-5.85,3.67-8.29,8.62-7.33,13.4C108.2,429,110.64,425.69,114.86,423.06Z"/><path class="cls-12" d="M166.2,430.64v7.18c0,5.27-3.18,10.45-9.54,14.44-12.8,8.06-33.66,8.06-46.61,0-6.51-4.07-9.77-9.33-9.77-14.68V430.4c0,5.27,3.26,10.61,9.77,14.68,12.87,8.06,33.81,8.06,46.61,0C163,441.09,166.2,435.83,166.2,430.64Z"/><path class="cls-10" d="M156.51,416c12.87,8.06,13,21.07.15,29.13s-33.66,8.06-46.61,0S97.1,424,109.9,416,143.56,407.89,156.51,416ZM115,442c10.13,6.3,26.56,6.3,36.62,0s10.06-16.6-.15-22.9-26.56-6.31-36.62,0-10,16.6.15,22.9"/></g><g class="cls-9"><path class="cls-10" d="M113.38,418.11c-3.78,2.39-6.14,5.27-7.1,8.38v-7.18c1-3,3.25-6,7.1-8.38,10.06-6.31,26.48-6.31,36.62,0,5.11,3.19,7.62,7.26,7.62,11.41v7.18c0-4.15-2.59-8.3-7.62-11.41C139.86,411.8,123.44,411.8,113.38,418.11Z"/><path class="cls-10" d="M106.28,426.49a10.2,10.2,0,0,0-.45,3v-7.18a10.54,10.54,0,0,1,.45-3v6.78A.76.76,0,0,1,106.28,426.49Z"/><path class="cls-11" d="M157.62,422.5v7.18c0,4.15-2.51,8.22-7.55,11.33-10.06,6.31-26.48,6.31-36.62,0-5.1-3.19-7.62-7.34-7.62-11.49v-7.18c0,4.15,2.52,8.38,7.62,11.49,10.14,6.3,26.56,6.3,36.62,0C155.11,430.72,157.62,426.65,157.62,422.5Z"/><path class="cls-11" d="M150,411c10.14,6.3,10.21,16.52.15,22.9s-26.49,6.3-36.62,0-10.21-16.6-.15-22.9S139.86,404.7,150,411Z"/><path class="cls-12" d="M113.38,415c10.06-6.31,26.48-6.31,36.62,0,4.29,2.63,6.73,6,7.47,9.49,1-4.78-1.55-9.81-7.47-13.48-10.14-6.31-26.56-6.31-36.62,0-5.85,3.67-8.29,8.62-7.33,13.4C106.72,420.9,109.16,417.63,113.38,415Z"/><path class="cls-12" d="M164.72,422.5v7.18c0,5.27-3.18,10.45-9.54,14.44-12.8,8.06-33.66,8.06-46.61,0-6.51-4.07-9.77-9.33-9.77-14.68v-7.18c0,5.27,3.26,10.61,9.77,14.68,12.87,8.06,33.81,8.06,46.61,0C161.54,433,164.72,427.77,164.72,422.5Z"/><path class="cls-10" d="M155,407.89C167.9,416,168,429,155.18,437s-33.66,8.06-46.61,0-12.95-21.07-.15-29.13S142.08,399.83,155,407.89Zm-41.5,25.94c10.13,6.3,26.56,6.3,36.62,0s10.06-16.6-.15-22.9-26.56-6.31-36.62,0-10,16.6.15,22.9"/></g><g class="cls-9"><path class="cls-10" d="M116.34,410.05c-3.78,2.39-6.14,5.27-7.11,8.38v-7.18c1-3,3.26-6,7.11-8.38,10.06-6.31,26.48-6.31,36.62,0,5.1,3.19,7.62,7.26,7.62,11.41v7.18c0-4.15-2.59-8.3-7.62-11.41C142.82,403.74,126.4,403.74,116.34,410.05Z"/><path class="cls-10" d="M109.23,418.43a10.52,10.52,0,0,0-.44,3v-7.18a10.89,10.89,0,0,1,.44-3V418C109.23,418.11,109.31,418.27,109.23,418.43Z"/><path class="cls-11" d="M160.58,414.44v7.18c0,4.15-2.52,8.22-7.55,11.33-10.06,6.31-26.48,6.31-36.62,0-5.1-3.19-7.62-7.34-7.62-11.49v-7.18c0,4.15,2.52,8.38,7.62,11.49,10.14,6.3,26.56,6.3,36.62,0C158.06,422.66,160.58,418.51,160.58,414.44Z"/><path class="cls-11" d="M153,402.87c10.14,6.3,10.21,16.52.15,22.9s-26.49,6.3-36.63,0-10.2-16.6-.14-22.9S142.82,396.56,153,402.87Z"/><path class="cls-12" d="M116.34,406.86c10.06-6.31,26.48-6.31,36.62,0,4.29,2.63,6.73,6,7.47,9.49,1-4.78-1.55-9.81-7.47-13.48-10.14-6.31-26.56-6.31-36.62,0-5.85,3.67-8.29,8.62-7.33,13.4C109.68,412.84,112.12,409.49,116.34,406.86Z"/><path class="cls-12" d="M167.68,414.44v7.18c0,5.27-3.18,10.45-9.54,14.44-12.8,8.06-33.66,8.06-46.61,0-6.51-4.07-9.77-9.33-9.77-14.68V414.2c0,5.27,3.26,10.61,9.77,14.68,12.87,8.06,33.81,8.06,46.61,0C164.5,424.89,167.68,419.71,167.68,414.44Z"/><path class="cls-10" d="M158,399.75c12.87,8.06,12.95,21.07.15,29.13s-33.66,8.06-46.61,0-13-21.07-.15-29.13S145,391.69,158,399.75Zm-41.51,26c10.14,6.3,26.57,6.3,36.63,0s10.06-16.6-.15-22.9-26.56-6.31-36.62,0-10,16.6.14,22.9"/></g><path class="cls-1" d="M89.55,451.07c-14.27-8.06-37.43-8.06-51.64,0s-14.13,21.07.15,29.13,37.44,8.06,51.64,0S103.91,459.05,89.55,451.07Z"/><g class="cls-9"><path class="cls-10" d="M48.94,454.1c-3.78,2.39-6.14,5.27-7.11,8.38V455.3c1-3,3.26-6,7.11-8.38,10.06-6.31,26.48-6.31,36.62,0,5.1,3.19,7.62,7.26,7.62,11.41v7.18c0-4.15-2.59-8.3-7.62-11.41C75.42,447.72,59,447.72,48.94,454.1Z"/><path class="cls-10" d="M41.91,462.4a10.2,10.2,0,0,0-.45,3v-7.18a10.54,10.54,0,0,1,.45-3v7.18Z"/><path class="cls-11" d="M93.25,458.41v7.18c0,4.15-2.51,8.22-7.54,11.33-10.06,6.31-26.49,6.31-36.63,0-5.1-3.19-7.62-7.34-7.62-11.49v-7.18c0,4.15,2.52,8.38,7.62,11.49,10.14,6.31,26.57,6.31,36.63,0C90.74,466.63,93.18,462.56,93.25,458.41Z"/><path class="cls-11" d="M85.56,446.92c10.14,6.3,10.21,16.52.15,22.9s-26.49,6.31-36.63,0-10.21-16.6-.14-22.9S75.42,440.61,85.56,446.92Z"/><path class="cls-12" d="M48.94,450.91c10.06-6.31,26.48-6.31,36.62,0,4.29,2.63,6.73,6,7.47,9.49,1-4.78-1.55-9.81-7.47-13.48-10.14-6.31-26.56-6.31-36.62,0-5.85,3.67-8.29,8.62-7.33,13.4C42.35,456.89,44.72,453.54,48.94,450.91Z"/><path class="cls-12" d="M100.28,458.49v7.18c0,5.27-3.18,10.46-9.54,14.45-12.8,8.06-33.66,8.06-46.61,0-6.51-4.07-9.77-9.34-9.77-14.69v-7.18c0,5.27,3.26,10.61,9.77,14.68C57,481,77.94,481,90.74,472.93,97.1,468.94,100.28,463.68,100.28,458.49Z"/><path class="cls-10" d="M90.59,443.81c12.87,8.06,13,21.06.15,29.12s-33.66,8.06-46.61,0-13-21.06-.15-29.12S77.64,435.75,90.59,443.81Zm-41.51,26c10.14,6.31,26.57,6.31,36.63,0s10.06-16.6-.15-22.9-26.56-6.31-36.62,0-10,16.52.14,22.9"/></g><g class="cls-9"><path class="cls-10" d="M46.72,444.2c-3.78,2.4-6.14,5.27-7.11,8.38V445.4c1-3,3.26-6,7.11-8.38,10.06-6.3,26.48-6.3,36.62,0,5.1,3.19,7.62,7.26,7.62,11.41v7.19c0-4.15-2.59-8.3-7.62-11.42C73.2,437.9,56.78,437.9,46.72,444.2Z"/><path class="cls-10" d="M39.69,452.58a10.26,10.26,0,0,0-.45,3v-7.19a10.65,10.65,0,0,1,.45-3v7.18Z"/><path class="cls-11" d="M91,448.59v7.19c0,4.15-2.51,8.22-7.54,11.33-10.06,6.3-26.49,6.3-36.62,0-5.11-3.19-7.63-7.34-7.63-11.49v-7.19c0,4.15,2.52,8.38,7.63,11.5,10.13,6.3,26.56,6.3,36.62,0C88.52,456.81,91,452.66,91,448.59Z"/><path class="cls-11" d="M83.34,437.1c10.14,6.31,10.21,16.52.15,22.91s-26.49,6.3-36.62,0-10.21-16.6-.15-22.91S73.2,430.72,83.34,437.1Z"/><path class="cls-12" d="M46.72,441.09c10.06-6.3,26.48-6.3,36.62,0,4.29,2.64,6.73,6,7.47,9.5,1-4.79-1.55-9.82-7.47-13.49-10.14-6.3-26.56-6.3-36.62,0-5.85,3.67-8.29,8.62-7.33,13.41C40.13,447,42.5,443.73,46.72,441.09Z"/><path class="cls-12" d="M98.06,448.59v7.19c0,5.26-3.18,10.45-9.54,14.44-12.8,8.06-33.66,8.06-46.61,0-6.51-4.07-9.77-9.34-9.77-14.68v-7.19c0,5.27,3.26,10.62,9.77,14.69,12.87,8.06,33.81,8.06,46.61,0C94.88,459.05,98.06,453.86,98.06,448.59Z"/><path class="cls-10" d="M88.37,433.91C101.24,442,101.32,455,88.52,463s-33.66,8.06-46.61,0S29,442,41.76,433.91,75.42,425.93,88.37,433.91Zm-41.5,26c10.13,6.3,26.56,6.3,36.62,0s10.06-16.6-.15-22.91-26.56-6.3-36.62,0-10,16.6.15,22.91"/></g><g class="cls-9"><path class="cls-13" d="M110.12,491.53a10.61,10.61,0,0,0-4.73,5.58v-4.78c.59-2.08,2.22-4,4.73-5.59,6.73-4.23,17.61-4.23,24.42,0,3.4,2.07,5.1,4.87,5.1,7.58v4.79c0-2.79-1.7-5.51-5.1-7.58C127.73,487.3,116.78,487.3,110.12,491.53Z"/><path class="cls-13" d="M105.39,497a6.31,6.31,0,0,0-.3,2v-4.79a6.2,6.2,0,0,1,.3-2V497Z"/><path class="cls-13" d="M139.57,494.4v4.79c0,2.71-1.7,5.5-5,7.58-6.74,4.23-17.61,4.23-24.34,0-3.41-2.16-5.11-4.87-5.11-7.66v-4.79c0,2.79,1.7,5.59,5.11,7.66,6.73,4.23,17.68,4.23,24.34,0C137.87,499.91,139.57,497.11,139.57,494.4Z"/><path class="cls-13" d="M134.46,486.74c6.74,4.23,6.81,11,.08,15.24s-17.61,4.23-24.34,0-6.81-11-.08-15.24S127.73,482.51,134.46,486.74Z"/><path class="cls-14" d="M110.12,489.37c6.73-4.23,17.61-4.23,24.42,0,2.81,1.76,4.51,4,5,6.31.67-3.19-1-6.55-5-8.94-6.74-4.23-17.69-4.23-24.42,0-3.84,2.39-5.47,5.75-4.88,8.94C105.68,493.36,107.31,491.13,110.12,489.37Z"/><path class="cls-14" d="M144.3,494.4v4.79c0,3.51-2.14,6.94-6.36,9.65-8.51,5.35-22.42,5.35-31,0-4.29-2.71-6.51-6.22-6.51-9.73v-4.79c0,3.51,2.15,7.1,6.51,9.74,8.58,5.34,22.49,5.34,31,0C142.16,501.34,144.3,497.91,144.3,494.4Z"/><path class="cls-13" d="M137.79,484.66c8.58,5.35,8.66,14,.08,19.4s-22.42,5.34-31,0-8.66-14.05-.08-19.4S129.21,479.32,137.79,484.66ZM110.2,502c6.73,4.23,17.68,4.23,24.34,0s6.66-11-.08-15.24-17.68-4.23-24.41,0-6.59,11,.15,15.24"/></g><g class="cls-9"><path class="cls-13" d="M110.12,486.1a10.63,10.63,0,0,0-4.73,5.59V486.9c.59-2.08,2.22-4,4.73-5.59,6.73-4.23,17.61-4.23,24.42,0,3.4,2.08,5.1,4.87,5.1,7.58v4.79c0-2.79-1.7-5.5-5.1-7.58C127.73,481.87,116.78,481.87,110.12,486.1Z"/><path class="cls-13" d="M105.39,491.69a6.25,6.25,0,0,0-.3,2v-4.79a6.29,6.29,0,0,1,.3-2v4.79Z"/><path class="cls-13" d="M139.57,489.05v4.79c0,2.71-1.7,5.51-5,7.58-6.74,4.23-17.61,4.23-24.34,0-3.41-2.15-5.11-4.87-5.11-7.66V489c0,2.8,1.7,5.59,5.11,7.66,6.73,4.23,17.68,4.23,24.34,0C137.87,494.48,139.57,491.77,139.57,489.05Z"/><path class="cls-13" d="M134.46,481.31c6.74,4.23,6.81,11,.08,15.24s-17.61,4.23-24.34,0-6.81-11-.08-15.24S127.73,477.16,134.46,481.31Z"/><path class="cls-14" d="M110.12,484c6.73-4.23,17.61-4.23,24.42,0,2.81,1.75,4.51,4,5,6.3.67-3.19-1-6.54-5-8.94-6.74-4.23-17.69-4.23-24.42,0-3.84,2.4-5.47,5.75-4.88,8.94C105.68,487.94,107.31,485.78,110.12,484Z"/><path class="cls-14" d="M144.3,489.05v4.79c0,3.51-2.14,6.94-6.36,9.66-8.51,5.34-22.42,5.34-31,0-4.29-2.72-6.51-6.23-6.51-9.74V489c0,3.52,2.15,7.11,6.51,9.74,8.58,5.35,22.49,5.35,31,0C142.16,496,144.3,492.49,144.3,489.05Z"/><path class="cls-13" d="M137.79,479.24c8.58,5.34,8.66,14,.08,19.39s-22.42,5.35-31,0-8.66-14.05-.08-19.39S129.21,473.89,137.79,479.24ZM110.2,496.55c6.73,4.23,17.68,4.23,24.34,0s6.66-11-.08-15.24-17.68-4.23-24.41,0-6.59,11.1.15,15.24"/></g><g class="cls-9"><path class="cls-13" d="M109.09,480.75a10.69,10.69,0,0,0-4.74,5.59v-4.79a10.29,10.29,0,0,1,4.74-5.58c6.73-4.23,17.6-4.23,24.41,0,3.4,2.07,5.11,4.86,5.11,7.58v4.79c0-2.8-1.71-5.51-5.11-7.59C126.77,476.52,115.82,476.52,109.09,480.75Z"/><path class="cls-13" d="M104.43,486.26a6,6,0,0,0-.3,2v-4.79a6,6,0,0,1,.3-2v4.79Z"/><path class="cls-13" d="M138.61,483.63v4.79c0,2.71-1.71,5.5-5,7.58-6.74,4.23-17.61,4.23-24.35,0-3.4-2.16-5.1-4.87-5.1-7.66v-4.79c0,2.79,1.7,5.58,5.1,7.66,6.74,4.23,17.69,4.23,24.35,0C136.9,489.13,138.61,486.34,138.61,483.63Z"/><path class="cls-13" d="M133.5,476c6.73,4.23,6.81,11,.08,15.24s-17.61,4.23-24.35,0-6.8-11-.07-15.24S126.77,471.74,133.5,476Z"/><path class="cls-14" d="M109.16,478.6c6.73-4.23,17.61-4.23,24.42,0,2.81,1.76,4.51,4,4.95,6.3.67-3.19-1-6.54-4.95-8.93-6.74-4.23-17.69-4.23-24.42,0-3.85,2.39-5.47,5.74-4.88,8.93C104.72,482.59,106.35,480.36,109.16,478.6Z"/><path class="cls-14" d="M143.27,483.63v4.79c0,3.51-2.15,6.94-6.37,9.65-8.5,5.35-22.41,5.35-31,0-4.3-2.71-6.52-6.22-6.52-9.73v-4.79c0,3.51,2.15,7.1,6.52,9.73,8.58,5.35,22.49,5.35,31,0C141.2,490.65,143.27,487.14,143.27,483.63Z"/><path class="cls-13" d="M136.83,473.89c8.58,5.35,8.66,14.05.07,19.39s-22.41,5.35-31,0-8.66-14-.08-19.39S128.25,468.54,136.83,473.89Zm-27.6,17.32c6.74,4.23,17.69,4.23,24.35,0s6.65-11-.08-15.24-17.68-4.23-24.41,0-6.66,11,.14,15.24"/></g><g class="cls-9"><path class="cls-13" d="M111.08,475.33a10.61,10.61,0,0,0-4.73,5.58v-4.78c.59-2.08,2.22-4,4.73-5.59,6.74-4.23,17.61-4.23,24.42,0,3.4,2.07,5.1,4.87,5.1,7.58v4.79c0-2.79-1.7-5.51-5.1-7.58C128.69,471.18,117.82,471.18,111.08,475.33Z"/><path class="cls-13" d="M106.35,480.91a6.31,6.31,0,0,0-.3,2v-4.79a6.2,6.2,0,0,1,.3-2v4.46C106.35,480.67,106.42,480.83,106.35,480.91Z"/><path class="cls-13" d="M140.53,478.28v4.79c0,2.71-1.7,5.5-5,7.58-6.73,4.23-17.61,4.23-24.34,0-3.41-2.16-5.11-4.87-5.11-7.66V478.2c0,2.79,1.7,5.59,5.11,7.66,6.73,4.23,17.68,4.23,24.34,0C138.9,483.71,140.53,481,140.53,478.28Z"/><path class="cls-13" d="M135.5,470.62c6.73,4.23,6.81,11,.07,15.24s-17.61,4.23-24.34,0-6.8-11-.07-15.24S128.69,466.39,135.5,470.62Z"/><path class="cls-14" d="M111.08,473.25c6.74-4.23,17.61-4.23,24.42,0,2.81,1.76,4.51,4,5,6.31.66-3.2-1-6.55-5-8.94-6.73-4.23-17.68-4.23-24.42,0-3.84,2.39-5.47,5.74-4.88,8.94C106.64,477.24,108.27,475,111.08,473.25Z"/><path class="cls-14" d="M145.27,478.28v4.79c0,3.51-2.15,6.94-6.37,9.65-8.51,5.35-22.42,5.35-31,0-4.29-2.71-6.51-6.22-6.51-9.73V478.2c0,3.51,2.15,7.1,6.51,9.74,8.58,5.34,22.49,5.34,31,0C143.12,485.22,145.27,481.71,145.27,478.28Z"/><path class="cls-13" d="M138.75,468.54c8.59,5.35,8.66,14,.08,19.4s-22.42,5.34-31,0-8.66-14.05-.08-19.4S130.17,463.12,138.75,468.54Zm-27.59,17.24c6.73,4.23,17.68,4.23,24.34,0s6.66-11-.07-15.24-17.69-4.23-24.42,0-6.58,11.09.15,15.24"/></g><g class="cls-9"><path class="cls-13" d="M109.09,470a10.65,10.65,0,0,0-4.74,5.59v-4.79c.59-2.08,2.22-4,4.74-5.59,6.73-4.23,17.6-4.23,24.41,0,3.4,2.08,5.11,4.87,5.11,7.58v4.79c0-2.79-1.71-5.5-5.11-7.58C126.77,465.75,115.82,465.75,109.09,470Z"/><path class="cls-13" d="M104.43,475.49a6,6,0,0,0-.3,2v-4.79a6,6,0,0,1,.3-2v4.79Z"/><path class="cls-13" d="M138.61,472.85v4.79c0,2.72-1.71,5.51-5,7.58-6.74,4.23-17.61,4.23-24.35,0-3.4-2.15-5.1-4.86-5.1-7.66v-4.79c0,2.8,1.7,5.59,5.1,7.66,6.74,4.23,17.69,4.23,24.35,0C136.9,478.36,138.61,475.57,138.61,472.85Z"/><path class="cls-13" d="M133.5,465.19c6.73,4.23,6.81,11,.08,15.24s-17.61,4.23-24.35,0-6.8-11-.07-15.24S126.77,461,133.5,465.19Z"/><path class="cls-14" d="M109.16,467.83c6.73-4.23,17.61-4.23,24.42,0,2.81,1.75,4.51,4,4.95,6.3.67-3.19-1-6.54-4.95-8.94-6.74-4.23-17.69-4.23-24.42,0-3.85,2.4-5.47,5.75-4.88,8.94C104.72,471.82,106.35,469.58,109.16,467.83Z"/><path class="cls-14" d="M143.27,472.85v4.79c0,3.51-2.15,6.94-6.37,9.66-8.5,5.34-22.41,5.34-31,0-4.3-2.72-6.52-6.23-6.52-9.74v-4.79c0,3.52,2.15,7.11,6.52,9.74,8.58,5.35,22.49,5.35,31,0C141.2,479.88,143.27,476.36,143.27,472.85Z"/><path class="cls-13" d="M136.83,463.12c8.58,5.34,8.66,14,.07,19.39s-22.41,5.35-31,0-8.66-14.05-.08-19.39S128.25,457.77,136.83,463.12Zm-27.6,17.31c6.74,4.23,17.69,4.23,24.35,0s6.65-11-.08-15.24-17.68-4.23-24.41,0-6.66,11,.14,15.24"/></g><g class="cls-9"><path class="cls-13" d="M110.27,463.84a10.57,10.57,0,0,0-4.73,5.58v-4.79a10.26,10.26,0,0,1,4.73-5.58c6.73-4.23,17.61-4.23,24.42,0,3.4,2.07,5.1,4.87,5.1,7.58v4.79c0-2.8-1.7-5.51-5.1-7.58C127.88,459.69,116.93,459.69,110.27,463.84Z"/><path class="cls-13" d="M105.54,469.42a6,6,0,0,0-.3,2v-4.79a6,6,0,0,1,.3-2v4.79Z"/><path class="cls-13" d="M139.72,466.79v4.79c0,2.71-1.71,5.5-5,7.58-6.74,4.23-17.61,4.23-24.35,0-3.4-2.16-5.1-4.87-5.1-7.66v-4.79c0,2.79,1.7,5.59,5.1,7.66,6.74,4.23,17.69,4.23,24.35,0C138,472.22,139.72,469.5,139.72,466.79Z"/><path class="cls-13" d="M134.61,459.13c6.73,4.23,6.81,11,.08,15.24s-17.61,4.23-24.35,0-6.8-11-.07-15.24S127.88,454.9,134.61,459.13Z"/><path class="cls-14" d="M110.27,461.76c6.73-4.23,17.61-4.23,24.42,0,2.81,1.76,4.51,4,4.95,6.31.67-3.2-1-6.55-4.95-8.94-6.74-4.23-17.69-4.23-24.42,0-3.85,2.39-5.47,5.74-4.88,8.94C105.83,465.75,107.46,463.52,110.27,461.76Z"/><path class="cls-14" d="M144.45,466.79v4.79c0,3.51-2.14,6.94-6.36,9.65-8.51,5.35-22.42,5.35-31,0-4.29-2.71-6.51-6.22-6.51-9.73v-4.79c0,3.51,2.14,7.1,6.51,9.73,8.58,5.35,22.49,5.35,31,0C142.31,473.73,144.45,470.3,144.45,466.79Z"/><path class="cls-13" d="M137.94,457.05c8.58,5.35,8.66,14.05.07,19.39s-22.41,5.35-31,0-8.65-14-.07-19.39S129.36,451.71,137.94,457.05Zm-27.6,17.32c6.74,4.23,17.69,4.23,24.35,0s6.65-11-.08-15.24-17.68-4.23-24.41,0-6.59,11,.14,15.24"/></g><g class="cls-9"><path class="cls-13" d="M108.05,457.93a10.63,10.63,0,0,0-4.73,5.59v-4.79c.59-2.08,2.22-4,4.73-5.59,6.73-4.23,17.61-4.23,24.42,0,3.4,2.08,5.1,4.87,5.1,7.58v4.79c0-2.79-1.7-5.5-5.1-7.58C125.66,453.7,114.71,453.7,108.05,457.93Z"/><path class="cls-13" d="M103.32,463.44a6,6,0,0,0-.3,2v-4.79a6,6,0,0,1,.3-2v4.79Z"/><path class="cls-13" d="M137.5,460.8v4.79c0,2.71-1.71,5.51-5,7.58-6.74,4.23-17.61,4.23-24.35,0-3.4-2.15-5.1-4.87-5.1-7.66v-4.79c0,2.8,1.7,5.59,5.1,7.66,6.74,4.23,17.69,4.23,24.35,0C135.79,466.31,137.5,463.52,137.5,460.8Z"/><path class="cls-13" d="M132.39,453.14c6.73,4.23,6.81,11,.08,15.24s-17.61,4.23-24.35,0-6.8-11-.07-15.24S125.66,448.91,132.39,453.14Z"/><path class="cls-14" d="M108.05,455.78c6.73-4.23,17.61-4.23,24.42,0,2.81,1.75,4.51,4,4.95,6.3.67-3.19-1-6.54-4.95-8.94-6.74-4.23-17.69-4.23-24.42,0-3.85,2.4-5.47,5.75-4.88,8.94C103.61,459.77,105.24,457.53,108.05,455.78Z"/><path class="cls-14" d="M142.23,460.8v4.79c0,3.51-2.14,6.94-6.36,9.66-8.51,5.34-22.42,5.34-31,0-4.29-2.72-6.51-6.23-6.51-9.74v-4.79c0,3.51,2.14,7.11,6.51,9.74,8.58,5.35,22.49,5.35,31,0C140.09,467.75,142.23,464.31,142.23,460.8Z"/><path class="cls-13" d="M135.72,451.07c8.58,5.34,8.66,14,.07,19.39s-22.41,5.35-31,0-8.66-14-.08-19.39S127.14,445.72,135.72,451.07Zm-27.6,17.31c6.74,4.23,17.69,4.23,24.35,0s6.65-11-.08-15.24-17.68-4.23-24.41,0-6.59,11,.14,15.24"/></g><path class="cls-15" d="M204,443.73c-7.62-4.23-19.83-4.23-27.38,0s-7.47,11.17.08,15.4,19.83,4.23,27.37,0S211.63,448,204,443.73ZM175.38,450h0c0-.08.07-.16.07-.32A.68.68,0,0,0,175.38,450Z"/><path class="cls-15" d="M235.38,460.8c-7.62-4.23-19.83-4.23-27.38,0s-7.47,11.18.08,15.41,19.83,4.22,27.37,0S242.92,465,235.38,460.8Zm-28.71,6.31h0c0-.08.08-.16.08-.32C206.75,467,206.67,467,206.67,467.11Z"/><g class="cls-9"><path class="cls-16" d="M183.29,445.72a8.3,8.3,0,0,0-3.62,4.23v-3.67a7.67,7.67,0,0,1,3.62-4.23c5.18-3.19,13.54-3.19,18.72,0,2.59,1.6,3.92,3.75,3.92,5.83v3.67c0-2.08-1.33-4.23-3.92-5.83C196.83,442.53,188.47,442.53,183.29,445.72Z"/><path class="cls-16" d="M179.67,450a5.32,5.32,0,0,0-.22,1.52v-3.67a5.32,5.32,0,0,1,.22-1.52v3.51A.12.12,0,0,1,179.67,450Z"/><path class="cls-16" d="M205.93,448v3.67c0,2.07-1.26,4.23-3.84,5.82-5.18,3.19-13.54,3.19-18.72,0-2.59-1.59-3.92-3.75-3.92-5.9v-3.67c0,2.15,1.33,4.23,3.92,5.9,5.18,3.19,13.54,3.19,18.72,0C204.6,452.18,205.93,450,205.93,448Z"/><path class="cls-16" d="M205.86,451.63h0V448A30.7,30.7,0,0,1,205.86,451.63Z"/><path class="cls-16" d="M202,442.05c5.18,3.19,5.18,8.46.08,11.65s-13.54,3.19-18.72,0-5.18-8.46-.08-11.65S196.83,438.86,202,442.05Z"/><path class="cls-17" d="M183.29,444.12c5.18-3.19,13.54-3.19,18.72,0a7.65,7.65,0,0,1,3.77,4.87c.52-2.47-.81-5-3.77-6.86-5.18-3.19-13.54-3.19-18.72,0-3,1.84-4.21,4.39-3.77,6.86A7.76,7.76,0,0,1,183.29,444.12Z"/><path class="cls-17" d="M209.48,448v3.67c0,2.63-1.62,5.34-4.88,7.34-6.51,4.07-17.16,4.07-23.75,0-3.33-2.08-5-4.79-5-7.5V447.8c0,2.71,1.63,5.42,5,7.5,6.59,4.07,17.24,4.07,23.75,0C207.86,453.3,209.48,450.67,209.48,448Z"/><path class="cls-16" d="M204.53,440.45c6.58,4.07,6.66,10.78.07,14.85s-17.16,4.07-23.75,0-6.66-10.78-.07-14.85S197.94,436.38,204.53,440.45Zm-21.16,13.33c5.18,3.19,13.54,3.19,18.72,0s5.1-8.46-.08-11.65-13.54-3.19-18.72,0-5.1,8.38.08,11.65"/></g><g class="cls-9"><path class="cls-16" d="M184.7,442a8.33,8.33,0,0,0-3.63,4.23v-3.67a7.73,7.73,0,0,1,3.63-4.23c5.18-3.19,13.54-3.19,18.72,0,2.59,1.6,3.92,3.75,3.92,5.82v3.68c0-2.08-1.33-4.23-3.92-5.83C198.24,438.7,189.88,438.7,184.7,442Z"/><path class="cls-16" d="M181.15,446.2a5.32,5.32,0,0,0-.22,1.52v-3.67a5.32,5.32,0,0,1,.22-1.52v3.67Z"/><path class="cls-16" d="M207.34,444.12v3.68c0,2.07-1.26,4.23-3.85,5.82-5.18,3.19-13.54,3.19-18.72,0-2.59-1.59-3.92-3.75-3.92-5.9V444c0,2.16,1.33,4.23,3.92,5.91,5.18,3.19,13.54,3.19,18.72,0C206.08,448.35,207.34,446.28,207.34,444.12Z"/><path class="cls-16" d="M203.42,438.3c5.18,3.19,5.18,8.46.07,11.65s-13.54,3.19-18.72,0-5.18-8.46-.07-11.65S198.24,435,203.42,438.3Z"/><path class="cls-17" d="M184.77,440.29c5.18-3.19,13.54-3.19,18.72,0a7.65,7.65,0,0,1,3.77,4.87c.52-2.47-.81-5-3.77-6.86-5.18-3.19-13.54-3.19-18.72,0-3,1.83-4.21,4.39-3.77,6.86A7.76,7.76,0,0,1,184.77,440.29Z"/><path class="cls-17" d="M211,444.2v3.68c0,2.63-1.62,5.34-4.88,7.34-6.51,4.07-17.16,4.07-23.75,0-3.33-2.08-5-4.79-5-7.5v-3.67c0,2.71,1.63,5.42,5,7.5,6.59,4.07,17.24,4.07,23.75,0C209.34,449.55,211,446.84,211,444.2Z"/><path class="cls-16" d="M206,436.7c6.58,4.07,6.66,10.78.07,14.85s-17.16,4.07-23.75,0-6.66-10.78-.07-14.85C188.69,432.55,199.35,432.55,206,436.7ZM184.77,450c5.18,3.19,13.54,3.19,18.72,0s5.11-8.46-.07-11.65-13.54-3.19-18.72,0-5.11,8.46.07,11.65"/></g><g class="cls-9"><path class="cls-16" d="M182.55,437.5a8.3,8.3,0,0,0-3.62,4.23v-3.67a7.67,7.67,0,0,1,3.62-4.23c5.18-3.19,13.54-3.19,18.72,0,2.59,1.6,3.92,3.75,3.92,5.83v3.67c0-2.08-1.33-4.23-3.92-5.83C196.09,434.23,187.66,434.23,182.55,437.5Z"/><path class="cls-16" d="M178.93,441.73a5.32,5.32,0,0,0-.22,1.52v-3.67a5.32,5.32,0,0,1,.22-1.52v3.67Z"/><path class="cls-16" d="M205.12,439.74v3.67c0,2.07-1.26,4.23-3.85,5.82-5.18,3.19-13.54,3.19-18.72,0-2.59-1.59-3.92-3.75-3.92-5.9v-3.67c0,2.15,1.33,4.23,3.92,5.9,5.18,3.19,13.54,3.19,18.72,0C203.86,443.89,205.12,441.81,205.12,439.74Z"/><path class="cls-16" d="M201.27,433.83c5.18,3.19,5.18,8.46.08,11.65s-13.54,3.19-18.72,0-5.18-8.46-.08-11.65S196.09,430.64,201.27,433.83Z"/><path class="cls-17" d="M182.55,435.91c5.18-3.2,13.54-3.2,18.72,0a7.61,7.61,0,0,1,3.77,4.86c.52-2.47-.81-5-3.77-6.86-5.18-3.19-13.54-3.19-18.72,0-3,1.84-4.21,4.39-3.77,6.86A7.53,7.53,0,0,1,182.55,435.91Z"/><path class="cls-17" d="M208.74,439.74v3.67c0,2.63-1.62,5.34-4.88,7.34-6.51,4.07-17.16,4.07-23.75,0-3.33-2.08-5-4.79-5-7.5v-3.67c0,2.71,1.63,5.42,5,7.5,6.59,4.07,17.24,4.07,23.75,0C207.12,445.08,208.74,442.37,208.74,439.74Z"/><path class="cls-16" d="M203.79,432.23c6.58,4.07,6.66,10.78.07,14.85s-17.16,4.07-23.75,0-6.66-10.78-.07-14.85S197.2,428.16,203.79,432.23Zm-21.16,13.25c5.18,3.19,13.54,3.19,18.72,0s5.1-8.46-.08-11.65-13.54-3.19-18.72,0-5.1,8.46.08,11.65"/></g><g class="cls-9"><path class="cls-16" d="M182.7,433.35a8.25,8.25,0,0,0-3.62,4.23v-3.67a7.67,7.67,0,0,1,3.62-4.23c5.18-3.19,13.54-3.19,18.72,0,2.59,1.6,3.92,3.75,3.92,5.83v3.67c0-2.08-1.33-4.23-3.92-5.83C196.17,430.16,187.81,430.16,182.7,433.35Z"/><path class="cls-16" d="M179.08,437.58a5.34,5.34,0,0,0-.23,1.52v-3.67a5.34,5.34,0,0,1,.23-1.52v3.67Z"/><path class="cls-16" d="M205.27,435.59v3.67c0,2.07-1.26,4.23-3.85,5.82-5.18,3.19-13.54,3.19-18.72,0-2.59-1.59-3.92-3.75-3.92-5.9v-3.67c0,2.15,1.33,4.23,3.92,5.9,5.18,3.19,13.54,3.19,18.72,0C204,439.74,205.27,437.66,205.27,435.59Z"/><path class="cls-16" d="M201.35,429.68c5.17,3.19,5.17,8.46.07,11.65s-13.54,3.19-18.72,0-5.18-8.46-.07-11.65S196.17,426.49,201.35,429.68Z"/><path class="cls-17" d="M182.7,431.76c5.18-3.2,13.54-3.2,18.72,0a7.64,7.64,0,0,1,3.77,4.86c.52-2.47-.81-5-3.77-6.86-5.18-3.19-13.54-3.19-18.72,0-3,1.84-4.22,4.39-3.77,6.86A7.72,7.72,0,0,1,182.7,431.76Z"/><path class="cls-17" d="M208.89,435.59v3.67c0,2.63-1.63,5.34-4.88,7.34-6.51,4.07-17.17,4.07-23.75,0-3.33-2.08-5-4.79-5-7.5v-3.67c0,2.71,1.63,5.42,5,7.5,6.58,4.07,17.24,4.07,23.75,0C207.26,440.93,208.89,438.3,208.89,435.59Z"/><path class="cls-16" d="M203.93,428.08c6.59,4.07,6.66,10.78.08,14.85s-17.17,4.07-23.75,0-6.66-10.78-.07-14.85S197.35,424,203.93,428.08ZM182.7,441.41c5.18,3.19,13.54,3.19,18.72,0s5.1-8.46-.07-11.65-13.54-3.19-18.72,0-5.11,8.38.07,11.65"/></g><g class="cls-9"><path class="cls-16" d="M182.55,429.2a8.34,8.34,0,0,0-3.62,4.23v-3.67a7.67,7.67,0,0,1,3.62-4.23c5.18-3.19,13.54-3.19,18.72,0,2.59,1.6,3.92,3.75,3.92,5.83V435c0-2.08-1.33-4.23-3.92-5.83C196.09,426,187.66,426,182.55,429.2Z"/><path class="cls-16" d="M178.93,433.51a5.32,5.32,0,0,0-.22,1.52v-3.67a5.32,5.32,0,0,1,.22-1.52v3.67Z"/><path class="cls-16" d="M205.12,431.44v3.67c0,2.07-1.26,4.23-3.85,5.82-5.18,3.19-13.54,3.19-18.72,0-2.59-1.59-3.92-3.75-3.92-5.9v-3.67c0,2.15,1.33,4.23,3.92,5.9,5.18,3.19,13.54,3.19,18.72,0C203.86,435.67,205.12,433.51,205.12,431.44Z"/><path class="cls-16" d="M201.27,425.61c5.18,3.19,5.18,8.46.08,11.65s-13.54,3.19-18.72,0-5.18-8.46-.08-11.65S196.09,422.34,201.27,425.61Z"/><path class="cls-17" d="M182.55,427.61c5.18-3.2,13.54-3.2,18.72,0a7.61,7.61,0,0,1,3.77,4.86c.52-2.47-.81-5-3.77-6.86-5.18-3.19-13.54-3.19-18.72,0-3,1.84-4.21,4.39-3.77,6.86A7.72,7.72,0,0,1,182.55,427.61Z"/><path class="cls-17" d="M208.74,431.44v3.67c0,2.63-1.62,5.34-4.88,7.34-6.51,4.07-17.16,4.07-23.75,0-3.33-2.08-5-4.79-5-7.5v-3.67c0,2.71,1.63,5.42,5,7.5,6.59,4.07,17.24,4.07,23.75,0C207.12,436.78,208.74,434.15,208.74,431.44Z"/><path class="cls-16" d="M203.79,424c6.58,4.07,6.66,10.78.07,14.85s-17.16,4.07-23.75,0S173.45,428.08,180,424,197.2,419.86,203.79,424Zm-21.16,13.25c5.18,3.19,13.54,3.19,18.72,0s5.1-8.46-.08-11.65-13.54-3.19-18.72,0-5.1,8.38.08,11.65"/></g><g class="cls-9"><path class="cls-16" d="M183.44,424.57a8.29,8.29,0,0,0-3.62,4.23v-3.67a7.7,7.7,0,0,1,3.62-4.23c5.18-3.19,13.54-3.19,18.72,0,2.59,1.6,3.92,3.75,3.92,5.83v3.67c0-2.08-1.33-4.23-3.92-5.83C196.91,421.3,188.55,421.3,183.44,424.57Z"/><path class="cls-16" d="M179.82,428.8a5.34,5.34,0,0,0-.23,1.52v-3.67a5.34,5.34,0,0,1,.23-1.52v3.67Z"/><path class="cls-16" d="M206,426.81v3.67c0,2.07-1.26,4.23-3.85,5.82-5.18,3.2-13.54,3.2-18.72,0-2.59-1.59-3.92-3.75-3.92-5.9v-3.67c0,2.15,1.33,4.23,3.92,5.9,5.18,3.2,13.54,3.2,18.72,0C204.75,431,206,428.88,206,426.81Z"/><path class="cls-16" d="M202.09,420.9c5.17,3.19,5.17,8.46.07,11.65s-13.54,3.2-18.72,0-5.18-8.46-.07-11.65S196.91,417.71,202.09,420.9Z"/><path class="cls-17" d="M183.44,423c5.18-3.19,13.54-3.19,18.72,0a7.63,7.63,0,0,1,3.77,4.87c.52-2.48-.81-5-3.77-6.87-5.18-3.19-13.54-3.19-18.72,0-3,1.84-4.22,4.39-3.77,6.87A7.52,7.52,0,0,1,183.44,423Z"/><path class="cls-17" d="M209.63,426.81v3.67c0,2.63-1.63,5.35-4.88,7.34-6.51,4.07-17.17,4.07-23.75,0-3.33-2.07-5-4.79-5-7.5v-3.67c0,2.71,1.63,5.42,5,7.5,6.58,4.07,17.24,4.07,23.75,0C208,432.15,209.63,429.44,209.63,426.81Z"/><path class="cls-16" d="M204.67,419.31c6.59,4.07,6.66,10.77.08,14.84s-17.17,4.07-23.75,0-6.66-10.77-.07-14.84S198.09,415.24,204.67,419.31Zm-21.15,13.24c5.17,3.2,13.53,3.2,18.71,0s5.11-8.46-.07-11.65-13.54-3.19-18.72,0-5.1,8.46.08,11.65"/></g><g class="cls-9"><path class="cls-16" d="M185,419.47a8.26,8.26,0,0,0-3.62,4.23V420a7.7,7.7,0,0,1,3.62-4.23c5.18-3.19,13.54-3.19,18.72,0,2.59,1.6,3.92,3.76,3.92,5.83v3.67c0-2.07-1.33-4.23-3.92-5.82C198.46,416.19,190.1,416.19,185,419.47Z"/><path class="cls-16" d="M181.37,423.7a5.21,5.21,0,0,0-.22,1.51v-3.67a5.32,5.32,0,0,1,.22-1.52v3.68Z"/><path class="cls-16" d="M207.56,421.62v3.67c0,2.08-1.26,4.23-3.85,5.83-5.18,3.19-13.54,3.19-18.72,0-2.58-1.6-3.92-3.75-3.92-5.91v-3.67c0,2.16,1.34,4.23,3.92,5.91,5.18,3.19,13.54,3.19,18.72,0C206.3,425.85,207.56,423.78,207.56,421.62Z"/><path class="cls-16" d="M203.64,415.79c5.18,3.2,5.18,8.46.07,11.66s-13.54,3.19-18.72,0-5.17-8.46-.07-11.66S198.46,412.52,203.64,415.79Z"/><path class="cls-17" d="M185,417.79c5.18-3.19,13.54-3.19,18.72,0a7.68,7.68,0,0,1,3.78,4.87c.51-2.48-.82-5-3.78-6.87-5.18-3.19-13.54-3.19-18.72,0-3,1.84-4.21,4.39-3.77,6.87A7.73,7.73,0,0,1,185,417.79Z"/><path class="cls-17" d="M211.19,421.7v3.67c0,2.63-1.63,5.35-4.89,7.34-6.51,4.07-17.16,4.07-23.75,0-3.33-2.07-5-4.79-5-7.5v-3.67c0,2.71,1.62,5.43,5,7.5,6.59,4.07,17.24,4.07,23.75,0C209.56,427.05,211.19,424.33,211.19,421.7Z"/><path class="cls-16" d="M206.23,414.2c6.58,4.07,6.66,10.77.07,14.84s-17.16,4.07-23.75,0-6.66-10.77-.07-14.84S199.64,410.05,206.23,414.2Zm-21.16,13.25c5.18,3.19,13.54,3.19,18.72,0s5.1-8.46-.08-11.66-13.54-3.19-18.72,0-5.1,8.46.08,11.66"/></g><g class="cls-9"><path class="cls-16" d="M182.55,415.32a8.26,8.26,0,0,0-3.62,4.23v-3.68a7.65,7.65,0,0,1,3.62-4.22c5.18-3.2,13.54-3.2,18.72,0,2.59,1.59,3.92,3.75,3.92,5.82v3.67c0-2.07-1.33-4.23-3.92-5.82C196.09,412.12,187.66,412.12,182.55,415.32Z"/><path class="cls-16" d="M178.93,419.55a5.21,5.21,0,0,0-.22,1.51v-3.67a5.32,5.32,0,0,1,.22-1.52v3.68Z"/><path class="cls-16" d="M205.12,417.55v3.67c0,2.08-1.26,4.23-3.85,5.83-5.18,3.19-13.54,3.19-18.72,0-2.59-1.6-3.92-3.75-3.92-5.91v-3.67c0,2.16,1.33,4.23,3.92,5.91,5.18,3.19,13.54,3.19,18.72,0C203.86,421.78,205.12,419.63,205.12,417.55Z"/><path class="cls-16" d="M201.27,411.65c5.18,3.19,5.18,8.45.08,11.65s-13.54,3.19-18.72,0-5.18-8.46-.08-11.65S196.09,408.45,201.27,411.65Z"/><path class="cls-17" d="M182.55,413.72c5.18-3.19,13.54-3.19,18.72,0a7.62,7.62,0,0,1,3.77,4.87c.52-2.48-.81-5-3.77-6.86-5.18-3.2-13.54-3.2-18.72,0-3,1.83-4.21,4.38-3.77,6.86A7.73,7.73,0,0,1,182.55,413.72Z"/><path class="cls-17" d="M208.74,417.55v3.67c0,2.63-1.62,5.35-4.88,7.34-6.51,4.07-17.16,4.07-23.75,0-3.33-2.07-5-4.78-5-7.5v-3.67c0,2.71,1.63,5.43,5,7.5,6.59,4.07,17.24,4.07,23.75,0C207.12,422.9,208.74,420.26,208.74,417.55Z"/><path class="cls-16" d="M203.79,410.05c6.58,4.07,6.66,10.77.07,14.84s-17.16,4.07-23.75,0-6.66-10.77-.07-14.84S197.2,406,203.79,410.05Zm-21.16,13.33c5.18,3.19,13.54,3.19,18.72,0s5.1-8.46-.08-11.65-13.54-3.2-18.72,0-5.1,8.37.08,11.65"/></g><g class="cls-9"><path class="cls-16" d="M183.52,411.17a8.24,8.24,0,0,0-3.63,4.23v-3.67a7.62,7.62,0,0,1,3.63-4.23c5.17-3.2,13.53-3.2,18.71,0,2.59,1.59,3.92,3.75,3.92,5.82V417c0-2.07-1.33-4.23-3.92-5.82C197.05,408,188.69,408,183.52,411.17Z"/><path class="cls-16" d="M180,415.48a5.57,5.57,0,0,0-.22,1.51v-3.67a5.7,5.7,0,0,1,.22-1.52v3.68Z"/><path class="cls-16" d="M206.15,413.4v3.67c0,2.08-1.25,4.23-3.84,5.83-5.18,3.19-13.54,3.19-18.72,0-2.59-1.6-3.92-3.75-3.92-5.91v-3.67c0,2.16,1.33,4.23,3.92,5.91,5.18,3.19,13.54,3.19,18.72,0C204.82,417.63,206.15,415.56,206.15,413.4Z"/><path class="cls-16" d="M202.23,407.58c5.18,3.19,5.18,8.45.08,11.65s-13.54,3.19-18.72,0-5.18-8.46-.07-11.65S197.05,404.3,202.23,407.58Z"/><path class="cls-17" d="M183.52,409.57c5.17-3.19,13.53-3.19,18.71,0a7.68,7.68,0,0,1,3.78,4.87c.51-2.48-.82-5-3.78-6.86-5.18-3.2-13.54-3.2-18.71,0-3,1.83-4.22,4.38-3.78,6.86A8,8,0,0,1,183.52,409.57Z"/><path class="cls-17" d="M209.71,413.4v3.67c0,2.64-1.63,5.35-4.89,7.34-6.51,4.07-17.16,4.07-23.75,0-3.33-2.07-4.95-4.78-4.95-7.5v-3.67c0,2.71,1.62,5.43,4.95,7.5,6.59,4.07,17.24,4.07,23.75,0C208.08,418.75,209.71,416.11,209.71,413.4Z"/><path class="cls-16" d="M204.75,406c6.58,4.07,6.66,10.77.07,14.84s-17.16,4.07-23.75,0S174.42,410.05,181,406,198.16,401.83,204.75,406Zm-21.16,13.25c5.18,3.19,13.54,3.19,18.72,0s5.1-8.46-.08-11.65-13.54-3.2-18.71,0-5.11,8.37.07,11.65"/></g><path class="cls-1" d="M191.14,476.6c-9.92-5.58-25.9-5.58-35.74,0s-9.77,14.61.15,20.11,25.89,5.59,35.73,0S201.05,482.19,191.14,476.6Zm-37.37,8.3h0c0-.16.08-.24.08-.4A.87.87,0,0,0,153.77,484.9Z"/><g class="cls-9"><path class="cls-13" d="M164.87,479a10.61,10.61,0,0,0-4.73,5.58V479.8c.59-2.08,2.22-4,4.73-5.59,6.73-4.23,17.61-4.23,24.42,0,3.4,2.08,5.1,4.87,5.1,7.58v4.79c0-2.79-1.7-5.51-5.1-7.58C182.48,474.85,171.6,474.85,164.87,479Z"/><path class="cls-13" d="M160.21,484.58a6.31,6.31,0,0,0-.3,2v-4.79a6.2,6.2,0,0,1,.3-2v4.78Z"/><path class="cls-13" d="M194.39,482v4.79c0,2.71-1.7,5.51-5,7.58-6.73,4.23-17.61,4.23-24.34,0-3.4-2.15-5.11-4.87-5.11-7.66v-4.79c0,2.79,1.71,5.59,5.11,7.66,6.73,4.23,17.68,4.23,24.34,0C192.69,487.38,194.32,484.66,194.39,482Z"/><path class="cls-13" d="M189.29,474.29c6.73,4.23,6.8,11,.07,15.24s-17.61,4.23-24.34,0-6.81-11-.08-15.24S182.48,470.06,189.29,474.29Z"/><path class="cls-14" d="M164.87,476.92c6.73-4.23,17.61-4.23,24.42,0,2.81,1.76,4.51,4,5,6.31.67-3.19-1-6.55-5-8.94-6.74-4.23-17.69-4.23-24.42,0-3.85,2.39-5.47,5.75-4.88,8.94A10.18,10.18,0,0,1,164.87,476.92Z"/><path class="cls-14" d="M199.05,482v4.79c0,3.51-2.14,6.94-6.36,9.66-8.51,5.34-22.42,5.34-31,0-4.29-2.72-6.51-6.23-6.51-9.74v-4.79c0,3.51,2.14,7.1,6.51,9.74,8.58,5.34,22.49,5.34,31,0C196.91,488.89,199.05,485.46,199.05,482Z"/><path class="cls-13" d="M192.62,472.22c8.58,5.34,8.65,14,.07,19.39s-22.42,5.34-31,0-8.66-14.05-.07-19.39S184,466.87,192.62,472.22Zm-27.68,17.31c6.74,4.23,17.69,4.23,24.35,0s6.65-11-.08-15.24-17.68-4.23-24.41,0-6.59,11,.14,15.24"/></g><g class="cls-9"><path class="cls-13" d="M166.57,472.93a10.63,10.63,0,0,0-4.73,5.59v-4.79a10.31,10.31,0,0,1,4.73-5.58c6.74-4.23,17.61-4.23,24.42,0,3.4,2.07,5.1,4.86,5.1,7.58v4.78c0-2.79-1.7-5.5-5.1-7.58C184.18,468.78,173.23,468.78,166.57,472.93Z"/><path class="cls-13" d="M161.84,478.52a6.29,6.29,0,0,0-.3,2v-4.78a6.31,6.31,0,0,1,.3-2v4.79Z"/><path class="cls-13" d="M196,475.89v4.78c0,2.72-1.7,5.51-5,7.59-6.74,4.23-17.61,4.23-24.34,0-3.41-2.16-5.11-4.87-5.11-7.67v-4.78c0,2.79,1.7,5.58,5.11,7.66,6.73,4.23,17.68,4.23,24.34,0C194.32,481.31,196,478.6,196,475.89Z"/><path class="cls-13" d="M190.91,468.23c6.74,4.22,6.81,11,.08,15.24s-17.61,4.23-24.34,0-6.81-11-.08-15.24S184.18,464,190.91,468.23Z"/><path class="cls-14" d="M166.57,470.86c6.74-4.23,17.61-4.23,24.42,0,2.81,1.75,4.51,4,4.95,6.3.67-3.19-1-6.54-4.95-8.93-6.74-4.23-17.68-4.23-24.42,0-3.84,2.39-5.47,5.74-4.88,8.93C162.13,474.85,163.76,472.61,166.57,470.86Z"/><path class="cls-14" d="M200.75,475.89v4.78c0,3.52-2.14,6.95-6.36,9.66-8.51,5.35-22.42,5.35-31,0-4.29-2.71-6.51-6.22-6.51-9.74v-4.78c0,3.51,2.15,7.1,6.51,9.73,8.58,5.35,22.49,5.35,31,0C198.61,482.83,200.68,479.4,200.75,475.89Z"/><path class="cls-13" d="M194.24,466.15c8.59,5.35,8.66,14.05.08,19.39s-22.42,5.35-31,0-8.66-14-.08-19.39S185.66,460.8,194.24,466.15Zm-27.59,17.32c6.73,4.23,17.68,4.23,24.34,0s6.66-11-.08-15.24-17.68-4.23-24.41,0-6.59,11,.15,15.24"/></g><g class="cls-9"><path class="cls-16" d="M215.18,461.6a8.25,8.25,0,0,0-3.62,4.23v-3.67a7.67,7.67,0,0,1,3.62-4.23c5.18-3.19,13.54-3.19,18.72,0,2.59,1.6,3.92,3.75,3.92,5.83v3.67c0-2.08-1.33-4.23-3.92-5.83C228.72,458.41,220.36,458.41,215.18,461.6Z"/><path class="cls-16" d="M211.56,465.83a5.34,5.34,0,0,0-.23,1.52v-3.67a5.34,5.34,0,0,1,.23-1.52v3.67Z"/><path class="cls-16" d="M237.75,463.84v3.67c0,2.07-1.26,4.23-3.85,5.82-5.18,3.19-13.54,3.19-18.72,0-2.59-1.59-3.92-3.75-3.92-5.9v-3.67c0,2.15,1.33,4.23,3.92,5.9,5.18,3.19,13.54,3.19,18.72,0C236.49,468,237.75,465.91,237.75,463.84Z"/><path class="cls-16" d="M233.9,457.93c5.18,3.19,5.18,8.46.07,11.65s-13.54,3.19-18.72,0-5.17-8.46-.07-11.65S228.72,454.74,233.9,457.93Z"/><path class="cls-17" d="M215.18,460c5.18-3.2,13.54-3.2,18.72,0a7.64,7.64,0,0,1,3.77,4.86c.52-2.47-.81-5-3.77-6.86-5.18-3.19-13.54-3.19-18.72,0-3,1.84-4.22,4.39-3.77,6.86A7.72,7.72,0,0,1,215.18,460Z"/><path class="cls-17" d="M241.37,463.84v3.67c0,2.63-1.63,5.34-4.88,7.34-6.51,4.07-17.17,4.07-23.75,0-3.33-2.08-5-4.79-5-7.5v-3.67c0,2.71,1.63,5.42,5,7.5,6.58,4.07,17.24,4.07,23.75,0C239.74,469.18,241.37,466.47,241.37,463.84Z"/><path class="cls-16" d="M236.41,456.33c6.59,4.07,6.66,10.78.08,14.85s-17.17,4.07-23.75,0-6.66-10.78-.07-14.85S229.83,452.26,236.41,456.33Zm-21.16,13.25c5.18,3.19,13.54,3.19,18.72,0s5.11-8.46-.07-11.65-13.54-3.19-18.72,0-5.1,8.46.07,11.65"/></g><g class="cls-9"><path class="cls-16" d="M215.18,457.37a8.29,8.29,0,0,0-3.62,4.23v-3.67a7.67,7.67,0,0,1,3.62-4.23c5.18-3.19,13.54-3.19,18.72,0,2.59,1.6,3.92,3.75,3.92,5.83v3.67c0-2.08-1.33-4.23-3.92-5.83C228.72,454.18,220.36,454.18,215.18,457.37Z"/><path class="cls-16" d="M211.56,461.68a5.34,5.34,0,0,0-.23,1.52v-3.67a5.34,5.34,0,0,1,.23-1.52v3.67Z"/><path class="cls-16" d="M237.75,459.61v3.67c0,2.07-1.26,4.23-3.85,5.82-5.18,3.2-13.54,3.2-18.72,0-2.59-1.59-3.92-3.75-3.92-5.9v-3.67c0,2.15,1.33,4.23,3.92,5.9,5.18,3.19,13.54,3.19,18.72,0C236.49,463.84,237.75,461.68,237.75,459.61Z"/><path class="cls-16" d="M233.9,453.78c5.18,3.19,5.18,8.46.07,11.65s-13.54,3.19-18.72,0-5.17-8.46-.07-11.65S228.72,450.51,233.9,453.78Z"/><path class="cls-17" d="M215.18,455.78c5.18-3.2,13.54-3.2,18.72,0a7.64,7.64,0,0,1,3.77,4.86c.52-2.47-.81-5-3.77-6.86-5.18-3.19-13.54-3.19-18.72,0-3,1.84-4.22,4.39-3.77,6.86A7.72,7.72,0,0,1,215.18,455.78Z"/><path class="cls-17" d="M241.37,459.61v3.67c0,2.63-1.63,5.34-4.88,7.34-6.51,4.07-17.17,4.07-23.75,0-3.33-2.08-5-4.79-5-7.5v-3.67c0,2.71,1.63,5.42,5,7.5,6.58,4.07,17.24,4.07,23.75,0C239.74,465,241.37,462.32,241.37,459.61Z"/><path class="cls-16" d="M236.41,452.18c6.59,4.07,6.66,10.78.08,14.85s-17.17,4.07-23.75,0-6.66-10.78-.07-14.85S229.83,448,236.41,452.18Zm-21.16,13.25c5.18,3.19,13.54,3.19,18.72,0s5.11-8.46-.07-11.65-13.54-3.19-18.72,0-5.1,8.38.07,11.65"/></g><g class="cls-9"><path class="cls-16" d="M215.33,451.55a8.24,8.24,0,0,0-3.63,4.23v-3.67a7.66,7.66,0,0,1,3.63-4.23c5.18-3.2,13.54-3.2,18.72,0,2.59,1.59,3.92,3.75,3.92,5.82v3.67c0-2.07-1.33-4.23-3.92-5.82C228.79,448.27,220.43,448.27,215.33,451.55Z"/><path class="cls-16" d="M211.7,455.78a5.57,5.57,0,0,0-.22,1.51v-3.67a5.57,5.57,0,0,1,.22-1.51v3.67Z"/><path class="cls-16" d="M237.89,453.7v3.67c0,2.08-1.25,4.23-3.84,5.83-5.18,3.19-13.54,3.19-18.72,0-2.59-1.6-3.92-3.75-3.92-5.91v-3.67c0,2.16,1.33,4.23,3.92,5.91,5.18,3.19,13.54,3.19,18.72,0C236.64,457.93,237.89,455.86,237.89,453.7Z"/><path class="cls-16" d="M234,447.88c5.18,3.19,5.18,8.45.08,11.65s-13.54,3.19-18.72,0-5.18-8.46-.08-11.65S228.79,444.6,234,447.88Z"/><path class="cls-17" d="M215.33,449.87c5.18-3.19,13.54-3.19,18.72,0a7.69,7.69,0,0,1,3.77,4.87c.52-2.48-.81-5-3.77-6.86-5.18-3.2-13.54-3.2-18.72,0-3,1.83-4.22,4.38-3.77,6.86A7.7,7.7,0,0,1,215.33,449.87Z"/><path class="cls-17" d="M241.52,453.78v3.67c0,2.64-1.63,5.35-4.88,7.34-6.51,4.07-17.17,4.07-23.75,0-3.33-2.07-5-4.78-5-7.5v-3.67c0,2.71,1.63,5.43,5,7.5,6.58,4.07,17.24,4.07,23.75,0C239.89,459.13,241.52,456.41,241.52,453.78Z"/><path class="cls-16" d="M236.56,446.28c6.59,4.07,6.66,10.77.08,14.84s-17.17,4.07-23.75,0-6.66-10.77-.08-14.84S230,442.13,236.56,446.28ZM215.4,459.53c5.18,3.19,13.54,3.19,18.72,0s5.11-8.46-.07-11.65-13.54-3.2-18.72,0-5.11,8.45.07,11.65"/></g><g class="cls-9"><path class="cls-16" d="M217,447.64a8.24,8.24,0,0,0-3.63,4.23v-3.68A7.63,7.63,0,0,1,217,444c5.18-3.2,13.54-3.2,18.71,0,2.59,1.59,3.93,3.75,3.93,5.82v3.67c0-2.07-1.34-4.23-3.93-5.82C230.5,444.36,222.06,444.36,217,447.64Z"/><path class="cls-16" d="M213.33,451.87a5.21,5.21,0,0,0-.22,1.51v-3.67a5.32,5.32,0,0,1,.22-1.52v3.68Z"/><path class="cls-16" d="M239.52,449.79v3.67c0,2.08-1.26,4.23-3.85,5.83-5.17,3.19-13.53,3.19-18.71,0-2.59-1.6-3.92-3.75-3.92-5.91v-3.67c0,2.16,1.33,4.23,3.92,5.91,5.18,3.19,13.54,3.19,18.71,0C238.26,454,239.52,452,239.52,449.79Z"/><path class="cls-16" d="M235.67,444c5.18,3.19,5.18,8.45.08,11.65s-13.54,3.19-18.72,0-5.18-8.46-.07-11.65S230.5,440.69,235.67,444Z"/><path class="cls-17" d="M217,446c5.18-3.19,13.54-3.19,18.71,0a7.68,7.68,0,0,1,3.78,4.87c.52-2.48-.82-5-3.78-6.86-5.17-3.2-13.53-3.2-18.71,0-3,1.83-4.22,4.38-3.78,6.86A7.72,7.72,0,0,1,217,446Z"/><path class="cls-17" d="M243.15,449.87v3.67c0,2.63-1.63,5.35-4.89,7.34-6.51,4.07-17.16,4.07-23.75,0-3.32-2.07-4.95-4.78-4.95-7.5v-3.67c0,2.71,1.63,5.43,4.95,7.5,6.59,4.07,17.24,4.07,23.75,0C241.52,455.22,243.15,452.5,243.15,449.87Z"/><path class="cls-16" d="M238.19,442.37c6.58,4.07,6.66,10.77.07,14.84s-17.16,4.07-23.75,0-6.65-10.77-.07-14.84S231.61,438.22,238.19,442.37ZM217,455.62c5.18,3.19,13.54,3.19,18.72,0s5.1-8.46-.08-11.65-13.53-3.2-18.71,0-5.11,8.45.07,11.65"/></g></g></svg>