<?xml version="1.0" encoding="utf-8"?>
<!-- Generator: Adobe Illustrator 22.1.0, SVG Export Plug-In . SVG Version: 6.00 Build 0)  -->
<svg version="1.1" id="Capa_1" xmlns="http://www.w3.org/2000/svg" xmlns:xlink="http://www.w3.org/1999/xlink" x="0px" y="0px"
	 viewBox="0 0 992.1 560" style="enable-background:new 0 0 992.1 560;" xml:space="preserve">
<g>
	<path d="M590.9,156v-10.2c0-5.6-4.3-10.2-9.5-10.2H391.4c-5.2,0-9.5,4.6-9.5,10.2v10.2c0,5,3.4,8.9,7.8,9.8c0,1.6,0,3.3,0,4.8
		c-0.2,24.9,6.1,39.4,65.5,96.8c0.5,0.4,2.9,2.3,5.5,6.1c2.7,3.7,5,8.7,5,14.3c0,5.5-2.4,10.5-5,14.3c-2.6,3.7-5.1,5.6-5.1,5.7
		c-59.9,57.7-66.2,72.3-66,97.2c0,1.5,0,3.1,0,4.6c-4.4,0.9-7.8,4.9-7.8,9.8v10.2c0,5.6,4.3,10.2,9.5,10.2h190
		c5.2,0,9.5-4.6,9.5-10.2v-10.2c0-5-3.4-8.9-7.8-9.8c0-1.5,0-3.1,0-4.6c0.2-24.9-6.1-39.5-65.5-96.8c-0.5-0.4-2.9-2.4-5.5-6.1
		c-2.7-3.7-5.1-8.7-5-14.3c0-5.5,2.4-10.6,5-14.3c2.6-3.7,5.1-5.6,5.1-5.7c59.9-57.8,66.2-72.3,66-97.2c0-1.5,0-3.2,0-4.8
		C587.5,164.9,590.9,160.9,590.9,156z M570.3,170.6c-0.2,20.1-1.2,27.7-61.3,86.6c0.1,0.1-14.4,11-14.8,30.6
		c0.4,19.6,14.8,30.5,15.2,31c59.6,58.5,60.6,66,60.8,86.1c0,1.1,0,2.2,0,3.3c-23,0-83.8,0-83.9,0c0,0-60.9,0-83.9,0
		c0-1.2,0-2.3,0-3.4c0.2-20.1,1.3-27.6,61.3-86.5c-0.1-0.1,14.4-11,14.8-30.6c-0.4-19.6-14.8-30.5-15.2-31
		c-59.6-58.5-60.6-66-60.9-86.1c0-1.1,0-2.2,0-3.3c23,0,83.9,0,83.9,0c0,0,60.8,0,83.9,0C570.3,168.4,570.3,169.5,570.3,170.6z"/>
	<path d="M555,371.7c-0.7-1-1.9-1.5-3.2-1.5c-37,2.5-34.5-16.4-51.2-23.7c-2.8-1.2-7.8-5.8-7.8-11.7c0-5.9,0-52.2,0-52.2
		c0-4.4,0.1-8.2,0.2-11.6c0-0.6,0.2-1.2,0.5-1.7c3.1-5.2,7-10.7,11.9-16.3c0,0,0,0,0-0.1c2-2.2,0.7-5.7-2.2-6.1
		c-5.5-0.7-11.7-1.2-18.4-1.2c-5.6,0-10.7,0.4-15.4,0.9c-2.4,0.3-3.9,2.7-3,5c0.2,0.4,0.3,0.9,0.5,1.3c3.9,9.8,9.3,17.4,14.4,23.2
		c0.6,0.6,0.9,1.4,0.9,2.3c0.1,1.4,0.1,2.8,0.1,4.3c0,0,0,48.4,0,52.5c0,4.1-1.3,6.5-8,12.1c-6.7,5.6-13.7,1.3-23.2,6.4
		c-11.2,6-10.7,15.9-32.5,18.5c-1,0.1-1.9,0.7-2.5,1.5c-8.4,11.5-10.3,18.8-10.7,27.5c-0.1,2.1,1.6,3.8,3.7,3.8h77.1h77.1
		c2.1,0,3.8-1.8,3.7-3.9C566.8,392,564.7,384.4,555,371.7z"/>
</g>
</svg>
