<?xml version="1.0" encoding="utf-8"?>
<!-- Generator: Adobe Illustrator 22.1.0, SVG Export Plug-In . SVG Version: 6.00 Build 0)  -->
<svg version="1.1" id="Capa_1" xmlns="http://www.w3.org/2000/svg" xmlns:xlink="http://www.w3.org/1999/xlink" x="0px" y="0px"
	 viewBox="0 0 992.1 560" style="enable-background:new 0 0 992.1 560;" xml:space="preserve">
<style type="text/css">
	.st0{fill:#32D61A;}
	.st1{fill:#BAE8E8;}
</style>
<g>
	<path class="st0" d="M628,284.3L628,284.3c-0.3-0.6-0.7-1.1-1.4-1.5c-2.6-1.5-3-4.7-1.3-6.7c0.4-0.5,0.6-1.1,0.7-1.6
		c0-0.5,0.1-0.9,0.2-1.5c0.1-0.3,0.1-0.6,0.2-0.9c0,0,0,0,0-0.1c0.1-0.4,0.2-0.8,0.3-1.2c-0.2-0.2-0.4-0.4-0.6-0.7
		c-0.6-0.9-1.7-1.5-3-1.7c-22.6-3.5-27-16.3-56.5-16.3c-7,0.2-12.1,0.7-16.7,1.6c-3.1,0.5-5.5,1.4-8.1,2.3c-0.1,0-0.2,0.1-0.3,0.1
		c-2.2,0.9-4.5,1.9-6.7,2.8c-2.1,0.8-3.9,1.9-6,3.2c-0.2,0.1-0.5,0.3-0.8,0.4c-2.1,0.9-4.4,1.9-6.5,2.7c-2.3,0.9-5.1,2-8.3,2.3
		c-4.6,0.9-9.7,1.4-16.1,1.4c-12.9,0-21.2-2.3-28.1-5.2c-2.1-0.8-4.2-1.8-6-3.1c-0.3-0.2-0.6-0.4-1-0.6c-1.9-0.8-3.6-1.8-5.5-3
		c-0.2-0.1-0.5-0.3-0.7-0.4c-4.4-1.9-9.3-3.6-15.8-4.6c-0.2,0-0.5-0.1-0.7-0.1c-1.8-0.1-3.4-0.5-5.2-0.5h-0.8
		c0.4,23,4.1,45.9,5.4,68.8c0.4,6.6,0.7,13.4,0.6,20.3c0,0.1,0,0.3,0,0.4l13.2,100.6c0.9,7.2,6.9,12.4,13.9,12.4h129.8
		c6.9,0,12.9-5.2,13.9-12.4l19-145.4c0.1-1-0.3-2-1.1-2.7c-1.6-1.6-1.8-4.1-0.4-5.9C628.4,286.7,628.4,285.4,628,284.3z"/>
	<g>
		<g>
			<path d="M596.3,374.9c-3-1.8-8.7-1.7-13.4-1.3L571.6,363c1.2-0.9,2-2.1,2.4-3.7c0,0,2.4-5.3-3.6-12c0,0-1.6-6.5,0.4-13.4
				c1.8-6.1,2.3-15.7-0.9-24.6l13.1-12.3c4.7,0.5,10.4,0.5,13.4-1.3c0.8-0.4,1.5-0.9,2.2-1.5c2.3-2.1,3-5.2,2.2-7.9
				c-0.4-1.3-1.1-2.4-2.2-3.4c-1.9-1.8-4.4-2.5-6.8-2.3c0.2-2.3-0.6-4.7-2.5-6.4c-1.1-1-2.3-1.7-3.7-2c-2.9-0.8-6.1-0.1-8.4,2
				c-0.7,0.6-1.2,1.3-1.6,2c-1.9,2.8-1.8,8.2-1.3,12.6l-10.6,9.9c-2-2.2-4.3-4.3-7.2-6c-5.5-3.3-11.7-6.1-25.1-6.3
				c-8.5-0.1-20.8,1.4-30.1,10.5l-8.6-8.1c0.5-4.4,0.6-9.8-1.4-12.6c-0.4-0.7-0.9-1.4-1.6-2c-2.3-2.1-5.5-2.8-8.4-2
				c-1.3,0.4-2.6,1-3.7,2c-1.9,1.8-2.7,4.1-2.5,6.4c-2.4-0.2-5,0.6-6.8,2.3c-1.1,1-1.8,2.2-2.2,3.5c-0.8,2.7-0.1,5.8,2.2,7.9
				c0.7,0.6,1.4,1.1,2.2,1.5c3,1.8,8.7,1.7,13.4,1.3l10.3,9.7c-0.9,1.8-1.8,3.8-2.5,5.9c0,0-3.7,11.9,2,28.4c0,0,0.5,4.8-2.9,8.2
				c-2.8,2.8-5.5,11.5,3.1,14.9l-10,9.4c-4.7-0.5-10.4-0.5-13.4,1.3c-0.8,0.4-1.5,0.8-2.2,1.5c-2.3,2.1-3,5.2-2.2,7.9
				c0.4,1.3,1.1,2.5,2.2,3.5c1.9,1.8,4.4,2.5,6.8,2.3c-0.2,2.3,0.6,4.7,2.5,6.4c1.1,1,2.3,1.7,3.7,2c2.9,0.8,6.1,0.1,8.4-2
				c0.7-0.6,1.2-1.3,1.6-2c1.9-2.8,1.8-8.2,1.3-12.6l15.6-14.6c1.1,1.8,2.3,5.4,2.9,12.8c0,0,0.4,5.2,5.3,4.4c0,0,2.5-0.1,2.9-10
				c0,0,2.8-2.5,2.6,3.4c0,0-0.7,6.9,3.9,6.5c0,0,2.6,1.5,3.7-6.1c0,0,0-6.6,2.5-4.1c0,0,0.7,9.6,3.7,10.6c0,0,4.2,1.2,5-4
				c0,0,0-8.4,2.3-6.9c0,0,0.9,0.6,1,5.6c0,0-0.1,5.4,3.5,5.1c0,0,3.8,0,4.8-8.2c0,0-0.6-9.2,4.3-10.8l17.4,16.4
				c-0.5,4.4-0.6,9.8,1.4,12.6c0.4,0.7,0.9,1.4,1.6,2c2.3,2.1,5.5,2.8,8.4,2c1.3-0.4,2.6-1,3.7-2c1.9-1.8,2.7-4.1,2.5-6.4
				c2.4,0.2,5-0.6,6.8-2.3c1.1-1,1.8-2.2,2.2-3.4c0.8-2.7,0.1-5.8-2.2-7.9C597.9,375.7,597.1,375.3,596.3,374.9z M510.5,354.7
				c-1.7-0.3-3.2-0.9-4.5-1.6c-4.4-2.4-6.9-6.8-6-11.1c1.2-5.7,7.9-9.2,15-7.9c2.9,0.6,5.4,1.9,7.3,3.7c2.6,2.5,3.9,5.8,3.2,9.1
				C524.2,352.5,517.5,356,510.5,354.7z M535.7,362.2c-0.5,0.3-1.1,0.5-1.7,0.5c-1.1,0-2.1-0.6-2.7-1.6c-0.6,1-1.6,1.6-2.7,1.6
				c-0.6,0-1.2-0.2-1.7-0.5c-1.1-0.8-1.8-2.2-1.8-3.9c0-0.5,0.1-0.9,0.2-1.4c0.6-3.4,6-7.7,6-7.7s5.4,4.3,6,7.7
				c0.1,0.4,0.2,0.9,0.2,1.4C537.5,360.1,536.8,361.5,535.7,362.2z M559,351.1c-1.8,1.7-4.3,3-7.2,3.5c-2.4,0.5-4.7,0.3-6.8-0.2
				c-4.1-1.1-7.4-3.9-8.2-7.6l0-0.1c-0.9-4.3,1.5-8.5,5.8-10.9c1.4-0.8,3-1.4,4.7-1.7c7-1.3,13.7,2.2,15,7.9
				C563.1,345.3,561.7,348.6,559,351.1z"/>
		</g>
	</g>
	<path class="st1" d="M431.9,134.2c-5,0-8.8,8.4-8.3,17.6l13.8,189.1h0.4l0,0c2.1,0,3.8,0,5.4,0c1.6,0,3.4,0.8,5,0.8
		c6.3,1.5,10.8,4.6,15.1,7.6c2.1,1.5,4.2,3,5.9,5.4c2.1,1.5,3.8,3,5.9,5.4c6.3,4.6,13.8,8.4,25.6,8.4c5.9,0,10.5-0.8,14.6-2.3
		c2.9-0.8,5-2.3,7.5-3.9c2.1-1.5,4.2-3,6.3-4.6c2.1-1.5,3.8-3,5.9-5.4c2.1-1.5,4.2-3,6.3-4.6c2.1-1.5,4.6-3,7.5-3.9
		c4.2-1.5,8.8-2.3,14.6-2.3c30.6,0,31.4,26.1,59.8,27.6l15.9-216.7c0.9-9.2-3.4-17.6-8.3-17.6H431.9V134.2z"/>
</g>
</svg>
