<?xml version="1.0" encoding="utf-8"?>
<!-- Generator: Adobe Illustrator 22.1.0, SVG Export Plug-In . SVG Version: 6.00 Build 0)  -->
<svg version="1.1" id="Capa_1" xmlns="http://www.w3.org/2000/svg" xmlns:xlink="http://www.w3.org/1999/xlink" x="0px" y="0px"
	 viewBox="0 0 1205 1196" style="enable-background:new 0 0 1205 1196;" xml:space="preserve">
<g>
	<path d="M917,192.2v-35.1c0-19.4-14.8-35.1-32.9-35.1H225.9c-18.2,0-32.9,15.7-32.9,35.1v35.1c0,17.1,11.7,30.8,26.8,33.9
		c0,5.6-0.2,11.4-0.2,16.7c-0.7,85.9,21.1,136,226.9,334.2c1.6,1.2,10.1,8.1,19.3,21.1c9.2,12.8,17.5,30.1,17.5,49.3
		c0,19-8.1,36.3-17.5,49.3c-9.2,12.8-17.8,19.2-17.6,19.6C240.7,915.6,218.9,966,219.6,1051.8c0,5.2,0.2,10.7,0.2,15.9
		c-15.1,3.1-26.8,16.7-26.8,33.9v35.1c0,19.4,14.8,35.3,32.9,35.3h658.1c18.2,0,32.9-15.7,32.9-35.1v-35.1c0-17.1-11.7-30.8-27-33.9
		c0-5.2,0.2-10.7,0.2-15.7c0.7-86.1-21.1-136.3-226.9-334.2c-1.6-1.4-10.1-8.1-19.1-20.9c-9.2-12.8-17.5-30.1-17.5-49.3
		c-0.2-19.2,8.1-36.5,17.5-49.3c9-12.8,17.6-19.2,17.6-19.6c207.5-199.4,229.1-249.6,228.6-335.5c0-5.2,0-11.1-0.2-16.7
		C905.3,223.2,917,209.3,917,192.2z M845.4,242.8c-0.7,69.4-4.1,95.6-212.2,298.9c0.2,0.4-49.9,37.8-51.1,105.7
		c1.3,67.7,51.5,105.1,52.7,106.9c206.2,201.9,210,227.9,210.6,297.5c0,3.7,0,7.4,0,11.6c-79.7,0-290.1,0-290.5,0
		c0,0-210.7,0-290.5,0c0-4.1,0-8.1,0-11.8c0.7-69.4,4.3-95.4,212.4-298.7c-0.4-0.4,50-37.8,51.3-105.5
		c-1.3-67.9-51.5-105.3-52.7-107.1C268.6,337.9,265.2,312.1,264.4,242.8c0-3.7,0-7.4,0-11.6c79.7,0,290.5,0,290.5,0s210.6,0,290.5,0
		C845.4,235.1,845.4,239.1,845.4,242.8z"/>
	<path d="M792.6,937.1c-2.5-3.3-6.7-5.4-11-5c-128,8.7-119.5-56.4-177.4-81.8c-9.5-4.1-27.2-20-27.2-40.3c0-20.4,0-180.2,0-180.2
		c0-15.3,0.4-28.5,0.7-40.1c0.2-2.1,0,0,1.8-6c6.1-20.4,24.3-37,41.4-56.2l0.2-0.2c6.8-7.6,2.5-19.8-7.7-21.1
		c-19.1-2.5-40.3-4.3-63.7-4.3c-19.3,0-37.1,1.2-53.3,3.1c-8.3,1-13.3,9.5-10.4,17.1c0.5,1.4,1.1,2.9,1.8,4.5
		c5.8,14.5,25.2,26.4,32.4,38.2c9.5,15.7,14.8,30.6,17.5,42.1c0.7,3.1,3.1,5,3.2,7.8c0.2,4.7,0.4,9.7,0.4,14.9c0,0,0,167,0,181.5
		c0,14.2-4.5,22.3-27.7,41.7c-23.2,19.4-47.3,4.3-80.3,21.9c-38.9,20.9-37.3,54.9-112.7,64c-3.4,0.4-6.7,2.3-8.6,5
		c-29,39.8-35.6,65-37.1,94.8c-0.4,7.2,5.4,13.2,12.8,13.2h266.9h266.9c7.2,0,13-6,12.8-13.2C833.3,1007.3,826.1,980.8,792.6,937.1z
		"/>
</g>
</svg>
