<?xml version="1.0" encoding="utf-8"?>
<!-- Generator: Adobe Illustrator 22.1.0, SVG Export Plug-In . SVG Version: 6.00 Build 0)  -->
<svg version="1.1" id="Capa_1" xmlns="http://www.w3.org/2000/svg" xmlns:xlink="http://www.w3.org/1999/xlink" x="0px" y="0px"
	 viewBox="0 0 992.1 560" style="enable-background:new 0 0 992.1 560;" xml:space="preserve">
<g>
	<path d="M708.2,60.2V43.2c0-9.4-8.2-17-18.3-17H324.2c-10.1,0-18.3,7.6-18.3,17v17c0,8.3,6.5,14.9,14.9,16.4c0,2.7-0.1,5.5-0.1,8.1
		c-0.4,41.6,11.7,65.9,126.1,161.9c0.9,0.6,5.6,3.9,10.7,10.2c5.1,6.2,9.7,14.6,9.7,23.9c0,9.2-4.5,17.6-9.7,23.9
		c-5.1,6.2-9.9,9.3-9.8,9.5c-115.3,96.5-127.4,120.9-127,162.5c0,2.5,0.1,5.2,0.1,7.7c-8.4,1.5-14.9,8.1-14.9,16.4v17
		c0,9.4,8.2,17.1,18.3,17.1h365.7c10.1,0,18.3-7.6,18.3-17v-17c0-8.3-6.5-14.9-15-16.4c0-2.5,0.1-5.2,0.1-7.6
		c0.4-41.7-11.7-66-126.1-161.9c-0.9-0.7-5.6-3.9-10.6-10.1c-5.1-6.2-9.7-14.6-9.7-23.9c-0.1-9.3,4.5-17.7,9.7-23.9
		c5-6.2,9.8-9.3,9.8-9.5c115.3-96.6,127.3-120.9,127-162.5c0-2.5,0-5.4-0.1-8.1C701.7,75.2,708.2,68.6,708.2,60.2z M668.4,84.7
		c-0.4,33.6-2.3,46.3-117.9,144.8c0.1,0.2-27.7,18.3-28.4,51.2c0.7,32.8,28.6,50.9,29.3,51.8c114.6,97.8,116.7,110.4,117,144.1
		c0,1.8,0,3.6,0,5.6c-44.3,0-161.2,0-161.4,0c0,0-117.1,0-161.4,0c0-2,0-3.9,0-5.7c0.4-33.6,2.4-46.2,118-144.7
		c-0.2-0.2,27.8-18.3,28.5-51.1c-0.7-32.9-28.6-51-29.3-51.9C348,130.9,346,118.3,345.6,84.7c0-1.8,0-3.6,0-5.6
		c44.3,0,161.4,0,161.4,0c0,0,117,0,161.4,0C668.4,81.1,668.4,82.9,668.4,84.7z"/>
	<path d="M636.8,418.6c-0.1-0.1-0.2-0.1-0.3-0.1c-74.8,5.4-69.4-26.9-102.1-39.3c-5.3-2-15.1-9.7-15.1-19.5c0-9.9,0-87.3,0-87.3
		c0-8,0.2-14.9,0.5-20.9c0,0,0-0.1,0-0.1c5.4-10.6,13.4-20.4,23.9-28.4c25.7-21.9,20.7-16.4,36.2-30.8c0.2-0.2,24.9-23.6,24.6-23.6
		c-41.2,1.2-44.9,22.9-72.3,9.4c-16.3-7.6-33.9,3.4-58-2.3c-20.3-4.8-44.6-7.9-61.1-2.5c-0.2,0.1-0.2-0.2,0,0
		c16.7,16.7,20.6,18.7,56.6,49.4c14.8,11.4,25,24.8,29.4,40.5c0,0,0,0.1,0,0.1c0.1,3,0.3,6,0.3,9.3c0,0,0,80.9,0,87.9
		c0,6.9-2.5,10.8-15.4,20.2c-12.9,9.4-26.3,2.1-44.6,10.6c-22.1,10.3-20.6,27.3-65.4,31.2c-0.1,0-0.2,0.1-0.2,0.1
		c-20,23.2-22.4,36.3-22.5,54.1c0,0.2,0.2,0.3,0.3,0.3H507h155.2c0.2,0,0.3-0.2,0.3-0.3C662.5,457.8,659.8,444.3,636.8,418.6z"/>
</g>
</svg>
