<?xml version="1.0" encoding="utf-8"?>
<!-- Generator: Adobe Illustrator 22.1.0, SVG Export Plug-In . SVG Version: 6.00 Build 0)  -->
<svg version="1.1" id="Capa_1" xmlns="http://www.w3.org/2000/svg" xmlns:xlink="http://www.w3.org/1999/xlink" x="0px" y="0px"
	 viewBox="0 0 992.1 560" style="enable-background:new 0 0 992.1 560;" xml:space="preserve">
<g>
	<path d="M708.2,59.8V42.8c0-9.4-8.2-17-18.3-17H324.2c-10.1,0-18.3,7.6-18.3,17v17c0,8.3,6.5,14.9,14.9,16.4c0,2.7-0.1,5.5-0.1,8.1
		c-0.4,41.6,11.7,65.9,126.1,161.9c0.9,0.6,5.6,3.9,10.7,10.2c5.1,6.2,9.7,14.6,9.7,23.9c0,9.2-4.5,17.6-9.7,23.9
		c-5.1,6.2-9.9,9.3-9.8,9.5c-115.3,96.5-127.4,120.9-127,162.5c0,2.5,0.1,5.2,0.1,7.7c-8.4,1.5-14.9,8.1-14.9,16.4v17
		c0,9.4,8.2,17.1,18.3,17.1h365.7c10.1,0,18.3-7.6,18.3-17v-17c0-8.3-6.5-14.9-15-16.4c0-2.5,0.1-5.2,0.1-7.6
		c0.4-41.7-11.7-66-126.1-161.9c-0.9-0.7-5.6-3.9-10.6-10.1c-5.1-6.2-9.7-14.6-9.7-23.9c-0.1-9.3,4.5-17.7,9.7-23.9
		c5-6.2,9.8-9.3,9.8-9.5c115.3-96.6,127.3-120.9,127-162.5c0-2.5,0-5.4-0.1-8.1C701.7,74.8,708.2,68.1,708.2,59.8z M668.4,84.3
		c-0.4,33.6-2.3,46.3-117.9,144.8c0.1,0.2-27.7,18.3-28.4,51.2c0.7,32.8,28.6,50.9,29.3,51.8c114.6,97.8,116.7,110.4,117,144.1
		c0,1.8,0,3.6,0,5.6c-44.3,0-161.2,0-161.4,0c0,0-117.1,0-161.4,0c0-2,0-3.9,0-5.7c0.4-33.6,2.4-46.2,118-144.7
		c-0.2-0.2,27.8-18.3,28.5-51.1c-0.7-32.9-28.6-51-29.3-51.9C347.9,130.4,346,117.9,345.6,84.3c0-1.8,0-3.6,0-5.6
		c44.3,0,161.4,0,161.4,0c0,0,117,0,161.4,0C668.4,80.6,668.4,82.5,668.4,84.3z"/>
	<path d="M639.1,420.6c-1.4-1.6-3.7-2.6-6.1-2.4c-71.1,4.2-66.4-27.3-98.6-39.6c-5.3-2-15.1-9.7-15.1-19.5c0-9.9,0-87.3,0-87.3
		c0-7.4,0.2-13.8,0.4-19.4c0.1-1,0,0,1-2.9c3.4-9.9,13.5-17.9,23-27.2c0,0,0.1-0.1,0.1-0.1c3.8-3.7,1.4-9.6-4.3-10.2
		c-10.6-1.2-22.4-2.1-35.4-2.1c-10.7,0-20.6,0.6-29.6,1.5c-4.6,0.5-7.4,4.6-5.8,8.3c0.3,0.7,0.6,1.4,1,2.2c3.2,7,14,12.8,18,18.5
		c5.3,7.6,8.2,14.8,9.7,20.4c0.4,1.5,1.7,2.4,1.8,3.8c0.1,2.3,0.2,4.7,0.2,7.2c0,0,0,80.9,0,87.9c0,6.9-2.5,10.8-15.4,20.2
		c-12.9,9.4-26.3,2.1-44.6,10.6c-21.6,10.1-20.7,26.6-62.6,31c-1.9,0.2-3.7,1.1-4.8,2.4c-16.1,19.3-19.8,31.5-20.6,45.9
		c-0.2,3.5,3,6.4,7.1,6.4h148.3h148.3c4,0,7.2-2.9,7.1-6.4C661.7,454.6,657.7,441.8,639.1,420.6z"/>
</g>
</svg>
